# https://github.com/mikedh/trimesh
v 0.03018721 0.26635320 1.98195477
v -0.13212594 -0.05255747 1.99493871
v 0.34588214 -0.19571892 1.96011725
v -0.11068355 0.31498992 1.97193572
v -0.14494257 -0.56221633 1.91387159
v 0.34065169 0.13185273 1.96635991
v -0.66491481 -0.00284705 1.88623440
v 0.33144327 -0.24699671 1.95681833
v 0.02417498 0.65163963 1.89070922
v -0.35334592 -0.66850334 1.85155338
v 0.78108548 0.21450348 1.82863166
v -0.68781345 0.30880629 1.85244469
v -0.01702672 -0.55464922 1.92147712
v 0.40905865 0.78247478 1.79454848
v -0.69127141 -0.20512169 1.86549429
v 0.70625657 -0.23768462 1.85599237
v -0.48096052 0.80991513 1.76428866
v -0.14431390 -0.72924698 1.85671008
v 0.75935354 0.63251620 1.73876550
v -0.68295413 0.29489797 1.85650447
v 0.62011918 -0.63906977 1.79082161
v 0.12275976 0.99355346 1.73141028
v -0.69735441 -0.59188913 1.77858485
v 0.77644974 -0.06306078 1.84205026
v -0.67430172 0.46338907 1.82498980
v -0.28786267 -1.04876829 1.67845767
v 0.71282101 0.62177844 1.76217984
v -0.94186182 -0.11988266 1.76026261
v 0.95089915 -0.71110111 1.60938685
v -0.06269718 0.94979160 1.75896702
v -0.52315082 -0.95778433 1.67599594
v 0.95120654 0.51954828 1.68085565
v -0.81508610 0.86970065 1.60600605
v 0.45114177 -1.13200668 1.58588524
v 0.25725291 0.99400561 1.71632567
v -1.21957844 -0.26356291 1.56306206
v 0.94821519 -0.37857142 1.71975918
v -0.30319776 0.97609073 1.71910384
v -0.07436167 -1.32715788 1.49436351
v 1.08943897 0.48948958 1.60422027
v -1.13144045 -0.01623953 1.64911455
v 0.81527330 -1.09637495 1.46057914
v -0.06410386 1.22308726 1.58112247
v -1.08474677 -0.65370372 1.54790048
v 1.20253961 -0.21781724 1.58317849
v -0.89590546 0.72098788 1.63631595
v 0.21481290 -1.38596695 1.42581592
v 0.71360923 1.19674333 1.43477081
v -1.25662679 -0.22892749 1.53898711
v 1.16430433 -0.65217499 1.48965204
v -0.62487024 1.08977458 1.55625465
v -0.63987234 -1.32467907 1.35491282
v 1.32364118 0.47276603 1.42283742
v -1.22607145 0.38554150 1.53235327
v 0.22883707 -1.40798251 1.40186263
v 0.04751468 1.34894825 1.47583230
v -1.36722086 -0.65237521 1.30580002
v 1.43313989 -0.36001574 1.34777547
v -0.62787496 1.28057506 1.40210576
v -0.44291194 -1.33008466 1.42643044
v 0.89749164 0.96481678 1.50453891
v -1.37899182 0.07134615 1.44682110
v 0.96427220 -0.89712270 1.50510796
v -0.40847669 1.33687235 1.43035629
v -0.89922301 -1.32019596 1.20352840
v 1.58308153 -0.23032516 1.20033462
v -1.13598322 0.77618563 1.45157776
v 0.50833220 -1.31620511 1.41746340
v 0.64148377 1.35406618 1.32476540
v -1.34346719 -0.31371329 1.44799167
v 1.32601324 -0.73842829 1.30246403
v -0.60259081 1.47585882 1.20777691
v -0.17536483 -1.60804194 1.17620079
v 1.16845294 1.02480945 1.25876261
v -1.47156808 0.56300429 1.23187401
v 0.82337883 -1.36481378 1.20802758
v 0.51761803 1.57029407 1.12527691
v -0.98560207 -1.35433148 1.09287455
v 1.46965523 -0.09750475 1.35299902
v -1.09597862 1.19937616 1.16633087
v 0.46519571 -1.62756255 1.06519157
v 1.00789705 1.14025774 1.29767323
v -1.50027724 -0.42910035 1.25101602
v 1.47300281 -0.60955521 1.20776868
v -0.56210308 1.51735304 1.17544879
v -1.01322860 -1.41535307 0.98495863
v 1.44003034 0.61884628 1.24231313
v -1.59544531 0.68393908 0.99336881
v 0.58613971 -1.62947863 1.00061963
v 0.90108811 1.36175853 1.15483935
v -1.58900494 -0.28379705 1.18089904
v 1.44854553 -0.74332258 1.16154525
v -1.13835417 1.27995293 1.03240994
v -0.74938265 -1.49444158 1.09775681
v 1.40146799 1.07053301 0.94331678
v -1.62960004 -0.10040463 1.15512883
v 0.75545317 -1.62477496 0.88848007
v -0.31642644 1.72731500 0.95721324
v -1.02206877 -1.45140749 0.92129893
v 1.77459848 0.36655926 0.84642457
v -1.49206484 0.90173541 0.98011008
v 0.33250943 -1.76993992 0.86991388
v 1.07213717 1.27896161 1.10217017
v -1.74105944 -0.27971137 0.94364908
v 1.35476625 -1.20023603 0.85090650
v -0.03771059 1.84610896 0.76841370
v -0.31400670 -1.80447354 0.80329012
v 1.78215770 0.49890207 0.75829456
v -1.75492267 0.35095864 0.89279027
v 0.90113064 -1.45886172 1.02941054
v 0.05566741 1.86120596 0.72994075
v -1.67622855 -0.59692347 0.91320327
v 1.60340925 -0.73835745 0.94016331
v -1.05909005 1.53336174 0.72603722
v 0.22000423 -1.73776785 0.96527769
v 1.55703026 0.96067089 0.80794072
v -1.70959939 -0.26066811 1.00465023
v 1.31392553 -1.21926364 0.88712788
v 0.35220411 1.75560916 0.89094822
v -1.02493801 -1.49940855 0.83742228
v 1.64217037 0.78018201 0.83342217
v -1.64911840 0.86199480 0.73305762
v -0.00473526 -1.86773327 0.71522723
v 0.35299043 1.73515926 0.92984950
v -1.80885795 -0.19738574 0.83010348
v 1.62468131 -0.73616085 0.90469766
v -1.13416031 1.54313881 0.57654402
v -0.06792298 -1.92476348 0.53914007
v 1.54481076 1.00964062 0.77083432
v -1.92894069 0.04979402 0.52603076
v 0.87326873 -1.70519522 0.57420467
v 0.30934303 1.90580406 0.52174495
v -1.49842878 -1.04082095 0.81939181
v 1.87902789 0.10806932 0.67644306
v -1.56443277 1.14271586 0.49673994
v -0.35266979 -1.78763606 0.82460980
v 1.40197301 1.28481917 0.61944441
v -1.93667600 -0.11586173 0.48565638
v 1.34968356 -1.24101631 0.79889474
v -0.09562624 1.94385102 0.46075899
v -0.79194819 -1.71755662 0.65024405
v 1.82699046 0.35659218 0.73140131
v -1.52141019 1.22844589 0.41979963
v 0.31011620 -1.92929414 0.42620662
v 0.89170040 1.69275400 0.58262705
v -1.39251417 -1.27297062 0.66366414
v 1.94197068 -0.23195257 0.41826770
v -0.64719589 1.85537359 0.37245984
v -0.71617188 -1.77124687 0.59142402
v 1.52630251 1.20363070 0.47082244
v -1.86935130 0.21664157 0.67719433
v 1.37443041 -1.34015197 0.56118957
v -0.51284711 1.85171486 0.55510352
v -1.70806374 -0.99723289 0.29672347
v 1.82960902 0.53377863 0.60630949
v -1.76741598 0.70320896 0.61784942
v 0.45816371 -1.92858498 0.26579313
v 0.78382611 1.79715771 0.39476674
v -1.91713812 -0.17730719 0.54142735
v 1.81840094 -0.69951307 0.45177373
v -0.40211416 1.92869577 0.34414654
v -1.05272453 -1.62490303 0.50145907
v 1.69463644 0.91159530 0.54516177
v -1.86616358 0.69873114 0.17090438
v 1.29840751 -1.50997250 0.18471866
v -0.00998251 1.93702298 0.49783764
v -1.27542945 -1.51565743 0.27579390
v 1.93873933 -0.10618437 0.47959849
v -0.86839374 1.78542626 0.24113355
v -0.59921583 -1.90504544 0.10836177
v 1.36597069 1.44564081 0.21034907
v -1.94541708 -0.01747732 0.46373154
v 1.61008247 -1.14881805 0.29639761
v -0.34028774 1.94552764 0.31484356
v -1.29337848 -1.48604154 0.34475012
v 1.98859447 0.10710839 0.18444464
v -1.93537133 0.44604793 0.23532759
v 1.10275346 -1.66083809 0.15984878
v 0.69592803 1.86324148 0.20979835
v -1.96373050 -0.24039666 0.29320976
v 1.95333219 -0.25108963 0.34849298
v -0.78849649 1.82885042 0.18324684
v -0.93284556 -1.74336271 0.30080828
v 1.82154217 0.77316012 0.29018536
v -1.99726811 0.10357827 0.01384305
v 1.04567661 -1.70444499 0.03778506
v 0.37772190 1.96400429 0.00364728
v -1.80183769 -0.86749502 -0.02886737
v 1.95157256 -0.43642870 -0.02990858
v -1.56477441 1.21251001 0.28513250
v 0.50233990 -1.93069022 0.14173886
v 1.23344534 1.57241852 -0.07818290
v -1.97413081 -0.30353068 -0.10332805
v 1.75473927 -0.93987672 0.19370558
v -0.63204252 1.89096992 0.15733723
v -1.07234936 -1.68276885 0.13548376
v 1.80120899 0.86851189 0.03651406
v -1.69989231 1.05201066 0.06033003
v 0.32065622 -1.97366906 0.04254448
v 0.26867758 1.97901319 -0.10639158
v -1.77902559 -0.91345565 0.02582119
v 1.95835624 -0.36780427 0.17193267
v -1.02993613 1.71325985 0.06302595
v -0.56476954 -1.91824384 -0.03709352
v 1.83378099 0.78922577 0.11987473
v -1.99551629 -0.05717787 0.12101824
v 1.65982653 -1.10734770 -0.13695603
v -0.12299753 1.99601492 -0.02821410
v -1.48609756 -1.32203555 -0.20913162
v 1.96760892 0.31447556 -0.17210541
v -1.43552267 1.39254271 -0.00997328
v 0.52625791 -1.92950736 0.00734619
v 1.45672443 1.36997898 -0.03333944
v -1.88564099 -0.66503245 -0.04571547
v 1.58497211 -1.20571652 -0.18469186
v -0.82393794 1.82201856 0.03707623
v -1.03099925 -1.68868172 -0.29222354
v 1.59612831 1.16073278 -0.32415094
v -1.98477845 0.23848892 -0.06146179
v 0.69036641 -1.87686578 -0.02773175
v 0.01073693 1.99498227 -0.14117532
v -1.30939668 -1.48090323 -0.30398348
v 1.87067142 -0.65828136 -0.25933395
v -0.99728924 1.72295306 -0.19195553
v -0.46470944 -1.94441667 -0.05734953
v 1.32878863 1.48294106 -0.18763422
v -1.92831954 -0.45840447 -0.26729963
v 1.68093879 -1.04624633 -0.28251267
v 0.10983505 1.96549779 -0.35320629
v -1.47210578 -1.28706280 -0.41996895
v 1.72874044 0.95517557 -0.31479538
v -1.63510663 1.12889563 -0.22808104
v 0.70614115 -1.83609808 -0.36070559
v 0.61732170 1.84083624 -0.47982897
v -1.78127470 -0.85999288 -0.29575785
v 1.88953587 -0.54216414 -0.36839141
v -1.20489208 1.50222556 -0.53995689
v -0.35048048 -1.95283557 -0.25218377
v 1.62327949 1.03618831 -0.53970130
v -1.90887062 0.14166394 -0.57977952
v 1.37901372 -1.41442165 -0.31262208
v -0.46339778 1.87824461 -0.50740485
v -1.51582514 -1.21395270 -0.47811398
v 1.97278869 -0.00713523 -0.32871551
v -1.62392045 1.02759547 -0.55401257
v 0.11098253 -1.91998766 -0.54893557
v 1.27371695 1.40489841 -0.63553567
v -1.78600851 -0.65984007 -0.61219660
v 1.62969472 -1.08301461 -0.41373236
v -0.65220248 1.81787556 -0.51957713
v -0.64861176 -1.86490604 -0.31847804
v 1.79741511 0.68585241 -0.54672241
v -1.91221534 0.40845050 -0.42023882
v 1.23950725 -1.44560651 -0.61142750
v 0.19736422 1.91846955 -0.52964323
v -1.69475430 -0.89085066 -0.57809424
v 1.77005669 -0.72275337 -0.58696413
v -1.15586596 1.53323952 -0.55959848
v -0.65691038 -1.74759457 -0.71720426
v 1.45205309 1.13321124 -0.77934210
v -1.91989448 -0.00905475 -0.56028850
v 1.30984523 -1.33611874 -0.70646457
v -0.68175832 1.69650072 -0.81061144
v -1.20999173 -1.39888841 -0.76094102
v 1.75562804 0.74926119 -0.59697392
v -1.45561402 1.15876454 -0.73379327
v 0.74998102 -1.77035336 -0.55079711
v 1.14512871 1.43102620 -0.80052747
v -1.71219867 -0.89373884 -0.51923656
v 1.67718109 -0.80144108 -0.73807573
v -0.96647606 1.51380947 -0.87994598
v -0.15580875 -1.83916205 -0.77019904
v 1.74324694 0.66553497 -0.71982867
v -1.90789288 0.17943869 -0.57249151
v 0.65253741 -1.72268145 -0.77882190
v 0.06223905 1.83152909 -0.80101653
v -1.38394753 -1.27236050 -0.68248663
v 1.76782895 0.21747794 -0.90966155
v -1.12071731 1.54480111 -0.59798181
v 0.10609003 -1.84466406 -0.76547987
v 1.08123936 1.49740297 -0.76727166
v -1.72775022 -0.71536902 -0.70931399
v 1.77199435 -0.54257914 -0.75209301
v -0.32881591 1.80733355 -0.79083850
v -0.88351193 -1.56232900 -0.88234616
v 1.80936136 0.26380864 -0.81031875
v -1.56150780 0.86601765 -0.90094773
v 0.83642519 -1.52024434 -0.99461049
v 0.93404517 1.50775064 -0.92425517
v -1.70733839 -0.73166789 -0.74138904
v 1.83240223 -0.27594823 -0.75243247
v -0.71513618 1.52444115 -1.07919388
v -0.15482611 -1.70260724 -1.03786196
v 1.26885440 1.14014553 -1.04406737
v -1.83524698 -0.16802661 -0.77693988
v 1.04566810 -1.45210862 -0.89328538
v 0.25183733 1.74212428 -0.94951617
v -1.39417117 -0.88833432 -1.12567708
v 1.73019043 0.21956668 -0.97889302
v -1.43248292 0.89777397 -1.06864147
v 0.12342354 -1.68950533 -1.06317372
v 0.91961180 1.42855868 -1.05524131
v -1.49421880 -0.75626616 -1.09333055
v 1.59815290 -0.83680481 -0.86351896
v -0.45204006 1.69144672 -0.96678218
v -0.93742038 -1.39961948 -1.07810406
v 1.49199261 0.90024331 -0.98159056
v -1.61173442 0.14547646 -1.17522286
v 1.11990794 -1.31481024 -1.00850396
v 0.35725242 1.57709753 -1.17691720
v -1.39503092 -0.94127060 -1.08069348
v 1.58284406 -0.41704842 -1.14920637
v -1.09679962 1.08030067 -1.27670712
v -0.35371542 -1.60170435 -1.14430266
v 1.08486869 1.13232519 -1.24132976
v -1.55412474 -0.56470636 -1.12507912
v 1.17911296 -0.93342753 -1.31848613
v -0.28486692 1.55706448 -1.22245697
v -1.03999829 -1.35129369 -1.04518367
v 1.57329218 0.49252332 -1.13233056
v -1.33926760 1.05895333 -1.04162380
v 0.70909149 -1.30049762 -1.34383600
v 0.91954903 1.37764232 -1.12095104
v -1.51511902 -0.18246044 -1.29271905
v 1.46393698 -0.29749049 -1.32980748
v -0.46019032 1.46361261 -1.28298987
v -0.45766011 -1.45937004 -1.28871499
v 1.20038249 0.76070981 -1.40726773
v -1.57583952 -0.03759210 -1.23098198
v 1.20051790 -1.04206721 -1.21361144
v 0.34638786 1.36533106 -1.41981920
v -1.34326166 -0.77518938 -1.26282601
v 1.40400514 0.35239563 -1.38006771
v -0.81596877 1.16846563 -1.40316893
v 0.35392829 -1.43417920 -1.34828216
v 0.63387106 1.44758260 -1.22585158
v -1.46749004 -0.31994370 -1.32064719
v 1.32030075 -0.69559148 -1.33152485
v -0.03916423 1.32230874 -1.49998859
v -0.34369425 -1.42569457 -1.35987840
v 1.25242713 0.50093618 -1.47664797
v -1.41767135 0.48487052 -1.32480509
v 0.70701563 -1.18000346 -1.45179913
v 0.08993149 1.28763944 -1.52770973
v -1.18157665 -0.47281863 -1.54282830
v 1.20989833 -0.50796674 -1.50934284
v -0.59179790 1.33229785 -1.36921791
v -0.35974167 -1.44615112 -1.33387888
v 0.74155942 1.01801195 -1.55362199
v -1.12891431 -0.31738754 -1.62012890
v 0.83383780 -0.83146423 -1.61659573
v 0.00842376 1.33736461 -1.48707261
v -0.51239570 -1.19323375 -1.52106669
v 1.39977871 -0.19045146 -1.41574991
v -0.93565373 0.64327025 -1.64643721
v 0.00934699 -1.11877413 -1.65778680
v 0.49492068 1.20811935 -1.51509114
v -1.22402174 -0.13725805 -1.57573190
v 1.12070607 -0.32149190 -1.62501104
v -0.70269846 0.83502592 -1.67599122
v -0.41328500 -1.06089596 -1.64429172
v 1.01680642 0.33169960 -1.68999411
v -0.98214544 0.43204142 -1.68781828
v 0.76611247 -0.75803211 -1.68477268
v -0.17760602 1.18946307 -1.59800929
v -0.91062069 -0.69095288 -1.64114414
v 1.11922089 0.05472813 -1.65660781
v -0.86394738 0.56038251 -1.71451637
v -0.12278082 -1.00177077 -1.72666737
v 0.69299163 0.65725254 -1.75720850
v -0.97025102 0.07815542 -1.74714187
v 0.81572535 -0.57426529 -1.73343922
v 0.09149836 0.96617610 -1.74875150
v -0.42764578 -0.99312192 -1.68250645
v 0.88540653 0.26715444 -1.77332563
v -0.84828640 0.65136504 -1.69000999
v 0.14550383 -0.77905647 -1.83627330
v 0.41657668 0.85537772 -1.75920233
v -0.89044146 -0.16476484 -1.78324607
v 0.72278624 -0.02716100 -1.86462927
v -0.74656568 0.65420978 -1.73627453
v -0.00847215 -0.89804542 -1.78702061
v 0.74109227 0.38760094 -1.81674097
v -0.70265688 -0.10850892 -1.86935794
v 0.29340332 -0.55153704 -1.89992668
v 0.24623872 0.79657847 -1.81791893
v -0.74795517 -0.45704946 -1.79768430
v 0.56485914 0.21049798 -1.90699364
v -0.41361736 0.24392569 -1.94149966
v -0.05479314 -0.78696222 -1.83784879
v 0.32195567 0.31634533 -1.94840195
v -0.57328917 -0.35012976 -1.88381227
v 0.51395589 -0.12580097 -1.92873623
v -0.04993739 0.35513226 -1.96758414
v -0.23389973 -0.32964454 -1.95873056
v 0.35132152 0.28209678 -1.94858785
v -0.18315985 0.02876127 -1.99138777
v 0.32722705 -0.36144011 -1.93966067
v 0.05927936 0.27100488 -1.98066714
v -0.23490812 -0.20020995 -1.97604002
f 185 177 219
f 343 335 356
f 173 160 126
f 358 363 371
f 363 389 371
f 308 287 342
f 342 363 358
f 164 232 253
f 253 219 164
f 164 219 177
f 53 45 79
f 2 1 4
f 6 1 2
f 2 3 6
f 400 389 397
f 390 395 385
f 314 327 348
f 377 343 356
f 377 390 385
f 272 259 314
f 275 301 335
f 335 288 275
f 275 267 246
f 335 343 322
f 322 288 335
f 176 181 202
f 202 181 160
f 254 262 241
f 131 139 110
f 178 131 220
f 102 115 123
f 57 44 70
f 31 44 65
f 44 57 65
f 253 232 245
f 245 287 253
f 253 287 274
f 274 287 308
f 274 219 253
f 319 264 311
f 379 350 358
f 358 371 379
f 300 287 321
f 300 342 287
f 342 300 313
f 313 300 321
f 321 271 313
f 297 255 234
f 192 281 234
f 46 17 33
f 99 94 86
f 99 120 94
f 196 183 162
f 169 216 203
f 174 208 195
f 203 216 224
f 156 164 177
f 177 151 156
f 26 10 31
f 31 60 26
f 87 79 100
f 87 53 79
f 221 208 200
f 200 208 187
f 200 234 255
f 187 234 200
f 171 213 192
f 150 213 171
f 192 234 179
f 179 234 187
f 179 187 132
f 176 184 155
f 155 134 176
f 299 286 278
f 320 286 299
f 299 333 320
f 273 320 307
f 286 320 273
f 9 4 1
f 1 6 9
f 9 6 14
f 9 17 4
f 24 3 16
f 24 6 3
f 11 6 24
f 24 45 11
f 167 222 196
f 196 162 167
f 167 162 175
f 175 154 167
f 285 327 314
f 314 259 285
f 285 264 319
f 217 259 251
f 196 222 217
f 217 285 259
f 217 222 264
f 264 285 217
f 170 183 196
f 382 377 356
f 390 377 382
f 343 377 364
f 385 372 364
f 364 377 385
f 246 272 280
f 280 275 246
f 301 275 280
f 293 272 314
f 314 348 293
f 301 280 293
f 293 280 272
f 251 259 238
f 259 272 238
f 238 225 251
f 238 272 246
f 238 246 199
f 199 225 238
f 100 79 66
f 66 134 100
f 173 126 105
f 105 139 173
f 173 139 152
f 139 131 152
f 147 126 160
f 160 181 147
f 288 322 309
f 173 152 165
f 165 131 178
f 165 152 131
f 246 267 233
f 249 241 262
f 262 304 249
f 97 131 110
f 102 131 97
f 191 157 199
f 191 131 157
f 191 220 131
f 102 123 144
f 157 131 144
f 144 131 102
f 199 157 144
f 42 68 76
f 83 57 70
f 54 75 62
f 12 54 41
f 54 62 41
f 10 15 23
f 23 44 31
f 31 10 23
f 78 57 133
f 78 65 57
f 78 133 86
f 86 94 78
f 94 65 78
f 94 120 141
f 141 136 94
f 120 162 141
f 141 162 183
f 52 65 94
f 94 60 52
f 31 65 52
f 52 60 31
f 73 115 55
f 73 136 107
f 94 136 73
f 73 60 94
f 107 123 73
f 73 123 115
f 232 237 266
f 266 245 232
f 266 271 321
f 321 287 266
f 287 245 266
f 308 295 240
f 240 274 308
f 219 274 240
f 277 311 264
f 277 222 230
f 264 222 277
f 384 371 389
f 384 379 371
f 389 400 384
f 292 313 271
f 334 313 292
f 276 255 297
f 297 318 276
f 373 360 365
f 289 234 281
f 297 234 289
f 302 336 289
f 172 177 185
f 227 235 214
f 201 154 214
f 214 154 180
f 17 46 25
f 4 17 25
f 25 54 12
f 25 46 54
f 67 33 80
f 67 46 33
f 67 75 54
f 54 46 67
f 133 154 146
f 146 154 175
f 120 99 146
f 146 162 120
f 175 162 146
f 86 133 146
f 146 99 86
f 127 169 203
f 114 169 127
f 127 93 114
f 195 216 182
f 216 169 182
f 195 182 148
f 148 182 169
f 148 169 114
f 271 266 279
f 279 266 237
f 80 93 101
f 88 75 101
f 101 67 80
f 75 67 101
f 39 26 60
f 39 73 55
f 60 73 39
f 37 24 16
f 45 24 37
f 42 76 63
f 50 63 71
f 29 63 50
f 45 37 50
f 50 37 29
f 82 61 74
f 53 87 74
f 221 200 229
f 229 200 255
f 255 276 229
f 33 17 51
f 80 33 51
f 22 35 56
f 56 43 22
f 22 43 30
f 30 9 22
f 14 35 22
f 22 9 14
f 14 61 48
f 48 35 14
f 48 61 82
f 82 90 48
f 192 179 158
f 158 171 192
f 145 171 158
f 132 145 158
f 158 179 132
f 100 134 142
f 134 155 142
f 367 333 354
f 354 359 367
f 299 325 354
f 354 333 299
f 328 349 315
f 307 320 328
f 370 349 328
f 239 307 260
f 260 247 239
f 239 247 218
f 218 231 239
f 299 278 291
f 291 278 286
f 286 244 291
f 150 184 197
f 197 213 150
f 197 218 213
f 231 218 197
f 265 307 239
f 265 273 307
f 239 231 265
f 379 384 387
f 350 379 387
f 387 366 350
f 331 336 357
f 357 336 349
f 378 349 370
f 373 357 378
f 378 357 349
f 394 360 373
f 397 389 394
f 389 381 394
f 394 381 360
f 398 400 397
f 398 372 385
f 385 395 398
f 395 400 398
f 383 391 370
f 222 167 209
f 209 167 154
f 230 222 209
f 209 154 201
f 201 235 209
f 306 285 319
f 327 285 306
f 306 353 327
f 319 366 306
f 366 353 306
f 128 170 225
f 128 144 123
f 128 123 107
f 128 225 199
f 199 144 128
f 251 225 204
f 225 170 204
f 204 217 251
f 196 217 204
f 204 170 196
f 317 343 351
f 343 364 351
f 351 364 372
f 71 92 84
f 113 105 126
f 92 105 113
f 113 84 92
f 126 66 113
f 66 84 113
f 118 92 71
f 118 105 92
f 71 63 118
f 118 63 76
f 118 76 110
f 110 139 118
f 139 105 118
f 168 66 126
f 126 147 168
f 134 66 168
f 176 134 168
f 168 181 176
f 168 147 181
f 330 309 322
f 330 343 317
f 330 322 343
f 317 338 330
f 330 338 304
f 330 304 262
f 262 309 330
f 288 309 296
f 254 267 296
f 296 262 254
f 296 309 262
f 296 275 288
f 267 275 296
f 176 202 189
f 189 244 176
f 189 202 160
f 173 165 215
f 215 165 241
f 241 249 215
f 178 220 186
f 220 233 186
f 186 165 178
f 241 165 186
f 254 241 186
f 186 267 254
f 186 233 267
f 199 246 212
f 246 233 212
f 212 233 220
f 212 191 199
f 220 191 212
f 257 249 270
f 270 249 304
f 55 115 81
f 81 68 55
f 81 115 102
f 81 76 68
f 133 57 112
f 57 83 112
f 112 154 133
f 180 154 112
f 70 62 96
f 96 62 75
f 44 23 28
f 28 23 15
f 107 136 149
f 136 141 149
f 149 128 107
f 170 128 149
f 183 170 149
f 149 141 183
f 295 227 261
f 261 240 295
f 185 219 261
f 219 240 261
f 329 295 308
f 329 342 358
f 308 342 329
f 332 366 319
f 368 389 363
f 368 381 389
f 334 292 347
f 347 360 334
f 347 365 360
f 284 276 318
f 284 229 276
f 310 336 331
f 331 352 310
f 297 289 310
f 310 289 336
f 310 318 297
f 310 352 318
f 315 349 323
f 349 336 323
f 323 336 302
f 130 151 177
f 177 172 130
f 206 172 185
f 180 172 206
f 180 112 159
f 188 235 201
f 201 214 188
f 188 214 235
f 237 224 258
f 258 279 237
f 224 279 258
f 164 156 135
f 135 101 93
f 93 127 135
f 203 224 211
f 211 127 203
f 211 237 232
f 211 224 237
f 55 68 47
f 47 39 55
f 10 26 18
f 16 3 8
f 8 3 2
f 2 13 8
f 61 32 40
f 53 74 40
f 40 74 61
f 45 53 40
f 11 45 40
f 40 32 11
f 19 61 14
f 19 32 61
f 30 43 38
f 38 51 17
f 38 9 30
f 17 9 38
f 166 111 132
f 132 187 166
f 187 208 166
f 153 148 114
f 119 145 132
f 132 111 119
f 111 124 119
f 77 124 56
f 77 90 145
f 145 119 77
f 77 119 124
f 95 74 87
f 163 155 184
f 163 184 150
f 121 87 100
f 121 95 87
f 116 95 121
f 155 163 121
f 121 163 116
f 341 320 333
f 341 328 320
f 341 333 367
f 294 260 307
f 294 328 315
f 307 328 294
f 315 323 294
f 294 323 302
f 213 218 226
f 226 218 247
f 192 213 226
f 226 281 192
f 226 247 281
f 312 338 325
f 304 338 312
f 312 325 299
f 299 291 312
f 205 184 176
f 205 197 184
f 197 205 210
f 210 244 286
f 176 244 210
f 210 205 176
f 340 348 327
f 327 353 340
f 356 335 340
f 335 301 340
f 301 293 340
f 340 293 348
f 369 382 356
f 390 382 369
f 395 390 392
f 392 387 384
f 392 400 395
f 392 384 400
f 325 338 346
f 346 354 325
f 359 354 346
f 372 359 346
f 346 351 372
f 346 338 317
f 317 351 346
f 370 391 386
f 386 378 370
f 391 394 386
f 373 378 386
f 386 394 373
f 397 394 399
f 399 394 391
f 399 398 397
f 367 359 380
f 380 359 372
f 58 50 71
f 71 84 58
f 45 50 58
f 79 45 58
f 58 66 79
f 58 84 66
f 244 189 236
f 236 189 223
f 236 291 244
f 236 223 257
f 194 160 173
f 194 189 160
f 223 189 194
f 228 215 249
f 257 223 228
f 228 249 257
f 110 76 89
f 76 81 89
f 89 97 110
f 102 97 89
f 89 81 102
f 91 83 70
f 70 96 91
f 91 112 83
f 109 96 75
f 109 75 88
f 88 156 109
f 109 156 151
f 7 28 15
f 7 15 2
f 2 4 7
f 12 41 20
f 41 28 20
f 28 7 20
f 20 7 4
f 20 25 12
f 4 25 20
f 36 28 41
f 70 44 36
f 44 28 36
f 185 261 193
f 193 261 227
f 193 206 185
f 180 206 193
f 227 214 193
f 193 214 180
f 316 290 295
f 337 332 316
f 248 227 295
f 248 235 227
f 311 277 256
f 256 290 311
f 350 366 345
f 366 332 345
f 345 332 337
f 358 350 345
f 345 337 358
f 334 360 355
f 355 313 334
f 355 368 363
f 363 342 355
f 342 313 355
f 326 347 292
f 365 347 326
f 305 284 318
f 318 326 305
f 305 326 292
f 242 216 195
f 195 208 242
f 242 208 221
f 221 229 242
f 229 284 242
f 331 357 344
f 344 352 331
f 344 357 373
f 373 365 344
f 138 172 180
f 180 159 138
f 138 130 172
f 138 159 130
f 125 112 104
f 125 159 112
f 151 130 125
f 130 159 125
f 125 109 151
f 96 109 125
f 164 135 198
f 198 135 190
f 232 164 198
f 198 211 232
f 190 211 198
f 122 135 156
f 101 135 122
f 122 156 88
f 88 101 122
f 143 135 127
f 190 135 143
f 127 211 143
f 143 211 190
f 10 18 5
f 5 18 13
f 5 13 2
f 2 15 5
f 5 15 10
f 26 39 34
f 34 18 26
f 39 47 34
f 34 47 68
f 13 18 34
f 34 68 42
f 14 6 27
f 27 19 14
f 27 6 11
f 11 32 27
f 32 19 27
f 148 153 161
f 161 174 195
f 195 148 161
f 111 166 106
f 106 124 111
f 85 153 114
f 69 48 90
f 90 77 69
f 69 77 56
f 56 35 69
f 35 48 69
f 74 95 103
f 103 90 82
f 82 74 103
f 145 90 103
f 129 95 116
f 129 163 150
f 116 163 129
f 108 121 100
f 155 121 108
f 100 142 108
f 108 142 155
f 362 341 367
f 362 383 370
f 370 328 362
f 328 341 362
f 247 260 268
f 260 294 268
f 281 247 268
f 268 294 302
f 268 289 281
f 302 289 268
f 283 312 291
f 257 270 283
f 283 270 304
f 304 312 283
f 283 236 257
f 291 236 283
f 252 265 231
f 231 197 252
f 197 210 252
f 273 265 252
f 286 273 252
f 252 210 286
f 366 387 374
f 374 353 366
f 390 369 374
f 374 392 390
f 387 392 374
f 398 399 393
f 372 398 393
f 393 380 372
f 380 393 388
f 215 228 207
f 173 215 207
f 207 194 173
f 223 194 207
f 207 228 223
f 117 91 96
f 117 125 104
f 96 125 117
f 104 112 117
f 112 91 117
f 49 41 62
f 49 36 41
f 49 62 70
f 70 36 49
f 337 316 324
f 358 337 324
f 324 329 358
f 295 329 324
f 324 316 295
f 311 290 303
f 290 316 303
f 303 316 332
f 295 290 282
f 282 248 295
f 290 256 282
f 282 256 248
f 243 277 230
f 243 256 277
f 230 209 243
f 243 209 235
f 235 248 269
f 248 256 269
f 269 243 235
f 256 243 269
f 381 368 376
f 368 355 376
f 360 381 376
f 376 355 360
f 365 326 339
f 339 344 365
f 352 344 339
f 318 352 339
f 339 326 318
f 284 305 263
f 263 242 284
f 263 292 271
f 263 305 292
f 271 279 263
f 21 34 42
f 42 63 21
f 21 63 29
f 16 8 21
f 21 8 13
f 13 34 21
f 21 37 16
f 29 37 21
f 140 161 153
f 140 106 166
f 153 106 140
f 174 161 140
f 208 174 140
f 140 166 208
f 56 124 98
f 124 106 98
f 98 106 153
f 153 85 98
f 80 51 59
f 114 93 72
f 72 85 114
f 72 93 80
f 80 59 72
f 145 103 137
f 150 171 137
f 137 171 145
f 137 103 95
f 137 129 150
f 95 129 137
f 367 380 375
f 375 362 367
f 383 362 375
f 375 388 383
f 380 388 375
f 353 374 361
f 361 374 369
f 361 369 356
f 356 340 361
f 361 340 353
f 391 383 396
f 383 388 396
f 396 388 393
f 396 399 391
f 396 393 399
f 311 303 298
f 298 303 332
f 319 311 298
f 298 332 319
f 242 263 250
f 250 224 216
f 216 242 250
f 250 279 224
f 250 263 279
f 64 43 56
f 64 59 51
f 85 72 64
f 64 72 59
f 56 98 64
f 64 98 85
f 64 38 43
f 51 38 64

