# https://github.com/mikedh/trimesh
v 0.03503299 0.12583919 1.99572974
v -0.30145233 -0.19416705 1.96759387
v 0.13620001 -0.02696662 1.99517477
v -0.08681097 0.19127091 1.98893924
v -0.04156615 -0.49904389 1.93629219
v 0.39312882 0.23388845 1.94698380
v -0.37767334 0.09116463 1.96190006
v 0.58390039 -0.43308593 1.86319535
v 0.00702004 0.46729677 1.94462964
v -0.44065864 -0.52200026 1.87971692
v 0.70202838 -0.07033375 1.87141907
v -0.45107897 0.39077405 1.90888014
v -0.05458145 -0.62254378 1.89985792
v 0.22816234 0.72051220 1.85170303
v -0.54824953 -0.25409097 1.90653094
v 0.63257874 -0.58568494 1.80466542
v -0.08876257 0.70045583 1.87122496
v -0.50658863 -0.83443971 1.74558825
v 0.85112986 0.52919952 1.73075875
v -0.75882291 0.11203881 1.84706120
v 0.72411469 -0.74079914 1.71081108
v 0.31068772 0.83414566 1.79099809
v -0.85526636 -0.33375520 1.77683058
v 0.94020688 0.00227718 1.76522118
v -0.88071685 0.64986892 1.67392001
v -0.28949026 -0.93408300 1.74461582
v 0.90816348 0.63148344 1.66627362
v -0.83561710 -0.02089126 1.81695009
v 0.63081188 -0.81469813 1.71415966
v 0.13869177 1.18167060 1.60761289
v -0.78344405 -0.70190835 1.70104088
v 1.09761442 0.40886618 1.62113264
v -1.13835039 0.31999248 1.61299820
v 0.07635204 -1.07001262 1.68797019
v 0.52819451 1.02962328 1.63122239
v -1.14582400 -0.22534954 1.62367021
v 0.90154093 -0.44886071 1.72793172
v -0.43190110 1.13359235 1.59010371
v -0.59172829 -0.91131065 1.67909813
v 1.12570033 0.29695838 1.62622707
v -1.32823090 0.13494167 1.48915863
v 0.89918895 -0.75291657 1.62005428
v 0.23463192 1.29793393 1.50343453
v -0.95548322 -0.99330640 1.44927368
v 1.25144218 -0.29676343 1.53160828
v -0.93988484 0.83877849 1.55340501
v -0.24678849 -1.16559719 1.60638682
v 0.73972650 1.10291501 1.49545417
v -1.31406217 -0.26008417 1.48512520
v 0.95497846 -0.76095883 1.58396900
v -0.56695948 1.34422408 1.36807111
v -0.67540755 -1.21390017 1.43884364
v 1.31307374 0.36025966 1.46494038
v -1.15708005 0.93925097 1.33378161
v 0.37154944 -1.38034412 1.39878559
v 0.30555940 1.28719345 1.49992216
v -1.37306363 -0.59973464 1.32476965
v 1.49529391 -0.19387312 1.31396702
v -0.88760773 1.11669727 1.40183441
v -0.46490927 -1.19357068 1.53598451
v 1.26427154 0.70664086 1.37923028
v -1.36144470 0.43986963 1.39749169
v 1.14746429 -0.79497920 1.43224780
v -0.26698074 1.45623574 1.34465563
v -1.23003021 -0.85126679 1.32754304
v 1.51432133 0.47365841 1.21757078
v -1.12275668 0.86289007 1.41238740
v 0.41793942 -1.51094217 1.24192608
v 0.72188751 1.24364789 1.39004257
v -1.44316415 -0.58791506 1.25364792
v 1.58541994 -0.30970173 1.17920670
v -0.84262064 1.22816593 1.33476549
v -0.74820515 -1.35126335 1.27054178
v 1.19878591 1.08563027 1.17657097
v -1.45009155 0.64390215 1.21763070
v 0.86374087 -1.23862007 1.31140079
v 0.58583664 1.50451753 1.18034843
v -1.03368942 -1.32819176 1.08045955
v 1.63160571 -0.43071311 1.07347521
v -0.79827208 1.50676844 1.04518445
v 0.14737762 -1.64509998 1.12779692
v 1.05546843 1.31205274 1.07912186
v -1.66101701 -0.01214704 1.11394566
v 1.34784628 -0.68701188 1.30817625
v -0.66659969 1.51652667 1.12062113
v -0.86815191 -1.36164536 1.17992973
v 1.64725210 0.57776237 0.97608973
v -1.52206366 0.62332830 1.13788578
v 0.13333398 -1.66448988 1.10077041
v 0.86334532 1.41571249 1.11820973
v -1.48520954 -0.62900659 1.18258333
v 1.75924203 -0.16953765 0.93612204
v -0.42236553 1.55135311 1.18950026
v -0.30109029 -1.69336030 1.02072305
v 1.41833541 1.00290200 0.99121755
v -1.76082330 -0.12521010 0.94011901
v 1.39331781 -1.05234448 0.97531357
v 0.15192253 1.66727818 1.09412203
v -1.35008784 -1.21334619 0.83967484
v 1.80795968 0.14177701 0.84331552
v -1.03691884 1.44802312 0.90996063
v 0.58881781 -1.62814335 1.00122066
v 0.79604629 1.49475241 1.06396689
v -1.67181781 -0.57741375 0.93360514
v 1.63308568 -0.83627233 0.79604004
v -0.31183675 1.68277637 1.03490171
v -1.12556619 -1.26017590 1.07007358
v 1.72518725 0.35686727 0.94677067
v -1.44176427 1.00488151 0.95474025
v 0.50682467 -1.69893614 0.92560508
v 0.49870106 1.76884318 0.78898103
v -1.41769147 -1.17305757 0.78363693
v 1.79214323 0.09463381 0.88276105
v -0.75233989 1.62153209 0.89700521
v 0.28971933 -1.77626187 0.87232819
v 1.29719410 1.16343783 0.98168218
v -1.86761902 -0.25372460 0.66904635
v 1.06791251 -1.45210267 0.86657990
v -0.61637490 1.72351988 0.80595360
v -1.22349966 -1.27527699 0.93633177
v 1.72944069 0.78678259 0.62450624
v -1.37163212 1.12334616 0.92559102
v 0.60534394 -1.65167665 0.95158970
v 1.08999020 1.43100777 0.87414995
v -1.69769145 -0.89160408 0.56823050
v 1.83000908 -0.51674690 0.61970913
v -0.92072484 1.53284215 0.89591335
v -0.33913298 -1.76682873 0.87367331
v 1.61606165 0.99806719 0.62626402
v -1.86126902 -0.14208918 0.71797514
v 0.86322949 -1.63465430 0.76337418
v 0.08438155 1.86350986 0.72125638
v -1.06238631 -1.54312563 0.70007044
v 1.77883287 0.42023582 0.81188390
v -1.35214855 1.28389475 0.72340070
v 0.44963547 -1.83712415 0.65023289
v 1.39279553 1.34264805 0.50736261
v -1.90724607 -0.09768245 0.59402909
v 1.44896318 -1.21399096 0.65324701
v -0.37582073 1.86631597 0.61288131
v -0.46131297 -1.89444288 0.44528254
v 1.85366923 0.59339593 0.46020829
v -1.89491206 0.38605222 0.51016856
v 0.39663441 -1.81801992 0.73313349
v 0.23548408 1.86268876 0.68915733
v -1.87590172 -0.55463229 0.41638417
v 1.75681532 -0.88829236 0.35289745
v -1.23883590 1.52309235 0.38141224
v -0.25222823 -1.94737038 0.37964392
v 1.34050761 1.43266148 0.38796962
v -1.90669933 0.14021956 0.58722752
v 1.45279370 -1.33361507 0.33295841
v -0.42795363 1.84019990 0.65614025
v -0.99436497 -1.63665969 0.57670042
v 1.97757472 -0.02293259 0.29777895
v -1.29397467 1.43474030 0.51686537
v 0.87943658 -1.77067555 0.30215787
v 1.18039923 1.57296794 0.36390869
v -1.89614446 -0.26200555 0.57964581
v 1.74703755 -0.80731663 0.54415039
v -0.79730116 1.79609426 0.37196273
v -1.23444459 -1.53140073 0.36188168
v 1.44709424 1.26101912 0.56191552
v -1.77818557 0.81749323 0.41202052
v 1.03434301 -1.63577050 0.50437030
v 0.04596759 1.97376813 0.31957213
v -1.86852563 -0.65479260 0.28259271
v 1.87165393 -0.47657456 0.51941144
v -1.56985473 1.19126283 0.34124623
v 0.20712759 -1.95589344 0.36273821
v 1.46042858 1.34841129 0.22121339
v -1.93691644 0.16884078 0.46887898
v 1.12939545 -1.64282218 0.16000377
v -0.68278548 1.86351668 0.24720349
v -1.35452802 -1.46664790 0.11915449
v 1.77412751 0.85521086 0.34797410
v -1.46647654 1.31826034 0.33412010
v 0.88653727 -1.75879201 0.34742243
v 0.96844011 1.73967673 0.18880843
v -1.90001843 -0.61334600 0.11720340
v 1.99151319 -0.15068623 0.10568293
v -1.08075652 1.65704513 0.29354177
v -0.88864297 -1.77151303 0.26843113
v 1.84520107 0.73649220 0.22980919
v -1.78405497 0.87069004 0.24299534
v 0.91951222 -1.77574483 -0.03503652
v 0.54219422 1.91883754 0.15520283
v -1.05909270 -1.68913326 0.15859220
v 1.94476727 0.46171942 -0.06852326
v -1.46392382 1.36147011 0.05767306
v 0.07962343 -1.99831491 -0.01994041
v 1.36976475 1.44791748 0.16516503
v -1.99730012 -0.01247819 -0.10313353
v 1.80405323 -0.85952231 -0.08132241
v -0.26149754 1.98133197 -0.07708874
v -1.11457043 -1.66047692 0.02343408
v 1.93827236 0.46743098 -0.15687108
v -1.81846352 0.82954576 -0.07102289
v 1.09684127 -1.66344973 -0.17284165
v 0.01206028 1.99984573 0.02171672
v -1.83103900 -0.79731162 -0.10765852
v 1.95428094 -0.38265174 -0.18537433
v -0.67235906 1.87309772 -0.19859057
v -0.36794721 -1.96549193 -0.03816193
v 1.35015841 1.47419762 0.06175469
v -1.99686138 -0.10075947 -0.04890982
v 1.32237965 -1.49167934 -0.16187895
v -0.10937788 1.99516246 0.08580938
v -0.96134657 -1.74980257 -0.11833748
v 1.99269797 -0.06927115 -0.15606505
v -1.77975892 0.91200962 -0.02639368
v -0.08902042 -1.99801704 0.00180777
v 0.87137838 1.77601988 -0.29402906
v -1.90784791 -0.59478761 -0.07964956
v 1.93641314 -0.49972984 -0.02396336
v -0.27074778 1.97517031 -0.15936712
v -0.42591083 -1.95030429 -0.12211936
v 1.80624702 0.80232230 -0.30618723
v -1.96014397 0.14166573 -0.37116900
v 0.62289831 -1.88183787 -0.26586448
v 0.23158549 1.95582950 -0.34799300
v -1.13357901 -1.61193819 -0.34154633
v 1.97923425 0.23335597 -0.16785938
v -1.68108200 1.00576793 -0.40298161
v 0.24020954 -1.96645734 -0.27449027
v 1.22500200 1.55601356 -0.27962815
v -1.94160425 -0.15933449 -0.45253228
v 1.82347673 -0.72963770 -0.37757310
v -0.90402958 1.76470698 -0.26180101
v -1.32162596 -1.47290408 -0.28958316
v 1.91825552 0.33498386 -0.45615959
v -1.52968041 1.26299014 -0.25482102
v 0.83221005 -1.77102607 -0.41339218
v 0.80710615 1.77491784 -0.44524861
v -1.74104030 -0.86312541 -0.47306785
v 1.93325825 -0.25209505 -0.44605000
v -1.11082831 1.62978417 -0.33145741
v -0.02408139 -1.95504018 -0.42099643
v 1.48105636 1.21988763 -0.56422179
v -1.97479446 0.07029567 -0.30861847
v 0.85423541 -1.78407449 -0.29556738
v 0.07753328 1.96659498 -0.35565821
v -1.02294590 -1.68051400 -0.35979768
v 1.91832549 -0.32783203 -0.46103524
v -1.41550248 1.33168833 -0.47218526
v 0.28261849 -1.90716228 -0.53184473
v 0.77885586 1.75008658 -0.57496130
v -1.84205433 -0.62043771 -0.47105507
v 1.89989961 -0.49548351 -0.38062783
v -0.33675698 1.85712839 -0.66156548
v -0.55254552 -1.82306353 -0.60920672
v 1.74643459 0.70596271 -0.67199916
v -1.88008790 0.42994814 -0.52954139
v 1.03102368 -1.67773100 -0.34958383
v 0.24772402 1.89953508 -0.57480370
v -1.50553673 -1.19672915 -0.54881553
v 1.83834763 -0.23528751 -0.75174315
v -0.81479538 1.73772639 -0.56250820
v 0.22535436 -1.94618573 -0.40196582
v 1.33259556 1.41221245 -0.47942162
v -1.86710927 0.08611970 -0.71167856
v 1.40898156 -1.25755023 -0.65828443
v -0.42706441 1.84830158 -0.63355920
v -0.83479602 -1.66147175 -0.73663237
v 1.69781844 0.82857674 -0.65640927
v -1.38242335 1.33223860 -0.56039805
v 0.97581126 -1.56258923 -0.77852893
v 1.01408084 1.56610430 -0.72038697
v -1.50604238 -1.08775067 -0.74069888
v 1.58239051 -0.93624292 -0.78707653
v -1.24311046 1.38194707 -0.73817253
v -0.95008296 -1.65558083 -0.59698783
v 1.50398248 0.99918378 -0.86003981
v -1.68606724 0.83748530 -0.67512639
v 1.36193154 -1.25897752 -0.74841039
v 0.32667681 1.86991170 -0.62985117
v -1.53724082 -1.05590480 -0.72246502
v 1.77579416 -0.39969559 -0.82873309
v -1.55016781 1.05776976 -0.69144987
v 0.52630154 -1.68477888 -0.94049287
v 1.37095236 1.27665558 -0.70045711
v -1.82114307 -0.08572823 -0.82224607
v 1.32691044 -1.27381749 -0.78530103
v -0.73583359 1.67586838 -0.80623453
v -1.19264145 -1.28345507 -0.96454624
v 1.71986382 0.34783909 -0.95972726
v -1.64833599 0.64072946 -0.93405258
v 0.95143997 -1.42901350 -1.02600312
v 0.91207190 1.44086450 -1.04500447
v -1.78294843 -0.41807508 -0.80393291
v 1.70289025 -0.37459983 -0.97971413
v -1.35512004 1.18308345 -0.87404989
v -0.55301744 -1.64519854 -0.99372707
v 1.21393358 1.28098827 -0.94097518
v -1.79663237 0.32441058 -0.81662103
v 1.16838695 -1.27242559 -1.00787154
v -0.34397535 1.67473763 -1.03775471
v -1.14722104 -1.33068969 -0.95558821
v 1.60087726 0.42816254 -1.11976284
v -1.08162484 1.24718847 -1.12898566
v 0.36301820 -1.60693812 -1.13400514
v 0.77967491 1.50341018 -1.06389138
v -1.62749146 -0.23136541 -1.13918462
v 1.42843956 -0.86666332 -1.09929755
v -0.83372185 1.56104797 -0.93168510
v -1.05094952 -1.41155555 -0.95027156
v 1.35388094 0.88016410 -1.17996507
v -1.58062353 0.47513851 -1.12954533
v 0.83342284 -1.38881888 -1.17328108
v 0.00045016 1.70738444 -1.04155565
v -1.47812928 -0.55196019 -1.22901333
v 1.70369737 0.16851885 -1.03393262
v -0.76754802 1.39256641 -1.21310710
v -0.34243892 -1.50287597 -1.27440158
v 0.78525543 1.50222955 -1.06145197
v -1.63168989 0.28574649 -1.12068598
v 1.04905274 -1.22527484 -1.18245081
v -0.59328085 1.49157936 -1.19298318
v -0.66979337 -1.49801100 -1.14338964
v 1.65783808 0.28350884 -1.08221793
v -1.50296981 0.55144953 -1.19874316
v 0.70555074 -1.48752584 -1.13554614
v 0.49406470 1.48343975 -1.24711932
v -1.45151034 -0.76462596 -1.14388150
v 1.35132696 -0.77836667 -1.25222234
v -0.96190482 1.16117530 -1.31392962
v -0.78394050 -1.47034355 -1.10613161
v 1.19302672 1.02306012 -1.23694593
v -1.38777999 0.16551018 -1.43061982
v 0.63806829 -1.39470166 -1.28361838
v -0.26471852 1.39654460 -1.40697807
v -0.94936749 -1.08785966 -1.38393018
v 1.53063486 -0.32656390 -1.24519595
v -1.35967699 0.71575113 -1.28022608
v 0.58545378 -1.40110711 -1.30159238
v 0.53740640 1.26531145 -1.45264631
v -1.38705086 -0.15189016 -1.43283610
v 1.29436949 -0.82341740 -1.28319578
v -0.39244599 1.44335747 -1.32766915
v -0.92634841 -1.06117863 -1.41978116
v 1.19538867 0.89924274 -1.32755732
v -1.17163868 0.53252478 -1.53090828
v 0.66992255 -1.10613148 -1.52567261
v 0.31970471 1.30551487 -1.48101985
v -1.31936767 -0.36685653 -1.45763001
v 1.22107753 -0.00519191 -1.58396424
v -0.72647295 1.16881347 -1.45124502
v -0.12422151 -1.23673183 -1.56686419
v 0.90299618 0.83095827 -1.57927397
v -1.34978297 -0.17000552 -1.46600957
v 1.08096075 -0.68921138 -1.53509333
v 0.19915923 1.41936670 -1.39489561
v -0.93058565 -1.08652052 -1.39767074
v 1.31559300 0.28629539 -1.47893543
v -1.10822913 0.48274423 -1.59335690
v 0.58744979 -1.03641490 -1.60647032
v 0.42194862 1.26446143 -1.49100525
v -1.14399419 -0.13161985 -1.63522277
v 1.21152929 -0.21142418 -1.57717995
v -0.40872179 1.18979090 -1.55478105
v -0.40280124 -1.10782857 -1.61569398
v 0.86645747 0.80655851 -1.61205299
v -1.11185569 0.57801915 -1.55874013
v 0.81867389 -0.66955078 -1.69749074
v 0.24351795 1.10333769 -1.65025602
v -1.01411028 -0.61212971 -1.61148303
v 1.06484725 0.08657209 -1.69074114
v -0.52101316 1.00045738 -1.65155391
v 0.11382816 -1.22459431 -1.57715311
v 0.75612228 0.92950023 -1.60134582
v -1.10936800 -0.08017552 -1.66218968
v 0.88216340 -0.72936375 -1.64006593
v -0.08365789 0.90127817 -1.78345143
v -0.67610194 -0.92850604 -1.63730349
v 1.00172701 0.13692458 -1.72562877
v -0.70472512 0.49505695 -1.80507095
v 0.57272120 -0.84955925 -1.71762613
v 0.13062915 0.86930710 -1.79645239
v -0.83487151 -0.54355427 -1.73422557
v 0.74593077 -0.00840773 -1.85567147
v -0.55901042 0.81827506 -1.73721998
v -0.25888166 -0.87539950 -1.77951005
v 0.64205021 0.46627171 -1.83585463
v -0.79277230 -0.10468489 -1.83318116
v 0.67213728 -0.52270512 -1.80969910
v 0.01062171 0.59530078 -1.90932034
v -0.56823077 -0.41307131 -1.87256132
v 0.57918009 -0.03279526 -1.91402061
v -0.56206579 0.63029059 -1.81295775
v 0.24660961 -0.57381418 -1.89997921
v 0.41475347 0.44409696 -1.90545466
v -0.46621994 -0.20987772 -1.93354346
v 0.49472727 -0.31872069 -1.91145548
v -0.30251273 0.44104816 -1.92716438
v -0.04696877 -0.35992134 -1.96678686
v 0.48187645 0.07687341 -1.93955808
v -0.23939374 0.03853909 -1.98524693
v 0.07996043 -0.16463021 -1.99160820
v 0.09502383 0.17331586 -1.99020906
v -0.00000000 -0.00000000 -2.00000000
f 200 221 242
f 193 172 143
f 271 266 237
f 271 292 266
f 271 305 300
f 300 292 271
f 250 310 297
f 297 263 250
f 297 284 263
f 105 84 97
f 105 79 84
f 346 333 359
f 385 380 359
f 301 246 238
f 254 207 199
f 262 207 254
f 208 166 200
f 294 268 281
f 265 239 218
f 124 158 111
f 90 82 124
f 116 163 124
f 124 82 116
f 72 54 59
f 206 172 193
f 172 206 138
f 104 146 125
f 151 143 172
f 172 138 151
f 3 6 1
f 40 45 53
f 31 18 10
f 39 18 31
f 241 254 199
f 233 254 241
f 139 105 97
f 97 118 139
f 139 118 165
f 164 185 143
f 169 185 164
f 219 240 193
f 253 261 219
f 266 292 279
f 237 266 245
f 245 232 237
f 266 279 245
f 237 232 190
f 190 182 237
f 148 182 190
f 274 253 224
f 224 279 274
f 232 245 224
f 224 245 279
f 176 184 218
f 142 184 176
f 263 203 216
f 250 263 216
f 216 242 250
f 200 242 216
f 258 203 263
f 263 284 258
f 258 271 237
f 258 284 305
f 305 271 258
f 354 333 346
f 250 242 255
f 255 310 250
f 255 242 221
f 303 311 290
f 290 311 324
f 112 104 125
f 175 112 125
f 256 298 230
f 168 147 215
f 215 181 168
f 228 249 215
f 189 184 142
f 218 184 189
f 92 168 155
f 168 181 155
f 155 189 142
f 160 147 168
f 160 139 147
f 105 139 160
f 228 215 194
f 194 215 147
f 194 262 228
f 194 207 262
f 332 324 340
f 228 262 270
f 338 304 317
f 346 359 367
f 367 359 380
f 367 354 346
f 333 354 312
f 217 238 212
f 183 209 217
f 264 327 293
f 293 327 319
f 301 238 293
f 301 322 280
f 280 246 301
f 280 233 246
f 335 322 301
f 200 166 187
f 187 221 200
f 187 213 221
f 218 231 252
f 252 265 218
f 273 281 239
f 239 265 273
f 294 281 273
f 273 252 299
f 265 252 273
f 205 239 260
f 260 226 205
f 239 281 260
f 260 281 268
f 268 226 260
f 116 82 74
f 111 187 145
f 145 187 166
f 166 208 140
f 161 182 127
f 127 182 148
f 148 156 127
f 64 106 93
f 70 49 83
f 83 151 96
f 146 104 117
f 104 96 117
f 277 235 290
f 290 324 277
f 277 324 269
f 269 256 277
f 277 256 235
f 290 235 248
f 83 49 41
f 41 62 83
f 41 49 36
f 109 54 122
f 169 164 109
f 122 135 109
f 109 135 169
f 83 62 88
f 88 151 83
f 143 151 88
f 88 164 143
f 88 109 164
f 34 47 55
f 55 47 81
f 84 45 63
f 97 84 63
f 58 45 84
f 53 45 58
f 92 113 58
f 27 48 35
f 6 3 11
f 81 47 94
f 73 86 94
f 26 18 39
f 26 47 34
f 10 18 26
f 65 120 107
f 246 233 220
f 233 241 220
f 165 118 131
f 152 139 165
f 147 139 152
f 152 194 147
f 207 194 152
f 144 136 110
f 170 136 144
f 174 182 161
f 174 140 208
f 177 190 169
f 148 190 177
f 177 156 148
f 169 135 177
f 135 156 177
f 211 190 232
f 232 224 211
f 211 185 169
f 169 190 211
f 229 258 237
f 203 258 229
f 237 182 229
f 229 174 203
f 182 174 229
f 349 328 341
f 341 354 349
f 349 354 362
f 310 255 276
f 276 323 310
f 276 255 221
f 274 279 287
f 287 279 292
f 287 253 274
f 308 287 321
f 282 303 290
f 337 303 329
f 133 86 78
f 107 120 78
f 78 120 133
f 133 120 99
f 120 65 99
f 112 175 162
f 133 99 162
f 162 99 112
f 285 256 269
f 298 256 285
f 269 324 285
f 332 298 285
f 285 324 332
f 210 181 202
f 181 215 202
f 202 215 249
f 197 231 218
f 218 189 197
f 189 155 223
f 223 197 189
f 223 181 210
f 223 155 181
f 210 231 223
f 231 197 223
f 126 160 168
f 105 160 126
f 79 105 126
f 126 168 92
f 92 79 126
f 332 340 353
f 353 327 332
f 319 327 353
f 366 324 311
f 366 340 324
f 278 249 228
f 228 270 278
f 377 390 385
f 356 377 372
f 333 304 325
f 304 338 325
f 204 217 212
f 204 141 183
f 183 217 204
f 264 293 251
f 251 293 238
f 238 217 251
f 251 272 264
f 243 272 251
f 209 243 251
f 251 217 209
f 314 293 319
f 301 293 314
f 262 254 267
f 267 254 233
f 233 280 267
f 267 280 322
f 356 335 369
f 369 377 356
f 369 335 301
f 390 377 369
f 301 314 369
f 369 314 348
f 330 309 322
f 322 335 330
f 171 176 218
f 163 129 171
f 171 129 176
f 218 239 171
f 171 239 205
f 137 124 163
f 163 171 137
f 137 171 150
f 158 124 137
f 137 150 158
f 213 187 179
f 179 158 205
f 111 158 179
f 179 187 111
f 205 226 179
f 179 226 213
f 299 252 286
f 231 312 286
f 286 252 231
f 23 31 10
f 10 15 23
f 36 31 23
f 20 15 7
f 10 5 2
f 2 15 10
f 2 7 15
f 5 3 2
f 2 3 1
f 1 4 2
f 4 7 2
f 53 58 66
f 132 145 166
f 166 140 132
f 132 140 106
f 122 54 101
f 101 54 72
f 101 135 122
f 101 156 135
f 101 127 156
f 64 93 51
f 72 59 51
f 111 77 103
f 103 77 90
f 103 124 111
f 90 124 103
f 35 48 69
f 90 77 69
f 69 82 90
f 48 74 69
f 69 74 82
f 64 43 98
f 98 106 64
f 98 132 106
f 98 77 111
f 111 145 98
f 145 132 98
f 67 59 54
f 67 46 59
f 25 46 67
f 91 96 104
f 104 112 91
f 91 70 83
f 83 96 91
f 112 99 91
f 91 99 65
f 146 117 159
f 159 117 138
f 159 206 146
f 159 138 206
f 138 117 130
f 130 117 96
f 130 151 138
f 130 96 151
f 290 248 227
f 227 282 290
f 261 282 227
f 193 240 227
f 227 206 193
f 227 214 206
f 248 214 227
f 240 219 227
f 227 219 261
f 235 256 201
f 201 248 235
f 201 214 248
f 201 175 125
f 230 175 201
f 201 256 230
f 33 41 36
f 33 20 25
f 62 41 33
f 25 67 33
f 33 67 62
f 21 42 37
f 37 16 21
f 13 26 34
f 13 5 10
f 10 26 13
f 68 81 110
f 68 55 81
f 142 176 121
f 176 129 121
f 142 121 134
f 134 121 87
f 50 45 37
f 50 63 45
f 37 42 50
f 55 68 76
f 76 118 97
f 97 63 76
f 63 50 76
f 76 50 42
f 84 79 71
f 71 58 84
f 71 79 92
f 92 58 71
f 32 40 53
f 22 17 14
f 8 16 37
f 37 11 8
f 8 11 3
f 8 3 5
f 5 13 8
f 8 13 16
f 37 45 24
f 24 11 37
f 45 40 24
f 39 31 44
f 44 52 39
f 31 65 44
f 44 86 73
f 73 52 44
f 44 65 107
f 107 78 44
f 44 78 86
f 60 94 47
f 39 52 60
f 60 52 73
f 73 94 60
f 60 26 39
f 47 26 60
f 212 170 149
f 149 204 212
f 141 204 149
f 183 141 154
f 133 162 154
f 128 86 133
f 128 94 86
f 133 154 128
f 128 154 141
f 141 149 128
f 49 70 57
f 36 49 57
f 70 91 57
f 57 91 65
f 57 31 36
f 57 65 31
f 157 136 170
f 170 220 157
f 173 152 165
f 207 152 173
f 199 207 173
f 195 216 203
f 203 174 195
f 195 174 208
f 195 208 200
f 200 216 195
f 198 224 253
f 198 211 224
f 253 219 198
f 198 219 193
f 193 143 198
f 143 185 198
f 185 211 198
f 299 354 307
f 354 341 307
f 307 273 299
f 307 341 328
f 307 328 294
f 294 273 307
f 357 365 344
f 344 323 357
f 323 336 357
f 370 328 349
f 370 336 328
f 349 362 370
f 365 357 370
f 370 357 336
f 378 365 370
f 328 336 289
f 294 328 289
f 289 268 294
f 399 386 391
f 391 386 378
f 354 367 375
f 375 362 354
f 375 367 380
f 268 247 234
f 234 226 268
f 213 226 234
f 221 213 234
f 234 276 221
f 247 276 234
f 365 360 331
f 331 297 310
f 373 365 378
f 373 360 365
f 378 386 373
f 384 358 371
f 371 358 329
f 303 282 316
f 329 303 316
f 316 321 329
f 308 321 316
f 329 358 350
f 350 337 329
f 188 162 175
f 188 209 183
f 183 154 188
f 188 154 162
f 264 272 306
f 306 272 298
f 306 327 264
f 306 298 332
f 332 327 306
f 222 272 243
f 222 243 209
f 230 298 222
f 298 272 222
f 379 358 384
f 379 366 358
f 385 390 393
f 393 380 385
f 393 388 380
f 390 398 393
f 291 270 304
f 291 278 270
f 291 304 333
f 333 312 291
f 236 231 210
f 210 202 236
f 385 359 364
f 364 377 385
f 364 372 377
f 356 372 343
f 317 309 343
f 309 330 343
f 343 335 356
f 343 330 335
f 351 325 338
f 351 359 333
f 333 325 351
f 351 364 359
f 372 364 351
f 351 338 317
f 317 343 351
f 351 343 372
f 348 314 361
f 319 353 361
f 361 314 319
f 317 304 296
f 322 309 288
f 288 267 322
f 288 296 267
f 288 309 317
f 317 296 288
f 192 171 205
f 150 171 192
f 205 158 192
f 158 150 192
f 299 286 320
f 320 286 312
f 320 354 299
f 320 312 354
f 14 17 9
f 9 4 1
f 1 6 9
f 6 14 9
f 38 46 25
f 59 46 38
f 38 51 59
f 64 51 38
f 95 66 87
f 116 74 95
f 95 163 116
f 95 129 163
f 87 121 95
f 95 121 129
f 106 140 153
f 153 119 106
f 161 119 153
f 153 174 161
f 140 174 153
f 85 51 93
f 85 93 106
f 106 119 85
f 72 51 85
f 56 69 77
f 56 98 43
f 77 98 56
f 35 69 56
f 75 88 62
f 62 67 75
f 75 67 54
f 54 109 75
f 109 88 75
f 125 146 167
f 167 201 125
f 28 33 36
f 20 33 28
f 36 23 28
f 28 15 20
f 28 23 15
f 29 21 16
f 29 13 34
f 16 13 29
f 34 55 29
f 55 76 29
f 42 21 29
f 29 76 42
f 100 155 142
f 142 134 100
f 92 155 100
f 100 113 92
f 108 58 113
f 108 66 58
f 113 100 108
f 108 100 134
f 87 66 108
f 108 134 87
f 110 136 123
f 136 131 123
f 61 32 53
f 27 32 61
f 53 66 61
f 61 74 48
f 48 27 61
f 61 95 74
f 66 95 61
f 17 22 30
f 30 38 17
f 30 56 43
f 30 43 64
f 64 38 30
f 30 22 35
f 35 56 30
f 19 32 27
f 40 32 19
f 19 24 40
f 19 14 6
f 6 11 19
f 11 24 19
f 19 22 14
f 19 27 35
f 35 22 19
f 110 81 115
f 115 144 110
f 170 144 115
f 115 149 170
f 115 128 149
f 246 220 259
f 220 225 259
f 259 238 246
f 259 225 238
f 212 238 191
f 238 225 191
f 191 170 212
f 191 220 170
f 191 225 220
f 165 131 178
f 178 173 165
f 157 173 178
f 178 131 136
f 136 157 178
f 186 241 199
f 199 173 186
f 186 173 157
f 186 220 241
f 186 157 220
f 302 336 323
f 302 289 336
f 323 276 302
f 302 276 247
f 399 391 396
f 396 398 399
f 380 388 396
f 388 393 396
f 396 393 398
f 362 375 383
f 383 370 362
f 383 375 380
f 378 370 383
f 383 391 378
f 380 396 383
f 383 396 391
f 344 365 352
f 365 331 352
f 352 331 310
f 352 323 344
f 310 323 352
f 305 284 318
f 284 297 318
f 394 373 386
f 394 386 399
f 360 373 368
f 326 363 334
f 300 326 334
f 334 292 300
f 334 287 292
f 334 321 287
f 329 321 342
f 321 334 342
f 342 334 363
f 355 363 376
f 355 376 384
f 384 371 355
f 355 342 363
f 355 371 329
f 329 342 355
f 295 282 261
f 295 316 282
f 295 261 253
f 253 287 295
f 295 287 308
f 308 316 295
f 358 366 345
f 345 350 358
f 345 366 311
f 337 350 345
f 311 303 345
f 303 337 345
f 196 188 175
f 196 175 230
f 230 222 196
f 209 188 196
f 196 222 209
f 249 278 244
f 244 202 249
f 244 236 202
f 374 353 340
f 374 361 353
f 340 366 374
f 366 379 374
f 262 267 283
f 267 296 283
f 304 270 283
f 283 296 304
f 12 9 17
f 12 7 4
f 4 9 12
f 25 20 12
f 20 7 12
f 12 38 25
f 17 38 12
f 114 85 119
f 161 127 114
f 114 119 161
f 214 201 180
f 201 167 180
f 206 214 180
f 146 206 180
f 180 167 146
f 102 76 68
f 102 68 110
f 110 123 102
f 118 76 102
f 102 131 118
f 102 123 131
f 81 94 89
f 89 115 81
f 94 128 89
f 128 115 89
f 268 289 315
f 289 302 315
f 315 247 268
f 315 302 247
f 297 331 339
f 339 318 297
f 339 331 360
f 300 305 313
f 305 318 313
f 313 326 300
f 384 376 397
f 376 394 397
f 397 394 399
f 381 368 373
f 376 363 381
f 257 244 278
f 236 244 257
f 257 291 312
f 278 291 257
f 257 312 231
f 231 236 257
f 361 374 382
f 348 361 382
f 382 369 348
f 390 369 382
f 275 270 262
f 262 283 275
f 275 283 270
f 80 114 127
f 85 114 80
f 127 101 80
f 80 101 72
f 72 85 80
f 326 313 347
f 360 368 347
f 347 339 360
f 368 381 347
f 318 339 347
f 347 313 318
f 347 363 326
f 347 381 363
f 384 397 392
f 399 398 400
f 400 397 399
f 373 394 389
f 389 381 373
f 389 394 376
f 376 381 389
f 387 374 379
f 387 382 374
f 387 379 384
f 384 392 387
f 395 387 392
f 395 392 397
f 382 387 395
f 395 400 398
f 397 400 395
f 395 398 390
f 390 382 395

