# https://github.com/mikedh/trimesh
v 0.00000000 0.00000000 2.00000000
v -0.24170244 -0.06971267 1.98411695
v 0.18522851 -0.01254562 1.99136461
v -0.12252007 0.39140100 1.95749689
v 0.04084784 -0.53091865 1.92781141
v 0.38312915 0.24688881 1.94737207
v -0.59428430 0.04586432 1.90911567
v 0.44147696 -0.35778554 1.91757336
v -0.13288316 0.51551747 1.92784434
v -0.28589854 -0.46172758 1.92485575
v 0.70551856 0.05544042 1.87060683
v -0.64761361 0.44774840 1.83850972
v 0.08792778 -0.80238067 1.82987813
v 0.53645681 0.64744402 1.81467086
v -0.55416733 -0.18430964 1.91283259
v 0.64092702 -0.52595507 1.82005050
v -0.36047775 0.66915222 1.84994354
v -0.45034456 -0.80447956 1.77482462
v 0.80746681 0.25334929 1.81212899
v -0.76551577 0.53307335 1.76912928
v 0.34639747 -0.71663611 1.83478650
v -0.01135955 0.79710751 1.83425477
v -0.69875249 -0.40156009 1.83043559
v 0.93043691 0.13192609 1.76546953
v -0.53993044 0.61199035 1.82590880
v -0.15310873 -1.11556056 1.65290120
v 0.59244275 0.81711613 1.72665365
v -0.96406463 -0.11628179 1.74844443
v 0.62988442 -0.99072754 1.61916786
v -0.03538594 1.15056751 1.63552507
v -0.65699371 -0.69990890 1.75456171
v 0.91970982 0.38146329 1.73453729
v -1.08181167 0.57403728 1.58119091
v 0.39696904 -0.85132393 1.76569056
v 0.30127536 1.01851619 1.69465570
v -1.18411219 -0.34996378 1.57334156
v 1.13771953 -0.57089850 1.54261764
v -0.24933257 1.22718933 1.55943567
v -0.44216673 -1.18641647 1.54819396
v 0.85905081 0.58366266 1.70920145
v -1.25528932 -0.13308128 1.55130207
v 0.67955626 -1.14192161 1.49473018
v 0.00800610 1.29031449 1.52807867
v -1.14982868 -0.57413869 1.53240294
v 1.20522203 0.17476761 1.58647286
v -0.95357812 0.63676210 1.63866494
v -0.30843545 -1.36150828 1.43218810
v 0.75283639 1.16417741 1.44150211
v -1.42123499 0.05678507 1.40601087
v 1.10777825 -0.85288435 1.43018028
v -0.35644653 1.30157193 1.47609498
v -0.50310676 -1.31879164 1.41692350
v 1.33770336 0.16772987 1.47730038
v -1.11230894 0.49334157 1.58725641
v 0.80193028 -1.04481989 1.50507782
v 0.65970289 1.21557019 1.44470801
v -1.32686885 -0.66219118 1.34198431
v 1.43016249 -0.35492554 1.35228070
v -0.59064187 1.34019395 1.36199205
v 0.07729103 -1.42484602 1.40137072
v 1.06362248 1.01651982 1.35476738
v -1.44644799 0.26231914 1.35608882
v 0.98352913 -1.03951548 1.39716785
v 0.08899036 1.38198399 1.44298336
v -0.80906714 -1.26954040 1.31669189
v 1.60011570 0.05753536 1.19846545
v -1.34858142 0.60104168 1.34910231
v -0.06431542 -1.50376322 1.31702684
v 0.97533032 1.15952050 1.30546657
v -1.53867718 -0.43468171 1.20146758
v 1.29891311 -0.90584072 1.22158803
v -0.68912623 1.39153397 1.26045160
v -0.96943011 -1.27689034 1.19572418
v 1.39037713 0.65500322 1.27977428
v -1.45628026 0.07396879 1.36885954
v 0.62992807 -1.52306480 1.13290081
v 0.47404317 1.54238431 1.18166565
v -1.39032839 -0.54917085 1.32868294
v 1.57757019 0.16768427 1.21784822
v -1.07800988 1.27091980 1.10573847
v 0.29667065 -1.45109640 1.34398875
v 1.37890172 0.98036361 1.06654453
v -1.49412364 -0.00781611 1.32948616
v 1.23548777 -1.21199432 1.00231718
v -0.13441010 1.58709260 1.20957472
v -1.00836976 -1.35886111 1.06615520
v 1.60589481 -0.03266699 1.19165210
v -1.44432726 0.99062690 0.96570032
v 0.86094646 -1.40381232 1.13493708
v 0.97736877 1.34830238 1.10762402
v -1.66450279 -0.28361435 1.07191108
v 1.68681297 -0.13476909 1.06606721
v -0.87481852 1.53339925 0.93988260
v -0.57660678 -1.54702059 1.12882767
v 1.28122723 1.19315177 0.96687416
v -1.79365888 0.09984389 0.87910125
v 1.11301346 -1.35293278 0.96476625
v 0.00574335 1.78116550 0.90962436
v -1.03426609 -1.48366222 0.85383843
v 1.65974221 0.47506794 1.00973573
v -1.31748136 1.15943711 0.95913944
v 0.46799707 -1.69979824 0.94427998
v 1.14071050 1.31496926 0.98470065
v -1.76576226 -0.18607640 0.92057548
v 1.22830204 -1.29849081 0.89732697
v -0.77867853 1.63724660 0.84444260
v -0.69358878 -1.59840795 0.98184858
v 1.36371198 1.08783895 0.97821064
v -1.83219264 0.21291903 0.77313362
v 1.14475529 -1.33736769 0.94920123
v 0.40791973 1.66717115 1.02671411
v -1.42842112 -1.04749607 0.92863614
v 1.58187623 -0.65743924 1.03220213
v -1.11996731 1.35352067 0.95585304
v -0.15085001 -1.86384437 0.70945645
v 1.10980947 1.50471100 0.71004769
v -1.84791053 -0.29085502 0.70755215
v 1.55371359 -0.87728274 0.90352038
v -0.04018587 1.86505405 0.72108147
v -1.14519325 -1.38571922 0.87653561
v 1.77700848 -0.22034939 0.89089114
v -1.70078814 0.63563380 0.83862350
v 0.44304825 -1.75360326 0.85357124
v 0.71442512 1.68804660 0.80005964
v -1.48017615 -0.99256235 0.90768856
v 1.46033714 -1.14728877 0.74239067
v -0.60743459 1.69346206 0.87361861
v -0.71430158 -1.70847869 0.75556193
v 1.66224055 0.82617068 0.74457933
v -1.80319763 0.59932478 0.62392958
v 1.15400696 -1.53383890 0.56178836
v 0.06425543 1.80473390 0.85953870
v -1.49594112 -1.12329896 0.70736102
v 1.78941191 -0.53281701 0.71701538
v -1.66630924 0.90332510 0.63829246
v 0.14494061 -1.91389396 0.56214067
v 1.56269179 1.09437345 0.60028419
v -1.77453350 -0.77656771 0.49796934
v 1.21377771 -1.45312803 0.64433114
v -0.19751889 1.87077589 0.67910520
v -0.76561920 -1.69974145 0.72436609
v 1.80663911 0.71684308 0.47137154
v -1.84010191 0.67087398 0.40491116
v 0.21924282 -1.93997515 0.43408408
v 0.84800659 1.68178418 0.67267138
v -1.72766809 -0.80884456 0.60077738
v 1.92705864 -0.17999995 0.50402878
v -0.65275718 1.84929481 0.39244969
v 0.00957212 -1.93664103 0.49932945
v 1.46418650 1.29203797 0.43219879
v -1.95696993 -0.06344370 0.40772980
v 1.43839243 -1.30537814 0.47646105
v -0.00307000 1.93102190 0.52071585
v -1.14569268 -1.58058569 0.43489903
v 1.97932405 -0.11098603 0.26449651
v -1.19580996 1.51308762 0.52972105
v -0.19450580 -1.91591223 0.53985907
v 1.27739932 1.45954094 0.48784342
v -1.95572918 -0.25350425 0.33295492
v 1.39980931 -1.34059993 0.49328056
v -1.09947370 1.65187104 0.24995933
v -0.18298499 -1.94138713 0.44444629
v 1.63583756 1.00527613 0.55987085
v -1.80951235 0.72677184 0.44437342
v 0.82774711 -1.78317013 0.36761258
v 0.33881159 1.93490093 0.37598548
v -1.73351699 -0.98773270 0.13893508
v 1.96362149 0.08609426 0.36983566
v -1.51220660 1.23353222 0.43775503
v -0.49819255 -1.92756573 0.19051125
v 1.55666028 1.20214943 0.36282988
v -1.98042048 0.08874257 0.26468751
v 1.59572135 -1.17228593 0.28181390
v 0.16914332 1.96320000 0.34239789
v -1.27035828 -1.53126269 0.20352988
v 1.95113364 0.04389603 0.43720778
v -1.46908104 1.35627846 0.04805858
v 1.11185479 -1.63209049 0.31632191
v 1.16019525 1.62319400 0.13852161
v -1.62983707 -1.11206170 0.32703194
v 1.93069560 -0.45724900 0.25167010
v -1.19027855 1.58950823 0.23811882
v -0.05515607 -1.99846482 0.05564308
v 1.87863406 0.58242644 0.36264795
v -1.97606611 0.30557501 0.04226875
v 0.86290055 -1.79245952 0.20613471
v 0.19229511 1.98247276 0.18117485
v -1.34709998 -1.46877240 0.16741948
v 1.99530468 -0.12928983 0.04520378
v -1.59146692 1.21047380 0.04456718
v 0.49212111 -1.92860494 0.19570333
v 1.27195478 1.53132722 0.19278997
v -1.98085929 0.14041278 0.23765676
v 1.48992386 -1.30797936 0.26328102
v -0.25600173 1.98141940 -0.09187097
v -0.73984339 -1.85784679 0.03220375
v 1.68321727 1.07187448 -0.13365900
v -1.87372095 0.68986598 0.11512913
v 0.89366963 -1.78539752 0.11709099
v 0.08681100 1.99561188 0.09998547
v -1.81515538 -0.83827398 0.05007685
v 1.99526080 0.01152850 0.13711833
v -1.25005485 1.56100951 0.02474193
v -0.57174140 -1.91283237 0.11909704
v 1.76035088 0.94681867 -0.06855068
v -1.96718207 -0.31558924 -0.17492317
v 1.75863518 -0.92021544 -0.24577602
v -0.17245756 1.99172459 -0.05737185
v -1.59464631 -1.18161110 -0.24677595
v 1.98742540 0.21276461 -0.06979608
v -1.23434819 1.56585261 -0.15649335
v -0.05365101 -1.99921575 -0.01606157
v 1.21157157 1.59082814 0.03688008
v -1.95972300 -0.39929932 0.00676808
v 1.80813303 -0.79402934 -0.31650016
v -1.24740283 1.52431799 -0.34704587
v -1.17923711 -1.59917300 -0.22813491
v 1.83033195 0.77262044 -0.23009263
v -1.77110798 0.90347511 -0.21658539
v 0.68598834 -1.84176016 -0.37059348
v 0.06564337 1.99365999 -0.14495101
v -1.59180829 -1.21022660 -0.03870314
v 1.93708675 -0.31291901 -0.38700985
v -1.43533954 1.37649840 -0.21225586
v -0.21721963 -1.97367671 -0.23961610
v 0.99821081 1.71690542 -0.23624343
v -1.97018040 0.20977419 -0.27273430
v 1.63455870 -1.07016411 -0.42774600
v -0.56092164 1.89466312 -0.30922254
v -1.33575657 -1.48465193 -0.10753151
v 1.69234918 1.06004334 -0.11073561
v -1.91639748 0.52992966 -0.21585939
v 0.12543305 -1.98652138 -0.19493422
v 1.13434017 1.60425388 -0.37368683
v -1.57287514 -1.12341032 -0.51382200
v 1.91895603 -0.21965161 -0.51899993
v -1.45998998 1.33324950 -0.30145486
v -0.51735272 -1.89255089 -0.38806866
v 1.62302210 1.08665801 -0.43008561
v -1.92336398 0.46410459 -0.29202384
v 1.38639596 -1.40902752 -0.30421655
v -0.46711209 1.92275942 -0.29120870
v -1.40483777 -1.30308209 -0.57306884
v 1.94398182 0.16305521 -0.44084883
v -1.37327470 1.37505056 -0.47260193
v -0.02505767 -1.97851743 -0.29127458
v 1.16163947 1.54714075 -0.50690161
v -1.91649579 -0.31960041 -0.47423566
v 1.85924019 -0.45028669 -0.58349620
v -0.71292780 1.73849437 -0.68510676
v -1.14133556 -1.52405241 -0.61205994
v 1.94579846 0.32109547 -0.33281534
v -1.69596739 0.95935887 -0.45091593
v 0.51429630 -1.87483654 -0.46956073
v 0.74785835 1.81840529 -0.36621044
v -1.61366480 -1.11276152 -0.39730053
v 1.87566983 -0.49987162 -0.48165451
v -1.21393028 1.48317322 -0.57146346
v 0.34976380 -1.87877783 -0.58979585
v 1.42518836 1.25417349 -0.62919552
v -1.88005682 0.28986412 -0.61754769
v 1.23150662 -1.46127315 -0.58997647
v -0.01480890 1.85288050 -0.75273805
v -0.92774816 -1.59981908 -0.76148689
v 1.75755476 0.60267462 -0.74012470
v -1.73775326 0.78160417 -0.60770761
v 0.92247962 -1.57776178 -0.81221865
v 0.43648195 1.81627991 -0.71457036
v -1.85202221 -0.19353578 -0.72976547
v 1.80164881 -0.59864507 -0.62903549
v -0.37645990 1.82237191 -0.73296559
v -0.08654538 -1.92030147 -0.55222474
v 1.60035205 1.04980791 -0.58032462
v -1.90651960 -0.16401866 -0.58161921
v 1.38271294 -1.20002908 -0.80500629
v 0.15812220 1.88379347 -0.65293150
v -1.38149946 -1.19720097 -0.81127619
v 1.86841474 -0.29826238 -0.64812491
v -0.93412085 1.60706293 -0.73808332
v 0.28971141 -1.74542714 -0.93249741
v 0.81504910 1.67056918 -0.73816908
v -1.87269195 0.20904334 -0.67031763
v 1.43896688 -0.98839574 -0.97593452
v -0.94564697 1.63375049 -0.66076557
v -0.46548724 -1.76318628 -0.82127692
v 1.50829547 0.84880444 -1.00228528
v -1.70387492 0.63177297 -0.83526832
v 0.63071121 -1.61501578 -0.99695908
v 0.91329993 1.61171242 -0.75383441
v -1.58211627 -0.66467636 -1.02718715
v 1.79653428 -0.23775898 -0.84612957
v -0.69391213 1.55818320 -1.04429453
v 0.21997195 -1.70947482 -1.01454826
v 1.03445382 1.44719401 -0.91407592
v -1.78166108 0.17963216 -0.89073907
v 1.46869410 -0.91417877 -1.00360092
v 0.12244634 1.81555481 -0.82992025
v -1.42465937 -1.10768389 -0.86219609
v 1.74776734 0.00169389 -0.97226872
v -1.52719744 0.89309592 -0.93276345
v 0.42692651 -1.76509206 -0.83796407
v 0.76025788 1.64428818 -0.84754017
v -1.65503416 0.01155163 -1.12282166
v 1.62127596 -0.67080566 -0.95993960
v -0.45982607 1.72215413 -0.90705300
v -0.53565554 -1.55234562 -1.14162000
v 1.18884064 1.11671206 -1.15741613
v -1.65311091 0.51864461 -0.99911566
v 0.39390446 -1.54822753 -1.20325840
v 0.00658852 1.61434022 -1.18061943
v -1.09216466 -1.37770108 -0.95347579
v 1.75251341 -0.02783760 -0.96328698
v -1.29571694 1.05594623 -1.09822364
v -0.40855150 -1.70089478 -0.96955795
v 1.31611041 1.06730492 -1.06240933
v -1.65520093 0.12700550 -1.11542793
v 1.11963692 -1.30019678 -1.02757067
v -0.22588665 1.57625791 -1.21011826
v -1.24024783 -1.01570922 -1.19587629
v 1.64483044 -0.06540282 -1.13589405
v -1.45495783 0.81923058 -1.10089008
v 0.19329735 -1.51770640 -1.28810070
v 0.96389733 1.24332945 -1.23492260
v -1.42816863 -0.67178385 -1.22843023
v 1.49332061 -0.18523973 -1.31745201
v -0.43929286 1.41000615 -1.34866765
v -0.05205419 -1.54142176 -1.27330645
v 1.48703736 0.62832784 -1.18064559
v -1.56856036 0.34885900 -1.19076269
v 0.81260525 -1.22028275 -1.36036124
v -0.28865792 1.37576214 -1.42265777
v -1.12293387 -0.81087426 -1.44274130
v 1.37504369 -0.25696488 -1.42941383
v -1.26965738 0.92124845 -1.24067378
v 0.35223231 -1.42129714 -1.36229469
v 1.11724713 1.09192028 -1.24878700
v -1.53567948 -0.18274395 -1.26818500
v 0.97805429 -0.99076495 -1.43589506
v -0.52036901 1.19578540 -1.51634869
v -0.26246244 -1.51565672 -1.27824026
v 1.38176941 0.48995132 -1.36039002
v -1.30675801 0.55426632 -1.40896145
v 0.72926095 -1.24486183 -1.38509836
v 0.69817548 1.13108528 -1.49438853
v -1.13235410 -0.51844962 -1.56492306
v 1.31144597 -0.47250589 -1.43417142
v -0.95382608 0.76222070 -1.58405663
v 0.00215414 -1.48319056 -1.34169338
v 0.73811941 1.17340754 -1.44162911
v -1.20496570 -0.16376889 -1.58784049
v 1.04463280 -0.54952924 -1.61454636
v 0.09780869 1.20653421 -1.59207684
v -0.77200846 -1.13884354 -1.45156409
v 1.41285278 0.14859718 -1.40775208
v -1.14466149 0.82252631 -1.41887299
v 0.08163186 -1.20565346 -1.59365491
v 0.71605543 1.01015821 -1.57061931
v -1.36586450 -0.21450260 -1.44513072
v 1.16964525 -0.17841924 -1.61248149
v -0.38408039 1.17568331 -1.57170322
v -0.35614658 -1.18199186 -1.57354849
v 0.82470113 0.85494070 -1.60901972
v -1.22435363 0.06416129 -1.58013971
v 0.37834411 -1.19264573 -1.56027302
v -0.17862300 1.23844272 -1.56024147
v -0.97014195 -0.60488646 -1.64101706
v 1.20072431 -0.37107596 -1.55581611
v -0.84793844 0.66436779 -1.68511597
v -0.27104105 -1.00889873 -1.70547943
v 0.76587279 0.82799269 -1.65162555
v -0.99748249 -0.41392532 -1.68335810
v 0.61082222 -0.77690921 -1.73876631
v -0.29720374 1.04802733 -1.67729206
v -0.59120833 -0.89676990 -1.68709112
v 0.96599547 0.18195404 -1.74176505
v -0.95070603 0.23967237 -1.74319110
v 0.36861065 -0.75018393 -1.81696182
v 0.33479216 0.65996222 -1.85805384
v -0.90766090 -0.42448705 -1.73088487
v 0.81164609 -0.38152893 -1.78764267
v -0.27915045 0.85594076 -1.78590046
v -0.25024994 -0.97608872 -1.72760695
v 0.48488633 0.53941004 -1.86384604
v -0.81429152 0.26540868 -1.80734268
v 0.44249519 -0.73359121 -1.80721940
v 0.06571599 0.59729647 -1.90759491
v -0.54628427 -0.48480168 -1.86186488
v 0.61575975 -0.06160241 -1.90185306
v -0.63407134 0.33987334 -1.86612959
v -0.03873661 -0.78218156 -1.84029657
v 0.23744269 0.58707211 -1.89709444
v -0.43210711 -0.13746399 -1.94791866
v 0.43519791 -0.37315045 -1.91607973
v -0.16733415 0.48063033 -1.93416488
v -0.06297638 -0.33950959 -1.96996630
v 0.33551350 0.22912848 -1.95829794
v -0.28394532 0.02866529 -1.97953362
v 0.16638227 -0.41126377 -1.95017411
v -0.02116211 0.32362797 -1.97352910
v -0.20212315 -0.06953448 -1.98854499
f 269 290 248
f 183 170 212
f 235 290 298
f 248 290 235
f 176 184 100
f 100 129 82
f 3 5 8
f 225 246 212
f 212 170 225
f 272 225 238
f 246 225 272
f 272 259 246
f 238 264 285
f 285 272 238
f 314 272 285
f 217 196 175
f 217 264 238
f 238 196 217
f 365 373 360
f 185 227 193
f 274 269 248
f 267 288 317
f 301 288 267
f 241 207 173
f 270 257 215
f 257 223 215
f 320 354 328
f 310 263 297
f 375 370 362
f 204 196 238
f 238 225 204
f 204 225 170
f 175 196 154
f 248 235 256
f 209 222 201
f 248 256 201
f 201 256 209
f 184 176 168
f 155 168 176
f 173 207 181
f 181 134 173
f 189 155 181
f 207 215 181
f 181 223 189
f 181 215 223
f 81 42 29
f 76 42 81
f 101 156 169
f 143 185 193
f 198 185 143
f 169 177 190
f 190 224 237
f 177 224 190
f 54 67 62
f 122 96 62
f 62 67 122
f 265 328 286
f 218 205 184
f 268 310 297
f 205 218 197
f 95 158 116
f 116 158 145
f 171 197 192
f 153 208 148
f 255 166 226
f 98 111 132
f 132 111 166
f 166 153 132
f 150 137 171
f 171 192 150
f 150 192 158
f 150 158 95
f 95 137 150
f 100 184 142
f 142 129 100
f 184 205 142
f 100 82 74
f 74 40 32
f 129 137 108
f 108 82 129
f 108 137 95
f 95 82 108
f 32 40 19
f 161 156 148
f 314 327 293
f 293 272 314
f 358 350 345
f 345 324 358
f 379 350 376
f 264 311 306
f 314 285 306
f 306 285 264
f 230 217 175
f 230 222 209
f 251 311 264
f 264 217 251
f 358 324 337
f 337 324 290
f 290 269 337
f 232 185 198
f 320 328 299
f 299 328 265
f 199 191 220
f 220 241 199
f 194 241 173
f 207 241 228
f 241 275 228
f 228 215 207
f 270 215 228
f 228 304 270
f 262 275 241
f 262 220 267
f 241 220 262
f 262 267 317
f 317 275 262
f 341 354 375
f 341 328 354
f 375 362 341
f 336 328 341
f 341 362 336
f 375 354 359
f 304 228 296
f 351 338 372
f 384 389 392
f 384 379 376
f 392 379 384
f 389 384 368
f 368 384 376
f 400 392 397
f 392 389 397
f 394 397 389
f 383 370 375
f 383 378 370
f 347 355 339
f 339 368 347
f 339 360 373
f 373 368 339
f 352 373 365
f 349 323 336
f 349 352 310
f 344 352 349
f 336 362 349
f 258 279 313
f 180 133 146
f 112 86 73
f 170 183 162
f 120 154 99
f 133 154 120
f 120 112 133
f 99 86 120
f 86 112 120
f 26 13 18
f 248 201 206
f 206 274 248
f 227 274 206
f 193 227 206
f 206 172 193
f 151 172 159
f 121 176 100
f 105 126 84
f 105 139 126
f 84 63 89
f 89 42 76
f 89 63 42
f 186 191 199
f 165 191 186
f 34 13 26
f 34 81 29
f 46 54 20
f 96 122 109
f 193 172 109
f 109 151 96
f 109 172 151
f 164 135 169
f 169 190 164
f 198 143 164
f 164 190 198
f 88 122 67
f 88 67 80
f 80 101 88
f 135 122 88
f 169 135 88
f 88 101 169
f 148 156 106
f 106 127 148
f 336 323 307
f 210 218 184
f 184 168 210
f 276 263 221
f 221 255 276
f 276 255 268
f 297 263 276
f 276 268 297
f 171 205 231
f 231 197 171
f 205 197 231
f 234 255 226
f 213 234 226
f 213 192 197
f 145 158 179
f 158 192 179
f 192 213 179
f 179 213 226
f 179 166 145
f 226 166 179
f 148 208 195
f 195 208 221
f 140 127 98
f 148 127 140
f 140 153 148
f 221 208 200
f 208 153 200
f 163 137 129
f 129 142 163
f 171 137 163
f 163 205 171
f 163 142 205
f 6 4 3
f 40 74 61
f 61 27 40
f 48 27 61
f 61 74 82
f 61 82 95
f 156 161 182
f 182 177 169
f 169 156 182
f 123 165 131
f 259 272 280
f 272 293 280
f 301 259 280
f 280 288 301
f 395 392 400
f 387 379 392
f 392 395 387
f 387 395 390
f 366 379 387
f 366 345 371
f 371 379 366
f 371 345 350
f 350 379 371
f 332 345 366
f 324 345 332
f 188 230 175
f 222 230 188
f 188 180 222
f 133 180 188
f 175 154 188
f 188 154 133
f 311 251 277
f 277 235 298
f 217 230 243
f 243 251 217
f 243 230 209
f 235 277 243
f 243 277 251
f 209 256 243
f 243 256 235
f 376 350 363
f 363 350 358
f 358 337 363
f 303 337 269
f 316 337 303
f 303 269 295
f 295 316 303
f 282 274 227
f 227 261 282
f 282 261 295
f 295 269 282
f 269 274 282
f 266 261 240
f 240 232 266
f 240 261 227
f 227 185 240
f 185 232 240
f 329 316 295
f 295 308 329
f 329 337 316
f 329 363 337
f 287 261 266
f 295 261 287
f 287 308 295
f 321 329 308
f 270 304 291
f 291 304 320
f 233 220 191
f 212 246 233
f 246 259 233
f 233 183 212
f 233 191 183
f 160 139 131
f 126 139 160
f 178 186 199
f 199 241 178
f 241 194 178
f 178 160 131
f 194 160 178
f 131 165 178
f 165 186 178
f 380 359 351
f 380 372 393
f 351 372 380
f 375 359 380
f 325 354 320
f 320 304 325
f 283 228 275
f 283 296 228
f 283 275 317
f 317 338 283
f 283 338 296
f 377 372 364
f 386 352 378
f 388 383 375
f 375 380 388
f 388 380 393
f 313 279 292
f 292 339 313
f 378 352 357
f 357 352 344
f 370 378 357
f 357 362 370
f 357 349 362
f 344 349 357
f 279 258 284
f 237 224 216
f 216 224 211
f 211 284 216
f 216 284 258
f 263 310 318
f 318 305 263
f 318 292 305
f 138 180 146
f 167 201 222
f 222 180 167
f 167 138 201
f 180 138 167
f 57 112 73
f 73 44 57
f 57 44 78
f 70 57 78
f 70 91 146
f 141 204 170
f 170 128 141
f 196 204 141
f 141 154 196
f 99 154 141
f 115 128 157
f 157 128 170
f 170 162 157
f 149 162 183
f 115 157 149
f 149 157 162
f 10 13 5
f 10 18 13
f 5 2 10
f 31 18 10
f 41 70 78
f 1 5 3
f 1 2 5
f 3 4 1
f 1 4 2
f 96 151 117
f 117 104 96
f 151 159 117
f 159 138 117
f 117 138 146
f 146 91 117
f 91 104 117
f 214 206 201
f 201 138 214
f 214 138 159
f 172 206 214
f 214 159 172
f 100 66 92
f 92 121 100
f 176 121 147
f 147 121 134
f 147 155 176
f 134 181 147
f 147 181 155
f 29 42 55
f 42 63 55
f 131 139 97
f 97 89 131
f 84 89 97
f 60 68 81
f 60 34 26
f 81 34 60
f 115 68 94
f 5 13 21
f 13 34 21
f 21 8 5
f 245 253 237
f 237 216 245
f 245 216 258
f 245 258 313
f 266 232 219
f 219 253 266
f 219 232 198
f 198 190 219
f 219 190 237
f 237 253 219
f 67 54 33
f 54 46 33
f 80 67 33
f 33 46 80
f 130 109 122
f 130 164 143
f 130 143 193
f 193 109 130
f 130 122 135
f 135 164 130
f 114 101 80
f 156 101 114
f 72 127 93
f 127 106 93
f 80 72 93
f 93 114 80
f 93 106 156
f 156 114 93
f 189 210 202
f 202 210 168
f 202 155 189
f 168 155 202
f 265 218 252
f 218 210 252
f 263 305 271
f 119 132 153
f 153 140 119
f 98 132 119
f 119 140 98
f 174 153 166
f 174 200 153
f 79 53 66
f 74 53 79
f 79 66 100
f 100 74 79
f 8 21 16
f 16 34 29
f 16 21 34
f 59 72 80
f 80 46 59
f 95 116 103
f 116 90 103
f 124 116 145
f 124 90 116
f 145 166 124
f 166 111 124
f 48 90 56
f 56 27 48
f 40 27 14
f 14 19 40
f 14 6 19
f 22 6 14
f 69 90 48
f 48 61 69
f 69 103 90
f 69 61 95
f 95 103 69
f 177 182 203
f 211 224 203
f 203 224 177
f 203 161 211
f 203 182 161
f 102 123 131
f 102 89 76
f 131 89 102
f 76 81 102
f 81 68 102
f 102 68 115
f 115 123 102
f 348 335 322
f 327 348 322
f 322 293 327
f 343 335 364
f 364 372 343
f 343 372 338
f 319 277 298
f 311 277 319
f 324 332 319
f 298 290 319
f 290 324 319
f 340 348 327
f 340 361 348
f 306 361 340
f 340 327 314
f 314 306 340
f 348 361 356
f 364 335 356
f 356 335 348
f 356 377 364
f 390 377 356
f 363 329 342
f 376 363 342
f 329 321 342
f 342 355 347
f 342 368 376
f 347 368 342
f 334 321 313
f 313 339 334
f 334 339 355
f 355 342 334
f 334 342 321
f 308 287 300
f 300 321 308
f 300 287 266
f 313 321 300
f 266 253 300
f 300 245 313
f 253 245 300
f 249 223 257
f 249 257 270
f 270 291 249
f 254 233 259
f 220 233 254
f 254 259 301
f 301 267 254
f 267 220 254
f 152 194 173
f 152 160 194
f 173 126 152
f 126 160 152
f 333 359 354
f 354 325 333
f 393 372 385
f 385 377 393
f 372 377 385
f 390 395 398
f 398 377 390
f 393 377 398
f 381 386 394
f 381 368 373
f 373 352 381
f 352 386 381
f 389 368 381
f 381 394 389
f 378 383 391
f 391 386 378
f 229 284 211
f 211 161 229
f 229 161 148
f 339 292 326
f 292 318 326
f 125 70 146
f 146 133 125
f 133 112 125
f 112 57 125
f 57 70 125
f 144 191 165
f 165 123 144
f 183 191 144
f 144 149 183
f 78 44 36
f 36 41 78
f 91 70 83
f 70 41 83
f 62 96 83
f 96 104 83
f 83 104 91
f 66 53 87
f 87 92 66
f 134 121 113
f 121 92 113
f 110 105 84
f 84 97 110
f 139 105 110
f 110 97 139
f 107 128 115
f 115 94 107
f 99 141 107
f 107 141 128
f 107 86 99
f 107 94 86
f 73 86 65
f 86 94 65
f 65 44 73
f 31 44 65
f 52 65 94
f 244 299 265
f 265 252 244
f 244 252 210
f 189 223 244
f 244 210 189
f 323 349 302
f 310 268 302
f 302 349 310
f 315 260 286
f 315 286 328
f 315 328 336
f 336 307 315
f 294 307 323
f 294 315 307
f 260 315 294
f 323 302 294
f 294 302 289
f 265 286 273
f 286 260 273
f 273 218 265
f 187 174 166
f 200 174 187
f 166 255 187
f 187 255 221
f 221 200 187
f 45 74 32
f 45 53 74
f 22 17 9
f 9 17 4
f 9 6 22
f 4 6 9
f 85 111 98
f 98 127 85
f 85 127 72
f 72 59 85
f 51 85 59
f 77 124 111
f 90 124 77
f 77 56 90
f 111 85 77
f 27 56 35
f 22 14 35
f 35 14 27
f 293 322 309
f 288 280 309
f 309 280 293
f 309 322 335
f 309 343 288
f 335 343 309
f 317 288 330
f 288 343 330
f 330 338 317
f 330 343 338
f 353 319 332
f 353 361 306
f 353 306 311
f 311 319 353
f 390 356 382
f 382 387 390
f 351 359 367
f 359 333 367
f 383 388 396
f 396 391 383
f 396 395 400
f 396 398 395
f 396 388 393
f 393 398 396
f 271 229 242
f 263 271 242
f 148 195 242
f 242 229 148
f 221 263 242
f 242 195 221
f 284 229 250
f 250 229 271
f 250 271 305
f 279 284 250
f 250 292 279
f 305 292 250
f 331 326 318
f 331 318 310
f 365 360 331
f 331 352 365
f 310 352 331
f 360 339 331
f 339 326 331
f 136 144 123
f 149 144 136
f 136 123 115
f 115 149 136
f 15 10 2
f 49 83 41
f 49 54 62
f 49 41 54
f 134 113 118
f 118 126 173
f 173 134 118
f 84 126 118
f 92 87 58
f 58 113 92
f 58 87 53
f 53 45 58
f 26 18 39
f 39 18 31
f 31 65 39
f 65 52 39
f 47 94 68
f 47 52 94
f 47 39 52
f 26 39 47
f 47 60 26
f 68 60 47
f 299 244 312
f 320 299 312
f 312 291 320
f 236 244 223
f 223 249 236
f 291 312 236
f 236 312 244
f 289 302 281
f 255 234 281
f 234 289 281
f 268 255 281
f 281 302 268
f 234 260 247
f 260 294 247
f 247 289 234
f 247 294 289
f 239 197 218
f 218 273 239
f 239 273 260
f 239 260 234
f 239 213 197
f 234 213 239
f 32 19 24
f 24 45 32
f 25 17 38
f 38 51 25
f 25 46 20
f 25 59 46
f 25 51 59
f 20 12 25
f 4 17 25
f 25 12 4
f 22 35 30
f 30 17 22
f 38 17 30
f 56 77 64
f 64 35 56
f 64 77 85
f 374 332 366
f 374 353 332
f 366 387 374
f 387 382 374
f 361 353 374
f 369 356 361
f 369 382 356
f 361 374 369
f 369 374 382
f 346 367 333
f 304 296 346
f 351 367 346
f 346 325 304
f 346 333 325
f 346 338 351
f 296 338 346
f 386 391 399
f 391 396 399
f 394 386 399
f 397 394 399
f 400 397 399
f 399 396 400
f 23 44 31
f 23 36 44
f 31 10 23
f 10 15 23
f 62 83 75
f 75 49 62
f 83 49 75
f 113 58 71
f 71 118 113
f 71 63 84
f 84 118 71
f 50 55 63
f 63 71 50
f 278 249 291
f 291 236 278
f 278 236 249
f 11 24 19
f 19 6 11
f 8 16 11
f 16 24 11
f 3 8 11
f 11 6 3
f 37 58 45
f 45 24 37
f 37 24 16
f 55 50 37
f 37 71 58
f 37 50 71
f 29 55 37
f 37 16 29
f 43 30 35
f 35 64 43
f 38 30 43
f 43 51 38
f 85 51 43
f 43 64 85
f 41 36 28
f 36 23 28
f 28 23 15
f 54 41 28
f 20 54 28
f 28 12 20
f 12 28 7
f 7 28 15
f 7 15 2
f 2 4 7
f 4 12 7

