# https://github.com/mikedh/trimesh
v 0.11687740 0.23788045 1.98236035
v -0.04738181 -0.01979256 1.99934070
v 0.24748001 -0.16003375 1.97816654
v -0.08599121 0.17352989 1.99060114
v -0.06468742 -0.25469297 1.98266160
v 0.44917528 0.43404276 1.89996012
v -0.30751083 0.08665226 1.97431722
v 0.46836249 -0.32041054 1.91780439
v 0.03171215 0.50011476 1.93620236
v -0.47726201 -0.43767791 1.89226294
v 0.78498463 0.02344808 1.83936112
v -0.74157047 0.41715226 1.80998818
v 0.15682747 -0.76270634 1.84219548
v 0.26397653 0.70873699 1.85148812
v -0.54903469 -0.10868296 1.92009086
v 0.46709610 -0.37668587 1.90785979
v -0.19416359 0.74991270 1.84389030
v -0.31273748 -0.91713414 1.74958859
v 0.62811201 0.36633139 1.86313623
v -0.74870661 0.16338335 1.84736144
v 0.63325516 -0.80223088 1.71913162
v 0.35727876 0.86537367 1.76733707
v -0.82452229 -0.27044581 1.80194952
v 0.92299091 0.13966870 1.76877936
v -0.51451572 0.93094117 1.69370071
v -0.20786295 -0.90156668 1.77312450
v 0.72573620 0.79293390 1.68658317
v -0.88826906 -0.27839041 1.77016295
v 0.77640513 -0.82741113 1.64699299
v 0.16169500 1.03068286 1.70632575
v -0.71462949 -0.92706013 1.62168561
v 1.10386236 0.13727910 1.66211984
v -0.91851844 0.55071218 1.68909442
v 0.43182194 -0.97043054 1.69463695
v 0.35945551 1.05460719 1.66090199
v -0.90785277 -0.66093861 1.65498142
v 1.23809567 -0.34001565 1.53346290
v -0.76199851 0.86167870 1.63611371
v -0.07401320 -1.24680426 1.56205032
v 1.02507350 0.65662575 1.58684181
v -1.12344500 0.20538201 1.64185552
v 0.48082751 -1.07178647 1.61866571
v 0.45385370 1.18207665 1.54813165
v -0.84907073 -0.75645932 1.64525019
v 1.32815434 0.24795798 1.47462635
v -0.69555280 0.90980059 1.63965521
v -0.20042632 -1.22470213 1.56841767
v 0.70250165 1.07225700 1.53517307
v -1.34728176 -0.34158226 1.43810758
v 0.89273052 -0.86195388 1.56846031
v -0.08482441 1.25489139 1.55500882
v -0.86968332 -0.94870041 1.53088812
v 1.11147344 0.63052119 1.53852846
v -1.37954353 0.40260648 1.39095926
v 0.19873992 -1.45930990 1.35311384
v 0.48630636 1.31208392 1.42896533
v -1.20608184 -0.39456389 1.54586090
v 1.41041388 -0.20023955 1.40379372
v -0.44439161 1.18867775 1.54582059
v -0.21454521 -1.50206542 1.30298497
v 0.85558116 1.08976878 1.44235394
v -1.46482074 0.14014984 1.35449556
v 1.07128062 -0.87211678 1.44629532
v 0.19931444 1.32409257 1.48561523
v -1.08841275 -1.15531225 1.21680372
v 1.49751558 0.07276955 1.32368866
v -0.91739868 1.07693431 1.41371572
v 0.41251506 -1.49533654 1.26245791
v 0.98583945 1.06623550 1.37523177
v -1.61835082 -0.19793227 1.15834513
v 1.19908742 -0.74307457 1.41775511
v -0.48939481 1.40972333 1.33160537
v -0.56912193 -1.36210592 1.34935826
v 1.20590345 1.08305450 1.17166113
v -1.53254748 0.30426987 1.24848631
v 0.75435510 -1.39331751 1.22049772
v 0.06886145 1.64239323 1.13921138
v -1.44059565 -0.89035998 1.06392823
v 1.68714470 -0.16703345 1.06096305
v -0.76449181 1.47765119 1.10999966
v 0.35592259 -1.57695447 1.17751166
v 1.05961883 1.25694127 1.13899366
v -1.54972428 -0.26279847 1.23664531
v 1.21801209 -0.96101234 1.26210215
v -0.37131354 1.60393996 1.13556279
v -1.11014419 -1.34717268 0.97606642
v 1.50514402 0.87019080 0.98858962
v -1.24599450 1.21167953 0.98961126
v 0.07415055 -1.63844125 1.14455754
v 0.82432766 1.45881162 1.09194898
v -1.61815542 -0.55191774 1.03776676
v 1.63644686 -0.42845628 1.06698964
v -0.77444841 1.43544307 1.15746829
v -0.13541688 -1.66936155 1.09311220
v 1.57393062 0.80177539 0.93802912
v -1.63075155 0.20762629 1.13909645
v 1.09626931 -1.32248053 1.02432360
v 0.42493814 1.61209716 1.10479424
v -1.26498334 -1.29155287 0.85539952
v 1.67619276 -0.43351952 1.00121858
v -1.46659939 0.99277707 0.92923620
v 0.43125863 -1.68812924 0.98195503
v 0.97550921 1.46862242 0.94420864
v -1.58035535 -0.53410339 1.10327265
v 1.34543851 -1.22321106 0.83279644
v -0.86487420 1.62455221 0.78282995
v -0.75410204 -1.55266910 1.01022214
v 1.76068208 0.24592691 0.91625246
v -1.66626571 0.27060586 1.07253487
v 0.54027798 -1.64944835 0.99369001
v 0.20875172 1.74007295 0.96362277
v -1.33735910 -1.24812610 0.80848740
v 1.74873560 -0.55410225 0.79680268
v -0.71186786 1.59760521 0.97000090
v -0.44383515 -1.74332413 0.87397446
v 1.60619695 0.75280871 0.92380214
v -1.68122863 -0.42303530 0.99725194
v 1.15608904 -1.36478939 0.89487880
v 0.21253882 1.73120061 0.97865811
v -1.50475242 -1.12501749 0.68560616
v 1.62817813 0.67267905 0.94685737
v -1.59738482 0.90288232 0.79571682
v 0.61156858 -1.79177912 0.64460177
v 0.53734993 1.83715237 0.57976392
v -1.62514040 -0.84553261 0.80249192
v 1.70305105 -0.57180038 0.87901163
v -0.65497659 1.69190335 0.84170584
v -0.82805935 -1.66062783 0.74607837
v 1.46562746 1.18171173 0.67490260
v -1.78397592 0.60159015 0.67492164
v 0.80637799 -1.74203976 0.56129494
v -0.15471090 1.88583776 0.64782750
v -1.64219407 -0.84289462 0.76988786
v 1.88592475 -0.10028779 0.65820225
v -1.18001624 1.44282929 0.72512434
v -0.27896439 -1.90938158 0.52577641
v 1.32983609 1.31772419 0.70366110
v -1.73268782 -0.68587506 0.72620129
v 1.41391982 -1.33737949 0.46070256
v -0.90514825 1.72759837 0.44284367
v -0.97791811 -1.67032104 0.50369016
v 1.94917101 0.05517254 0.44462160
v -1.86846278 0.52162062 0.48657862
v 1.14627354 -1.57442477 0.45524020
v 0.61278523 1.80081270 0.61771181
v -1.89417567 -0.34060582 0.54413802
v 1.82125176 -0.40526421 0.72027978
v -1.45395860 1.24125726 0.58760940
v 0.04783039 -1.95812974 0.40427735
v 1.58676992 1.01556783 0.67140391
v -1.90200126 0.42455330 0.44960618
v 0.98998694 -1.67697871 0.45570634
v 0.00236248 1.96323067 0.38173259
v -0.88781366 -1.75528060 0.36163091
v 1.94177042 0.29140126 0.38028010
v -1.50359073 1.29373222 0.25587467
v 0.84166609 -1.75086020 0.47548582
v 1.29447269 1.44717897 0.47959719
v -1.90420021 -0.16688107 0.58836407
v 1.90335137 -0.57483114 0.21638558
v -0.79958190 1.79275019 0.38303464
v -0.36958345 -1.95464559 0.20680595
v 1.81069706 0.77164230 0.35488636
v -1.94563769 0.27652346 0.37152219
v 1.07491061 -1.60078633 0.53108408
v 0.70247744 1.83521487 0.37217178
v -1.32387333 -1.47842894 0.24820818
v 1.93896538 0.18809039 0.45280820
v -1.42196736 1.37761985 0.28314730
v 0.28407759 -1.96433181 0.24637467
v 1.07492654 1.66640234 0.26006956
v -1.95984708 0.33649485 0.21394070
v 1.14905148 -1.63009287 0.14992640
v 0.30923361 1.97128789 0.13564150
v -0.86779702 -1.75467429 0.40993472
v 1.98037927 0.26460208 0.08990936
v -1.48277145 1.34057980 0.06507418
v 0.54936548 -1.92210799 0.06081482
v 0.62019362 1.89297949 0.17885335
v -1.53329436 -1.24564651 0.31204674
v 1.87547984 -0.68141663 0.13508059
v -0.53597143 1.89968088 0.32240843
v -0.90849983 -1.77830933 0.11065262
v 1.71149970 1.03341942 0.05303856
v -1.99747198 0.03895444 0.09267280
v 0.92646444 -1.77222617 0.02963192
v 0.34125484 1.94642170 0.30820073
v -1.66152463 -1.10498003 0.13548080
v 1.99505520 0.12557289 0.06313648
v -1.48011021 1.31375221 0.28866743
v 0.33014983 -1.96665856 0.15249659
v 0.77286106 1.84120114 0.11253506
v -1.90746347 -0.53728504 0.27001465
v 1.88239794 -0.67549872 -0.01671733
v -0.75057254 1.85198112 0.08250320
v -0.47879209 -1.94139477 0.04176687
v 1.98313548 0.11121644 0.23410374
v -1.92879468 0.52022310 0.09549341
v 0.84465912 -1.80673664 0.14917665
v 1.03659754 1.71037118 0.00979537
v -1.52937677 -1.28756679 -0.05637772
v 1.82285157 -0.81849945 -0.08526892
v -1.45505132 1.36939823 0.08702951
v -0.44768120 -1.94902396 -0.02978486
v 1.67497511 1.08002258 -0.16736077
v -1.99733707 0.09230657 -0.04608815
v 1.75214293 -0.96376746 -0.03387391
v -0.12317698 1.98745813 -0.18664839
v -1.05578670 -1.68218329 -0.23574104
v 1.98760897 -0.21465803 0.05772809
v -1.36347108 1.44883970 -0.20447528
v 0.01515589 -1.99235593 -0.17403489
v 1.40257469 1.41944575 -0.13400737
v -1.88042980 -0.68110112 -0.00922090
v 1.97055876 -0.27613577 -0.20161156
v -1.26590743 1.52604531 -0.26203839
v -0.27723901 -1.97973228 -0.06163301
v 1.54673743 1.24607250 -0.23432164
v -1.93153136 0.51202707 -0.08375497
v 1.36411177 -1.43656816 -0.27471990
v 0.24111117 1.98127032 -0.12819252
v -1.62822698 -1.14985677 -0.16342064
v 1.97971362 -0.26180527 -0.11041726
v -1.15762829 1.59434374 -0.34346002
v 0.51337058 -1.91270116 -0.27932939
v 1.48811411 1.33239785 -0.10115515
v -1.85314714 -0.62768775 -0.41455247
v 1.64974538 -1.06929066 -0.36736584
v -0.26548609 1.98004773 -0.09448866
v -0.59582149 -1.87879326 -0.33931201
v 1.97560021 -0.05300666 -0.30691058
v -1.70707750 0.92961607 -0.47085069
v 0.70120920 -1.81540791 -0.46108543
v 0.48136879 1.88657443 -0.45729750
v -1.91640293 -0.52428805 -0.22917645
v 1.75392215 -0.92814171 -0.24961979
v -0.56286986 1.90318873 -0.24708336
v 0.04421332 -1.97975985 -0.28034997
v 1.48185296 1.23435704 -0.52959844
v -1.87748488 0.38169843 -0.57389620
v 1.59748214 -1.11676883 -0.44819439
v -0.01897413 1.93497143 -0.50549534
v -1.31842449 -1.48227088 -0.25422414
v 1.80760017 0.63458055 -0.57435976
v -1.46812984 1.29633978 -0.40509005
v 0.13620534 -1.96041295 -0.37179185
v 0.62952351 1.78629502 -0.64253424
v -1.90159254 -0.27433609 -0.55559475
v 1.65429357 -0.95222981 -0.59713581
v -0.58097451 1.87883325 -0.36394261
v -0.57831451 -1.79172692 -0.67473476
v 1.73259213 0.86935789 -0.49228182
v -1.55492181 1.13421221 -0.54385735
v 1.07638014 -1.52794298 -0.71189609
v 0.33031523 1.90426350 -0.51446318
v -1.82532294 -0.56683912 -0.58897332
v 1.87516963 -0.25627427 -0.64657741
v -1.44498133 1.28412253 -0.51289209
v -0.63684213 -1.83433057 -0.47923216
v 1.19444606 1.52301533 -0.50370915
v -1.86588706 0.16518940 -0.70084087
v 1.68049793 -0.99875910 -0.42238249
v 0.09690077 1.92155709 -0.54610309
v -1.49860762 -1.16222885 -0.63513724
v 1.92570035 0.03143731 -0.53915662
v -1.61326102 0.94269382 -0.71324418
v 0.36108366 -1.87464090 -0.59610409
v 0.40036742 1.80408756 -0.76483594
v -1.60605898 -1.02609132 -0.60639192
v 1.73280948 -0.57494753 -0.81658229
v -0.98354878 1.61834446 -0.64311197
v -0.28659355 -1.81853273 -0.78153876
v 1.58295357 0.83373357 -0.89394984
v -1.83912498 -0.17456503 -0.76625476
v 1.37742800 -1.28003501 -0.68132405
v -0.30979068 1.88898909 -0.57943936
v -1.39624006 -1.23145142 -0.73078115
v 1.82397778 -0.46154142 -0.67829534
v -1.46340693 1.03958051 -0.88188011
v 0.48727258 -1.79188098 -0.74278395
v 1.12101955 1.37803003 -0.91888433
v -1.67639066 -0.68060554 -0.85234409
v 1.67043032 -0.71402095 -0.83656239
v -0.19016972 1.84304509 -0.75300749
v -0.98929042 -1.50640783 -0.86720234
v 1.84353798 0.33462015 -0.69956921
v -1.60956738 0.76328330 -0.90922574
v 0.64871845 -1.69912341 -0.83195192
v 0.52764056 1.64498386 -1.00778149
v -1.50024992 -1.07082924 -0.77625699
v 1.70748387 -0.66424912 -0.80204235
v -1.20616914 1.41083845 -0.74477571
v -0.53046908 -1.64127050 -1.01234070
v 1.41781064 1.00088344 -0.99400469
v -1.65190306 0.49544336 -1.01279423
v 1.15920810 -1.34691597 -0.91763497
v -0.17849299 1.78889646 -0.87635021
v -1.36584779 -0.95469492 -1.10590118
v 1.69480469 0.48101090 -0.94671305
v -1.51698010 0.81745934 -1.01515103
v 0.12821829 -1.67884953 -1.07936293
v 0.89826960 1.56869738 -0.85574544
v -1.63058416 -0.44663237 -1.06851056
v 1.58559275 -0.58866329 -1.06741331
v -0.77412533 1.56221179 -0.97991036
v -1.02735052 -1.38813762 -1.00877394
v 1.51089500 0.92478250 -0.92842534
v -1.60998154 0.15008693 -1.17704432
v 1.17101722 -1.12287938 -1.16955572
v 0.69557032 1.48216951 -1.14863200
v -1.47885752 -0.89968101 -1.00177569
v 1.50451284 -0.57318137 -1.18655141
v -1.08487277 1.22571420 -1.14920658
v 0.19706337 -1.58393339 -1.20512284
v 1.05898962 1.11518217 -1.27863588
v -1.51024525 -0.24972185 -1.28716676
v 0.95176713 -1.21018782 -1.27655191
v -0.26128402 1.49286191 -1.30502642
v -0.75321711 -1.37367859 -1.24325022
v 1.68554330 0.12879026 -1.06881095
v -1.46947664 0.67445653 -1.17717747
v 0.81614437 -1.29843032 -1.28373949
v 0.95046783 1.26224938 -1.22610661
v -1.56378725 -0.31406505 -1.20662032
v 1.32474380 -0.71860683 -1.31478443
v -0.93805479 1.10550302 -1.37764882
v -0.56475150 -1.44604729 -1.26095321
v 1.15241544 0.94683966 -1.33245387
v -1.58878934 0.22420435 -1.19393503
v 1.06648819 -1.11519279 -1.27237887
v -0.32218549 1.41097435 -1.38034339
v -1.24221615 -1.03869526 -1.17388721
v 1.36986203 -0.29252244 -1.42755337
v -1.01225249 0.97404726 -1.42357888
v 0.48750758 -1.35251987 -1.39033318
v 0.54557192 1.31048286 -1.40889529
v -1.28193521 -0.51764328 -1.44522924
v 1.48708487 -0.37289992 -1.28433806
v -0.81396755 1.33306327 -1.24915938
v -0.58433486 -1.24182725 -1.45479134
v 1.24482810 0.34500302 -1.52688438
v -1.39292752 0.30898328 -1.40152854
v 0.87740827 -1.08347873 -1.43395557
v 0.25077452 1.45590500 -1.34812936
v -1.17961137 -0.75315227 -1.42873324
v 1.31054888 -0.23261421 -1.49276665
v -0.94580339 1.07392790 -1.39718818
v 0.23135135 -1.41866463 -1.39063555
v 0.97557028 0.85397585 -1.52282234
v -1.30955758 0.37540372 -1.46428515
v 1.23354369 -0.64922734 -1.43418054
v -0.02247384 1.38751166 -1.44024523
v -0.97096944 -0.67348336 -1.61357941
v 1.13760140 -0.10020275 -1.64189600
v -0.99414754 1.00838750 -1.41238286
v -0.00098038 -1.23999705 -1.56920565
v 0.74618961 1.08072949 -1.50838485
v -1.06609992 -0.56722941 -1.59426527
v 1.19761117 -0.21391325 -1.58744090
v -0.13844408 1.06194493 -1.68911403
v -0.11077349 -1.21846501 -1.58211006
v 1.00161708 0.37201435 -1.69067104
v -1.05358830 0.14800432 -1.69353075
v 0.62164800 -0.97052981 -1.63451083
v -0.06394841 1.19977708 -1.59888885
v -0.73268899 -1.04897992 -1.53714280
v 0.94891243 -0.08879923 -1.75831735
v -1.01543741 0.64466533 -1.59790284
v 0.21342097 -1.08581699 -1.66596907
v 0.82053973 0.75704195 -1.65939810
v -0.97250493 0.00944853 -1.74761119
v 0.73047118 -0.64520256 -1.74646085
v -0.44052252 0.89767464 -1.73208549
v -0.65140280 -0.91549687 -1.65455126
v 0.74363794 0.34989117 -1.82334275
v -0.81841390 0.13639301 -1.81977901
v 0.38339717 -0.67801183 -1.84209299
v 0.24175022 0.85563536 -1.79149238
v -0.88727986 -0.41304146 -1.74417063
v 0.81922176 -0.12062194 -1.82052906
v -0.22264610 0.64816928 -1.87891067
v -0.13048190 -0.77141615 -1.84062261
v 0.66836676 0.55402522 -1.80176079
v -0.72362939 0.05047337 -1.86381677
v 0.58770817 -0.41755376 -1.86554227
v -0.01986084 0.71307056 -1.86845817
v -0.32229954 -0.51489268 -1.90552054
v 0.76562167 0.18347733 -1.83852102
v -0.42869597 0.43707979 -1.90399082
v 0.09312809 -0.73168971 -1.85902053
v 0.18329229 0.56889673 -1.90860170
v -0.69944928 -0.29181566 -1.85084152
v 0.47900523 -0.22381518 -1.92884959
v -0.24192622 0.45568230 -1.93231088
v -0.11858393 -0.29747469 -1.97419519
v 0.28558823 0.12640889 -1.97546454
v -0.46183802 0.31604455 -1.92010976
v 0.08015495 -0.36059437 -1.96559072
v 0.13534234 0.31139071 -1.97096887
v -0.27163128 -0.10246331 -1.97881725
f 185 172 206
f 202 181 207
f 309 296 317
f 317 296 322
f 277 243 264
f 207 181 139
f 320 299 286
f 286 265 320
f 334 300 313
f 232 198 177
f 177 198 156
f 208 174 221
f 153 174 208
f 208 229 153
f 69 74 82
f 53 74 69
f 259 230 209
f 209 230 183
f 238 246 212
f 212 246 225
f 225 233 186
f 246 238 272
f 272 238 230
f 272 259 251
f 230 259 272
f 217 238 212
f 230 238 217
f 285 259 209
f 251 259 285
f 209 243 285
f 243 277 285
f 207 139 220
f 186 233 220
f 86 107 65
f 65 107 73
f 84 76 97
f 60 115 94
f 60 55 39
f 73 107 60
f 107 115 60
f 232 253 266
f 266 240 232
f 400 387 392
f 387 374 392
f 341 299 320
f 393 398 396
f 388 393 396
f 391 383 396
f 391 396 399
f 399 396 400
f 355 334 313
f 318 297 344
f 305 297 318
f 135 148 88
f 245 253 232
f 232 177 245
f 148 135 169
f 122 148 156
f 49 41 62
f 41 54 62
f 44 10 36
f 53 121 87
f 87 74 53
f 37 11 16
f 45 121 53
f 45 66 121
f 121 66 108
f 276 297 305
f 276 229 208
f 179 221 174
f 132 85 77
f 174 153 187
f 187 179 174
f 158 171 103
f 103 171 145
f 64 98 77
f 196 183 230
f 196 217 162
f 196 162 154
f 154 183 196
f 236 202 207
f 139 118 144
f 322 296 288
f 361 327 340
f 340 374 361
f 382 374 387
f 382 398 390
f 387 398 382
f 361 374 382
f 382 369 361
f 390 369 382
f 314 327 361
f 314 301 327
f 314 288 301
f 361 369 356
f 369 348 356
f 356 314 361
f 348 314 356
f 335 348 369
f 335 314 348
f 322 288 335
f 288 314 335
f 167 243 209
f 209 183 167
f 167 183 154
f 154 141 167
f 188 120 133
f 180 120 188
f 188 193 214
f 185 206 235
f 235 193 185
f 214 193 235
f 206 240 261
f 219 240 206
f 219 206 172
f 172 198 219
f 219 198 232
f 232 240 219
f 358 353 345
f 251 285 293
f 293 272 251
f 327 301 293
f 301 272 293
f 306 277 332
f 306 285 277
f 275 296 309
f 254 220 233
f 254 288 296
f 233 288 254
f 296 275 254
f 254 275 220
f 131 118 110
f 110 123 131
f 97 76 110
f 110 118 97
f 102 123 110
f 105 118 139
f 126 84 105
f 97 118 105
f 105 84 97
f 41 28 20
f 73 60 47
f 47 60 39
f 52 65 73
f 44 36 52
f 78 65 52
f 31 10 44
f 31 18 10
f 44 52 31
f 31 52 73
f 73 47 31
f 31 47 18
f 94 115 136
f 128 136 115
f 128 115 107
f 128 107 86
f 86 141 128
f 89 60 94
f 55 60 89
f 240 266 287
f 279 266 253
f 313 300 279
f 300 287 279
f 279 287 266
f 189 223 231
f 181 202 194
f 194 160 181
f 223 160 194
f 244 286 299
f 265 286 244
f 176 197 189
f 189 231 176
f 176 184 163
f 176 231 265
f 265 244 176
f 344 310 336
f 349 357 315
f 370 357 349
f 299 341 328
f 341 349 328
f 328 349 315
f 395 387 400
f 395 398 387
f 400 396 395
f 395 396 398
f 364 335 369
f 390 398 377
f 377 398 393
f 372 364 377
f 377 369 390
f 377 364 369
f 380 393 388
f 265 231 257
f 320 265 257
f 392 371 384
f 384 397 400
f 400 392 384
f 363 316 342
f 363 371 316
f 337 371 358
f 316 371 337
f 358 345 337
f 311 303 337
f 386 381 360
f 373 381 389
f 334 355 373
f 360 381 373
f 362 383 370
f 370 349 362
f 362 349 341
f 378 383 391
f 391 386 378
f 378 357 370
f 370 383 378
f 378 386 360
f 378 336 357
f 388 396 375
f 375 396 383
f 375 362 388
f 383 362 375
f 289 268 247
f 289 310 344
f 344 297 289
f 297 268 289
f 352 318 344
f 313 305 339
f 156 148 190
f 190 169 156
f 148 169 190
f 88 148 101
f 148 122 101
f 185 193 146
f 49 62 83
f 83 62 70
f 75 62 54
f 54 101 75
f 75 101 122
f 57 36 28
f 57 41 49
f 57 28 41
f 49 78 57
f 78 52 57
f 57 52 36
f 23 36 10
f 28 36 23
f 23 20 28
f 82 74 137
f 137 103 82
f 158 103 137
f 121 163 116
f 26 47 39
f 18 47 26
f 5 10 26
f 10 18 26
f 8 16 11
f 37 16 29
f 32 11 37
f 32 45 53
f 66 45 58
f 58 32 37
f 45 32 58
f 197 176 155
f 155 176 163
f 155 163 121
f 121 108 155
f 229 276 237
f 145 171 166
f 179 187 166
f 182 132 153
f 182 153 229
f 153 132 111
f 111 98 145
f 111 132 77
f 77 85 51
f 51 64 77
f 98 64 56
f 53 69 40
f 40 27 19
f 40 32 53
f 88 101 67
f 67 101 54
f 230 217 204
f 204 196 230
f 217 196 204
f 249 236 262
f 149 136 162
f 149 123 102
f 149 217 212
f 162 217 149
f 102 89 149
f 94 136 149
f 149 89 94
f 178 225 186
f 173 220 139
f 139 144 173
f 186 220 173
f 144 152 173
f 246 272 267
f 267 272 301
f 267 225 246
f 233 225 267
f 379 392 374
f 374 353 379
f 379 353 358
f 358 371 379
f 379 371 392
f 112 120 180
f 180 167 112
f 78 120 112
f 264 243 222
f 222 269 264
f 222 188 214
f 256 269 227
f 269 222 227
f 214 235 227
f 227 222 214
f 248 235 206
f 206 261 248
f 248 261 274
f 274 256 248
f 256 227 248
f 248 227 235
f 274 261 308
f 342 316 308
f 374 340 366
f 366 353 374
f 366 345 353
f 332 345 366
f 282 269 256
f 282 303 311
f 282 256 274
f 274 303 282
f 298 345 332
f 332 277 298
f 298 337 345
f 311 337 298
f 264 269 290
f 290 277 264
f 269 282 290
f 290 282 311
f 290 298 277
f 311 298 290
f 319 340 327
f 327 293 319
f 319 366 340
f 319 293 285
f 285 306 319
f 319 306 332
f 332 366 319
f 68 110 76
f 210 160 223
f 189 197 210
f 210 223 189
f 210 134 160
f 33 54 41
f 33 67 54
f 38 67 33
f 136 128 175
f 154 162 175
f 162 136 175
f 175 141 154
f 175 128 141
f 295 261 240
f 240 287 295
f 295 308 261
f 292 224 271
f 313 279 292
f 292 305 313
f 292 271 305
f 273 244 299
f 299 328 273
f 273 328 307
f 323 281 315
f 315 357 323
f 323 336 310
f 357 336 323
f 302 289 247
f 310 289 302
f 302 323 310
f 281 323 302
f 294 328 315
f 307 328 294
f 315 281 294
f 294 239 307
f 281 239 294
f 322 335 343
f 335 364 343
f 343 317 322
f 343 364 372
f 372 351 343
f 385 377 393
f 372 377 385
f 393 380 385
f 385 380 372
f 325 304 309
f 312 304 325
f 312 325 338
f 338 325 351
f 320 304 338
f 338 304 312
f 359 351 372
f 309 304 283
f 283 275 309
f 249 275 283
f 249 283 291
f 202 236 278
f 278 194 202
f 278 236 249
f 249 291 278
f 389 397 376
f 397 384 376
f 376 384 371
f 371 363 376
f 350 363 342
f 381 386 394
f 389 381 394
f 391 399 394
f 394 386 391
f 394 397 389
f 400 397 394
f 394 399 400
f 368 373 389
f 334 373 368
f 389 376 368
f 368 376 363
f 363 350 368
f 344 336 365
f 336 378 365
f 365 352 344
f 365 378 360
f 221 179 234
f 234 255 221
f 234 200 247
f 247 268 234
f 268 255 234
f 208 221 242
f 242 276 208
f 326 355 313
f 313 339 326
f 135 106 140
f 140 169 135
f 78 91 125
f 133 120 125
f 125 120 78
f 138 146 193
f 133 125 138
f 138 125 91
f 138 188 133
f 193 188 138
f 117 83 70
f 146 138 117
f 117 138 91
f 104 78 49
f 104 91 78
f 49 83 104
f 104 117 91
f 83 117 104
f 70 62 96
f 62 75 96
f 74 87 129
f 129 137 74
f 129 184 158
f 158 137 129
f 95 87 121
f 121 116 95
f 22 27 35
f 19 27 6
f 27 22 6
f 6 22 14
f 71 58 37
f 13 26 39
f 13 16 5
f 5 26 13
f 24 19 11
f 11 32 24
f 24 40 19
f 32 40 24
f 160 134 147
f 168 155 108
f 108 134 168
f 197 155 168
f 203 177 156
f 156 169 203
f 169 140 203
f 203 140 216
f 211 245 177
f 211 216 245
f 177 203 211
f 211 203 216
f 271 224 250
f 224 237 250
f 250 237 276
f 305 271 250
f 250 276 305
f 127 106 114
f 132 182 127
f 127 182 161
f 114 85 127
f 85 132 127
f 161 140 127
f 127 140 106
f 124 187 153
f 153 111 124
f 124 111 145
f 145 166 124
f 124 166 187
f 77 98 119
f 119 111 77
f 98 111 119
f 17 51 25
f 30 51 17
f 30 22 35
f 35 64 30
f 64 51 30
f 17 14 30
f 14 22 30
f 61 69 82
f 61 40 69
f 27 40 61
f 43 64 35
f 43 56 64
f 98 56 90
f 145 98 90
f 90 103 145
f 82 103 90
f 90 61 82
f 56 61 90
f 88 67 93
f 207 220 228
f 228 236 207
f 228 262 236
f 123 149 170
f 170 178 123
f 170 149 212
f 199 178 186
f 186 173 199
f 199 173 152
f 165 144 118
f 165 152 144
f 165 118 131
f 131 152 165
f 280 288 233
f 233 267 280
f 301 288 280
f 280 267 301
f 99 167 141
f 99 112 167
f 99 141 86
f 86 65 99
f 99 65 78
f 78 112 99
f 243 167 201
f 201 222 243
f 201 167 180
f 180 188 201
f 188 222 201
f 324 308 316
f 316 337 324
f 324 337 303
f 324 303 274
f 274 308 324
f 55 68 42
f 42 68 76
f 39 55 42
f 55 89 81
f 81 68 55
f 81 89 102
f 102 110 81
f 110 68 81
f 41 20 12
f 12 33 41
f 12 7 17
f 20 7 12
f 17 25 12
f 38 33 12
f 12 25 38
f 20 23 15
f 15 7 20
f 15 23 10
f 15 10 5
f 5 7 15
f 9 14 17
f 9 6 14
f 321 287 300
f 321 295 287
f 321 350 342
f 300 334 321
f 334 368 321
f 321 368 350
f 342 308 329
f 308 295 329
f 329 321 342
f 295 321 329
f 224 292 258
f 245 216 258
f 258 216 224
f 253 245 258
f 258 279 253
f 258 292 279
f 213 171 158
f 200 171 213
f 244 273 252
f 252 239 205
f 252 273 307
f 307 239 252
f 205 184 252
f 252 176 244
f 184 176 252
f 281 302 260
f 260 239 281
f 260 213 239
f 200 213 260
f 247 200 260
f 260 302 247
f 330 343 351
f 351 325 330
f 330 325 309
f 309 317 330
f 317 343 330
f 372 380 367
f 367 359 372
f 367 380 388
f 388 362 367
f 333 338 351
f 320 338 333
f 223 194 215
f 194 278 215
f 215 278 257
f 215 231 223
f 215 257 231
f 270 278 291
f 270 283 304
f 270 291 283
f 257 278 270
f 270 304 320
f 320 257 270
f 318 352 331
f 352 365 331
f 331 365 360
f 360 373 331
f 305 318 331
f 331 339 305
f 373 326 331
f 331 326 339
f 200 234 192
f 192 234 179
f 179 166 192
f 192 171 200
f 192 166 171
f 297 276 284
f 276 242 284
f 263 255 268
f 263 284 242
f 221 255 263
f 263 242 221
f 263 268 297
f 297 284 263
f 347 373 355
f 355 326 347
f 347 326 373
f 224 216 195
f 216 140 195
f 195 140 161
f 195 237 224
f 161 182 195
f 229 237 195
f 195 182 229
f 159 117 70
f 146 117 159
f 185 146 159
f 109 75 122
f 109 96 75
f 70 96 109
f 109 159 70
f 150 95 116
f 150 116 163
f 150 129 87
f 87 95 150
f 163 184 150
f 184 129 150
f 84 71 63
f 76 84 63
f 21 29 16
f 16 13 21
f 21 42 29
f 160 147 113
f 181 160 113
f 113 139 181
f 113 105 139
f 126 105 113
f 79 134 108
f 79 147 134
f 79 108 66
f 66 58 79
f 197 168 142
f 142 168 134
f 142 210 197
f 134 210 142
f 46 67 38
f 38 25 46
f 48 61 56
f 56 43 48
f 27 61 48
f 35 27 48
f 48 43 35
f 80 135 88
f 88 93 80
f 80 106 135
f 114 106 80
f 80 85 114
f 72 51 85
f 85 80 72
f 72 80 93
f 72 93 67
f 220 275 241
f 241 228 220
f 241 275 249
f 249 262 241
f 262 228 241
f 191 170 212
f 178 170 191
f 212 225 191
f 225 178 191
f 157 152 131
f 157 199 152
f 131 123 157
f 123 178 157
f 178 199 157
f 6 9 1
f 205 239 218
f 239 213 218
f 359 367 354
f 354 362 341
f 354 367 362
f 351 359 346
f 346 333 351
f 359 354 346
f 346 354 341
f 346 341 320
f 320 333 346
f 159 109 151
f 151 198 172
f 50 63 71
f 37 29 50
f 50 71 37
f 76 63 50
f 50 42 76
f 29 42 50
f 34 21 13
f 42 21 34
f 34 13 39
f 39 42 34
f 147 79 100
f 126 113 100
f 100 113 147
f 59 25 51
f 51 72 59
f 59 46 25
f 67 46 59
f 59 72 67
f 4 1 9
f 17 7 4
f 4 9 17
f 1 4 2
f 2 7 5
f 2 4 7
f 19 6 3
f 6 1 3
f 11 19 3
f 3 8 11
f 1 2 3
f 3 2 5
f 5 16 3
f 16 8 3
f 226 218 213
f 158 184 226
f 226 213 158
f 226 184 205
f 205 218 226
f 164 151 172
f 159 151 164
f 164 172 185
f 185 159 164
f 130 109 122
f 130 151 109
f 92 79 58
f 92 100 79
f 58 71 92
f 92 71 84
f 92 84 126
f 126 100 92
f 198 151 143
f 151 130 143
f 156 198 143
f 143 122 156
f 143 130 122

