# https://github.com/mikedh/trimesh
v 0.07416330 0.24189115 1.98393258
v -0.18480780 -0.06922403 1.99023971
v 0.27803116 -0.06348061 1.97956280
v -0.28118846 0.34084245 1.95057927
v -0.01171889 -0.29187133 1.97855346
v 0.36027174 0.43002147 1.91970982
v -0.62416640 -0.00668973 1.90009777
v 0.24126344 -0.53075212 1.91313725
v -0.00487986 0.53055725 1.92833742
v -0.30132453 -0.31799789 1.95143047
v 0.54052517 -0.12581256 1.92145875
v -0.49147134 0.23335394 1.92457836
v -0.05235180 -0.71822249 1.86585523
v 0.46766620 0.48803228 1.88231581
v -0.78778523 -0.36987318 1.80071882
v 0.60242626 -0.53463171 1.83064238
v -0.20037569 0.81740872 1.81430222
v -0.10965004 -0.64052888 1.89148080
v 0.81234369 0.52602408 1.75025610
v -0.94835237 0.30597836 1.73407180
v 0.37136485 -0.97340538 1.70721121
v 0.09283446 0.79300351 1.83371950
v -0.87676031 -0.63573063 1.68140951
v 0.87065790 -0.17369616 1.79214521
v -0.55868543 0.71766537 1.78124311
v 0.18292621 -0.82587120 1.81231199
v 0.68174380 0.64838933 1.76488432
v -1.11477772 0.15159742 1.65356852
v 0.77709061 -0.74006502 1.68773041
v -0.27605276 0.90459362 1.76224438
v -0.56425334 -0.98854352 1.64450597
v 1.17045529 0.27030847 1.59905214
v -0.79146651 0.59507468 1.73766133
v 0.19583340 -1.15358586 1.62200152
v 0.56788519 1.05878941 1.59889693
v -0.98313743 -0.23917731 1.72517680
v 0.95806559 -0.74062963 1.59172174
v -0.57386814 0.86698115 1.70851369
v -0.15618983 -1.26431127 1.54179173
v 0.84980332 0.66416864 1.68425483
v -0.99716242 0.53182378 1.65010017
v 0.52140925 -1.06820782 1.60843540
v 0.33629308 1.05237128 1.66715976
v -0.77148747 -1.11255727 1.47208132
v 1.08743524 -0.18978909 1.66777238
v -1.02412304 0.98028808 1.41074707
v 0.23835196 -1.38408474 1.42390231
v 0.52479639 1.08538630 1.59578361
v -1.30874343 0.15623335 1.50425456
v 1.23309732 -0.52520081 1.48446459
v -0.40525934 1.38580007 1.38395197
v -0.71000797 -1.00560347 1.57627737
v 1.20712867 0.35342286 1.55497031
v -1.39947484 0.18118861 1.41726527
v 0.45610750 -1.32336907 1.42851680
v 0.45325211 1.23524600 1.50623034
v -1.34239755 -0.41561013 1.42310823
v 1.27664661 -0.20957766 1.52520511
v -0.70300267 1.32650392 1.32142900
v -0.32857660 -1.33217451 1.45511116
v 1.18134729 0.67045190 1.46796213
v -1.39377965 0.11258118 1.42993139
v 0.81134949 -1.06695960 1.48435481
v -0.09832688 1.41893197 1.40604548
v -0.90876769 -0.98290643 1.48594624
v 1.47521908 -0.07434736 1.34840688
v -1.21903687 0.87464918 1.32247417
v 0.24481572 -1.49441456 1.30644188
v 0.71618516 1.42758963 1.20377185
v -1.24262286 -0.69044840 1.40682957
v 1.31981345 -0.87649911 1.22059074
v -0.42183021 1.45637708 1.30423353
v -0.32029655 -1.49178102 1.29305820
v 1.55464035 0.54432395 1.13437420
v -1.60165970 0.39974615 1.12910993
v 0.72199354 -1.39303448 1.24023396
v 0.56929322 1.44969001 1.25471276
v -1.18362383 -0.87093342 1.35665383
v 1.54602060 -0.11134995 1.26389140
v -1.40419828 0.90569372 1.09906600
v 0.26846248 -1.50557561 1.28886383
v 0.95600801 1.19066769 1.29164977
v -1.59523224 -0.29185757 1.17049274
v 1.45979761 -0.86485662 1.05877948
v -0.21359142 1.71370140 1.00876470
v -0.98322092 -1.29132531 1.16865546
v 1.43215583 0.71829048 1.19707497
v -1.70607683 0.33208172 0.98945620
v 0.15980870 -1.69932404 1.04247733
v 0.45849001 1.65907387 1.01846002
v -1.19365974 -1.03903850 1.22293720
v 1.53915403 -0.70840705 1.06262144
v -0.98290130 1.44063362 0.97901982
v -0.33596304 -1.56603199 1.19777822
v 1.33499435 0.89810480 1.18793849
v -1.46391677 0.68205651 1.17972311
v 1.03724106 -1.26076820 1.15524652
v -0.33297623 1.74240558 0.92366100
v -0.94995591 -1.47006164 0.96773062
v 1.66270965 -0.13710916 1.10299487
v -1.51172420 0.82148135 1.01973444
v 0.31523649 -1.74296069 0.92882398
v 0.77787866 1.51764013 1.04483168
v -1.66301319 -0.32913635 1.06115804
v 1.49572063 -0.87728362 0.99659082
v -0.88403967 1.46819541 1.03095882
v -0.25905737 -1.69305229 1.03269706
v 1.44217478 1.03808112 0.91788861
v -1.71442007 0.31336277 0.98110529
v 0.34197567 -1.74915064 0.90748260
v 0.72295057 1.68615923 0.79637274
v -1.71987301 -0.61859029 0.81202394
v 1.66338719 -0.44888976 1.01569732
v -1.31291798 1.13648013 0.99230000
v -0.66154352 -1.66836660 0.88256051
v 1.29508060 1.21042998 0.92608072
v -1.71770499 0.17048401 1.01016077
v 1.44177154 -1.02343070 0.93481786
v 0.20600500 1.77206357 0.90407557
v -1.21104067 -1.41305917 0.73256009
v 1.62596605 0.68165471 0.94423581
v -1.52257631 1.04106064 0.77327492
v 0.43343559 -1.79801131 0.76111033
v 0.40083572 1.85255555 0.63825439
v -1.76211523 -0.48449998 0.81253288
v 1.58266535 -0.85643693 0.87274634
v -0.93219374 1.67506177 0.57024811
v -0.83564609 -1.71909210 0.58857282
v 1.74076900 0.58864882 0.78944021
v -1.87711372 0.24154014 0.64660843
v 1.29593700 -1.38844448 0.62671304
v 0.58890699 1.84391310 0.50316302
v -1.46446740 -1.24084104 0.56182625
v 1.89827893 0.36853286 0.51060811
v -1.19587247 1.52565630 0.49220107
v 0.22997757 -1.89724851 0.58954084
v 1.38176629 1.37418603 0.44981625
v -1.77670607 -0.64797437 0.65072634
v 1.39672598 -1.29742880 0.60484300
v -0.69493574 1.77982820 0.59099567
v -1.34614150 -1.32875079 0.64986491
v 1.87244960 0.08273085 0.69791696
v -1.66391817 0.93397014 0.59922958
v 0.75470996 -1.70389957 0.72604349
v 0.16205124 1.92964865 0.50019544
v -1.68913201 -0.98372136 0.42323200
v 1.90442734 -0.00346747 0.61085554
v -1.01350931 1.63597058 0.54442551
v -0.57709711 -1.81068680 0.62319518
v 1.40872679 1.38364400 0.31783343
v -1.83716930 0.56713135 0.55060964
v 1.05261700 -1.58369763 0.61959605
v 0.46952915 1.88102361 0.49121539
v -0.99912924 -1.61013010 0.63970447
v 1.95640850 0.20677272 0.36015387
v -1.37874461 1.37214543 0.46505937
v 0.74912666 -1.74503803 0.62741654
v 1.18580504 1.59018035 0.25532895
v -1.87876041 -0.41625371 0.54496988
v 1.57243966 -1.09374069 0.57546922
v -0.11172205 1.97973486 0.26109018
v -0.98339916 -1.68583219 0.43691635
v 1.82159893 0.65386938 0.50421442
v -1.63419850 1.01089044 0.55452301
v 1.12766214 -1.60393381 0.39468268
v 0.67338982 1.85880186 0.30232729
v -1.51573092 -1.23815773 0.41173438
v 1.98783558 0.01261833 0.21988743
v -1.60985159 1.14347751 0.31754849
v 0.30564865 -1.95943621 0.25920775
v 1.18668448 1.57256402 0.34470621
v -1.87200970 -0.59743259 0.37236271
v 1.47443138 -1.33534890 0.20711212
v 0.25096181 1.93838528 0.42388756
v -0.97369881 -1.73677588 0.18846793
v 1.97851425 -0.03112575 0.29071043
v -1.88694165 0.64250418 0.16321643
v 0.56138213 -1.90893074 0.20207311
v 0.63127094 1.85967061 0.37831499
v -1.90730037 -0.57318470 0.18347910
v 1.89268410 -0.63379325 0.12670044
v -1.39352797 1.43209189 0.08480931
v -0.22813852 -1.98523970 0.08231742
v 1.70157347 1.02720767 0.22246828
v -1.98798071 -0.21652298 0.03241132
v 1.13818363 -1.64348762 0.05904622
v 0.11280563 1.99653665 0.03341110
v -1.04724565 -1.70386678 0.01070250
v 1.99889390 0.03851413 0.05422031
v -1.17240249 1.62032932 -0.00230527
v 0.00434418 -1.99892732 -0.06535063
v 0.83887766 1.79882327 0.24600635
v -1.96077333 -0.35653262 0.16808466
v 1.35283806 -1.47101565 -0.07708518
v -1.01719301 1.71687122 -0.13293453
v -1.20107583 -1.59906222 0.02041766
v 1.79143290 0.88684302 -0.06540355
v -1.55210642 1.25662017 -0.10895597
v 0.96982413 -1.73978009 -0.18057239
v 1.03360316 1.71112956 -0.06082891
v -1.40369498 -1.42464494 -0.00521558
v 1.97976678 -0.23416423 -0.16028293
v -0.62874076 1.89456599 0.12371249
v -0.34271937 -1.96873522 -0.08139456
v 1.77391877 0.92041487 0.07777301
v -1.94741935 0.40584649 -0.20699399
v 0.96233465 -1.74470590 -0.17295474
v 0.43856467 1.95066809 -0.05054739
v -1.24527954 -1.56369222 0.06438570
v 1.94597364 0.38049829 -0.26154856
v -1.40479702 1.42167914 0.07330590
v 0.69950048 -1.87351634 0.02521105
v 0.43962918 1.95089056 -0.02742631
v -1.77380101 -0.92078759 -0.07602763
v 1.88807275 -0.59991709 -0.27437341
v -0.98862749 1.73841378 0.02309147
v -0.87918881 -1.76340269 -0.34269230
v 1.90650691 0.48165020 -0.36502668
v -1.77033407 0.89844549 -0.24230759
v 1.23618409 -1.52854629 -0.36796078
v 0.19453356 1.97072179 -0.28002201
v -1.42191416 -1.35995000 -0.35874242
v 1.94522156 -0.45461088 -0.09717014
v -1.50190207 1.29168605 -0.27538578
v -0.55554962 -1.91947869 -0.08346351
v 0.98472088 1.72558923 -0.22949206
v -1.96221331 -0.37973123 -0.07431766
v 1.82038347 -0.74761758 -0.35675198
v -0.63957941 1.87861999 -0.24844537
v -1.09195534 -1.66860288 -0.15296394
v 1.77251120 0.91161360 -0.16481717
v -1.94445303 0.34663613 -0.31455650
v 0.90911415 -1.71786988 -0.47162966
v 0.18816195 1.94821889 -0.41114258
v -1.87649037 -0.49621038 -0.48224385
v 1.95363270 -0.14217465 -0.40386340
v -1.11610196 1.63995125 -0.25470827
v 0.13115722 -1.93119146 -0.50328651
v 1.44933959 1.29535286 -0.47061206
v -1.97948534 0.07853768 -0.27471732
v 1.34477829 -1.37430380 -0.55032757
v -0.29366951 1.89101174 -0.58123387
v -1.38849569 -1.36340472 -0.46174374
v 1.88970511 0.59604905 -0.27155132
v -1.75400634 0.91036067 -0.30774213
v 0.43067089 -1.86490732 -0.58020967
v 1.41963499 1.28507118 -0.57725952
v -1.93869385 -0.05413888 -0.48840060
v 1.76413161 -0.67991132 -0.65234981
v -0.03701374 1.92547750 -0.53959836
v -0.99549037 -1.70174275 -0.33625961
v 1.50763429 1.12732490 -0.67540907
v -1.69327052 0.96950007 -0.43920900
v 0.84280715 -1.69699351 -0.64022586
v 0.57122883 1.86764437 -0.43081566
v -1.39772102 -1.30330541 -0.58972110
v 1.92103254 -0.31984763 -0.45533668
v -1.11770463 1.60335992 -0.42423264
v -0.37554451 -1.89707434 -0.50997576
v 1.56797066 1.08082892 -0.61096388
v -1.87329925 -0.17713771 -0.67776999
v 1.18871194 -1.54787909 -0.43707465
v -0.75102405 1.78527661 -0.49874873
v -1.44579426 -1.29093673 -0.49311392
v 1.87094778 0.42587210 -0.56408100
v -1.52613181 1.07039102 -0.72469632
v 0.89368813 -1.63762265 -0.72077290
v 0.41977302 1.81805455 -0.72004740
v -1.56815663 -1.00522144 -0.72829570
v 1.61797261 -0.99724885 -0.62262296
v -0.71446861 1.70488576 -0.76347833
v -0.69392485 -1.79744093 -0.53635286
v 1.62952868 0.79790680 -0.84141609
v -1.78954205 -0.13600840 -0.88263297
v 0.97507299 -1.60598552 -0.68559695
v 0.54270047 1.70300332 -0.89736051
v -1.42471895 -1.19000374 -0.74435678
v 1.72413663 -0.37128403 -0.94313363
v -1.14584702 1.50132107 -0.65808028
v 0.32869856 -1.83621322 -0.72130318
v 1.42355737 1.13236827 -0.83140034
v -1.87254128 -0.07128754 -0.69893294
v 1.22184403 -1.37899786 -0.77811443
v -0.49366254 1.81688841 -0.67469535
v -1.06410422 -1.47399700 -0.83367563
v 1.71892656 0.43664677 -0.92446258
v -1.59588117 0.94772805 -0.74496633
v 0.98091223 -1.42713433 -1.00054925
v 0.16340353 1.84156583 -0.76284637
v -1.26166152 -1.26022346 -0.90556448
v 1.76014763 0.04690757 -0.94851462
v -0.63233067 1.70401213 -0.83456610
v 0.02186034 -1.80243137 -0.86646597
v 1.45863921 1.06784746 -0.85561290
v -1.73181063 0.64427036 -0.76534152
v 1.08610230 -1.25758865 -1.11303755
v 0.10782287 1.80408579 -0.85653296
v -0.77554920 -1.58263782 -0.94539990
v 1.78405395 0.07272826 -0.90103391
v -1.56675708 0.64070874 -1.06525329
v 0.57069436 -1.57534453 -1.09206115
v 0.93474708 1.41458987 -1.06074663
v -1.66400681 0.01779583 -1.10939832
v 1.45151726 -0.99343749 -0.95193466
v -0.87795215 1.52018116 -0.95825324
v -0.34396066 -1.64369900 -1.08625258
v 1.66669132 0.29150456 -1.06637944
v -1.40184511 0.85776450 -1.13976767
v 1.09825083 -1.25056879 -1.10901885
v 0.30779774 1.54433207 -1.23300405
v -1.42103788 -1.04588663 -0.94168599
v 1.73716779 -0.25425984 -0.95791440
v -0.91249532 1.34432922 -1.16624665
v -0.13611866 -1.69708952 -1.04945646
v 0.80558681 1.38552725 -1.19638795
v -1.50317825 -0.43885111 -1.24413217
v 1.04468819 -1.14649749 -1.26260449
v -0.11829018 1.66668776 -1.09916302
v -0.61862206 -1.49536171 -1.17524469
v 1.46810172 0.19041481 -1.34477490
v -1.50472691 0.58723605 -1.17938575
v 0.50370278 -1.58841738 -1.10598993
v 0.31151304 1.50071726 -1.28483748
v -1.32433196 -0.99687503 -1.11910010
v 1.56879341 -0.07612006 -1.23818132
v -1.05840416 1.26425852 -1.13200310
v -0.59477988 -1.53813524 -1.13153740
v 1.11671607 0.88834091 -1.40135493
v -1.59204250 0.19971887 -1.19394852
v 0.97666126 -1.05883977 -1.38744049
v 0.41927719 1.53150902 -1.21601265
v -0.87620645 -1.22648344 -1.31453437
v 1.59603885 0.15252594 -1.19557343
v -1.39502027 0.65770164 -1.27332125
v 0.07152154 -1.34063979 -1.48242019
v 1.12799901 1.10075438 -1.23124248
v -1.48949702 -0.18359171 -1.32200329
v 1.38618120 -0.65412045 -1.28476773
v -0.02012784 1.46290825 -1.36363277
v -0.51256947 -1.34999405 -1.38375887
v 1.44142331 0.11327061 -1.38183524
v -1.10550577 0.78114350 -1.47230153
v 0.87322997 -1.24621146 -1.29785454
v 0.17038408 1.48784462 -1.32562727
v -1.25547814 -0.51528711 -1.46909966
v 1.23651904 -0.04070223 -1.57142101
v -0.75981739 1.03228253 -1.53527532
v -0.30811147 -1.40938951 -1.38516733
v 0.84454478 0.97677498 -1.52730310
v -1.30877894 0.00745105 -1.51229698
v 0.61911070 -1.06310655 -1.57686601
v 0.28047712 1.19909820 -1.57591120
v -0.58531300 -1.21546069 -1.47650398
v 1.18088858 -0.13075726 -1.60885198
v -1.17991320 0.36157248 -1.57387108
v 0.34724859 -1.08546221 -1.64352980
v 0.62910086 1.00002042 -1.61375069
v -1.07193323 -0.10845859 -1.68499136
v 1.03535058 -0.69918589 -1.56179008
v -0.16846469 1.05739622 -1.68924033
v -0.12910267 -1.21956422 -1.57987203
v 1.00183727 0.76049840 -1.55498047
v -0.95066060 0.55721707 -1.66905769
v 0.92761725 -0.89103921 -1.53152713
v 0.42768242 0.96857962 -1.69674431
v -0.61858905 -0.88391898 -1.68405309
v 1.03506999 -0.13179128 -1.70624183
v -0.83051913 0.85686133 -1.60500051
v -0.05916855 -1.13516538 -1.64556940
v 0.89435648 0.60109140 -1.68487851
v -0.89461292 0.08939440 -1.78652634
v 0.68010708 -0.57590584 -1.79047112
v -0.39256240 0.91104755 -1.73663097
v -0.37152043 -1.07167144 -1.64726831
v 0.79607068 0.24780943 -1.81792793
v -0.77157396 0.20850836 -1.83335700
v 0.47763062 -0.67368511 -1.82154258
v 0.43127947 0.73642438 -1.80877781
v -0.98564076 -0.35016176 -1.70466977
v 0.83376791 -0.27465948 -1.79705126
v -0.48354485 0.72960173 -1.79829522
v -0.08323784 -0.78770266 -1.83646290
v 0.58860627 0.27059012 -1.89217432
v -0.72917091 -0.06744317 -1.86111827
v 0.52886252 -0.42224171 -1.88202454
v 0.06784779 0.88226204 -1.79360262
v -0.46429203 -0.28543430 -1.92430771
v 0.77043516 -0.07052207 -1.84430374
v -0.44367140 0.32486150 -1.92291984
v 0.22625614 -0.65765136 -1.87518075
v 0.25214670 0.73246932 -1.84388468
v -0.40647609 -0.14877482 -1.95259910
v 0.33432064 -0.09674167 -1.96948490
v -0.23941171 0.56829789 -1.90255605
v -0.17505300 -0.25143859 -1.97639446
v 0.34124883 0.23894179 -1.95613294
v -0.38039949 0.11369878 -1.96019612
v 0.07269154 -0.28889534 -1.97768942
v 0.01700412 0.11887216 -1.99639181
v -0.15774435 -0.07001625 -1.99253970
f 226 276 255
f 399 397 389
f 314 348 335
f 185 193 130
f 130 177 185
f 130 151 177
f 181 176 147
f 71 63 97
f 24 19 11
f 352 357 365
f 365 357 378
f 365 386 352
f 352 386 360
f 391 365 378
f 386 365 391
f 302 276 226
f 297 310 318
f 276 310 297
f 247 302 226
f 221 250 187
f 127 203 216
f 36 7 20
f 38 59 46
f 311 290 277
f 235 214 227
f 227 193 185
f 227 248 235
f 269 214 235
f 269 311 277
f 235 316 269
f 316 311 269
f 300 308 321
f 185 177 206
f 400 397 399
f 399 398 400
f 393 398 399
f 394 389 381
f 386 391 394
f 399 389 394
f 374 366 382
f 8 5 18
f 18 31 13
f 13 8 18
f 159 130 193
f 88 151 109
f 151 130 109
f 137 116 108
f 137 184 150
f 108 184 137
f 95 116 82
f 108 116 95
f 147 176 155
f 176 168 155
f 155 168 189
f 163 184 108
f 278 312 257
f 325 312 278
f 189 168 202
f 202 168 176
f 160 139 173
f 173 181 160
f 11 19 14
f 42 63 29
f 29 63 37
f 63 71 37
f 45 24 37
f 37 24 29
f 318 313 292
f 292 284 318
f 111 124 90
f 90 64 77
f 132 124 111
f 111 192 132
f 216 203 229
f 229 284 263
f 229 161 187
f 229 203 161
f 326 313 347
f 318 310 344
f 378 383 396
f 396 391 378
f 396 393 399
f 383 393 396
f 399 394 396
f 396 394 391
f 315 357 352
f 315 302 336
f 276 302 315
f 268 255 276
f 276 297 268
f 257 312 299
f 244 260 231
f 273 260 244
f 244 163 155
f 286 307 273
f 286 299 307
f 103 116 111
f 111 90 103
f 82 116 103
f 103 69 82
f 77 69 103
f 103 90 77
f 72 64 85
f 106 59 72
f 77 64 56
f 56 69 77
f 82 69 56
f 56 35 82
f 255 221 208
f 208 221 187
f 226 255 208
f 106 127 93
f 114 46 93
f 46 59 93
f 93 59 106
f 98 72 85
f 106 72 98
f 85 145 98
f 98 145 161
f 2 7 10
f 10 5 2
f 18 5 10
f 28 36 20
f 20 41 28
f 23 36 57
f 62 83 57
f 33 41 20
f 46 41 33
f 33 38 46
f 332 340 319
f 319 298 332
f 319 340 348
f 172 159 193
f 324 311 316
f 332 290 324
f 290 311 324
f 316 303 337
f 167 146 214
f 214 201 167
f 300 321 329
f 350 337 329
f 329 337 303
f 185 206 240
f 240 227 185
f 248 227 240
f 367 359 380
f 367 354 359
f 380 359 372
f 382 398 390
f 390 356 382
f 377 356 390
f 387 366 379
f 382 366 387
f 376 389 397
f 381 389 376
f 373 360 386
f 386 394 373
f 373 394 381
f 373 347 360
f 361 335 348
f 348 374 361
f 366 374 353
f 332 366 353
f 353 340 332
f 348 340 353
f 353 374 348
f 322 293 314
f 314 335 322
f 335 356 322
f 322 343 301
f 301 343 288
f 364 372 359
f 3 8 11
f 5 8 3
f 3 1 2
f 2 5 3
f 11 8 16
f 16 24 11
f 29 24 16
f 52 31 23
f 23 65 52
f 177 151 143
f 143 164 177
f 130 159 125
f 117 109 130
f 130 125 117
f 117 83 62
f 62 54 117
f 117 54 75
f 117 75 88
f 88 109 117
f 147 100 113
f 113 181 147
f 108 95 87
f 108 87 121
f 121 87 74
f 147 155 142
f 142 100 147
f 74 100 142
f 231 184 205
f 184 163 205
f 163 244 205
f 76 144 97
f 97 63 76
f 173 139 131
f 131 165 173
f 173 165 186
f 186 194 173
f 228 181 173
f 173 194 228
f 228 194 270
f 139 160 118
f 118 71 97
f 97 131 118
f 118 131 139
f 31 60 39
f 34 13 39
f 39 13 31
f 144 76 110
f 6 14 22
f 1 3 6
f 11 14 6
f 6 3 11
f 27 14 19
f 45 37 50
f 50 37 71
f 50 71 92
f 92 113 50
f 263 279 258
f 258 237 263
f 326 308 266
f 266 279 326
f 219 206 177
f 263 284 271
f 284 292 271
f 271 279 263
f 119 90 124
f 119 145 85
f 124 145 119
f 85 64 119
f 64 90 119
f 179 192 166
f 179 132 192
f 174 145 124
f 187 161 174
f 161 145 174
f 263 237 195
f 195 229 263
f 216 229 195
f 195 190 216
f 237 190 195
f 284 229 242
f 250 297 242
f 187 250 242
f 242 229 187
f 318 284 242
f 242 297 318
f 360 347 339
f 318 344 339
f 339 313 318
f 339 347 313
f 352 360 339
f 339 344 352
f 352 344 323
f 323 344 310
f 331 310 276
f 276 315 331
f 331 323 310
f 331 315 352
f 352 323 331
f 289 297 250
f 289 268 297
f 234 221 255
f 255 268 234
f 268 289 234
f 250 221 234
f 234 289 250
f 257 299 236
f 236 202 257
f 189 202 236
f 291 312 325
f 291 299 312
f 325 333 291
f 307 299 291
f 291 333 307
f 231 260 239
f 239 260 247
f 150 184 239
f 239 184 231
f 239 158 150
f 239 247 226
f 336 302 281
f 302 247 281
f 210 155 189
f 210 244 155
f 218 244 210
f 189 236 210
f 64 72 51
f 59 38 51
f 51 72 59
f 35 56 48
f 43 56 64
f 43 48 56
f 35 48 43
f 43 27 35
f 22 14 43
f 14 27 43
f 166 192 213
f 192 208 213
f 213 179 166
f 213 174 179
f 213 208 187
f 187 174 213
f 192 158 200
f 226 208 200
f 200 208 192
f 200 239 226
f 158 239 200
f 171 192 111
f 171 158 192
f 111 116 171
f 116 137 171
f 171 137 150
f 150 158 171
f 135 156 114
f 114 93 135
f 216 190 135
f 203 127 140
f 161 203 140
f 140 98 161
f 140 127 106
f 106 98 140
f 96 54 41
f 75 54 96
f 23 31 15
f 15 36 23
f 15 31 18
f 18 10 15
f 7 36 15
f 15 10 7
f 41 54 49
f 49 28 41
f 49 54 62
f 36 28 49
f 62 57 49
f 49 57 36
f 23 57 70
f 70 57 83
f 22 17 9
f 9 6 22
f 1 6 9
f 20 7 12
f 12 33 20
f 12 7 2
f 306 348 314
f 209 167 201
f 222 230 201
f 222 201 214
f 259 293 238
f 314 293 259
f 259 306 314
f 259 238 191
f 285 290 332
f 332 298 285
f 180 227 214
f 214 146 180
f 146 172 180
f 193 227 180
f 180 172 193
f 159 172 138
f 112 125 138
f 138 125 159
f 138 146 112
f 138 172 146
f 345 324 316
f 316 337 345
f 379 366 345
f 345 358 379
f 345 366 332
f 332 324 345
f 345 337 350
f 350 358 345
f 300 329 295
f 303 282 295
f 295 329 303
f 274 303 316
f 274 282 303
f 274 316 235
f 146 167 133
f 112 146 133
f 248 240 232
f 232 240 206
f 232 282 248
f 232 295 282
f 388 367 380
f 375 367 388
f 383 375 388
f 388 393 383
f 377 390 385
f 385 372 377
f 398 393 385
f 385 390 398
f 380 372 385
f 385 388 380
f 393 388 385
f 384 387 379
f 379 358 384
f 384 358 371
f 371 376 384
f 384 376 397
f 395 398 382
f 382 387 395
f 395 400 398
f 349 315 336
f 357 315 349
f 378 357 370
f 357 349 370
f 370 349 362
f 370 383 378
f 370 375 383
f 341 333 325
f 307 333 320
f 333 341 320
f 320 370 362
f 368 373 381
f 347 373 368
f 369 356 335
f 335 361 369
f 382 356 369
f 369 374 382
f 369 361 374
f 280 322 301
f 293 322 280
f 238 293 280
f 280 246 238
f 262 233 275
f 199 233 262
f 199 207 233
f 199 186 207
f 220 199 262
f 194 186 220
f 186 199 220
f 330 364 359
f 317 343 330
f 377 372 351
f 372 364 351
f 351 356 377
f 343 322 351
f 351 322 356
f 351 330 343
f 364 330 351
f 34 42 21
f 21 42 29
f 29 16 21
f 44 60 31
f 31 52 44
f 44 65 86
f 44 52 65
f 164 143 122
f 114 156 122
f 156 164 122
f 122 80 114
f 83 117 104
f 104 117 125
f 104 125 112
f 112 70 104
f 104 70 83
f 79 100 74
f 74 66 79
f 79 113 100
f 79 50 113
f 61 87 95
f 61 95 82
f 129 163 108
f 108 121 129
f 129 121 74
f 74 142 129
f 197 244 231
f 231 205 197
f 197 205 244
f 34 39 47
f 63 42 55
f 55 76 63
f 55 42 34
f 34 47 55
f 81 76 55
f 55 47 81
f 165 131 152
f 152 144 157
f 157 165 152
f 97 144 152
f 152 131 97
f 181 228 215
f 249 278 257
f 257 215 249
f 249 215 228
f 249 228 270
f 249 304 278
f 270 304 249
f 278 304 338
f 325 278 338
f 338 304 317
f 338 354 325
f 359 354 338
f 317 330 338
f 338 330 359
f 296 343 317
f 296 288 343
f 241 304 270
f 241 220 262
f 270 194 241
f 194 220 241
f 92 71 84
f 71 118 84
f 126 118 160
f 126 113 92
f 126 160 181
f 181 113 126
f 81 47 68
f 68 47 39
f 178 170 191
f 136 170 178
f 136 149 183
f 191 170 183
f 183 170 136
f 86 120 99
f 120 154 99
f 102 76 81
f 102 110 76
f 136 110 102
f 157 144 123
f 144 110 123
f 123 110 136
f 123 178 157
f 136 178 123
f 45 50 58
f 58 79 66
f 50 79 58
f 237 258 224
f 224 266 253
f 224 258 279
f 279 266 224
f 287 308 300
f 287 266 308
f 300 295 287
f 253 266 287
f 287 295 253
f 279 271 305
f 305 313 326
f 326 279 305
f 305 292 313
f 305 271 292
f 132 179 153
f 179 174 153
f 124 132 153
f 153 174 124
f 265 236 299
f 299 286 265
f 218 210 265
f 265 210 236
f 265 286 273
f 273 244 265
f 265 244 218
f 247 260 252
f 252 281 247
f 64 51 30
f 30 43 64
f 30 51 38
f 30 17 22
f 22 43 30
f 148 93 127
f 148 135 93
f 148 127 216
f 216 135 148
f 67 41 46
f 67 96 41
f 80 96 67
f 67 46 114
f 114 80 67
f 78 65 23
f 23 70 78
f 4 9 17
f 1 9 4
f 2 1 4
f 4 12 2
f 298 319 327
f 327 306 298
f 327 319 348
f 348 306 327
f 201 230 196
f 196 209 201
f 230 188 196
f 175 209 196
f 196 188 175
f 214 269 264
f 264 222 214
f 264 269 277
f 272 285 298
f 251 285 272
f 298 306 272
f 306 259 272
f 243 285 251
f 243 251 230
f 230 222 243
f 222 264 243
f 253 295 245
f 295 232 245
f 206 219 245
f 245 232 206
f 261 274 235
f 282 274 261
f 235 248 261
f 248 282 261
f 141 133 167
f 167 209 141
f 392 384 397
f 387 384 392
f 397 400 392
f 400 395 392
f 392 395 387
f 328 349 336
f 362 349 328
f 328 320 362
f 273 307 328
f 307 320 328
f 375 370 346
f 370 320 346
f 346 320 341
f 354 367 346
f 346 367 375
f 325 354 346
f 346 341 325
f 381 376 363
f 363 368 381
f 363 376 371
f 233 246 254
f 254 275 233
f 254 280 301
f 246 280 254
f 26 16 8
f 26 21 16
f 8 13 26
f 26 13 34
f 34 21 26
f 101 122 143
f 101 96 80
f 80 122 101
f 101 151 88
f 101 143 151
f 88 75 101
f 75 96 101
f 40 27 19
f 35 27 40
f 82 35 40
f 40 61 82
f 32 58 66
f 45 58 32
f 32 24 45
f 19 24 32
f 74 87 53
f 87 61 53
f 53 66 74
f 53 32 66
f 61 40 53
f 53 40 19
f 19 32 53
f 163 129 134
f 134 129 142
f 155 163 134
f 134 142 155
f 257 202 223
f 223 215 257
f 181 215 223
f 176 181 223
f 223 202 176
f 283 275 288
f 262 275 283
f 283 241 262
f 304 241 283
f 105 84 118
f 118 126 105
f 92 84 105
f 105 126 92
f 233 207 212
f 212 246 233
f 207 186 212
f 212 178 191
f 212 186 165
f 191 238 212
f 238 246 212
f 212 165 157
f 157 178 212
f 204 259 191
f 191 183 204
f 162 209 175
f 162 141 209
f 162 154 120
f 120 141 162
f 154 162 128
f 175 149 128
f 128 162 175
f 107 149 136
f 211 190 237
f 237 224 211
f 281 252 294
f 336 281 294
f 294 260 273
f 294 252 260
f 294 328 336
f 273 328 294
f 86 65 91
f 65 78 91
f 91 120 86
f 91 141 120
f 91 70 112
f 91 78 70
f 112 133 91
f 133 141 91
f 25 4 17
f 25 30 38
f 17 30 25
f 38 33 25
f 33 12 25
f 12 4 25
f 290 285 256
f 285 243 256
f 277 290 256
f 256 264 277
f 256 243 264
f 355 363 371
f 355 358 350
f 371 358 355
f 350 329 355
f 288 275 267
f 275 254 267
f 301 288 267
f 267 254 301
f 288 296 309
f 309 283 288
f 304 283 309
f 317 304 309
f 309 296 317
f 251 272 217
f 230 251 217
f 217 188 230
f 225 183 149
f 225 204 183
f 225 149 175
f 175 188 225
f 188 217 225
f 225 217 272
f 225 272 259
f 259 204 225
f 136 102 89
f 89 107 136
f 89 102 81
f 81 68 89
f 149 107 115
f 115 128 149
f 115 99 154
f 154 128 115
f 73 39 60
f 73 68 39
f 73 89 68
f 73 44 86
f 60 44 73
f 182 135 190
f 190 211 182
f 156 135 182
f 198 211 224
f 198 245 219
f 198 224 253
f 253 245 198
f 363 355 342
f 368 363 342
f 342 308 326
f 326 347 342
f 347 368 342
f 86 99 94
f 94 73 86
f 99 115 94
f 94 115 107
f 107 89 94
f 89 73 94
f 211 198 169
f 169 164 156
f 177 164 169
f 156 182 169
f 169 182 211
f 169 219 177
f 169 198 219
f 334 342 355
f 334 329 321
f 334 355 329
f 334 321 308
f 308 342 334

