# https://github.com/mikedh/trimesh
v 0.09213805 0.14325180 1.99273418
v -0.06842103 -0.06121317 1.99789177
v 0.16252789 -0.05833439 1.99253150
v -0.15274578 0.49234059 1.93242580
v -0.03491625 -0.46427596 1.94505236
v 0.23645089 0.28478912 1.96544808
v -0.60786278 -0.03891289 1.90499045
v 0.31840201 -0.52362053 1.90379665
v 0.14634206 0.66813696 1.87940869
v -0.44668949 -0.27746166 1.92963300
v 0.67124690 0.18045685 1.87533008
v -0.54574836 0.62357298 1.82025148
v 0.15570654 -0.66050684 1.88135222
v 0.32491100 0.44368688 1.92290790
v -0.68046059 -0.08111819 1.87893407
v 0.59879908 -0.23962369 1.89315085
v -0.07871246 0.93039556 1.76866290
v -0.12111760 -0.91392285 1.77484522
v 0.70018794 0.24616750 1.85718562
v -0.90765061 0.26604203 1.76221225
v 0.56629021 -0.89157047 1.69835729
v 0.06764738 0.91344740 1.77793073
v -0.57666988 -0.67576735 1.79186783
v 0.94402070 -0.05196243 1.76242016
v -0.85167940 0.73176663 1.65504073
v -0.07877291 -1.10511720 1.66508583
v 0.75995571 0.59558747 1.75149733
v -0.98958459 -0.10059755 1.73510878
v 0.61136457 -0.80770010 1.72448656
v -0.09439297 1.13946398 1.64094845
v -0.45586817 -0.90026378 1.72676268
v 1.13068424 -0.01645697 1.64963097
v -0.95726704 0.72213562 1.60067485
v 0.49573202 -1.03448037 1.63832235
v 0.39532746 1.19090475 1.55738951
v -1.05068920 -0.46540219 1.63690348
v 1.20164019 -0.37813524 1.55340741
v -0.40739723 1.11273967 1.61116043
v -0.60920076 -1.06570052 1.57897335
v 1.03664026 0.81321867 1.50467683
v -1.00305838 0.34721603 1.69508552
v 0.80787898 -0.76043132 1.66405401
v -0.12424516 1.15151319 1.63051541
v -1.00269883 -0.84407845 1.51067092
v 1.18150439 -0.33508445 1.57853279
v -0.90630594 0.85373219 1.56516801
v 0.30955268 -1.33069898 1.46062225
v 0.68818456 1.11538488 1.51073445
v -1.10794958 -0.35394587 1.62701262
v 1.05778990 -0.58362058 1.59388442
v -0.09518779 1.21777117 1.58365800
v -0.73911712 -1.00684771 1.56203828
v 1.17957758 0.40482757 1.56355728
v -1.20234890 0.29382893 1.57099385
v 0.41762133 -1.28579930 1.47387672
v 0.41340637 1.24477350 1.50984572
v -1.23866648 -0.52237831 1.48081945
v 1.22219469 -0.33333586 1.54761990
v -0.48885408 1.38082235 1.36174569
v -0.46294185 -1.25107993 1.49012881
v 1.05405954 0.79701737 1.50124008
v -1.34319384 -0.12154003 1.47684066
v 1.11739395 -0.97863686 1.33929110
v 0.37859040 1.47981876 1.29104831
v -0.90198301 -1.11849428 1.39118553
v 1.51858841 -0.06741193 1.29974801
v -1.44293028 0.66243331 1.21619666
v 0.01840142 -1.40114160 1.42704717
v 0.90766415 1.15092872 1.36070161
v -1.52900151 -0.15230076 1.28021828
v 1.41779882 -0.23720622 1.39053217
v -0.14567266 1.50332157 1.31103155
v -0.77674279 -1.19274958 1.40499789
v 1.32403325 0.65233390 1.34959121
v -1.62763158 0.11156622 1.15687874
v 0.75971426 -1.31962416 1.29669824
v 0.65745673 1.53586483 1.09948619
v -1.06896675 -1.03368084 1.33746552
v 1.68775778 0.19504630 1.05519221
v -1.36081486 0.82034373 1.21458598
v -0.15744707 -1.50033112 1.31309441
v 1.09329784 1.19615009 1.17214538
v -1.68135684 -0.10634223 1.07783602
v 1.22255710 -1.19759448 1.03495005
v -0.01656749 1.70158678 1.05087010
v -0.75339749 -1.50962550 1.07397536
v 1.69642582 0.06659118 1.05721571
v -1.57034147 0.48762736 1.13852853
v 0.35554369 -1.67172100 1.03871920
v 1.08431058 1.29932776 1.06584143
v -1.55417936 -0.51962753 1.14652246
v 1.72470423 -0.25818090 0.97915164
v -0.37584344 1.64632085 1.07161998
v -0.77661878 -1.50724591 1.06069461
v 1.39475258 0.76264569 1.21368727
v -1.61911605 0.55571662 1.03423510
v 0.78963869 -1.58465568 0.93023497
v -0.32059131 1.61047721 1.14174620
v -1.47579071 -0.88402416 1.02007012
v 1.78362913 -0.03938521 0.90394465
v -1.23726800 1.31875793 0.85442696
v -0.16081762 -1.81896042 0.81579451
v 0.91838019 1.58529495 0.80213325
v -1.49855765 -0.77470113 1.07431985
v 1.21745806 -1.16901326 1.07294169
v -0.84085799 1.62992425 0.79768714
v -0.50133293 -1.73990103 0.84935840
v 1.79028293 0.31633132 0.83355955
v -1.66482597 0.46585409 1.00565125
v 0.92107756 -1.49302365 0.96046682
v 0.69335572 1.62751802 0.93297533
v -1.60560825 -0.79522120 0.88861994
v 1.76426016 -0.17271704 0.92604261
v -1.22834581 1.27636395 0.92847274
v 0.32153969 -1.77058009 0.87273042
v 1.49913670 0.85127870 1.01386080
v -1.74457028 0.03950781 0.97719684
v 1.20909290 -1.39210724 0.77468174
v -0.42354250 1.70407688 0.95746213
v -1.48243080 -1.10370503 0.76435211
v 1.86260442 0.10077246 0.72149128
v -1.57119291 0.85379239 0.89576302
v 0.78036368 -1.70954034 0.68447377
v 1.06113949 1.50035916 0.78924355
v -1.80176144 -0.22684491 0.83797202
v 1.53208532 -1.01531181 0.78857880
v -0.42232898 1.85183675 0.62636961
v -0.35308395 -1.80298145 0.79030982
v 1.52677649 1.00714945 0.80907574
v -1.89510565 -0.07011913 0.63534078
v 0.97841505 -1.63051632 0.61977458
v 0.46984090 1.74045137 0.86607076
v -1.18986110 -1.37046452 0.84027231
v 1.85920920 0.39924759 0.61963095
v -1.20486501 1.40651263 0.75499836
v -0.15320281 -1.84218362 0.76347130
v 1.44390915 1.25376500 0.58583250
v -1.87379923 0.04215355 0.69792516
v 1.57406845 -1.14847748 0.45089686
v -0.80719320 1.75689870 0.51161128
v -1.25236705 -1.42973302 0.62244698
v 1.88810072 0.35188529 0.55790000
v -1.42439427 1.18299637 0.75605590
v 0.70932474 -1.77650741 0.58384915
v 0.43643417 1.91133355 0.39538496
v -1.77362020 -0.78923348 0.48102175
v 1.83401523 -0.61624543 0.50658632
v -0.51263501 1.83361354 0.61242693
v 0.02472453 -1.95986774 0.39787830
v 1.21673360 1.42972736 0.68952086
v -1.85520985 0.68416663 0.30018732
v 1.52561363 -1.10553971 0.67103277
v -0.36456519 1.91095355 0.46405685
v -1.58613707 -1.10406608 0.51498280
v 1.96864221 0.00978611 0.35263589
v -1.21763549 1.55129452 0.33294011
v -0.01080936 -1.95101812 0.43978568
v 1.46503627 1.29471878 0.42115555
v -1.69524746 -0.98683379 0.39025007
v 1.86605732 -0.63211310 0.34389404
v -0.94704661 1.72402082 0.36173873
v -0.37171481 -1.88302712 0.56217166
v 1.80675138 0.74340797 0.42777802
v -1.62011808 1.07025589 0.47934302
v 0.76360148 -1.83741915 0.20199912
v 0.28024635 1.95500879 0.31528183
v -1.44187160 -1.31241297 0.44562146
v 1.92270595 -0.39460080 0.38404692
v -1.14494249 1.59297421 0.38928120
v -0.33674190 -1.96435592 0.16706496
v 0.95261414 1.70227105 0.44136104
v -1.92524061 -0.33053808 0.42917731
v 1.39963084 -1.41402940 0.20384890
v -0.48093979 1.92527849 0.24899732
v -0.89069968 -1.76340982 0.31151227
v 1.97401396 -0.03854631 0.31903459
v -1.39486331 1.37065599 0.41911631
v 0.79583114 -1.83028523 0.12926240
v 1.31352070 1.50728393 0.05252165
v -1.56915926 -1.23794912 0.07225779
v 1.78903398 -0.81541770 0.36667615
v -1.14947206 1.62093434 0.22646381
v -0.98087569 -1.73038481 0.20892893
v 1.76905704 0.88793635 0.28636728
v -1.91455853 0.51728169 0.25862189
v 1.46488536 -1.36157141 0.01530243
v 0.52887417 1.90881215 0.27699874
v -1.61959796 -1.17328828 0.01723573
v 1.98222518 -0.17934939 0.19651240
v -1.76843176 0.93315476 -0.04325861
v -0.30177903 -1.97493181 -0.09259461
v 0.71622295 1.86506218 -0.09256208
v -1.98219089 0.23795692 0.11956500
v 1.90725906 -0.55407108 0.23530435
v -0.46954579 1.93894521 -0.14148578
v -1.01255770 -1.72471349 -0.00950166
v 1.77737891 0.90512010 -0.14724746
v -1.85426701 0.74378907 -0.09204157
v 1.04590693 -1.69749416 -0.15681926
v 0.26029584 1.98162346 -0.07358365
v -1.51236092 -1.30550201 0.09180933
v 1.99973676 0.03152335 -0.00769229
v -1.38866496 1.43018535 0.16180080
v 0.13007360 -1.99162899 0.12843211
v 1.23383124 1.55830049 -0.22217122
v -1.91581448 0.56999675 -0.06898251
v 1.50987148 -1.28999201 -0.23708380
v 0.10310612 1.99511754 -0.09420799
v -1.22536149 -1.56974821 -0.18541783
v 1.89015626 0.58462437 -0.29244428
v -1.58506497 1.19595625 -0.23928583
v 0.38049758 -1.94201032 -0.28951254
v 0.95061888 1.74501897 -0.22634608
v -1.79649050 -0.82759742 -0.29614930
v 1.88190962 -0.61407031 -0.28519090
v -1.21828908 1.58581040 -0.03125866
v -0.70026167 -1.87317260 -0.02929186
v 1.57031250 1.21337712 -0.24866568
v -1.84334633 0.76823495 -0.10903838
v 1.35778790 -1.46563911 -0.09118113
v 0.78108201 1.83919369 -0.08530798
v -1.50917482 -1.31048182 -0.07091374
v 1.93525753 -0.42265598 -0.27593517
v -1.30693331 1.48437919 -0.29756300
v 0.13623937 -1.98237788 -0.22719323
v 1.70272851 1.03778253 -0.15402289
v -1.88158593 -0.56970637 -0.36751743
v 1.54321594 -1.25214117 -0.22500456
v -0.54395765 1.87483956 -0.43484099
v -0.92030353 -1.74111785 -0.34864028
v 1.89497985 0.57496006 -0.28012907
v -1.68967368 0.96815629 -0.45571509
v 0.17738528 -1.98384984 -0.18131266
v 0.70876069 1.82732957 -0.39815188
v -1.51488614 -1.29399673 -0.17519259
v 1.77746691 -0.75288204 -0.52323992
v -1.07805187 1.61889863 -0.46580190
v -0.54158361 -1.87737031 -0.42681133
v 1.35857131 1.37591018 -0.51103342
v -1.96531007 -0.10487117 -0.35575044
v 1.56156116 -1.20226118 -0.34072689
v -0.11906069 1.93083779 -0.50763173
v -1.32451960 -1.42513232 -0.46329872
v 1.97331846 0.13803856 -0.29488914
v -1.24151682 1.51179759 -0.41605774
v -0.29002540 -1.88023380 -0.61693283
v 1.31151345 1.48521737 -0.27214303
v -1.70178068 -0.85334155 -0.61298509
v 1.47019172 -1.29576752 -0.39940310
v -0.26109079 1.93101310 -0.45057740
v -0.67027015 -1.85840188 -0.31157725
v 1.78030596 0.75683711 -0.50764974
v -1.88734014 0.37228559 -0.54712944
v 0.54241688 -1.85447763 -0.51642680
v 0.59006650 1.80622026 -0.62401112
v -1.40672731 -1.33486276 -0.48914180
v 1.87765155 0.17834303 -0.66529574
v -1.34931991 1.40850006 -0.44211236
v -0.31327858 -1.84935864 -0.69406710
v 1.30411118 1.34177180 -0.70635860
v -1.82192269 -0.58129987 -0.58539575
v 1.44731114 -1.20604716 -0.67137225
v -0.22882754 1.93529103 -0.44976280
v -1.00325792 -1.54636310 -0.77603783
v 1.91219958 0.03571626 -0.58499327
v -1.73005761 0.82729812 -0.56787190
v 0.91411989 -1.67583776 -0.59661767
v 0.80453227 1.62294935 -0.84779905
v -1.51970767 -1.08294903 -0.71952068
v 1.67039158 -0.85987950 -0.68585655
v -0.96088528 1.59289062 -0.73443785
v -0.67619961 -1.67502047 -0.85852229
v 1.69776084 0.87093236 -0.59923697
v -1.75402524 0.64804835 -0.70952717
v 0.59655441 -1.69714663 -0.87396576
v 0.64733938 1.78158272 -0.63789869
v -1.69360826 -0.88477175 -0.59065219
v 1.83236149 -0.23253177 -0.76705954
v -0.92243050 1.61027971 -0.74573537
v 0.58570725 -1.73224083 -0.81011649
v 1.31587906 1.28987255 -0.77761887
v -1.72446397 -0.44447685 -0.91031002
v 1.75989750 -0.64388350 -0.69869510
v -0.41762865 1.82674658 -0.69898729
v -1.22597521 -1.43531085 -0.66095956
v 1.60313137 0.83853482 -0.85254277
v -1.53295505 0.95263073 -0.86170963
v 0.68684001 -1.59569757 -0.99095917
v 0.29305010 1.69115696 -1.02669848
v -1.67853265 -0.70067931 -0.83161087
v 1.67195427 -0.50313061 -0.97541197
v -0.48205783 1.62082384 -1.06796551
v -0.73085191 -1.61810544 -0.92064666
v 1.47842405 0.92680784 -0.97738915
v -1.67549334 0.24644485 -1.06394879
v 1.46715449 -1.04008270 -0.87503468
v -0.20037364 1.69093504 -1.04908966
v -0.90348447 -1.42106226 -1.07902635
v 1.66447513 0.22560073 -1.08564582
v -1.16087239 1.30466294 -0.97479737
v 0.07348012 -1.68017790 -1.08240606
v 1.23631755 1.16766911 -1.05264797
v -1.54661127 -0.90976355 -0.88335942
v 1.52172253 -0.53189056 -1.18382980
v -0.42243114 1.71091036 -0.94569428
v -0.88461331 -1.55853008 -0.88794330
v 1.49061190 0.92293013 -0.96243241
v -1.70400237 0.27515293 -1.01028055
v 0.54864359 -1.58097120 -1.09522613
v 0.30015008 1.63783984 -1.10787661
v -1.40644240 -0.96338153 -1.04585649
v 1.70334833 -0.34727512 -0.98894108
v -0.79548507 1.31994549 -1.27473424
v 0.32551595 -1.68255619 -1.03104027
v 1.21456414 1.11658261 -1.13052078
v -1.72726642 0.15170624 -0.99676273
v 1.20606242 -1.19898593 -1.05254273
v -0.32602730 1.67763813 -1.03886308
v -0.71638761 -1.41751249 -1.21550284
v 1.45747883 0.55611110 -1.25159735
v -1.27255531 0.87356371 -1.27180558
v 0.32278904 -1.63719709 -1.10244861
v 0.48206997 1.60467114 -1.09208016
v -1.44966722 -0.29659447 -1.34554698
v 1.55884679 -0.40693690 -1.18507344
v -0.73890404 1.31590432 -1.31240872
v -0.79207470 -1.39429421 -1.19522439
v 1.17074548 1.05602756 -1.23051241
v -1.49239598 -0.00172205 -1.33144706
v 1.03664898 -0.94659921 -1.42453811
v 0.40032608 1.44822611 -1.31999249
v -0.97130246 -0.98071268 -1.44733347
v 1.33984872 0.29064059 -1.45613648
v -1.35467308 0.85276345 -1.19902266
v 0.43305695 -1.35805451 -1.40290757
v 1.07392125 1.02809412 -1.33780254
v -1.41536584 0.13356461 -1.40673381
v 1.20922201 -0.52844350 -1.50284051
v -0.43218162 1.45460102 -1.30282574
v -0.53855873 -1.29311751 -1.42751588
v 1.22557602 0.60442974 -1.46035205
v -1.16681348 0.66761137 -1.48082455
v 0.67824134 -1.26399157 -1.39366925
v 0.62494410 1.34746367 -1.33932316
v -1.33926852 -0.43341880 -1.42074205
v 1.26521881 0.03036932 -1.54864427
v -1.06912794 0.79454615 -1.49186523
v -0.20806709 -1.24850217 -1.54853169
v 0.84508844 0.89324004 -1.57732297
v -1.41748377 0.01199674 -1.41088477
v 0.98934499 -0.69625710 -1.59261500
v -0.44146501 1.21486043 -1.52617914
v -0.57423667 -1.20310737 -1.49090071
v 1.15355565 0.35831954 -1.59402524
v -1.03307933 0.94713538 -1.42677317
v 0.15868818 -1.08524857 -1.67243942
v 0.77788026 0.84555605 -1.63705139
v -1.19144750 -0.64237038 -1.47234954
v 1.07983793 -0.69304050 -1.53415935
v -0.34374699 1.10437784 -1.63162116
v -0.10407915 -1.05545125 -1.69563858
v 0.94710876 0.78565841 -1.57661849
v -1.20843019 0.39162682 -1.54477342
v 0.83654902 -0.73813634 -1.65992183
v 0.24938398 0.96214657 -1.73553497
v -0.79544712 -0.92298082 -1.58599189
v 1.04385650 -0.18967036 -1.69540224
v -0.78984156 0.72226155 -1.68952318
v 0.05542270 -1.02870420 -1.71426252
v 0.74222498 0.68478370 -1.72631786
v -1.03347755 -0.32405520 -1.68134243
v 0.88761892 -0.51144621 -1.71771809
v -0.48044766 0.95492974 -1.69034885
v -0.42900872 -0.96418472 -1.69891122
v 1.01008013 0.07823917 -1.72441780
v -0.91539736 0.35789543 -1.74182621
v 0.39955721 -0.90271085 -1.73938700
v 0.44398911 0.71992546 -1.81234130
v -0.86364085 -0.26937142 -1.78369379
v 0.70470408 -0.05521937 -1.87092036
v -0.70534074 0.74779582 -1.71560364
v -0.35956782 -0.85110417 -1.77379048
v 0.62162218 0.23439953 -1.88643652
v -0.85421585 0.22779860 -1.79399640
v 0.39383230 -0.68205793 -1.83839416
v -0.20125656 0.90674165 -1.77124684
v -0.37751168 -0.61602413 -1.86493946
v 0.58807417 0.06117999 -1.91060875
v -0.75487423 0.31205929 -1.82559138
v -0.03919346 -0.80801189 -1.82909285
v 0.33881431 0.65925341 -1.85757633
v -0.43444282 -0.08776638 -1.95027088
v 0.48988396 -0.41122621 -1.89496879
v -0.08304250 0.45828228 -1.94501447
v -0.10260003 -0.49665456 -1.93463368
v 0.48314873 0.28249010 -1.92009548
v -0.36986645 0.21706016 -1.95347989
v 0.05238167 -0.14638138 -1.99394801
v 0.00426270 0.19993312 -1.98997703
v -0.05974138 -0.04828729 -1.99852428
f 240 172 193
f 317 288 343
f 118 173 139
f 162 170 157
f 102 89 81
f 300 334 287
f 287 258 300
f 216 161 195
f 216 195 237
f 237 195 229
f 92 126 147
f 311 298 285
f 377 343 335
f 253 316 240
f 253 240 193
f 317 296 262
f 162 157 136
f 175 170 162
f 60 86 81
f 31 60 26
f 363 334 342
f 355 326 373
f 299 257 278
f 278 257 265
f 331 365 360
f 331 344 365
f 360 365 386
f 386 373 360
f 360 373 352
f 352 373 326
f 289 242 255
f 54 67 88
f 193 172 130
f 130 138 193
f 193 138 185
f 185 138 109
f 109 138 117
f 229 195 250
f 216 237 224
f 258 211 224
f 177 164 143
f 182 161 216
f 161 182 169
f 169 182 156
f 169 156 177
f 177 156 203
f 216 224 203
f 203 224 211
f 203 164 177
f 203 182 216
f 156 182 203
f 152 118 139
f 105 126 63
f 63 76 105
f 142 155 202
f 113 92 147
f 40 48 27
f 32 53 24
f 19 53 27
f 11 24 19
f 19 24 53
f 82 95 116
f 116 129 82
f 333 320 299
f 286 257 299
f 299 320 286
f 320 307 286
f 231 142 202
f 59 38 51
f 59 106 114
f 114 46 59
f 59 46 38
f 311 285 269
f 264 298 306
f 264 285 298
f 267 288 317
f 317 262 267
f 249 199 267
f 267 262 249
f 309 343 288
f 309 335 343
f 377 335 356
f 395 390 387
f 400 398 395
f 400 397 399
f 399 397 394
f 399 398 400
f 332 298 311
f 371 384 379
f 261 290 248
f 248 214 261
f 104 99 78
f 270 262 296
f 149 170 204
f 149 157 170
f 204 165 144
f 144 149 204
f 170 175 217
f 78 94 65
f 107 86 94
f 107 175 162
f 94 175 107
f 81 86 107
f 167 201 183
f 196 217 183
f 183 217 175
f 37 50 63
f 29 8 13
f 1 2 3
f 3 6 1
f 11 6 3
f 5 2 10
f 13 8 5
f 8 3 5
f 5 3 2
f 18 31 26
f 13 5 18
f 39 31 52
f 60 31 39
f 274 287 334
f 266 287 274
f 274 253 266
f 321 342 334
f 321 334 300
f 300 355 321
f 304 296 317
f 317 343 330
f 330 304 317
f 338 304 330
f 393 395 398
f 383 354 375
f 268 344 323
f 344 331 323
f 289 255 323
f 370 354 383
f 200 242 208
f 200 255 242
f 297 242 289
f 33 67 54
f 151 185 109
f 54 88 75
f 75 88 109
f 109 117 75
f 138 130 125
f 125 117 138
f 125 130 172
f 78 65 44
f 44 65 52
f 54 75 62
f 62 75 70
f 127 153 148
f 284 250 242
f 242 297 284
f 229 250 284
f 263 195 208
f 263 250 195
f 208 242 263
f 242 250 263
f 258 224 245
f 245 224 237
f 122 143 164
f 122 151 109
f 164 151 122
f 114 143 122
f 114 106 135
f 106 169 135
f 135 169 177
f 177 143 135
f 126 105 84
f 118 152 84
f 84 152 126
f 168 113 147
f 155 142 121
f 121 168 155
f 113 168 121
f 121 142 134
f 108 121 134
f 134 116 108
f 66 53 32
f 27 9 14
f 9 6 14
f 14 19 27
f 14 6 11
f 11 19 14
f 4 2 1
f 1 6 4
f 4 6 9
f 17 38 12
f 12 4 17
f 22 30 17
f 9 22 17
f 17 4 9
f 53 66 74
f 163 184 129
f 163 116 134
f 129 116 163
f 134 142 163
f 142 231 163
f 163 231 184
f 226 218 158
f 158 184 226
f 273 218 226
f 69 40 82
f 48 40 69
f 82 129 90
f 90 124 103
f 90 69 82
f 150 90 129
f 124 90 150
f 302 344 268
f 273 286 281
f 281 286 307
f 268 260 281
f 281 302 268
f 252 286 273
f 257 286 252
f 265 257 244
f 257 231 244
f 244 231 202
f 335 309 322
f 303 290 311
f 311 269 303
f 248 290 303
f 235 214 277
f 277 214 248
f 248 303 277
f 277 303 269
f 256 269 285
f 235 277 256
f 256 277 269
f 230 217 196
f 285 264 230
f 275 309 288
f 288 267 275
f 275 267 280
f 387 390 382
f 369 390 377
f 377 356 369
f 391 399 394
f 365 378 391
f 394 386 391
f 391 386 365
f 327 319 298
f 298 332 327
f 353 319 327
f 327 332 353
f 371 379 366
f 366 379 387
f 387 382 366
f 366 382 374
f 366 374 353
f 353 332 366
f 392 379 384
f 389 397 392
f 392 384 389
f 387 379 392
f 392 397 400
f 400 395 392
f 392 395 387
f 316 295 329
f 358 332 311
f 371 366 358
f 358 366 332
f 240 261 227
f 227 261 214
f 172 240 227
f 227 214 172
f 290 261 282
f 240 316 282
f 282 261 240
f 316 329 282
f 282 329 324
f 311 290 282
f 188 159 214
f 188 214 235
f 235 222 188
f 172 214 146
f 214 159 146
f 146 125 172
f 167 120 154
f 154 146 159
f 133 94 78
f 78 99 133
f 99 120 133
f 181 152 139
f 228 215 181
f 147 126 181
f 126 152 181
f 236 270 283
f 283 215 236
f 202 189 223
f 223 244 202
f 265 244 223
f 223 278 265
f 283 278 223
f 223 215 283
f 186 207 228
f 139 173 186
f 186 181 139
f 228 181 186
f 220 199 249
f 249 207 220
f 207 186 220
f 173 199 220
f 220 186 173
f 97 76 89
f 115 136 157
f 144 123 115
f 157 149 115
f 149 144 115
f 89 102 115
f 102 136 115
f 115 97 89
f 115 123 97
f 68 47 26
f 68 60 81
f 26 60 68
f 81 89 68
f 89 47 68
f 89 76 55
f 55 47 89
f 170 217 191
f 204 170 191
f 191 225 204
f 204 225 233
f 86 60 73
f 94 86 73
f 73 65 94
f 60 39 73
f 52 65 73
f 73 39 52
f 128 102 81
f 81 107 128
f 128 136 102
f 162 136 128
f 128 107 162
f 45 24 50
f 50 37 45
f 32 24 45
f 63 50 42
f 42 76 63
f 13 18 34
f 34 18 26
f 26 47 34
f 47 55 34
f 34 55 76
f 76 42 34
f 23 5 10
f 31 18 23
f 23 18 5
f 10 15 23
f 23 15 36
f 36 44 23
f 52 31 23
f 23 44 52
f 308 295 316
f 316 253 308
f 253 274 308
f 334 295 308
f 308 274 334
f 355 368 347
f 347 368 342
f 347 321 355
f 342 321 347
f 355 373 381
f 381 368 355
f 394 397 381
f 381 397 389
f 389 368 381
f 381 386 394
f 373 386 381
f 363 342 376
f 342 368 376
f 376 384 363
f 389 384 376
f 376 368 389
f 299 278 312
f 325 304 338
f 299 312 325
f 364 343 377
f 364 330 343
f 390 395 385
f 395 393 385
f 377 390 385
f 385 364 377
f 393 364 385
f 383 375 380
f 354 333 346
f 346 375 354
f 346 325 338
f 346 333 299
f 299 325 346
f 354 370 362
f 192 200 187
f 187 221 192
f 234 213 268
f 255 200 234
f 200 192 234
f 221 213 234
f 234 192 221
f 239 260 268
f 268 213 239
f 239 213 205
f 205 247 239
f 239 247 218
f 239 218 273
f 273 281 239
f 239 281 260
f 310 297 289
f 331 297 310
f 289 323 310
f 310 323 331
f 318 297 339
f 339 292 318
f 339 297 331
f 339 352 326
f 326 292 339
f 339 331 360
f 360 352 339
f 313 292 326
f 313 355 300
f 313 326 355
f 67 33 80
f 80 33 46
f 80 46 114
f 114 122 80
f 80 122 67
f 54 20 41
f 41 33 54
f 190 151 164
f 164 203 190
f 190 203 211
f 117 125 83
f 70 75 83
f 83 75 117
f 91 70 83
f 83 125 91
f 91 104 57
f 57 44 36
f 57 104 78
f 78 44 57
f 57 70 91
f 57 62 70
f 28 15 20
f 36 15 28
f 28 20 54
f 54 62 28
f 12 20 7
f 20 15 7
f 7 4 12
f 2 4 7
f 10 2 7
f 7 15 10
f 208 195 174
f 174 153 208
f 174 195 161
f 174 148 153
f 305 297 318
f 305 284 297
f 318 292 305
f 109 88 96
f 96 122 109
f 96 88 67
f 67 122 96
f 101 143 114
f 114 135 101
f 101 135 143
f 155 168 176
f 176 168 189
f 202 155 176
f 176 189 202
f 92 113 87
f 87 66 92
f 92 66 71
f 71 37 63
f 63 126 71
f 126 92 71
f 71 66 32
f 51 38 43
f 43 30 51
f 38 17 43
f 43 17 30
f 53 74 61
f 27 53 61
f 61 40 27
f 61 74 95
f 61 95 82
f 82 40 61
f 184 231 197
f 197 226 184
f 273 226 197
f 197 252 273
f 51 30 35
f 35 30 22
f 27 48 35
f 35 9 27
f 35 22 9
f 72 59 51
f 51 64 72
f 48 69 77
f 77 64 48
f 69 90 77
f 103 111 77
f 77 90 103
f 208 153 166
f 166 200 208
f 187 200 166
f 166 145 187
f 132 77 111
f 64 77 132
f 145 166 132
f 158 150 137
f 137 150 129
f 137 184 158
f 129 184 137
f 179 150 158
f 179 247 205
f 158 218 179
f 218 247 179
f 205 213 179
f 344 302 315
f 328 336 315
f 315 336 344
f 294 281 307
f 302 281 294
f 294 315 302
f 328 315 294
f 294 320 328
f 294 307 320
f 210 231 257
f 257 252 210
f 210 197 231
f 252 197 210
f 340 319 353
f 251 230 238
f 217 230 251
f 238 191 251
f 251 191 217
f 209 230 196
f 209 222 235
f 201 222 209
f 196 183 209
f 209 183 201
f 361 382 390
f 390 369 361
f 374 382 361
f 361 369 356
f 399 391 396
f 398 399 396
f 396 391 378
f 396 370 383
f 378 370 396
f 337 329 295
f 337 334 363
f 337 295 334
f 371 358 345
f 345 358 311
f 311 282 345
f 345 282 324
f 180 222 201
f 180 188 222
f 159 188 180
f 180 154 159
f 180 201 167
f 167 154 180
f 91 125 112
f 125 146 112
f 112 104 91
f 99 104 112
f 112 120 99
f 112 154 120
f 146 154 112
f 141 120 167
f 141 133 120
f 167 183 141
f 141 183 175
f 141 175 94
f 94 133 141
f 160 168 147
f 147 181 160
f 241 215 228
f 241 236 215
f 270 236 241
f 241 207 249
f 228 207 241
f 249 262 241
f 262 270 241
f 97 123 131
f 173 118 131
f 131 144 165
f 131 123 144
f 178 199 173
f 173 131 178
f 178 131 165
f 280 267 254
f 254 267 199
f 199 178 254
f 50 24 16
f 16 42 50
f 16 24 11
f 8 29 16
f 29 42 16
f 16 3 8
f 11 3 16
f 21 29 13
f 13 34 21
f 21 42 29
f 21 34 42
f 283 270 291
f 291 278 283
f 291 312 278
f 304 325 291
f 291 325 312
f 291 270 296
f 296 304 291
f 338 330 359
f 372 364 393
f 393 380 372
f 367 346 338
f 375 346 367
f 338 372 367
f 367 380 375
f 367 372 380
f 354 362 341
f 341 333 354
f 320 333 341
f 341 362 336
f 328 320 341
f 341 336 328
f 357 362 370
f 365 344 357
f 357 378 365
f 357 370 378
f 276 234 268
f 255 234 276
f 268 323 276
f 276 323 255
f 33 41 25
f 46 33 25
f 25 20 12
f 25 41 20
f 12 38 25
f 38 46 25
f 232 190 211
f 232 287 266
f 258 287 232
f 232 211 258
f 151 190 198
f 49 57 36
f 62 57 49
f 36 28 49
f 49 28 62
f 140 174 161
f 148 174 140
f 106 148 140
f 161 169 140
f 140 169 106
f 284 305 279
f 279 237 229
f 229 284 279
f 279 305 292
f 279 313 300
f 292 313 279
f 113 121 100
f 100 87 113
f 121 108 100
f 79 116 95
f 79 108 116
f 95 74 79
f 79 100 108
f 87 100 79
f 79 74 66
f 66 87 79
f 58 45 37
f 37 71 58
f 32 45 58
f 58 71 32
f 48 64 56
f 56 35 48
f 56 64 51
f 51 35 56
f 119 148 106
f 127 148 119
f 85 72 64
f 64 132 85
f 127 119 85
f 85 132 166
f 85 153 127
f 85 166 153
f 150 179 171
f 103 124 171
f 124 150 171
f 171 221 187
f 171 213 221
f 171 179 213
f 187 145 171
f 145 132 171
f 171 111 103
f 171 132 111
f 272 259 238
f 238 230 272
f 272 264 306
f 272 230 264
f 319 340 301
f 301 272 319
f 259 272 301
f 335 322 301
f 246 191 238
f 238 259 246
f 225 191 246
f 246 254 225
f 259 301 246
f 285 230 243
f 230 209 243
f 243 256 285
f 235 256 243
f 243 209 235
f 398 396 388
f 388 393 398
f 388 380 393
f 383 380 388
f 388 396 383
f 324 329 350
f 329 337 350
f 371 345 350
f 350 345 324
f 350 384 371
f 363 384 350
f 350 337 363
f 194 181 215
f 194 160 181
f 215 223 194
f 194 223 189
f 189 168 194
f 168 160 194
f 110 131 118
f 97 131 110
f 118 84 110
f 76 97 110
f 110 105 76
f 110 84 105
f 212 233 225
f 225 254 212
f 212 254 178
f 212 178 165
f 212 165 204
f 204 233 212
f 330 364 351
f 351 359 330
f 364 372 351
f 338 359 351
f 351 372 338
f 336 362 349
f 362 357 349
f 344 336 349
f 349 357 344
f 206 253 193
f 193 185 206
f 185 151 206
f 151 198 206
f 190 232 219
f 219 198 190
f 219 232 266
f 266 253 219
f 253 206 219
f 219 206 198
f 271 245 237
f 237 279 271
f 271 279 300
f 300 258 271
f 258 245 271
f 59 72 98
f 72 85 98
f 293 272 306
f 319 272 293
f 306 298 293
f 298 319 293
f 348 361 356
f 348 356 335
f 335 301 348
f 348 301 340
f 348 340 353
f 353 374 348
f 374 361 348
f 254 246 314
f 314 246 301
f 280 254 314
f 314 301 322
f 314 275 280
f 314 322 309
f 309 275 314
f 59 98 93
f 106 59 93
f 93 119 106
f 93 85 119
f 93 98 85

