# https://github.com/mikedh/trimesh
v 0.00035148 0.00228280 1.99999867
v -0.19881954 -0.05668133 1.98928581
v 0.15289531 -0.02527939 1.99398695
v -0.17383755 0.23382169 1.97866317
v -0.07733390 -0.59622661 1.90749399
v 0.28774628 0.17462335 1.97147375
v -0.51079653 0.04284572 1.93319713
v 0.33326151 -0.58713842 1.88260597
v -0.15148152 0.71025454 1.86348916
v -0.44963198 -0.33260326 1.92020993
v 0.54926404 -0.05477430 1.92231860
v -0.51781445 0.64593034 1.82061588
v 0.08663335 -0.65709433 1.88698747
v 0.39823111 0.42034898 1.91434551
v -0.66017001 -0.26794224 1.86879172
v 0.84663150 -0.43075629 1.76001822
v -0.34833216 0.86284285 1.77035785
v -0.56800611 -0.72654075 1.77468521
v 0.87424923 0.40147413 1.75342716
v -0.59764950 0.37288989 1.87183552
v 0.22088457 -0.96257267 1.73915608
v 0.04548516 0.89637961 1.78729815
v -0.80322086 -0.41385206 1.78425411
v 0.71628408 -0.26440341 1.84852047
v -0.64849377 0.86327229 1.68351323
v -0.08116051 -1.00909020 1.72486229
v 0.63610772 0.64417251 1.78337005
v -0.84351416 0.22234420 1.79973524
v 0.85319196 -0.57930118 1.71361420
v -0.08863820 0.97837049 1.74210632
v -0.74981037 -0.58957795 1.75789142
v 0.85830804 0.45455037 1.74833957
v -1.18320688 0.37458167 1.56834628
v 0.45978521 -0.85278696 1.74967196
v 0.23889839 1.08800095 1.66107841
v -0.99199529 -0.63376271 1.61687667
v 0.85679251 -0.56931661 1.71516331
v -0.41133331 1.19553445 1.54967813
v -0.62282698 -1.06550872 1.57377817
v 1.14520601 0.61641352 1.51938724
v -1.10631107 0.50110478 1.58901536
v 1.01421518 -0.76950081 1.54247725
v 0.49529143 1.18347477 1.53429914
v -0.78744144 -1.05248774 1.50738367
v 1.21173761 -0.37449990 1.54642872
v -0.77490804 0.94730229 1.58181412
v 0.05296997 -1.40792012 1.41949115
v 0.53576409 1.15518775 1.54223802
v -1.16407925 -0.38716273 1.57956466
v 1.19207791 -0.41072115 1.55250069
v -0.05941246 1.32045383 1.50095698
v -0.77971732 -1.13874351 1.44751654
v 1.28557711 0.52951753 1.43767267
v -1.09247017 0.57339746 1.57407887
v 0.71379152 -1.15126933 1.47142128
v 0.44008089 1.25452944 1.49415016
v -1.20833776 -0.31381964 1.56250987
v 1.40925407 -0.23524499 1.39952233
v -0.51173623 1.21355605 1.50512715
v -0.03745651 -1.36385573 1.46235925
v 0.89459680 1.00208681 1.48172824
v -1.46078989 0.15008805 1.35777998
v 0.96708495 -0.89853367 1.50245930
v -0.23682743 1.45878249 1.34754088
v -1.27603805 -0.87698353 1.26594896
v 1.34562456 0.03233012 1.47927324
v -0.99041026 1.02327302 1.40427912
v 0.32760779 -1.41494259 1.37499477
v 0.40455506 1.57548456 1.16369394
v -1.33186372 -0.64292800 1.34639616
v 1.42549258 -0.62017738 1.25831272
v -0.42799730 1.43618746 1.32445607
v -0.66085945 -1.51131653 1.13101156
v 1.37423346 0.74557318 1.24723816
v -1.44226618 0.23163574 1.36609413
v 1.01737226 -1.05917387 1.35760981
v 0.31915149 1.58075744 1.18294051
v -1.37070018 -0.53269182 1.35551483
v 1.63093910 -0.31898860 1.11278206
v -1.09000347 1.30994911 1.04686473
v -0.19741093 -1.61441534 1.16391238
v 0.90271855 1.41423231 1.08859828
v -1.52695289 -0.08255865 1.28903024
v 1.45635650 -0.91835516 1.01766868
v -0.52977029 1.59125591 1.08960914
v -1.26611900 -1.19460646 0.98481374
v 1.40956932 0.62752205 1.27252914
v -1.42694044 0.57942805 1.27597183
v 0.87178874 -1.33102294 1.21176001
v 0.37327419 1.64377204 1.07641993
v -1.64121402 -0.62520650 0.95683509
v 1.54387763 -0.66972290 1.08070028
v -1.07896169 1.39318116 0.94598516
v -0.83234131 -1.46932622 1.07158219
v 1.57584678 0.77190246 0.95962154
v -1.60841148 0.44342942 1.10289748
v 1.19027660 -1.21945670 1.04697993
v 0.13377497 1.76293180 0.93497365
v -0.99252066 -1.43706277 0.97455289
v 1.81089500 0.07389385 0.84569438
v -1.41215669 0.93093952 1.06731676
v 0.56591675 -1.72536777 0.83835809
v 1.20255863 1.22603002 1.02503812
v -1.62032383 -0.39946989 1.10225881
v 1.17187902 -1.26920010 1.00788426
v -0.08007705 1.78046209 0.90749238
v -0.96078809 -1.46686081 0.96187608
v 1.40873127 0.91083621 1.08896906
v -1.73906574 0.35635682 0.92122754
v 0.50127738 -1.77459429 0.77429715
v 0.46449403 1.78717230 0.76828411
v -1.68502104 -0.81413716 0.70560951
v 1.76785413 -0.19974781 0.91366984
v -1.09340479 1.32468941 1.02453108
v 0.16053854 -1.78867271 0.88027116
v 1.68836924 0.78952104 0.72530396
v -1.71228865 0.21973541 1.00984352
v 0.95171485 -1.55594065 0.82054101
v -0.59771705 1.64376317 0.96993659
v -1.41003221 -1.19804115 0.75928029
v 1.79719224 0.07591049 0.87426406
v -1.30471665 1.27427798 0.82093244
v -0.03894893 -1.77363062 0.92342700
v 0.85265175 1.70312360 0.61020897
v -1.63017320 -0.86334022 0.77277358
v 1.74744664 -0.79581297 0.55956407
v -0.80809387 1.66577866 0.75641638
v -0.88492922 -1.57182264 0.86387143
v 1.59353559 0.82075963 0.88712906
v -1.75630811 0.44012917 0.84951053
v 1.20789279 -1.38015712 0.79759722
v -0.24428221 1.82556517 0.77951139
v -1.69438162 -0.73050425 0.77164399
v 1.93645439 -0.03696537 0.49877647
v -1.12451458 1.43192604 0.82768035
v -0.49426397 -1.86528731 0.52574364
v 0.76455169 1.70867282 0.70420020
v -1.94365322 -0.05582936 0.46807612
v 1.79979771 -0.60715855 0.62616826
v -0.38735405 1.80820304 0.76181272
v -0.54303742 -1.86080497 0.49245835
v 1.71067791 0.78225842 0.67945041
v -1.72385808 0.70671865 0.72722904
v 0.92507947 -1.71094597 0.46571651
v 1.03592517 1.59332476 0.62303710
v -1.85568252 -0.38748287 0.63741620
v 1.79679740 -0.75689483 0.44567851
v -1.45936009 1.24835175 0.55846757
v -0.67481179 -1.84531328 0.37342729
v 1.24298107 1.53331919 0.32238225
v -1.97223276 -0.05801927 0.32700414
v 0.86353491 -1.72110525 0.54046664
v 0.47309939 1.89570681 0.42716817
v -1.54978159 -1.16799112 0.48370834
v 1.96319596 0.04709542 0.37900349
v -1.75495278 0.88618165 0.36718226
v 0.06043525 -1.98236071 0.25805731
v 0.97954712 1.70892254 0.34651291
v -1.82404020 -0.62030617 0.53674724
v 1.67809878 -1.05473846 0.26741590
v -0.28016962 1.91482018 0.50494422
v -0.79772055 -1.75560756 0.53055068
v 1.77843129 0.83983550 0.36312325
v -1.92459154 0.03324569 0.54299369
v 0.73915216 -1.84915205 0.18517770
v 0.05091061 1.99377021 0.14929323
v -1.65103722 -1.00836715 0.50721966
v 1.86075520 -0.56077608 0.47235608
v -0.96730775 1.74471439 0.14243381
v -0.29587089 -1.95940183 0.27056404
v 1.24368445 1.53062875 0.33230199
v -1.95460486 -0.04907199 0.42084651
v 1.76747975 -0.91055039 0.21659482
v -0.53827648 1.90853467 0.26029568
v -0.67819627 -1.82668665 0.45084997
v 1.95346860 0.36965509 0.21752140
v -1.52666029 1.23932645 0.36520994
v 0.23581389 -1.97058864 0.24733021
v 0.91305542 1.77307725 0.15008947
v -1.56034092 -1.23220269 0.21682423
v 1.82464766 -0.75268647 0.32268246
v -1.29471129 1.52230915 0.07935702
v -0.30701739 -1.97597273 0.03566658
v 1.31331225 1.47551000 0.31317913
v -1.92383413 0.46616792 0.28556910
v 0.70888305 -1.86983186 -0.03483725
v 0.62950693 1.89832935 -0.00816755
v -1.54028150 -1.25917676 0.20495562
v 1.98437346 -0.23833906 0.07386800
v -1.19011016 1.60722354 -0.02168620
v 0.01340102 -1.99167520 0.18179739
v 1.35847412 1.44294761 0.26916585
v -1.99063107 0.19325526 -0.00635041
v 1.82011013 -0.82729927 -0.05267861
v -0.26916856 1.98088328 -0.06041288
v -0.39536248 -1.95935107 0.06805810
v 1.95535933 0.40906664 0.09609557
v -1.77246275 0.91358543 0.15406966
v 0.31082368 -1.96937096 -0.15800845
v 0.62286344 1.89907090 0.07463807
v -1.41070308 -1.40601167 -0.18179112
v 1.77233522 -0.91827694 -0.12488128
v -0.77823972 1.83787615 -0.12866304
v 0.04972065 -1.99450781 0.13952216
v 1.12504684 1.64209360 -0.19441759
v -1.93989330 0.48251584 -0.06318568
v 1.28543615 -1.52551252 -0.14305747
v -0.26890693 1.98015152 -0.08178634
v -0.85302416 -1.80859656 -0.03644550
v 1.98538249 -0.00535368 -0.24130414
v -1.73015367 0.99071735 -0.15826371
v 0.28042179 -1.97998513 -0.03197664
v 0.84286059 1.81309845 -0.04753980
v -1.84045800 -0.78240559 -0.02357678
v 1.60361497 -1.18343103 -0.16706294
v -0.50720361 1.93353095 -0.06482722
v -0.95881728 -1.72889911 -0.30261741
v 1.51825641 1.27184675 -0.27803476
v -1.96362977 0.13122553 -0.35628358
v 1.53072435 -1.28323108 -0.10099975
v -0.04914246 1.99363208 -0.15171074
v -1.57784970 -1.22549597 -0.09246595
v 1.98656454 0.03134575 -0.22930059
v -1.45165108 1.35552189 -0.23509477
v 0.55699209 -1.91875465 -0.09022423
v 1.20849255 1.59140005 -0.08361598
v -1.99156215 -0.10748611 -0.14875121
v 1.82740368 -0.80905789 -0.07759573
v -0.34795570 1.91448805 -0.46223621
v -0.99204246 -1.70445309 -0.33270321
v 1.88979620 0.42925165 -0.49438176
v -1.58439926 1.18667243 -0.28546024
v 0.67668561 -1.87671086 -0.14160833
v 0.63873544 1.87240179 -0.29347673
v -1.53824291 -1.25551346 -0.23978052
v 1.72948891 -0.93676632 -0.36240445
v -0.47184550 1.91042828 -0.35724728
v -0.80593017 -1.76134064 -0.49815228
v 1.74091608 0.81271501 -0.55561273
v -1.90997950 0.23111395 -0.54641069
v 1.26747934 -1.52488252 -0.26120763
v 0.11341173 1.92165878 -0.54255443
v -1.00578745 -1.67387082 -0.43191210
v 1.92163999 0.38295258 -0.40080802
v -1.55972277 1.08640073 -0.62209192
v -0.05024896 -1.92239587 -0.54942621
v 1.39317043 1.36820486 -0.43254089
v -1.80966700 -0.77552442 -0.35166348
v 1.71801516 -0.78109179 -0.66205705
v -1.10056713 1.57486744 -0.55546785
v -0.59825275 -1.86307213 -0.41358901
v 1.77666714 0.63344069 -0.66498629
v -1.75047721 0.89138876 -0.37583989
v 0.74180534 -1.72536566 -0.68763230
v 0.49718498 1.89683479 -0.39347793
v -1.34508722 -1.41490076 -0.43450686
v 1.84960503 -0.61634763 -0.44618028
v -1.40966568 1.31315634 -0.53708760
v -0.49320944 -1.84246398 -0.60172331
v 1.40724516 1.26004885 -0.65721986
v -1.94639095 -0.17705728 -0.42451501
v 1.32264428 -1.33972900 -0.67508392
v -0.55963839 1.83086408 -0.57856856
v -1.22723296 -1.48992738 -0.52346507
v 1.88098375 0.35076020 -0.58212320
v -1.84084873 0.50252370 -0.59895400
v 0.85764725 -1.74061023 -0.48447621
v 0.82965927 1.67418028 -0.71329229
v -1.89679855 -0.28066978 -0.56866487
v 1.60877435 -1.07356089 -0.50922697
v -0.51698742 1.83632210 -0.60053737
v -0.05148523 -1.92027814 -0.55666968
v 1.37107977 1.19487743 -0.83211068
v -1.90943735 0.18659403 -0.56500591
v 1.37556302 -1.18494477 -0.83888752
v 0.46798574 1.84904405 -0.60168550
v -1.42834866 -1.27174053 -0.58523169
v 1.85162452 -0.09366111 -0.75014282
v -1.60301296 0.96953569 -0.70024997
v -0.14853923 -1.86988767 -0.69387044
v 1.09206737 1.45099189 -0.83786120
v -1.80975623 0.03418672 -0.85065485
v 1.43298083 -1.22203022 -0.67320730
v -0.35856178 1.84871765 -0.67355511
v -0.59328060 -1.65914918 -0.94617235
v 1.62846135 0.72481709 -0.90705778
v -1.45825987 1.04162946 -0.88796747
v 0.54575098 -1.66752939 -0.95994875
v 0.44061224 1.67299967 -1.00346049
v -1.59497403 -0.76210253 -0.93555202
v 1.68838974 -0.38127954 -1.00198104
v -1.31092348 1.21618208 -0.89575709
v -0.24598794 -1.69927279 -1.02565196
v 1.36133014 1.18880270 -0.85646272
v -1.84432148 0.05335638 -0.77177158
v 0.85066993 -1.59604530 -0.85381501
v 0.27996819 1.76411478 -0.89973155
v -0.85740209 -1.56653948 -0.90045306
v 1.71121421 0.18459702 -1.01866081
v -1.27041093 1.20882206 -0.96166797
v -0.01664045 -1.70864125 -1.03935950
v 0.97478179 1.32180025 -1.14133456
v -1.64236279 -0.72580663 -0.88082302
v 1.53814829 -0.61374122 -1.12134809
v -0.84942833 1.54721734 -0.94052646
v -0.51576276 -1.58397816 -1.10679807
v 1.26054321 1.05325403 -1.14091488
v -1.49232591 0.95620946 -0.92662120
v 1.00789190 -1.31692240 -1.11797553
v -0.10634955 1.73821232 -0.98351802
v -1.44961009 -0.62243079 -1.22931302
v 1.55678068 -0.03017535 -1.25519854
v -1.31211571 0.88769751 -1.22079708
v -0.26509071 -1.59940017 -1.17117292
v 1.41415806 1.02317794 -0.97635234
v -1.47842816 -0.44446405 -1.27149592
v 1.29164118 -0.85693874 -1.26385089
v 0.10165471 1.67212300 -1.09255251
v -1.07852340 -1.33554856 -1.02620530
v 1.53831771 0.51382616 -1.17028258
v -1.48998242 0.31882580 -1.29549315
v 0.77409622 -1.26851529 -1.33852307
v 0.81585879 1.44208393 -1.12016444
v -1.46248087 -0.35570760 -1.31705042
v 1.59294684 -0.50843280 -1.09727683
v -0.80598928 1.43998285 -1.12996933
v -0.28067923 -1.44253057 -1.35658569
v 0.97818655 1.02455762 -1.41188978
v -1.58049732 0.31989488 -1.18308727
v 0.66371369 -1.47152086 -1.18072456
v -0.25040868 1.58046336 -1.19976291
v -0.87418984 -1.34030314 -1.19974148
v 1.44831062 0.13847186 -1.37230532
v -0.89696846 1.20491660 -1.32046339
v 0.25184337 -1.57269334 -1.20963241
v 0.75089239 1.10733493 -1.48659678
v -1.42596559 -0.08144157 -1.39999622
v 1.36458609 -0.62014856 -1.32413012
v -0.08687957 1.34046538 -1.48175723
v -0.89313609 -0.97009478 -1.50373669
v 1.38854270 0.14406183 -1.43219948
v -1.25472591 0.46587948 -1.48614239
v 0.34686728 -1.27707160 -1.49959035
v 0.15798148 1.29464385 -1.51622530
v -1.18914608 -0.91958918 -1.31919951
v 1.43330480 -0.07606364 -1.39278558
v -0.69086536 1.01757569 -1.57710011
v -0.51613963 -1.30771370 -1.42249245
v 0.97785350 0.96878223 -1.45095263
v -1.25756848 -0.21568220 -1.54013074
v 0.99416724 -0.91718884 -1.47322644
v 0.06280665 1.32300712 -1.49856848
v -0.62997043 -1.20827793 -1.46396779
v 1.25981579 0.61566006 -1.42612302
v -0.91887517 0.98762664 -1.47657104
v 0.39790850 -1.25127519 -1.50863489
v 0.50073450 1.19850881 -1.52080294
v -0.89570470 -0.60820814 -1.68160517
v 1.24237732 -0.32843950 -1.53252279
v -0.24847913 1.25839023 -1.53450713
v -0.59334775 -1.02342278 -1.61262031
v 0.99971880 0.77257471 -1.55038403
v -1.15717109 0.04072052 -1.63073508
v 0.49391572 -0.86100633 -1.73629357
v 0.00380299 1.10282067 -1.66846400
v -0.86417301 -0.77565956 -1.62836030
v 0.92269399 -0.31375128 -1.74648101
v -0.73195952 0.68198622 -1.73179966
v -0.00141691 -1.16005694 -1.62919179
v 0.69406302 0.75362360 -1.71765188
v -1.13928422 -0.13746372 -1.63802784
v 0.82716962 -0.32407353 -1.79186126
v -0.14504090 1.13151220 -1.64275478
v -0.39080897 -0.82223087 -1.78078768
v 0.83001595 0.32704525 -1.79000417
v -0.76217407 0.56503819 -1.76063129
v 0.31739951 -1.00848337 -1.69770988
v 0.38595085 0.83890749 -1.77405642
v -0.76751878 -0.50104133 -1.77760302
v 0.93064880 -0.49726488 -1.69900572
v -0.68887710 0.73073813 -1.72958669
v -0.22087522 -0.71875406 -1.85326920
v 0.54402383 0.34426875 -1.89354617
v -0.88505597 0.33826303 -1.76132168
v 0.63368332 -0.39344100 -1.85570731
v -0.15739272 0.70325410 -1.86565302
v -0.35625518 -0.52205579 -1.89750889
v 0.55197566 -0.01253990 -1.92228136
v -0.33877995 0.35417334 -1.93901764
v 0.18793063 -0.46894740 -1.93514093
v 0.45473677 0.47901912 -1.88779108
v -0.70536719 -0.04876598 -1.87084981
v 0.45219135 -0.31966475 -1.92180577
v -0.09102804 0.61320756 -1.90149688
v -0.20362578 -0.26238632 -1.97222969
v 0.37213919 0.25995406 -1.94780294
v -0.27094055 0.15815102 -1.97524162
v 0.17673765 -0.21037037 -1.98103713
v -0.00118684 0.30836599 -1.97608426
v -0.04671704 -0.01679018 -1.99938381
f 227 214 151
f 52 73 39
f 87 53 66
f 223 197 176
f 185 151 164
f 86 52 65
f 159 151 214
f 209 162 188
f 163 176 197
f 73 52 94
f 1 5 3
f 66 79 121
f 121 87 66
f 58 79 66
f 169 135 127
f 127 174 169
f 169 174 203
f 182 135 169
f 310 242 297
f 218 260 247
f 284 242 310
f 305 326 300
f 263 271 305
f 271 284 305
f 373 386 381
f 381 386 389
f 164 151 172
f 172 138 164
f 222 180 214
f 188 180 222
f 209 188 201
f 188 222 201
f 295 266 282
f 282 269 295
f 303 269 282
f 358 345 311
f 392 363 384
f 384 389 392
f 92 139 79
f 126 92 84
f 139 92 126
f 134 189 155
f 223 176 155
f 155 189 223
f 223 189 210
f 210 189 257
f 181 189 168
f 168 189 134
f 280 246 259
f 204 246 199
f 296 262 267
f 301 288 272
f 272 280 301
f 246 280 272
f 173 194 181
f 257 189 228
f 228 189 181
f 181 194 228
f 202 228 194
f 202 173 160
f 194 173 202
f 338 351 380
f 317 351 338
f 257 249 291
f 375 383 370
f 344 289 357
f 357 336 370
f 370 378 357
f 239 260 218
f 286 315 239
f 218 163 239
f 239 163 197
f 264 277 319
f 256 277 264
f 22 30 9
f 12 4 9
f 9 14 22
f 4 14 9
f 145 103 184
f 53 87 74
f 108 103 61
f 61 74 108
f 69 90 77
f 192 163 218
f 87 121 95
f 108 74 95
f 95 74 87
f 73 94 128
f 128 136 73
f 162 136 128
f 94 107 128
f 44 52 39
f 44 65 52
f 44 36 65
f 49 23 57
f 36 23 49
f 251 196 209
f 251 238 259
f 259 246 251
f 170 191 157
f 204 178 157
f 157 191 204
f 149 196 170
f 209 196 149
f 149 162 209
f 73 136 81
f 39 73 60
f 73 81 60
f 15 10 7
f 5 10 18
f 18 44 39
f 57 62 83
f 164 138 146
f 151 159 146
f 146 91 104
f 146 172 151
f 138 172 146
f 6 3 11
f 11 14 6
f 6 14 4
f 6 4 1
f 1 3 6
f 79 139 113
f 113 121 79
f 113 168 134
f 139 168 113
f 45 58 66
f 66 24 45
f 16 50 45
f 45 24 16
f 93 85 119
f 93 80 85
f 119 127 93
f 93 127 135
f 51 77 64
f 12 9 17
f 17 9 30
f 161 153 166
f 41 88 33
f 33 62 57
f 130 185 164
f 164 109 130
f 143 185 130
f 96 130 109
f 143 130 96
f 101 143 96
f 96 88 101
f 135 182 148
f 148 143 101
f 177 182 224
f 177 148 182
f 310 297 318
f 318 297 289
f 318 289 344
f 281 247 260
f 111 90 137
f 137 153 111
f 242 284 229
f 229 284 271
f 300 326 334
f 250 203 263
f 263 305 250
f 326 305 331
f 310 318 331
f 331 284 310
f 331 305 284
f 344 357 365
f 365 357 378
f 386 373 365
f 365 378 386
f 370 383 391
f 391 378 370
f 120 188 162
f 162 128 120
f 248 222 214
f 248 303 277
f 269 303 248
f 248 214 227
f 230 201 256
f 256 264 230
f 230 264 243
f 235 201 222
f 235 248 277
f 222 248 235
f 235 277 256
f 256 201 235
f 337 324 282
f 292 305 300
f 292 250 305
f 363 337 321
f 198 177 211
f 206 253 266
f 206 185 198
f 198 211 206
f 206 211 253
f 266 295 240
f 240 206 266
f 219 206 240
f 261 295 269
f 227 219 261
f 261 248 227
f 269 248 261
f 311 345 290
f 290 303 311
f 290 345 319
f 319 277 290
f 277 303 290
f 383 375 388
f 387 379 392
f 316 303 282
f 282 324 316
f 311 303 316
f 381 389 376
f 389 384 376
f 71 45 50
f 58 45 71
f 84 92 71
f 79 58 71
f 71 92 79
f 139 126 147
f 147 168 139
f 181 168 147
f 147 173 181
f 147 126 160
f 160 173 147
f 267 262 241
f 306 327 314
f 293 280 259
f 306 314 293
f 301 280 293
f 293 314 301
f 212 178 204
f 204 199 212
f 254 296 267
f 288 296 254
f 267 233 254
f 254 233 199
f 254 199 246
f 246 272 254
f 254 272 288
f 330 296 288
f 270 249 236
f 236 249 257
f 257 228 236
f 228 202 236
f 367 380 372
f 372 375 367
f 372 388 375
f 275 249 270
f 322 351 309
f 351 317 309
f 317 275 309
f 309 330 322
f 296 330 309
f 262 296 309
f 309 275 262
f 249 275 304
f 304 275 317
f 304 317 338
f 278 210 257
f 257 291 278
f 323 357 289
f 323 281 302
f 302 336 323
f 336 357 323
f 370 336 349
f 244 197 223
f 244 239 197
f 298 238 243
f 298 264 319
f 243 264 298
f 124 153 137
f 137 145 124
f 82 61 103
f 137 90 82
f 82 90 69
f 82 145 137
f 103 145 82
f 56 77 51
f 69 77 56
f 56 82 69
f 22 14 27
f 14 32 27
f 27 32 61
f 53 74 40
f 74 61 40
f 61 32 40
f 98 77 90
f 90 111 98
f 98 64 77
f 98 111 153
f 153 161 98
f 116 192 184
f 116 95 121
f 247 281 205
f 70 91 65
f 65 36 70
f 36 49 70
f 183 251 246
f 196 251 183
f 183 246 204
f 204 191 183
f 170 196 183
f 183 191 170
f 162 149 175
f 8 24 11
f 16 24 8
f 11 3 8
f 84 71 76
f 47 60 81
f 13 3 5
f 13 8 3
f 178 165 110
f 165 207 144
f 2 7 10
f 2 5 1
f 2 10 5
f 1 4 2
f 4 7 2
f 31 23 36
f 36 44 31
f 44 18 31
f 31 18 10
f 31 10 15
f 15 23 31
f 104 83 117
f 117 109 164
f 117 83 62
f 164 146 117
f 117 146 104
f 117 96 109
f 86 65 125
f 65 91 125
f 125 120 86
f 133 159 112
f 112 125 133
f 133 125 91
f 133 146 159
f 91 146 133
f 100 113 134
f 121 113 100
f 134 155 100
f 100 155 176
f 100 116 121
f 80 93 114
f 51 64 38
f 38 30 51
f 38 17 30
f 72 64 85
f 85 80 72
f 80 59 72
f 59 38 72
f 72 38 64
f 67 59 80
f 67 46 59
f 67 80 101
f 101 88 67
f 132 161 140
f 140 127 119
f 174 127 140
f 140 161 174
f 119 85 140
f 85 132 140
f 41 33 28
f 15 7 28
f 28 33 57
f 57 23 28
f 28 23 15
f 88 96 75
f 62 33 75
f 75 33 88
f 75 117 62
f 96 117 75
f 143 148 156
f 148 177 156
f 156 177 198
f 198 185 156
f 156 185 143
f 302 281 294
f 276 255 234
f 289 297 276
f 276 297 242
f 242 255 276
f 242 229 221
f 221 255 242
f 208 221 229
f 237 271 263
f 237 229 271
f 263 203 237
f 237 208 229
f 355 334 347
f 381 355 347
f 347 373 381
f 224 182 190
f 190 250 224
f 203 250 190
f 169 203 190
f 190 182 169
f 344 365 352
f 352 318 344
f 394 391 399
f 399 389 394
f 394 389 386
f 386 378 394
f 378 391 394
f 154 180 188
f 188 120 154
f 99 128 107
f 99 120 128
f 86 120 99
f 99 107 94
f 99 52 86
f 99 94 52
f 243 238 217
f 217 230 243
f 217 251 209
f 238 251 217
f 209 201 217
f 201 230 217
f 300 334 313
f 313 334 355
f 266 308 329
f 282 266 329
f 308 313 329
f 329 313 321
f 329 337 282
f 329 321 337
f 193 219 227
f 193 206 219
f 227 151 193
f 151 185 193
f 185 206 193
f 219 240 274
f 274 261 219
f 274 240 295
f 295 261 274
f 377 343 369
f 377 369 382
f 369 343 335
f 335 327 369
f 343 330 335
f 301 314 335
f 335 314 327
f 335 288 301
f 335 330 288
f 382 369 374
f 374 387 382
f 379 387 374
f 345 358 366
f 358 379 366
f 379 374 366
f 371 379 358
f 371 363 392
f 392 379 371
f 383 388 396
f 399 391 396
f 396 391 383
f 396 400 399
f 396 388 398
f 398 400 396
f 395 387 392
f 395 400 398
f 382 387 395
f 368 355 381
f 381 376 368
f 207 241 220
f 285 293 259
f 306 293 285
f 285 298 306
f 259 238 285
f 238 298 285
f 186 207 165
f 186 233 267
f 267 241 186
f 186 241 207
f 199 233 225
f 225 212 199
f 233 186 225
f 225 186 165
f 225 165 178
f 178 212 225
f 283 275 270
f 262 275 283
f 283 241 262
f 283 220 241
f 325 291 249
f 249 304 325
f 325 304 338
f 338 346 325
f 299 278 291
f 359 380 367
f 338 380 359
f 359 346 338
f 328 336 302
f 328 349 336
f 223 210 265
f 265 244 223
f 210 278 265
f 278 299 265
f 35 56 51
f 51 30 35
f 35 30 22
f 22 27 35
f 19 14 11
f 19 32 14
f 11 24 19
f 19 24 66
f 66 53 19
f 53 40 19
f 19 40 32
f 48 27 61
f 61 82 48
f 82 56 48
f 48 35 27
f 64 98 106
f 106 132 85
f 85 64 106
f 106 161 132
f 106 98 161
f 163 192 142
f 192 116 142
f 176 163 142
f 142 100 176
f 116 100 142
f 108 95 129
f 95 116 129
f 129 103 108
f 184 103 129
f 129 116 184
f 234 205 268
f 268 205 281
f 268 276 234
f 289 276 268
f 268 323 289
f 281 323 268
f 184 192 150
f 78 83 104
f 104 91 78
f 91 70 78
f 57 83 78
f 78 49 57
f 78 70 49
f 141 175 149
f 170 136 141
f 141 149 170
f 141 136 162
f 162 175 141
f 60 47 21
f 21 47 68
f 34 8 21
f 8 13 21
f 68 55 21
f 21 55 34
f 68 47 115
f 115 47 81
f 115 102 68
f 110 102 115
f 115 157 178
f 178 110 115
f 135 148 122
f 122 93 135
f 122 114 93
f 122 148 101
f 101 80 122
f 80 114 122
f 17 38 25
f 12 17 25
f 59 46 25
f 25 38 59
f 54 88 41
f 54 67 88
f 46 67 54
f 54 25 46
f 12 25 54
f 41 28 54
f 273 281 260
f 273 294 281
f 315 294 273
f 260 239 273
f 273 239 315
f 174 161 195
f 195 161 166
f 166 221 195
f 221 208 195
f 216 237 203
f 208 237 216
f 216 195 208
f 216 203 174
f 174 195 216
f 339 365 373
f 339 352 365
f 339 331 318
f 318 352 339
f 360 334 326
f 360 347 334
f 326 331 360
f 331 339 360
f 373 347 360
f 360 339 373
f 214 180 167
f 180 154 167
f 167 159 214
f 112 159 167
f 167 125 112
f 120 125 167
f 167 154 120
f 287 245 292
f 287 292 300
f 300 313 287
f 287 313 308
f 279 308 266
f 266 253 279
f 253 245 279
f 279 287 308
f 245 287 279
f 253 211 232
f 232 245 253
f 232 177 224
f 232 211 177
f 250 292 258
f 292 245 258
f 224 250 258
f 258 232 224
f 245 232 258
f 321 313 342
f 342 384 363
f 363 321 342
f 342 313 355
f 342 376 384
f 355 368 342
f 342 368 376
f 343 377 356
f 322 330 356
f 356 330 343
f 390 377 382
f 382 395 390
f 390 395 398
f 332 298 319
f 306 298 332
f 319 345 332
f 348 327 306
f 306 332 348
f 348 332 353
f 369 327 348
f 350 371 358
f 350 358 311
f 324 337 350
f 311 316 350
f 350 316 324
f 350 337 363
f 363 371 350
f 392 389 397
f 397 395 392
f 400 395 397
f 397 389 399
f 399 400 397
f 215 283 270
f 220 283 215
f 270 236 215
f 215 236 202
f 215 202 160
f 160 220 215
f 320 315 286
f 286 299 320
f 307 328 302
f 315 320 307
f 307 320 354
f 349 328 307
f 307 354 349
f 302 294 307
f 307 294 315
f 370 349 362
f 349 354 362
f 362 375 370
f 362 354 375
f 252 299 286
f 252 265 299
f 286 239 252
f 56 35 43
f 43 48 56
f 35 48 43
f 171 145 184
f 184 150 171
f 153 179 200
f 166 153 200
f 213 205 234
f 213 179 205
f 213 200 179
f 153 124 158
f 158 179 153
f 158 124 145
f 150 179 158
f 145 171 158
f 158 171 150
f 205 179 226
f 226 179 150
f 226 150 192
f 226 192 218
f 218 247 226
f 247 205 226
f 89 55 68
f 68 102 89
f 89 102 118
f 118 105 89
f 76 55 89
f 42 71 50
f 42 76 71
f 84 76 97
f 76 89 97
f 97 89 105
f 131 126 84
f 160 126 131
f 84 97 131
f 131 97 105
f 131 105 118
f 118 144 131
f 131 144 207
f 131 220 160
f 207 220 131
f 39 60 26
f 60 21 26
f 26 18 39
f 5 18 26
f 26 13 5
f 26 21 13
f 152 102 110
f 152 110 165
f 165 144 152
f 152 144 118
f 118 102 152
f 123 81 136
f 123 115 81
f 123 136 170
f 170 157 123
f 157 115 123
f 12 54 20
f 20 54 28
f 20 28 7
f 20 4 12
f 20 7 4
f 377 390 364
f 364 380 351
f 364 356 377
f 364 351 322
f 322 356 364
f 340 332 345
f 353 332 340
f 345 366 340
f 361 374 369
f 369 348 361
f 361 348 353
f 353 340 361
f 361 366 374
f 361 340 366
f 312 299 291
f 291 325 312
f 312 325 346
f 354 320 341
f 375 354 341
f 346 359 341
f 367 375 341
f 341 359 367
f 244 265 231
f 265 252 231
f 239 244 231
f 231 252 239
f 166 200 187
f 187 221 166
f 255 221 187
f 234 255 187
f 187 213 234
f 200 213 187
f 63 55 76
f 76 42 63
f 34 55 63
f 16 8 29
f 29 8 34
f 34 63 29
f 29 63 42
f 385 364 390
f 388 372 385
f 385 372 380
f 380 364 385
f 333 320 299
f 333 341 320
f 299 312 333
f 333 312 346
f 346 341 333
f 37 50 16
f 16 29 37
f 37 42 50
f 37 29 42
f 393 390 398
f 393 385 390
f 398 388 393
f 388 385 393

