# https://github.com/mikedh/trimesh
v 0.03185590 0.05610345 1.99895913
v -0.18562553 -0.12518054 1.98742874
v 0.41198546 -0.00305813 1.95710465
v -0.18061262 0.26650665 1.97391826
v -0.16129521 -0.39860104 1.95322837
v 0.52884470 0.25913939 1.91132678
v -0.34938031 0.04905870 1.96863573
v 0.16190384 -0.35172232 1.96216170
v -0.02590947 0.44430737 1.94985119
v -0.28329295 -0.55593454 1.90017944
v 0.61085839 0.19212884 1.89471331
v -0.54197274 0.44035603 1.87412703
v 0.28503253 -0.59531322 1.88795091
v 0.51911453 0.62468877 1.82764440
v -0.60457808 -0.09913080 1.90385357
v 0.53522560 -0.24161552 1.91184610
v -0.06023449 0.73029802 1.86092359
v -0.47500579 -0.69440511 1.81443408
v 0.68712142 0.16816701 1.87071751
v -0.87221023 0.52508263 1.72149282
v 0.44576079 -0.74854652 1.80027093
v 0.31752808 0.99941581 1.70303962
v -0.84875025 -0.49094635 1.74315653
v 1.01364336 -0.42315418 1.67136701
v -0.81303814 0.58275723 1.73186691
v -0.25333818 -0.86017822 1.78771172
v 0.76805203 0.85053416 1.63911187
v -1.07768372 0.22093660 1.67026490
v 0.75134327 -0.74976969 1.69508958
v -0.32359720 1.11447862 1.62887147
v -0.43077904 -0.87337706 1.74689494
v 1.14970396 0.06343573 1.63528490
v -0.71438959 0.59065003 1.77222461
v 0.04965126 -1.02039282 1.71939910
v 0.49017273 0.84482600 1.74527926
v -1.16113670 -0.24542275 1.60982273
v 0.82514970 -0.58049230 1.72689220
v -0.26728043 1.26294821 1.52758731
v -0.40049739 -0.97327111 1.70068962
v 0.98837651 0.32901714 1.70729599
v -1.03969865 0.25340714 1.68961876
v 0.47521871 -1.24288800 1.49311640
v 0.26737158 1.15442390 1.61115421
v -1.01368213 -0.77131077 1.54192355
v 1.34241980 0.38667085 1.43122142
v -0.75274457 1.12783532 1.47015751
v -0.24529548 -1.27024528 1.52522361
v 0.86458085 1.02330892 1.48503832
v -1.14829236 -0.35432590 1.59871129
v 1.03161019 -0.86435574 1.47941528
v -0.54697963 1.32068095 1.39879059
v -0.80595480 -0.94620822 1.56688444
v 1.14836566 0.71805774 1.47161456
v -1.21774523 0.49481574 1.50739973
v 0.67051509 -1.17175443 1.47560193
v 0.61003595 1.28990355 1.40142962
v -0.96977654 -0.77897457 1.56612007
v 1.36495718 -0.49599739 1.37509217
v -1.00740555 0.86720873 1.49435038
v -0.46245739 -1.34489695 1.40619535
v 1.15196347 0.70333575 1.47590616
v -1.45180544 0.35707471 1.32844217
v 1.32745854 -0.81438465 1.25484320
v 0.33801060 1.52823320 1.24509121
v -1.05089628 -1.14098310 1.26244785
v 1.58942216 0.16603364 1.20256809
v -1.10510089 1.17111123 1.18627590
v 0.69119105 -1.30098866 1.35265792
v 0.90838837 1.03926864 1.44732555
v -1.50794735 -0.44638465 1.23565186
v 1.45804358 -0.30091716 1.33549908
v -0.40746685 1.47954054 1.28254846
v -0.94239578 -1.28549763 1.20805051
v 1.35347938 0.92996259 1.14160551
v -1.55533233 0.16978868 1.24583834
v 0.48090718 -1.40185708 1.34295384
v 0.46363228 1.52433810 1.20889969
v -1.28604219 -0.93351825 1.21434721
v 1.48400510 -0.54046965 1.22703766
v -1.21374138 1.09942030 1.14808836
v -0.19791631 -1.50953355 1.29697247
v 1.28063373 1.08082684 1.09169162
v -1.55021193 -0.04574430 1.26283428
v 1.46515705 -0.91828158 1.00502425
v -0.48500678 1.62491200 1.06039116
v -1.10758553 -1.10812698 1.24310453
v 1.47077698 0.48974505 1.26371074
v -1.39497403 0.94736242 1.07543103
v 0.72663104 -1.50811717 1.09434453
v 0.91789011 1.49488485 0.96062324
v -1.68375258 -0.50143732 0.95579174
v 1.40306438 -0.90558840 1.10059983
v -0.48874884 1.58541823 1.11694835
v -0.68765724 -1.61369928 0.96078205
v 1.28437178 0.98752333 1.17268359
v -1.69461736 0.09947061 1.05753374
v 1.22515476 -1.06419791 1.16896476
v -0.29340571 1.73383233 0.95275314
v -0.97233693 -1.40070743 1.04526532
v 1.73717602 0.16726294 0.97685342
v -1.43182873 1.11192977 0.84467666
v 0.05784318 -1.82482438 0.81649871
v 1.22085173 1.27533207 0.93970695
v -1.78320825 0.10839402 0.89912129
v 1.69275001 -0.68109246 0.81896915
v -0.92302386 1.53173822 0.89543565
v -0.90642282 -1.56569603 0.85263921
v 1.50022604 0.91135554 0.95851599
v -1.54457469 0.97942261 0.80933330
v 0.66123080 -1.60335279 0.99600886
v 0.89809091 1.50499227 0.96355123
v -1.55487037 -0.88619182 0.89277220
v 1.75668430 -0.46466137 0.83555375
v -1.29462120 1.19388998 0.94793600
v -0.46311802 -1.73176591 0.88685317
v 1.34847235 1.20272479 0.85736539
v -1.72157112 -0.30775021 0.97030031
v 0.92070878 -1.59314229 0.78370466
v -0.17799687 1.88160096 0.65413679
v -1.36023933 -1.32231627 0.63342610
v 1.80870239 0.53869267 0.66212226
v -1.34275192 1.24499357 0.80436826
v 0.89869180 -1.53638346 0.91207396
v 0.42101258 1.84161885 0.65664938
v -1.63141902 -0.98352075 0.60922813
v 1.41263593 -1.13783126 0.84249614
v -1.18972333 1.50718882 0.55941063
v -0.56222824 -1.71927003 0.85323499
v 1.63230060 0.74640282 0.88231377
v -1.62016459 0.82370411 0.83461262
v 1.05466605 -1.47159933 0.84974992
v 0.32495361 1.81970977 0.76358465
v -1.42586362 -1.14854077 0.80483976
v 1.92520114 -0.17272291 0.51358288
v -1.61709002 0.88607803 0.77452281
v -0.32240737 -1.82876767 0.74273973
v 1.50561837 1.22475329 0.48279674
v -1.92301932 -0.32480342 0.44328257
v 1.69993889 -0.78554829 0.70222622
v -0.19838038 1.93299098 0.47348823
v -1.04937744 -1.56018460 0.68163846
v 1.62787620 0.89574652 0.74003867
v -1.51257965 1.19002276 0.54401162
v 1.16302062 -1.55429078 0.48121012
v 0.61234445 1.83824025 0.49589017
v -1.71136617 -0.97372073 0.35084720
v 1.70246554 -0.79350183 0.68699775
v -0.96184548 1.68632108 0.48080606
v -0.09049830 -1.94897538 0.43966467
v 1.63684324 1.09879826 0.33672923
v -1.96602754 -0.20286090 0.30591365
v 1.07702845 -1.64482612 0.36681980
v -0.35890448 1.89262565 0.53773202
v -1.54201652 -1.14630826 0.55512380
v 1.91311838 -0.08214623 0.57726083
v -1.67256711 0.95526058 0.53851321
v 0.00359189 -1.98273403 0.26220770
v 0.52771841 1.89541571 0.35904396
v -1.85816401 -0.49309836 0.55143495
v 1.59840963 -1.09318105 0.50004185
v -0.16904513 1.96114278 0.35403779
v -0.38114484 -1.95086831 0.22100104
v 1.48203888 1.30071529 0.33421624
v -1.99251042 0.03065687 0.17018336
v 0.62655322 -1.87854906 0.28015085
v 0.41355528 1.94763160 0.18895291
v -1.43963540 -1.35598099 0.29793532
v 1.84145753 -0.65897316 0.41807717
v -1.00375821 1.65979428 0.48739348
v 0.04549080 -1.93725320 0.49495516
v 0.91200278 1.73230430 0.40911216
v -1.97741766 0.17566067 0.24282239
v 1.42918485 -1.36245300 0.31804476
v -0.82791565 1.79878078 0.28096862
v -1.55774459 -1.23252841 0.23303543
v 1.95141882 0.39757860 0.18410827
v -1.65380781 1.11864087 0.11645737
v 0.51998871 -1.89089711 0.39258105
v 0.79825237 1.82521534 0.17714999
v -1.97411994 -0.28346163 0.14999994
v 1.65903141 -1.09014892 0.24329016
v -1.15995542 1.62834843 0.05463354
v -1.03563693 -1.69160201 0.25678550
v 1.77984104 0.90764494 0.09135944
v -1.97003301 -0.19433415 0.28496345
v 1.10397463 -1.66058841 0.15390305
v 0.14267869 1.97563315 0.27661609
v -1.29128270 -1.52316863 0.11201036
v 1.92138634 -0.53156240 0.16036196
v -1.39456367 1.42667238 0.14070570
v -0.30835031 -1.97401668 -0.09043355
v 1.35166718 1.45925594 0.20872930
v -1.90840836 -0.56840757 0.18678962
v 1.37569610 -1.45167692 -0.00971317
v -0.13995252 1.99421258 -0.05940928
v -0.90434106 -1.78372478 -0.02220747
v 1.80458594 0.86220468 -0.00852547
v -1.93132727 0.50972234 -0.10078736
v 0.55410391 -1.92061276 -0.06492679
v 0.11184127 1.98869092 0.18055456
v -1.43050085 -1.39101640 0.13689674
v 1.81120628 -0.83583473 0.14461026
v -1.18735884 1.59925119 -0.18048440
v 0.16566925 -1.98388437 -0.19171987
v 1.66846991 1.09927224 -0.08836700
v -1.98503720 0.23660476 0.06037814
v 1.72379781 -1.01301992 0.04808057
v 0.09610289 1.98038044 -0.26240722
v -0.85723867 -1.80612851 0.05515129
v 1.98575438 -0.22288941 0.08426063
v -1.24429661 1.56140221 -0.11725651
v 0.75609057 -1.83119246 -0.27397302
v 0.80265189 1.82433542 -0.16598261
v -1.75680866 -0.95346116 -0.06734350
v 1.96945518 -0.33934913 -0.07802851
v -0.56234818 1.88939264 -0.33757957
v -0.71370357 -1.86063218 -0.16933728
v 1.50660738 1.31525464 -0.01547379
v -1.70324632 1.02560833 -0.21697818
v 0.80518585 -1.81518055 -0.23831767
v 0.13309883 1.98813904 -0.17201118
v -1.38279435 -1.42155611 -0.25895559
v 1.95449899 0.38991967 -0.16702196
v -1.08256817 1.64760534 -0.33681271
v 0.41801019 -1.94831471 -0.17128125
v 1.34378386 1.47626363 -0.12202720
v -1.95909540 -0.03359911 -0.40101909
v 1.54855441 -1.22031648 -0.33586744
v -0.39810928 1.94958216 -0.20158966
v -0.66874350 -1.82766135 -0.46090794
v 1.92133783 0.27256243 -0.48391185
v -1.73388463 0.98670451 -0.14162735
v 0.83911929 -1.81008545 -0.13953308
v 1.16230011 1.55659101 -0.47548174
v -1.57059147 -1.18151099 -0.37050535
v 1.87136554 -0.54205128 -0.45185332
v -0.68835037 1.86873029 -0.18444752
v 0.03594488 -1.96538870 -0.36872104
v 1.79391899 0.76254285 -0.44764166
v -1.91070524 0.37666505 -0.45533385
v 1.59072671 -1.13226174 -0.43309570
v 0.16796997 1.90369712 -0.58968074
v -1.64637620 -1.05530007 -0.41926979
v 1.96303234 0.15185995 -0.35134395
v -1.41427434 1.30914237 -0.53476570
v 0.07881083 -1.93721290 -0.49091244
v 1.34615538 1.42712509 -0.38881829
v -1.81038736 -0.68236618 -0.50682740
v 1.53538008 -1.13318259 -0.59875308
v -0.35733570 1.93071611 -0.38032419
v -0.97269243 -1.69412566 -0.42872799
v 1.88053708 0.52172239 -0.43747690
v -1.82383087 0.48041600 -0.66546330
v 1.18219521 -1.46537089 -0.67461296
v 0.04640744 1.91586314 -0.57211431
v -1.71624448 -0.86113318 -0.55942340
v 1.91574545 -0.15251870 -0.55376656
v -1.33238751 1.35475713 -0.62400051
v 0.12970036 -1.89520668 -0.62559528
v 1.11306166 1.53644156 -0.63280413
v -1.88402534 -0.05544083 -0.66886083
v 1.31302825 -1.28349332 -0.79284406
v -0.65062668 1.79212291 -0.60413609
v -0.99072783 -1.53433244 -0.81503516
v 1.87381935 0.37794555 -0.58818213
v -1.58449018 1.05823311 -0.60789272
v 0.07683174 -1.90600449 -0.60103558
v 0.80814384 1.62635726 -0.83777419
v -1.91974279 -0.23397110 -0.50975009
v 1.51703817 -0.97288596 -0.86723014
v -1.30247403 1.41371040 -0.55225386
v -0.11984687 -1.86797455 -0.70449116
v 1.71330939 0.65887446 -0.79401220
v -1.86087069 0.29697190 -0.67005072
v 0.69967670 -1.64636026 -0.89439946
v 0.39060765 1.72418053 -0.93521504
v -1.46387892 -1.01682272 -0.90726516
v 1.78280493 0.35586314 -0.83364741
v -1.04349218 1.50972174 -0.79489896
v 0.37997079 -1.77034173 -0.84941883
v 1.45179646 1.07869147 -0.85364614
v -1.68564608 -0.43082356 -0.98640171
v 1.19541138 -1.33452933 -0.88883243
v -0.16871367 1.82874133 -0.79198537
v -0.38583823 -1.75319217 -0.88172902
v 1.55077869 0.98841660 -0.78620487
v -1.46744163 1.05956228 -0.85084831
v 0.64991264 -1.61319118 -0.98753621
v 0.92448477 1.46698006 -0.99664308
v -1.30332631 -1.31781686 -0.75146474
v 1.75510808 -0.13159010 -0.94988402
v -0.76209385 1.55478552 -1.00092705
v 0.01313327 -1.80012673 -0.87141911
v 1.64448291 0.74329027 -0.86208789
v -1.70431253 0.54889295 -0.89108659
v 0.99095138 -1.51394639 -0.85204559
v -0.03952104 1.76059888 -0.94801353
v -1.35247498 -1.04313059 -1.04052392
v 1.70812708 0.53414104 -0.89274590
v -1.29490052 1.24715479 -0.87626342
v 0.16120463 -1.76068279 -0.93488458
v 0.63767665 1.55864864 -1.07888040
v -1.74876058 -0.33467505 -0.91094953
v 1.48777017 -0.89832127 -0.98972664
v -0.11756710 1.64481464 -1.13170791
v -0.85421316 -1.37102702 -1.17923906
v 1.40881585 1.00239149 -1.00521102
v -1.63306126 0.71729276 -0.90476628
v 0.49652028 -1.66823313 -0.98512224
v 0.25152080 1.60420388 -1.16759034
v -1.39010158 -0.68761474 -1.26285532
v 1.60628905 -0.66314243 -0.98998869
v -0.94779317 1.47343498 -0.96471626
v -0.18859396 -1.56266445 -1.23390118
v 1.08055406 1.19552254 -1.18453737
v -1.55438499 0.36646607 -1.20398917
v 1.16944428 -1.25451710 -1.02887654
v -0.28654311 1.55746583 -1.22155361
v -1.19249588 -1.19250765 -1.07511817
v 1.69582039 0.20548010 -1.04017842
v -1.61397454 0.43139201 -1.09953950
v 0.68520900 -1.53322348 -1.08614658
v 0.41997596 1.61998078 -1.09511756
v -1.40205843 -0.47819148 -1.34371317
v 1.52670257 -0.18466577 -1.27870161
v -0.57760299 1.53600774 -1.14326506
v -0.19439341 -1.43779932 -1.37656976
v 1.51193135 0.62301405 -1.15148474
v -1.45239357 0.34859125 -1.33005153
v 0.64273128 -1.47683802 -1.18568375
v 0.09626351 1.42337026 -1.40169556
v -0.76767289 -1.33516785 -1.27593305
v 1.55825149 0.27573306 -1.22303866
v -1.31836958 0.74834280 -1.30456303
v 0.08725663 -1.41085589 -1.41487524
v 1.18878002 1.02469496 -1.23967830
v -1.35157772 -0.40203909 -1.41830964
v 0.91192967 -0.98711478 -1.48121190
v -0.05569540 1.53596631 -1.27972869
v -0.53640080 -1.24121499 -1.47365516
v 1.31378249 0.14867820 -1.50062333
v -1.52504644 0.16526571 -1.28332404
v 0.80555633 -1.01879444 -1.52090003
v 0.49636474 1.38285537 -1.35695729
v -1.11251022 -0.59050560 -1.55358429
v 1.26484596 -0.03617072 -1.54882419
v -0.71302256 1.16312430 -1.46244340
v -0.26470973 -1.29505221 -1.50092256
v 1.25900263 0.76842304 -1.35071774
v -1.16249226 0.25891519 -1.60672794
v 0.96954312 -1.06014139 -1.39143321
v -0.32337436 1.31530176 -1.47153332
v -0.89526757 -0.79848575 -1.60028637
v 1.18858053 0.47141148 -1.53787111
v -1.19993536 0.37293377 -1.55598057
v 0.49188974 -1.30008149 -1.43799604
v 0.51514913 1.06165265 -1.61478018
v -0.97687993 -0.47024700 -1.68064671
v 1.12376139 -0.62056814 -1.53364127
v -0.52353266 1.18116416 -1.52668424
v -0.33185542 -1.25807459 -1.51892077
v 0.95146247 0.82024411 -1.55625151
v -1.22368033 0.06211960 -1.58074274
v 0.47405733 -1.01017720 -1.65976253
v 0.41403835 0.96975263 -1.69945641
v -0.74670211 -0.64013473 -1.74145442
v 1.22760235 0.13964129 -1.57273418
v -0.69004538 0.92153395 -1.63542427
v 0.29518645 -0.94974220 -1.73518146
v 0.73417316 0.84541810 -1.65718376
v -0.85746983 -0.30069959 -1.78166362
v 0.71731251 -0.64784350 -1.75093163
v -0.55341949 1.02941261 -1.62297152
v -0.27428577 -0.88399313 -1.77294203
v 0.77724495 0.26662999 -1.82340307
v -0.93066679 0.48524565 -1.70246762
v 0.45424036 -0.70201973 -1.81681974
v 0.17483102 0.99601554 -1.72551070
v -0.55271802 -0.46104701 -1.86599530
v 0.73794873 -0.47082569 -1.79826440
v -0.60727440 0.61291296 -1.80431580
v -0.15869588 -0.82710241 -1.81403341
v 0.53463016 0.40625163 -1.88391353
v -0.89046848 0.22316392 -1.77686909
v 0.55441140 -0.43395392 -1.87198077
v 0.13806157 0.62492088 -1.89483849
v -0.31844056 -0.64854849 -1.86493444
v 0.83689010 0.22522602 -1.80246725
v -0.62573710 0.30812653 -1.87443621
v 0.15746423 -0.43570635 -1.94560145
v 0.36985412 0.57525968 -1.87943721
v -0.56222682 -0.09722162 -1.91688522
v 0.44795687 -0.29796948 -1.92627849
v -0.31764318 0.44321840 -1.92422978
v -0.10709827 -0.41146772 -1.95428357
v 0.45017219 0.16716754 -1.94149427
v -0.25044063 0.09590608 -1.98193883
v 0.25907362 -0.32927664 -1.95562209
v 0.01348020 0.05681264 -1.99914747
v -0.26291447 -0.12865747 -1.97846487
f 182 237 224
f 224 237 263
f 195 221 208
f 198 219 240
f 191 162 217
f 217 162 209
f 86 78 133
f 209 162 183
f 81 94 115
f 60 94 81
f 195 208 250
f 195 250 229
f 245 266 219
f 200 221 195
f 187 200 161
f 161 200 195
f 195 229 161
f 132 187 119
f 164 227 180
f 210 223 176
f 286 294 307
f 239 286 205
f 325 312 359
f 312 304 359
f 399 395 400
f 374 387 382
f 382 387 395
f 394 386 399
f 394 373 386
f 381 373 394
f 342 329 363
f 374 353 366
f 366 387 374
f 337 345 324
f 337 342 363
f 324 342 337
f 324 345 311
f 298 277 311
f 311 345 353
f 311 319 298
f 353 319 311
f 356 330 335
f 335 330 309
f 340 353 374
f 295 308 321
f 240 227 206
f 206 198 240
f 206 227 164
f 116 137 103
f 137 116 142
f 82 116 103
f 32 24 71
f 74 82 95
f 242 208 221
f 221 213 242
f 213 268 242
f 174 229 237
f 174 237 182
f 182 169 174
f 153 161 174
f 174 161 229
f 148 106 153
f 169 106 148
f 153 174 148
f 148 174 169
f 127 106 169
f 127 190 143
f 127 169 182
f 182 190 127
f 138 180 193
f 248 214 193
f 70 117 91
f 138 117 104
f 129 87 100
f 71 113 100
f 131 144 126
f 173 160 126
f 126 144 173
f 4 7 1
f 70 78 44
f 44 78 86
f 65 44 86
f 115 94 128
f 141 183 128
f 128 136 115
f 128 183 162
f 162 136 128
f 34 39 47
f 47 39 60
f 60 81 47
f 60 39 52
f 39 31 52
f 57 44 52
f 44 65 52
f 52 31 18
f 263 237 216
f 216 250 263
f 237 229 216
f 216 229 250
f 308 266 287
f 266 245 287
f 253 266 308
f 308 295 253
f 240 219 253
f 219 266 253
f 166 200 187
f 166 213 221
f 221 200 166
f 119 187 140
f 187 161 140
f 140 153 119
f 140 161 153
f 279 313 300
f 279 224 263
f 263 292 279
f 292 313 279
f 357 344 315
f 331 344 357
f 307 294 328
f 378 357 365
f 331 357 378
f 365 386 378
f 386 373 378
f 334 287 300
f 308 287 334
f 321 308 334
f 326 292 263
f 151 180 138
f 138 104 151
f 299 328 294
f 325 320 291
f 291 312 325
f 244 223 210
f 197 205 184
f 239 205 197
f 184 176 197
f 197 176 223
f 223 252 197
f 197 252 239
f 317 330 351
f 351 330 356
f 351 304 317
f 351 359 304
f 399 386 396
f 228 249 241
f 312 291 236
f 236 291 257
f 241 249 236
f 399 400 397
f 397 394 399
f 397 400 392
f 381 394 389
f 392 384 389
f 389 397 392
f 394 397 389
f 316 342 321
f 329 342 316
f 321 334 316
f 316 334 329
f 363 384 371
f 371 384 392
f 387 366 379
f 392 400 379
f 379 371 392
f 366 371 379
f 395 387 379
f 379 400 395
f 374 382 348
f 332 319 353
f 353 340 332
f 332 340 314
f 314 335 301
f 301 293 314
f 301 335 309
f 301 259 293
f 314 293 285
f 285 332 314
f 211 245 219
f 219 190 211
f 211 190 182
f 219 198 232
f 198 206 172
f 172 156 198
f 172 206 164
f 164 151 172
f 172 151 104
f 3 6 1
f 1 8 3
f 3 8 16
f 19 32 40
f 19 3 16
f 16 24 19
f 24 32 19
f 71 24 58
f 137 142 150
f 184 205 150
f 150 205 218
f 121 142 129
f 129 100 121
f 121 176 184
f 184 150 121
f 121 150 142
f 40 27 14
f 14 19 40
f 6 19 14
f 95 82 69
f 69 82 103
f 40 32 45
f 116 82 108
f 82 74 108
f 108 142 116
f 129 142 108
f 108 87 129
f 108 74 87
f 302 268 289
f 289 344 302
f 315 344 289
f 276 268 302
f 276 242 268
f 255 250 208
f 208 242 255
f 163 150 218
f 137 150 163
f 192 163 218
f 137 163 192
f 103 137 192
f 192 171 103
f 153 106 85
f 51 106 67
f 143 156 109
f 109 101 143
f 106 127 122
f 143 101 122
f 122 127 143
f 214 175 146
f 146 193 214
f 256 214 248
f 256 243 214
f 277 243 256
f 264 251 290
f 290 243 277
f 290 319 264
f 290 277 298
f 298 319 290
f 112 78 70
f 70 91 112
f 112 133 78
f 125 133 112
f 159 117 138
f 159 91 117
f 159 146 125
f 125 112 159
f 159 112 91
f 138 193 159
f 193 146 159
f 83 117 70
f 70 36 83
f 83 36 28
f 173 144 186
f 118 144 131
f 118 110 178
f 118 178 165
f 155 100 113
f 176 121 155
f 155 121 100
f 288 275 309
f 157 162 191
f 149 136 162
f 162 157 149
f 102 81 115
f 115 136 102
f 136 149 102
f 178 110 102
f 209 183 196
f 183 188 196
f 196 217 209
f 196 251 217
f 23 52 18
f 57 52 23
f 23 44 57
f 49 36 70
f 70 44 49
f 49 23 36
f 44 23 49
f 73 94 60
f 60 52 73
f 73 52 65
f 73 65 86
f 141 128 107
f 107 128 94
f 213 166 179
f 171 192 179
f 158 166 187
f 158 179 166
f 258 279 300
f 300 287 258
f 258 287 245
f 362 357 315
f 391 386 365
f 391 396 386
f 383 396 391
f 354 328 333
f 333 320 325
f 333 299 320
f 328 299 333
f 331 378 352
f 352 339 331
f 352 373 360
f 352 378 373
f 318 339 352
f 360 326 352
f 352 326 318
f 368 373 381
f 284 326 263
f 318 326 284
f 263 250 284
f 250 255 284
f 164 180 185
f 185 151 164
f 180 151 185
f 320 299 278
f 278 291 320
f 257 291 278
f 273 252 265
f 265 278 273
f 273 278 299
f 239 252 273
f 273 299 294
f 273 286 239
f 294 286 273
f 231 244 257
f 231 278 265
f 257 278 231
f 265 252 231
f 231 252 223
f 223 244 231
f 317 304 270
f 270 304 312
f 312 236 270
f 270 236 249
f 207 228 241
f 241 236 207
f 249 228 254
f 210 189 215
f 189 236 215
f 215 236 257
f 215 244 210
f 257 244 215
f 390 382 395
f 356 335 369
f 382 390 369
f 369 390 377
f 369 348 382
f 335 348 369
f 321 342 261
f 342 303 261
f 282 342 324
f 282 303 342
f 324 311 282
f 282 311 277
f 277 256 282
f 248 303 282
f 282 256 248
f 358 371 366
f 353 345 358
f 358 366 353
f 345 337 358
f 358 337 363
f 363 371 358
f 314 340 327
f 327 335 314
f 327 348 335
f 361 340 374
f 374 348 361
f 361 327 340
f 348 327 361
f 264 319 306
f 319 332 306
f 306 285 264
f 332 285 306
f 212 254 220
f 280 301 309
f 259 301 280
f 309 275 280
f 275 212 280
f 217 251 230
f 191 217 230
f 230 251 264
f 264 285 230
f 293 259 267
f 182 224 203
f 203 211 182
f 177 156 143
f 143 190 177
f 198 156 177
f 177 232 198
f 177 190 219
f 219 232 177
f 6 3 11
f 11 19 6
f 3 19 11
f 26 39 34
f 26 31 39
f 18 31 26
f 26 10 18
f 1 7 2
f 2 8 1
f 92 84 79
f 79 113 71
f 71 58 79
f 37 24 16
f 16 21 37
f 16 8 13
f 13 21 16
f 34 21 13
f 13 26 34
f 10 26 13
f 35 14 27
f 6 14 9
f 1 6 9
f 9 4 1
f 90 69 103
f 103 171 90
f 171 111 90
f 95 69 53
f 53 74 95
f 87 74 53
f 53 48 27
f 69 48 53
f 66 100 87
f 87 45 66
f 71 100 66
f 66 32 71
f 66 45 32
f 307 315 281
f 315 289 281
f 281 286 307
f 302 344 323
f 323 276 302
f 72 64 98
f 119 153 98
f 153 85 98
f 98 132 119
f 98 64 132
f 56 90 111
f 69 90 56
f 56 48 69
f 56 64 43
f 56 35 27
f 27 48 56
f 67 59 46
f 46 51 67
f 93 51 72
f 72 98 93
f 93 98 85
f 93 85 106
f 106 51 93
f 72 51 38
f 43 64 38
f 38 64 72
f 156 172 130
f 130 172 104
f 80 59 67
f 67 106 114
f 106 122 114
f 114 80 67
f 114 122 101
f 125 146 154
f 154 146 175
f 154 133 125
f 154 120 133
f 167 183 141
f 141 120 167
f 167 188 183
f 201 188 167
f 167 175 201
f 167 154 175
f 120 154 167
f 222 290 251
f 251 196 222
f 222 196 188
f 222 188 201
f 96 104 117
f 117 83 96
f 96 130 104
f 173 186 194
f 228 207 194
f 194 254 228
f 233 186 165
f 233 212 220
f 233 194 186
f 220 254 233
f 254 194 233
f 165 186 152
f 152 186 144
f 152 118 165
f 144 118 152
f 123 118 131
f 89 110 123
f 110 118 123
f 210 176 134
f 176 155 134
f 134 189 210
f 168 189 134
f 134 113 168
f 134 155 113
f 147 126 160
f 147 160 168
f 309 330 322
f 322 288 309
f 322 330 317
f 275 288 322
f 178 102 170
f 170 102 149
f 170 157 178
f 170 149 157
f 18 10 15
f 15 23 18
f 15 2 7
f 36 23 15
f 15 41 28
f 28 36 15
f 94 73 99
f 99 107 94
f 86 133 99
f 99 73 86
f 141 107 99
f 99 120 141
f 133 120 99
f 145 111 171
f 171 179 145
f 179 158 145
f 224 279 271
f 279 258 271
f 271 258 245
f 271 203 224
f 245 211 271
f 211 203 271
f 307 328 349
f 349 328 354
f 354 362 349
f 365 357 370
f 357 362 370
f 370 391 365
f 383 391 370
f 334 368 376
f 376 368 381
f 381 389 376
f 376 389 384
f 360 373 347
f 373 368 347
f 347 326 360
f 347 368 334
f 347 313 292
f 292 326 347
f 300 313 347
f 347 334 300
f 305 339 318
f 318 284 305
f 325 359 346
f 380 346 359
f 388 346 380
f 375 362 354
f 354 388 375
f 375 370 362
f 383 370 375
f 375 396 383
f 375 388 396
f 202 236 189
f 202 207 236
f 202 189 168
f 296 322 317
f 275 322 296
f 296 212 275
f 254 212 296
f 249 254 262
f 317 270 262
f 262 270 249
f 356 369 364
f 364 369 377
f 274 295 321
f 321 261 274
f 274 253 295
f 240 253 274
f 274 227 240
f 274 261 227
f 269 303 248
f 269 261 303
f 227 261 269
f 269 180 227
f 248 193 269
f 269 193 180
f 191 230 272
f 272 230 285
f 272 285 293
f 293 267 272
f 204 157 191
f 8 2 5
f 5 13 8
f 10 13 5
f 5 15 10
f 2 15 5
f 92 79 63
f 63 79 58
f 81 102 76
f 76 102 110
f 76 110 89
f 89 68 76
f 29 37 21
f 14 35 17
f 17 9 14
f 61 45 87
f 87 53 61
f 40 45 61
f 61 27 40
f 61 53 27
f 77 56 111
f 64 56 77
f 77 111 132
f 132 64 77
f 22 56 43
f 35 56 22
f 43 17 22
f 22 17 35
f 51 46 30
f 30 38 51
f 43 38 30
f 30 17 43
f 135 109 156
f 156 130 135
f 135 130 109
f 130 96 62
f 62 83 28
f 243 290 235
f 290 222 235
f 214 243 235
f 235 222 201
f 201 175 235
f 235 175 214
f 173 194 181
f 181 194 207
f 181 160 173
f 207 202 181
f 168 160 181
f 181 202 168
f 139 84 126
f 126 147 139
f 139 147 168
f 124 145 158
f 187 132 124
f 124 158 187
f 132 111 124
f 111 145 124
f 336 362 315
f 336 349 362
f 336 315 307
f 307 349 336
f 329 334 355
f 334 376 355
f 363 329 355
f 297 305 284
f 242 276 297
f 297 255 242
f 297 284 255
f 367 388 354
f 367 346 388
f 377 390 385
f 283 296 317
f 317 262 283
f 254 296 283
f 283 262 254
f 372 364 377
f 377 385 372
f 372 385 380
f 372 380 359
f 199 233 165
f 212 233 199
f 165 178 199
f 178 157 199
f 246 267 259
f 246 272 267
f 55 29 21
f 17 30 33
f 33 30 46
f 33 46 59
f 260 281 289
f 260 289 268
f 260 268 213
f 213 234 260
f 286 281 247
f 247 205 286
f 281 260 247
f 247 260 234
f 218 205 247
f 130 62 88
f 109 130 88
f 59 80 88
f 101 109 88
f 88 114 101
f 80 114 88
f 28 41 54
f 54 62 28
f 54 20 59
f 54 41 20
f 59 88 54
f 54 88 62
f 75 96 83
f 83 62 75
f 75 62 96
f 84 139 105
f 113 79 105
f 105 79 84
f 168 113 105
f 105 139 168
f 350 384 363
f 363 355 350
f 350 376 384
f 350 355 376
f 305 297 310
f 339 305 310
f 276 323 310
f 310 297 276
f 331 339 310
f 310 344 331
f 310 323 344
f 354 333 341
f 341 367 354
f 346 367 341
f 341 333 325
f 325 346 341
f 396 388 393
f 388 380 393
f 380 385 393
f 364 372 343
f 343 351 356
f 356 364 343
f 212 199 225
f 204 246 225
f 157 204 225
f 225 199 157
f 225 246 259
f 259 280 225
f 225 280 212
f 238 204 191
f 238 246 204
f 191 272 238
f 272 246 238
f 29 55 50
f 37 29 50
f 50 55 68
f 24 37 50
f 50 58 24
f 50 63 58
f 42 21 34
f 42 55 21
f 34 47 42
f 42 76 68
f 68 55 42
f 42 47 81
f 81 76 42
f 17 33 12
f 4 9 12
f 9 17 12
f 7 4 12
f 12 15 7
f 12 33 20
f 20 41 12
f 41 15 12
f 59 20 25
f 25 33 59
f 20 33 25
f 226 192 218
f 218 247 226
f 226 247 234
f 226 234 213
f 213 179 226
f 226 179 192
f 398 385 390
f 398 393 385
f 398 395 399
f 398 390 395
f 399 396 398
f 396 393 398
f 338 372 359
f 338 343 372
f 359 351 338
f 351 343 338
f 97 50 68
f 92 63 97
f 63 50 97
f 131 126 97
f 97 68 89
f 97 84 92
f 126 84 97
f 89 123 97
f 97 123 131

