# https://github.com/mikedh/trimesh
v 0.00000000 0.00000000 2.00000000
v -0.17516100 -0.07585832 1.99087020
v 0.40986680 -0.24954650 1.94158073
v -0.20803746 0.27719434 1.96974204
v -0.11204363 -0.43693262 1.94847020
v 0.52231990 0.26679813 1.91206712
v -0.39140738 -0.02194606 1.96120336
v 0.35874072 -0.43666659 1.91849613
v -0.06261769 0.67545056 1.88144773
v -0.36175661 -0.31309173 1.94193350
v 0.74827077 -0.10285679 1.85189398
v -0.45688838 0.43013790 1.89900879
v 0.02054030 -0.83795129 1.81587878
v 0.37111227 0.51414036 1.89682244
v -0.64267076 -0.07050385 1.89261816
v 0.78394648 -0.44076960 1.78637904
v -0.29031244 0.85236203 1.78583248
v -0.37182655 -0.69295727 1.83890055
v 0.79529392 0.28433066 1.81291579
v -0.81545930 0.21586818 1.81340207
v 0.43172551 -0.81349701 1.77534101
v 0.09201801 1.06049185 1.69318922
v -0.99654064 -0.34261612 1.69985909
v 0.87140525 -0.09958008 1.79742502
v -0.81754970 0.76088375 1.65911676
v 0.22979587 -1.01081755 1.71039228
v 0.76705465 0.83642307 1.64682228
v -1.11359464 -0.24867565 1.64257949
v 0.81678267 -0.44142347 1.77144331
v 0.13074892 1.17426997 1.61368980
v -0.39481608 -0.93108429 1.72545713
v 1.06692886 0.24727045 1.67347547
v -0.88963027 0.52700433 1.71196508
v 0.04422554 -1.20325351 1.59694242
v 0.44462442 0.89849592 1.73061094
v -1.14162890 -0.12413160 1.63745987
v 1.08320074 -0.60294829 1.56943606
v -0.45583048 1.11424384 1.59708461
v 0.00180543 -1.26340960 1.55041702
v 0.92649981 0.70096986 1.62795558
v -1.19176567 0.03760891 1.60570239
v 0.60358093 -0.99439717 1.62691866
v -0.01653376 1.37540263 1.45189333
v -0.90049503 -0.62150133 1.67416988
v 1.19707766 0.02000825 1.60206265
v -1.05746029 0.62255861 1.57930317
v 0.37927591 -1.28331084 1.48635899
v 1.11141101 0.86910221 1.41754256
v -1.38952871 -0.34407417 1.39671863
v 1.14786110 -0.51668441 1.55417248
v -0.21894639 1.23761301 1.55575593
v -0.51614178 -1.11391981 1.57885412
v 1.41495279 0.33520315 1.37315237
v -1.31231601 0.50933786 1.42070463
v 0.40187889 -1.31102967 1.45591709
v 0.57459149 1.21926816 1.47757564
v -1.40341908 -0.55768733 1.31125883
v 1.32839930 0.08358299 1.49277231
v -1.07339971 1.05156115 1.31986068
v -0.54454528 -1.35373147 1.36780172
v 1.35163947 0.55289493 1.36652038
v -1.44408783 0.34366425 1.34033773
v 1.00899075 -1.13587785 1.30066106
v 0.03393090 1.39006568 1.43755560
v -1.12466501 -0.71570389 1.49093815
v 1.34526342 0.33910129 1.44058205
v -1.29938452 0.56419174 1.41183836
v 0.13948989 -1.61230315 1.17516855
v 0.74385878 1.37978610 1.24212094
v -1.53619449 -0.11136332 1.27581530
v 1.28621578 -0.53183188 1.43624644
v -0.82345356 1.23114618 1.34395064
v -0.61712555 -1.39291074 1.29574524
v 1.39742190 0.83393046 1.16265731
v -1.28408493 0.78713577 1.31588114
v 0.71848303 -1.30086568 1.33848072
v 0.04391482 1.53667523 1.27933605
v -1.29616398 -0.97967785 1.16627195
v 1.55202236 0.12533152 1.25519664
v -0.84433928 1.30148667 1.26222962
v -0.08214848 -1.70765508 1.03786596
v 1.00417149 1.29768854 1.14352266
v -1.66832491 0.15875306 1.09155370
v 1.29981090 -1.07602463 1.07362127
v -0.06902577 1.62019867 1.17055189
v -0.63017200 -1.55147453 1.09353099
v 1.62188825 0.14418398 1.16133091
v -1.58749904 0.34036793 1.16790260
v 0.29173225 -1.70544848 1.00316388
v 0.41617434 1.62750961 1.08536233
v -1.48880743 -0.45412496 1.25587538
v 1.41967467 -0.95211499 1.03826822
v -0.87361785 1.48806571 1.01116383
v 0.07310135 -1.74192465 0.97997689
v 1.09876493 1.34284822 0.99472322
v -1.48748325 0.69128924 1.14433945
v 1.31799989 -1.10763441 1.01785182
v -0.29980453 1.68890784 1.02844910
v -1.48128259 -1.04629158 0.84325313
v 1.74339264 -0.16736283 0.96569756
v -1.39076117 1.03318280 0.99915798
v 0.55007249 -1.64110513 1.00209491
v 0.69269611 1.69007923 0.81474185
v -1.57720949 -0.77946535 0.95123289
v 1.44751478 -1.11412773 0.81450621
v -0.97799012 1.51448228 0.86595539
v -1.06549057 -1.29191690 1.09347180
v 1.70083847 0.45766914 0.94746369
v -1.51089938 1.00750792 0.83792054
v 0.95340580 -1.48638456 0.93897726
v 0.72426520 1.66998385 0.82860959
v -1.62839023 -0.49135615 1.05210000
v 1.81620469 -0.05610730 0.83561504
v -1.23290409 1.28378284 0.91205764
v 0.16463180 -1.76440315 0.92724209
v 1.48752584 0.92836251 0.96198228
v -1.87789934 0.15408116 0.67063633
v 1.13676512 -1.44944056 0.77902961
v -0.14307890 1.80640333 0.84642509
v -0.90680264 -1.49122389 0.97670890
v 1.76637195 0.70651156 0.61706691
v -1.35866353 1.10715131 0.96345700
v 0.11127708 -1.75726745 0.94848749
v 1.27033361 1.30054802 0.83356306
v -1.64510470 -0.64872790 0.93422836
v 1.60368348 -0.94877747 0.72665026
v -0.52056878 1.76732485 0.77818445
v -0.66980562 -1.73563747 0.73411375
v 1.54864634 0.91570701 0.87359899
v -1.82903643 -0.07427133 0.80567333
v 0.63374230 -1.68796942 0.86552292
v 0.75931329 1.78223011 0.49709070
v -1.11774399 -1.46918797 0.76950314
v 1.83614152 -0.01757211 0.79263834
v -1.10347944 1.59094952 0.50121126
v -0.18290067 -1.88246842 0.65027686
v 1.03485439 1.52630858 0.77424705
v -1.82043644 -0.53758772 0.63008777
v 1.76762295 -0.76789746 0.53464250
v 0.15155395 1.87222709 0.68687491
v -0.52064701 -1.85895890 0.52268394
v 1.70354364 0.77465169 0.70558759
v -1.75731905 0.64242819 0.70648127
v 0.74058929 -1.80949744 0.42100657
v 1.05305095 1.61500201 0.53183853
v -1.57232245 -1.18493669 0.35174872
v 1.71632601 -0.82823929 0.60683169
v -0.75375087 1.75130726 0.60397227
v -0.62788026 -1.84823998 0.43563213
v 1.41368801 1.31358334 0.52534274
v -1.87728155 0.38025449 0.57551761
v 1.26324733 -1.50667205 0.36625883
v 0.26958375 1.96116697 0.28486614
v -1.13775136 -1.57619194 0.47025612
v 1.92993161 0.17260538 0.49555159
v -1.28011570 1.43551366 0.54827397
v 0.22542420 -1.90983192 0.54929588
v 0.76421384 1.80990717 0.37445058
v -1.72162901 -0.93509766 0.40197749
v 1.60796766 -1.15612446 0.27895563
v -1.04405495 1.65003611 0.43281647
v -1.04355081 -1.67150124 0.34217730
v 1.61500120 1.04394087 0.54950758
v -1.86594678 0.61091476 0.38082252
v 0.65716020 -1.87589152 0.22174647
v 0.38297793 1.93608789 0.32386969
v -1.61010827 -1.15705108 0.26226738
v 1.95402388 -0.25060995 0.34494247
v -1.57127374 1.13799402 0.48586873
v -0.44027100 -1.92124373 0.33909288
v 1.34472447 1.44387649 0.32701191
v -1.93719565 -0.36147094 0.34148469
v 1.45711632 -1.34402661 0.26533848
v 0.29230816 1.94378060 0.36915163
v -0.81757525 -1.82005285 0.13776185
v 1.94127041 0.43019229 0.21541540
v -1.90799017 0.51202710 0.31209254
v 0.18788916 -1.98239052 0.18661593
v 0.98853651 1.71726406 0.27166101
v -1.98089651 -0.24987400 0.11667047
v 1.66458984 -1.06311129 0.31453941
v -1.19403817 1.60286695 0.07134695
v -0.14132070 -1.96035199 0.37020067
v 1.28975841 1.52291417 0.13136087
v -1.97461066 0.05789781 0.31234693
v 1.11454516 -1.65831965 0.08811937
v 0.52723409 1.91348060 0.24620362
v -1.53544034 -1.24449359 0.30603701
v 1.94421381 -0.46875555 -0.01734676
v -1.44915532 1.35988745 0.22506664
v -0.39705142 -1.95970634 0.04360308
v 1.48357348 1.34091311 0.03101215
v -1.96683859 -0.35979210 -0.04577755
v 1.36443777 -1.45837015 -0.10707972
v -0.53290380 1.92501664 0.10160947
v -0.66913764 -1.87358884 0.20474297
v 1.72792468 1.00458117 0.07136507
v -1.96561343 0.36585494 0.05013978
v 1.19113937 -1.60092828 -0.13496530
v 0.54166975 1.92524673 -0.00434708
v -1.44762381 -1.37995814 0.01004170
v 1.78273376 -0.90644182 0.01495243
v -1.05090844 1.68924923 -0.20500848
v -0.55207963 -1.91468606 -0.17083731
v 1.83600883 0.79254717 -0.03066885
v -1.99968529 0.03071694 0.01775369
v 1.08501439 -1.67574225 0.12096155
v -0.14525615 1.97867548 -0.25247575
v -0.78260492 -1.84052399 -0.00099999
v 1.89244322 0.63059805 -0.14493014
v -1.30553539 1.50819083 -0.14469889
v 0.08105711 -1.99551272 -0.10657729
v 1.35711216 1.45796139 -0.18054137
v -1.94015413 -0.48093983 -0.06707330
v 1.64614534 -1.12744669 -0.13809234
v -0.67577755 1.88223180 0.02298162
v -0.64114342 -1.89052197 -0.12190889
v 1.78822481 0.81844548 -0.36386679
v -1.98899169 0.20561505 -0.04042911
v 1.31082861 -1.47498192 -0.32581695
v -0.02765060 1.98073155 -0.27556845
v -1.53762396 -1.25820437 -0.22942170
v 1.96939304 -0.28500109 -0.20066251
v -1.61903079 1.14965292 -0.23882518
v 0.47446845 -1.89346853 -0.43549585
v 1.38048591 1.43830986 -0.15976045
v -1.90057264 -0.55170153 -0.28887552
v 1.66805400 -1.08415965 -0.20541103
v -0.13126686 1.95977310 -0.37690634
v -0.86587568 -1.78186692 -0.27424364
v 1.87749446 0.66819466 -0.16890962
v -1.48009073 1.29174464 -0.37513627
v 1.03666576 -1.68368660 -0.30087129
v 0.98201451 1.67914737 -0.46487806
v -1.85111889 -0.63243100 -0.41640111
v 1.88516525 -0.48613846 -0.45806265
v -0.98483835 1.67602403 -0.47014560
v -0.14010973 -1.92021256 -0.54143605
v 1.83018993 0.71654439 -0.37009319
v -1.83783139 0.76342259 -0.19890132
v 0.98966523 -1.65075074 -0.54367702
v 0.56359182 1.90252364 -0.25053555
v -1.41470147 -1.38587157 -0.27924851
v 1.89579356 0.46330832 -0.43739248
v -1.45940464 1.31934748 -0.35980596
v -0.12648738 -1.97219486 -0.30732457
v 1.37785609 1.42380420 -0.27256961
v -1.68189636 -0.85692811 -0.66098324
v 1.54523781 -1.09055931 -0.65032339
v -0.92054094 1.68499739 -0.55981084
v -0.91744033 -1.73749011 -0.37340507
v 1.80445940 0.78198570 -0.36390196
v -1.81670749 0.44363606 -0.70905637
v 0.56166566 -1.78710230 -0.70056909
v 0.47923621 1.83774019 -0.62693193
v -1.60273639 -1.11796395 -0.42590217
v 1.91830521 -0.03195929 -0.56487495
v -1.28685006 1.43613791 -0.53058913
v -0.46895207 -1.89397069 -0.43927097
v 1.37922397 1.30512406 -0.62800671
v -1.87748190 0.26873294 -0.63470018
v 1.56459145 -1.00213877 -0.74011586
v -0.46137360 1.87195649 -0.53189596
v -1.02178550 -1.53915830 -0.76612409
v 1.77918403 0.74620659 -0.52695342
v -1.23220637 1.40687353 -0.70878370
v 0.58701838 -1.79010670 -0.67151130
v 1.18526863 1.52419611 -0.52150214
v -1.85808069 -0.16946848 -0.72028923
v 1.69127026 -0.81299671 -0.69183904
v -0.54733023 1.79227414 -0.69870095
v -0.64649468 -1.67212016 -0.88659956
v 1.52377513 1.07492425 -0.72294344
v -1.79044981 0.61240389 -0.64749591
v 0.75487875 -1.75025922 -0.60559949
v 0.08954858 1.85703079 -0.73716870
v -1.36562990 -1.29981129 -0.66749201
v 1.82772715 -0.53159920 -0.61385320
v -1.55650038 0.97631146 -0.79001424
v 0.16523308 -1.81304677 -0.82798516
v 1.26560646 1.37415753 -0.71409478
v -1.77688241 -0.66186640 -0.63609887
v 1.41819133 -1.20963953 -0.72491764
v 0.05887920 1.81019111 -0.84837574
v -1.26688423 -1.30124517 -0.83771438
v 1.69333748 0.44601197 -0.96627196
v -1.46450435 1.03470660 -0.88578172
v 0.45552098 -1.71451442 -0.92354801
v 0.25028284 1.74342126 -0.94754463
v -1.70134375 -0.77242356 -0.71329607
v 1.63402882 -0.66197028 -0.94432260
v -0.59360624 1.57706259 -1.07726748
v -0.21400382 -1.77345288 -0.89948165
v 1.12942492 1.23534715 -1.09467656
v -1.77911322 0.30595087 -0.86090082
v 1.31160150 -1.15241866 -0.97551666
v 0.09716231 1.73426038 -0.99141334
v -1.28126147 -1.28810044 -0.83616164
v 1.68908214 0.49676757 -0.94880108
v -1.37133098 1.13684258 -0.90941755
v 0.66110215 -1.58285170 -1.02836008
v 0.61559335 1.61230853 -1.01069582
v -1.51962926 -0.60593885 -1.15046295
v 1.59056934 -0.56281120 -1.07393329
v -0.69460748 1.48400586 -1.14684221
v -0.22528591 -1.72093946 -0.99378752
v 1.38361021 0.92725835 -1.10716518
v -1.54410785 0.46143762 -1.18440123
v 0.92408408 -1.50856133 -0.93290479
v 0.64041995 1.49066919 -1.16951599
v -1.28309184 -1.04923861 -1.11927372
v 1.62680224 -0.31771908 -1.11918232
v -1.03057334 1.21038659 -1.21362388
v 0.43698299 -1.68749144 -0.98051951
v 1.42181944 0.84708882 -1.12288468
v -1.51169465 0.22131133 -1.29065897
v 1.42720149 -0.63732816 -1.24776148
v -0.21772750 1.68764330 -1.05093045
v -0.76495280 -1.34193777 -1.27045276
v 1.52712981 0.40877614 -1.22506188
v -1.56314089 0.48532960 -1.14936754
v 0.10917277 -1.66471205 -1.10309342
v 0.69634812 1.44672377 -1.19251399
v -1.57212884 -0.43347664 -1.15780349
v 1.62528712 -0.26001308 -1.13614919
v -0.96554397 1.12390493 -1.34334007
v -0.03431557 -1.56946348 -1.23919604
v 1.12145221 1.03287874 -1.29441355
v -1.59286433 0.26097722 -1.18096321
v 0.69132396 -1.22022607 -1.42587500
v 0.21172511 1.47599890 -1.33289149
v -0.94097077 -1.14570359 -1.34236258
v 1.58898394 -0.21228701 -1.19585295
v -0.79695041 1.16630907 -1.41583657
v -0.24063295 -1.55004323 -1.24075048
v 0.64380748 1.33181205 -1.34602697
v -1.38631867 -0.26056378 -1.41782476
v 1.12449166 -1.09674141 -1.23801324
v -0.77422129 1.35788503 -1.24768972
v -0.45918500 -1.27555041 -1.47041500
v 1.44652789 0.20240901 -1.36623119
v -1.28347358 0.28764705 -1.50663690
v 0.51290138 -1.29201332 -1.43792689
v 0.52780429 1.15841355 -1.54256303
v -0.93388435 -0.99483633 -1.46224509
v 1.17039634 -0.55748380 -1.52295247
v -0.53080230 1.28242536 -1.44001184
v 0.17773904 -1.40340852 -1.41380811
v 1.18214763 0.54309960 -1.51906872
v -1.25929461 -0.01259340 -1.55371120
v 1.21739500 -0.63773641 -1.45301124
v -0.42470577 1.25773875 -1.49590048
v -0.94433081 -0.90017649 -1.51588971
v 1.16862799 0.53784252 -1.53135040
v -1.15264532 0.79601383 -1.42750507
v 0.20439187 -1.25171459 -1.54642638
v 0.43994290 1.21059294 -1.53000489
v -1.17223976 -0.67753830 -1.47200401
v 1.00235052 -0.49615144 -1.65804921
v -0.68582690 0.83184646 -1.68453938
v -0.52622875 -0.92179695 -1.69510286
v 0.87696026 0.52441866 -1.71928059
v -1.11330741 0.29194178 -1.63563951
v 0.78137956 -0.86502854 -1.62516818
v 0.35213790 1.09969255 -1.63299578
v -0.86327067 -0.46252728 -1.74379823
v 0.97338903 0.19559192 -1.73616174
v -0.80539603 0.56648934 -1.74081219
v -0.09025620 -1.16849556 -1.62063936
v 0.84555247 0.70467939 -1.66987064
v -1.13417009 0.19491319 -1.63574664
v 0.99790280 -0.61704275 -1.61970622
v -0.45849084 1.00810500 -1.66538598
v -0.72768088 -0.74880695 -1.70580441
v 0.85017058 0.38931742 -1.76794851
v -0.95549334 0.15774108 -1.74990006
v 0.27730133 -0.72510828 -1.84318256
v 0.05549503 0.84270047 -1.81294683
v -0.72969011 -0.67983877 -1.73360076
v 0.80644805 -0.19852241 -1.81940385
v -0.38686032 0.69114624 -1.83647923
v -0.21130933 -0.79065547 -1.82488692
v 0.47433652 0.44237539 -1.89190615
v -0.89109754 0.37498959 -1.75080781
v 0.62858196 -0.52876274 -1.82353905
v 0.23258979 0.85247767 -1.79420841
v -0.50456762 -0.41598067 -1.89007185
v 0.62399841 0.01236288 -1.90012451
v -0.41333872 0.50711828 -1.88996882
v 0.10012926 -0.61186734 -1.90147114
v 0.38069968 0.35973153 -1.93019713
v -0.61230406 -0.13328443 -1.89929434
v 0.37248417 -0.17060539 -1.95758763
v -0.06763445 0.64160381 -1.89308482
v -0.26153065 -0.49734367 -1.91944028
v 0.45128915 0.06113252 -1.94746012
v -0.46698350 0.29221722 -1.92263764
v 0.26053640 -0.25304814 -1.96674539
v 0.07374946 0.25062568 -1.98286353
v -0.01843273 -0.01870251 -1.99982761
f 176 168 223
f 223 244 176
f 143 96 109
f 168 176 155
f 223 168 189
f 124 137 95
f 127 93 98
f 148 93 127
f 98 119 127
f 198 177 240
f 143 109 169
f 169 109 114
f 148 127 195
f 195 127 119
f 195 119 140
f 352 378 373
f 271 292 250
f 287 355 321
f 250 292 305
f 305 266 250
f 313 266 305
f 101 109 96
f 265 273 218
f 242 255 221
f 386 378 365
f 365 352 331
f 378 352 365
f 386 365 370
f 370 365 344
f 370 344 328
f 373 378 381
f 389 368 381
f 21 8 13
f 97 92 84
f 97 105 92
f 39 60 81
f 112 130 138
f 78 104 99
f 177 198 185
f 218 197 205
f 192 171 150
f 171 145 150
f 150 137 124
f 150 145 137
f 168 155 134
f 162 154 201
f 201 230 162
f 201 222 243
f 243 230 201
f 73 120 86
f 86 60 73
f 81 60 86
f 138 130 172
f 130 185 172
f 364 338 330
f 330 338 309
f 257 244 223
f 223 189 236
f 236 257 223
f 236 228 270
f 181 160 202
f 202 236 189
f 228 236 202
f 212 246 225
f 225 246 238
f 348 322 327
f 106 93 148
f 148 135 106
f 114 93 106
f 111 95 137
f 137 145 111
f 35 30 22
f 240 261 219
f 219 198 240
f 219 261 206
f 206 185 219
f 219 185 198
f 143 169 164
f 240 177 164
f 164 169 240
f 190 169 156
f 156 169 114
f 114 106 156
f 156 106 135
f 148 195 216
f 216 195 208
f 208 195 153
f 221 208 153
f 153 140 174
f 153 195 140
f 326 355 313
f 331 352 318
f 292 271 318
f 229 208 221
f 274 261 240
f 300 266 313
f 313 355 300
f 355 287 300
f 373 334 347
f 347 352 373
f 347 305 292
f 292 318 347
f 347 318 352
f 250 266 237
f 266 258 237
f 237 258 203
f 203 216 237
f 203 258 211
f 279 274 240
f 279 300 287
f 279 287 321
f 321 274 279
f 114 109 122
f 109 101 122
f 244 265 239
f 179 145 171
f 255 242 234
f 234 302 255
f 242 179 234
f 328 344 336
f 328 336 294
f 316 342 350
f 321 355 308
f 355 342 308
f 342 316 308
f 357 365 331
f 344 365 357
f 331 336 357
f 357 336 344
f 386 370 383
f 349 315 320
f 349 370 328
f 328 315 349
f 360 368 355
f 355 326 360
f 360 326 334
f 360 334 373
f 373 381 360
f 360 381 368
f 363 342 355
f 355 368 363
f 397 368 389
f 400 392 397
f 389 381 394
f 394 381 378
f 394 378 386
f 56 30 35
f 82 111 69
f 95 111 82
f 69 56 82
f 82 56 48
f 95 82 74
f 74 82 48
f 19 24 32
f 32 40 19
f 6 14 1
f 6 19 14
f 13 8 5
f 5 2 10
f 1 2 5
f 10 44 18
f 13 5 18
f 18 5 10
f 173 105 152
f 173 160 105
f 173 152 194
f 76 110 63
f 63 97 84
f 63 110 97
f 84 92 71
f 71 63 84
f 37 63 71
f 71 92 100
f 8 21 16
f 29 24 16
f 144 207 152
f 105 97 118
f 97 110 118
f 152 105 118
f 118 144 152
f 110 144 118
f 138 104 125
f 125 112 138
f 104 112 125
f 201 154 188
f 154 133 188
f 177 185 151
f 143 164 151
f 151 164 177
f 88 96 143
f 143 83 88
f 210 176 244
f 210 205 176
f 113 100 168
f 168 134 113
f 350 366 337
f 337 366 358
f 337 316 350
f 324 316 337
f 303 358 311
f 303 337 358
f 324 337 303
f 193 214 180
f 214 172 180
f 206 193 180
f 180 185 206
f 180 172 185
f 301 330 309
f 309 338 296
f 296 283 309
f 270 228 249
f 249 228 220
f 220 283 249
f 359 380 367
f 356 377 364
f 393 380 385
f 364 377 385
f 380 359 385
f 320 315 299
f 299 265 244
f 273 265 299
f 299 315 273
f 278 236 270
f 257 236 278
f 228 202 215
f 215 202 160
f 160 173 215
f 215 173 194
f 194 220 215
f 220 228 215
f 293 322 280
f 280 238 293
f 225 238 280
f 259 238 246
f 293 238 259
f 306 322 293
f 306 327 322
f 140 119 85
f 85 119 98
f 69 111 90
f 90 111 103
f 90 56 69
f 77 56 90
f 90 103 140
f 140 85 90
f 90 85 77
f 1 14 4
f 4 2 1
f 182 216 203
f 203 211 182
f 182 211 190
f 190 156 182
f 182 156 135
f 161 135 148
f 148 216 161
f 161 182 135
f 216 182 161
f 263 271 250
f 250 237 263
f 263 237 216
f 263 216 208
f 208 229 263
f 331 318 297
f 339 347 334
f 305 347 339
f 313 305 339
f 339 326 313
f 334 326 339
f 224 279 240
f 190 211 224
f 240 169 224
f 224 169 190
f 252 265 218
f 252 239 265
f 140 103 132
f 145 179 132
f 103 111 132
f 132 111 145
f 184 171 192
f 184 179 171
f 184 234 179
f 331 302 310
f 310 336 331
f 302 234 281
f 281 294 302
f 281 260 273
f 273 294 281
f 273 315 307
f 307 294 273
f 307 315 328
f 328 294 307
f 388 380 393
f 383 375 388
f 367 380 388
f 388 375 367
f 400 397 399
f 399 397 389
f 389 394 399
f 350 342 371
f 342 363 371
f 384 363 368
f 368 397 384
f 30 56 64
f 64 56 77
f 35 14 27
f 27 56 35
f 14 19 27
f 19 40 27
f 48 56 27
f 27 40 48
f 87 113 134
f 100 113 87
f 48 40 61
f 40 32 61
f 61 74 48
f 11 24 19
f 19 6 11
f 11 16 24
f 91 49 70
f 70 112 91
f 70 49 41
f 130 112 70
f 70 83 130
f 44 23 65
f 41 49 36
f 44 65 52
f 60 39 52
f 73 60 52
f 81 136 94
f 92 105 126
f 100 92 126
f 126 147 100
f 181 147 126
f 126 160 181
f 105 160 126
f 168 100 139
f 100 147 139
f 139 189 168
f 139 202 189
f 181 202 139
f 139 147 181
f 225 267 275
f 275 233 225
f 275 301 309
f 199 220 194
f 199 233 220
f 42 63 37
f 42 37 29
f 76 63 42
f 29 16 42
f 42 16 21
f 42 55 76
f 37 71 50
f 50 24 29
f 29 37 50
f 102 110 76
f 76 55 102
f 131 102 89
f 131 144 110
f 110 102 131
f 157 136 183
f 157 115 136
f 144 131 157
f 89 115 157
f 157 131 89
f 207 144 165
f 144 157 165
f 225 233 165
f 165 233 207
f 68 94 89
f 81 94 68
f 89 102 68
f 68 102 55
f 68 39 81
f 68 55 39
f 26 21 13
f 26 42 21
f 78 99 107
f 99 133 107
f 107 133 120
f 107 120 73
f 107 65 78
f 73 52 107
f 107 52 65
f 167 222 201
f 201 188 167
f 130 83 117
f 117 185 130
f 117 151 185
f 117 83 143
f 143 151 117
f 248 235 282
f 290 282 324
f 324 303 290
f 290 248 282
f 290 303 311
f 311 248 290
f 175 162 230
f 183 136 170
f 277 264 243
f 230 243 251
f 243 264 251
f 251 259 230
f 283 296 262
f 262 249 283
f 270 249 262
f 341 349 320
f 364 385 372
f 372 385 359
f 348 356 343
f 330 301 343
f 364 330 343
f 343 356 364
f 377 390 398
f 393 385 398
f 398 385 377
f 400 393 398
f 400 398 395
f 395 398 390
f 377 356 369
f 369 356 348
f 348 327 369
f 314 280 322
f 314 322 348
f 348 343 314
f 314 343 301
f 254 267 225
f 225 280 254
f 254 275 267
f 301 275 254
f 191 170 196
f 183 170 191
f 191 212 183
f 246 212 191
f 51 22 30
f 51 85 98
f 98 93 80
f 80 93 114
f 80 51 98
f 22 51 17
f 17 51 38
f 10 2 7
f 2 4 7
f 221 255 276
f 276 229 221
f 276 263 229
f 261 274 253
f 253 295 261
f 253 274 321
f 321 295 253
f 329 316 324
f 329 308 316
f 321 308 329
f 329 295 321
f 245 211 258
f 245 224 211
f 205 210 231
f 218 205 231
f 231 252 218
f 239 252 231
f 244 239 231
f 231 210 244
f 174 140 166
f 140 132 166
f 166 153 174
f 234 184 213
f 323 294 336
f 336 310 323
f 302 294 323
f 323 310 302
f 362 383 370
f 362 375 383
f 367 375 362
f 383 388 396
f 396 388 393
f 396 393 400
f 400 399 396
f 376 371 363
f 363 384 376
f 392 366 376
f 376 397 392
f 376 384 397
f 376 366 350
f 350 371 376
f 79 71 100
f 100 87 79
f 58 71 79
f 176 205 121
f 121 205 197
f 121 155 176
f 163 197 192
f 192 150 163
f 163 121 197
f 142 121 163
f 163 150 124
f 66 32 58
f 66 61 32
f 3 11 6
f 3 6 1
f 8 16 3
f 16 11 3
f 1 5 3
f 3 5 8
f 78 65 57
f 57 104 78
f 57 49 91
f 57 65 49
f 91 112 57
f 57 112 104
f 28 36 49
f 23 36 28
f 49 65 28
f 28 65 23
f 31 18 44
f 44 52 31
f 13 18 31
f 31 52 39
f 136 115 123
f 123 94 136
f 123 115 89
f 89 94 123
f 241 275 309
f 233 275 241
f 220 233 241
f 309 283 241
f 241 283 220
f 207 233 186
f 233 199 186
f 186 199 194
f 194 152 186
f 152 207 186
f 24 50 45
f 58 32 45
f 45 32 24
f 45 71 58
f 45 50 71
f 178 212 225
f 225 165 178
f 178 165 157
f 183 212 178
f 178 157 183
f 34 26 13
f 13 31 34
f 34 31 39
f 227 167 214
f 227 214 193
f 159 172 214
f 214 167 159
f 138 172 159
f 159 104 138
f 159 99 104
f 235 248 256
f 256 227 235
f 248 277 256
f 222 167 256
f 167 227 256
f 256 243 222
f 256 277 243
f 128 136 81
f 81 86 128
f 128 86 120
f 154 162 128
f 128 133 154
f 120 133 128
f 264 277 285
f 346 359 367
f 367 341 346
f 346 372 359
f 244 257 286
f 286 299 244
f 320 299 286
f 327 306 335
f 335 369 327
f 340 369 335
f 358 366 353
f 332 285 311
f 387 392 400
f 400 395 387
f 387 366 392
f 382 390 377
f 377 369 382
f 382 395 390
f 382 387 395
f 280 314 288
f 288 254 280
f 288 314 301
f 301 254 288
f 204 259 246
f 246 191 204
f 230 259 204
f 85 51 43
f 77 85 43
f 43 64 77
f 30 64 43
f 43 51 30
f 62 70 41
f 96 88 62
f 62 88 83
f 83 70 62
f 59 122 101
f 114 122 59
f 59 80 114
f 22 17 9
f 9 14 35
f 35 22 9
f 9 4 14
f 25 17 38
f 289 276 255
f 255 302 289
f 289 302 331
f 331 297 289
f 269 329 324
f 295 329 269
f 261 295 269
f 324 282 269
f 282 235 269
f 235 227 269
f 269 227 193
f 206 261 269
f 269 193 206
f 279 224 232
f 224 245 232
f 300 279 232
f 232 245 258
f 232 258 266
f 266 300 232
f 153 166 187
f 187 166 132
f 226 184 192
f 226 213 184
f 268 281 234
f 234 213 268
f 260 281 268
f 370 349 354
f 354 362 370
f 367 362 354
f 354 341 367
f 349 341 354
f 383 396 391
f 391 396 399
f 391 399 394
f 386 383 391
f 391 394 386
f 108 121 142
f 108 87 134
f 74 61 108
f 108 134 155
f 155 121 108
f 129 163 124
f 142 163 129
f 129 108 142
f 58 79 53
f 53 66 58
f 61 66 53
f 53 79 87
f 87 108 53
f 53 108 61
f 26 34 47
f 55 42 47
f 42 26 47
f 39 55 47
f 47 34 39
f 146 167 188
f 146 159 167
f 99 159 146
f 146 133 99
f 146 188 133
f 141 170 136
f 136 128 141
f 311 285 298
f 298 285 277
f 298 248 311
f 298 277 248
f 257 278 312
f 372 346 351
f 351 338 364
f 364 372 351
f 345 332 311
f 311 358 345
f 358 353 345
f 340 332 345
f 340 335 319
f 319 332 340
f 264 285 319
f 285 332 319
f 366 387 379
f 374 353 379
f 379 353 366
f 387 382 379
f 230 204 217
f 217 191 196
f 217 204 191
f 54 62 41
f 54 67 96
f 96 62 54
f 96 67 75
f 75 101 96
f 75 59 101
f 80 59 72
f 59 25 72
f 72 25 38
f 38 51 72
f 51 80 72
f 17 25 12
f 4 9 12
f 12 9 17
f 12 7 4
f 284 289 297
f 276 289 284
f 284 297 318
f 284 318 271
f 271 263 284
f 263 276 284
f 200 179 242
f 153 187 200
f 200 242 221
f 221 153 200
f 158 132 179
f 158 187 132
f 179 200 158
f 158 200 187
f 260 268 247
f 247 268 213
f 213 226 247
f 218 273 247
f 273 260 247
f 247 226 192
f 247 197 218
f 192 197 247
f 74 108 116
f 108 129 116
f 116 129 124
f 124 95 116
f 95 74 116
f 196 170 149
f 170 141 149
f 162 175 149
f 149 175 196
f 149 128 162
f 149 141 128
f 333 346 341
f 333 341 320
f 320 286 333
f 272 335 306
f 272 319 335
f 264 319 272
f 272 306 293
f 293 259 272
f 272 251 264
f 259 251 272
f 374 379 361
f 361 379 382
f 340 345 361
f 361 369 340
f 361 382 369
f 361 353 374
f 361 345 353
f 196 175 209
f 209 217 196
f 209 175 230
f 230 217 209
f 46 25 59
f 59 75 46
f 46 75 67
f 67 54 46
f 46 54 41
f 7 12 15
f 15 36 23
f 10 7 15
f 15 44 10
f 15 23 44
f 317 333 312
f 312 304 317
f 317 351 346
f 346 333 317
f 338 351 317
f 317 296 338
f 325 286 257
f 325 333 286
f 257 312 325
f 312 333 325
f 291 312 278
f 291 304 312
f 291 278 270
f 270 262 291
f 291 317 304
f 291 262 296
f 296 317 291
f 33 12 25
f 25 46 33
f 33 46 41
f 20 15 12
f 12 33 20
f 20 33 41
f 41 36 20
f 36 15 20

