# https://github.com/mikedh/trimesh
v 0.04644992 0.06298223 1.99846832
v -0.21303156 -0.16881483 1.98144369
v 0.31238951 -0.18582419 1.96669321
v -0.26194005 0.36127346 1.94958172
v -0.23882536 -0.51446566 1.91788621
v 0.43785582 0.30358027 1.92772439
v -0.53588474 0.14626068 1.92131084
v 0.24427499 -0.29629632 1.96278838
v 0.13901938 0.74262423 1.85180530
v -0.46192853 -0.40852060 1.90255958
v 0.70694737 0.00656744 1.87087741
v -0.47659326 0.55317600 1.86194930
v -0.08036480 -0.78954235 1.83580075
v 0.32170282 0.72743125 1.83503435
v -0.66986723 -0.03448184 1.88416796
v 0.64857357 -0.19132520 1.88221863
v -0.19079624 0.77002320 1.83593602
v -0.16468454 -0.97334265 1.73939158
v 0.58280780 0.46767366 1.85515941
v -0.79661054 0.10890769 1.83127026
v 0.23324352 -0.95963966 1.73916336
v 0.41051909 0.98350267 1.69239374
v -0.94735841 -0.28956592 1.73743017
v 0.89023449 -0.23407881 1.77558150
v -0.60243989 0.50744601 1.83835925
v 0.18305486 -0.81393331 1.81769180
v 0.43903033 0.71350391 1.81608495
v -1.11261235 0.08075976 1.65999145
v 0.73902576 -0.59108432 1.76194786
v -0.18866875 0.87392863 1.78903685
v -0.60331183 -0.75849487 1.74948574
v 1.17677050 0.38512563 1.57063345
v -1.04545610 0.40321574 1.65663472
v 0.14240627 -1.19899487 1.59440640
v 0.54114010 0.89070744 1.70698789
v -1.10666535 -0.52443701 1.58122030
v 1.21017436 -0.14911091 1.58532141
v -0.72894956 0.82527575 1.66959650
v -0.28911514 -1.02357462 1.69372590
v 0.76494061 0.77279917 1.67858491
v -1.09831641 0.09470545 1.66875161
v 0.50682343 -1.23786827 1.48688001
v -0.05620666 1.22942541 1.57650055
v -0.61507412 -0.94633924 1.65109838
v 1.26760124 0.11230529 1.54291108
v -1.11082618 0.63643154 1.53656113
v 0.07325149 -1.33867731 1.48410824
v 0.61965123 1.00287128 1.61563657
v -1.15138824 0.16166785 1.62731946
v 1.28179066 -0.60582745 1.41066856
v -0.37743284 1.16924797 1.57810128
v -0.50146422 -1.33815351 1.39924223
v 1.35297652 0.46056245 1.39904853
v -1.26480785 0.67154327 1.39617002
v 0.74526876 -1.06889692 1.51724548
v 0.10992498 1.50220206 1.31579082
v -1.05471968 -0.65797556 1.56672734
v 1.27248765 -0.44692139 1.47683326
v -0.66802894 1.18627137 1.46509302
v -0.28543842 -1.35890348 1.43941177
v 0.90471726 0.99418382 1.48090689
v -1.25813189 0.43253792 1.49332350
v 0.75643971 -1.17429100 1.43137682
v 0.00264541 1.50620410 1.31580478
v -0.86548756 -1.26025567 1.28945219
v 1.39821012 0.45448923 1.35589380
v -1.02134001 0.88859111 1.47216522
v 0.61768682 -1.32067555 1.36904312
v 0.63725065 1.29945023 1.38034080
v -1.45408711 -0.54513083 1.26034244
v 1.58489955 -0.40897988 1.14927319
v -0.71291894 1.38063226 1.25920656
v -0.61832728 -1.31549487 1.37373383
v 1.26946584 0.68955091 1.38310376
v -1.39608640 0.76378915 1.21143257
v 1.16229434 -1.19106547 1.10924971
v 0.48809486 1.57336912 1.13413977
v -1.19213130 -0.85699568 1.35808003
v 1.55064937 -0.02075567 1.26295516
v -1.20816009 1.17472474 1.07720518
v 0.16019714 -1.53426897 1.27293190
v 0.89188250 1.33292744 1.19492679
v -1.41764068 -0.52062592 1.31119928
v 1.34335423 -0.75850612 1.27281887
v -0.33553147 1.64265699 1.09045709
v -0.75577160 -1.36583705 1.25031934
v 1.50647330 0.77695298 1.06154711
v -1.25399204 1.04028615 1.15987443
v 0.75799630 -1.55664621 1.00114644
v 0.98940168 1.24846702 1.20930328
v -1.62576820 -0.58913450 1.00488720
v 1.59013506 -0.67361634 1.00881689
v -0.80504258 1.44671463 1.12201748
v -0.34377744 -1.67166502 1.04276226
v 1.48237955 0.56208273 1.21926775
v -1.61350887 0.26803894 1.15097535
v 0.91391830 -1.34437117 1.16508346
v -0.03850130 1.66204861 1.11180577
v -1.10133444 -1.29927722 1.04830395
v 1.70470128 -0.43062337 0.95318259
v -1.05210697 1.30602250 1.08966791
v 0.47723896 -1.72661158 0.88941297
v 0.75528238 1.62386539 0.89028632
v -1.68257763 -0.30057185 1.03855143
v 1.52448620 -0.75999582 1.04802108
v -0.62788561 1.61541221 0.99809971
v -0.59343697 -1.58035942 1.07251884
v 1.82398061 0.16438025 0.80378721
v -1.78455053 0.38560391 0.81651028
v 0.82504450 -1.57931383 0.90833331
v 0.86083628 1.50440748 0.99785722
v -1.70477499 -0.77367868 0.70367856
v 1.84137943 -0.01374641 0.78046962
v -1.19221128 1.44036636 0.70991339
v -0.21464685 -1.75547075 0.93394281
v 1.56032936 0.74042708 1.00853361
v -1.80158080 0.14679205 0.85601326
v 1.54685472 -1.07222108 0.67644840
v 0.24572266 1.87571838 0.64907698
v -0.73558574 -1.58376328 0.97499102
v 1.61200446 0.78288056 0.88799756
v -1.25504612 1.26248100 0.91159255
v 0.95461609 -1.62296357 0.67431252
v 1.28079025 1.31313762 0.79702316
v -1.80073706 -0.63235009 0.59789581
v 1.66469718 -0.95689397 0.55958666
v -0.79811728 1.65140928 0.79740592
v -1.06754812 -1.54249901 0.69356891
v 1.73883873 0.45703534 0.87610419
v -1.79614996 0.66130351 0.58010602
v 1.17812803 -1.40422413 0.80010558
v 0.02431851 1.92646477 0.53678871
v -1.05367818 -1.56237066 0.66989568
v 1.91836653 0.14509951 0.54664064
v -1.49667504 1.03693748 0.82748082
v -0.14233419 -1.82739309 0.80023464
v 1.20029241 1.39269824 0.78720374
v -1.79848670 -0.56384551 0.66897220
v 1.53291462 -1.17910851 0.50978024
v -0.03130071 1.94417458 0.46819382
v -0.75821927 -1.69777841 0.73664917
v 1.60483897 0.98493392 0.67408979
v -1.66778778 1.02373635 0.41285325
v 0.93842075 -1.70061489 0.47673420
v 0.77992451 1.79983166 0.39028677
v -1.58848056 -0.99557089 0.69682717
v 1.94121055 -0.03080960 0.48036692
v -1.09650019 1.52756502 0.68134605
v -0.40727781 -1.92322083 0.36789460
v 1.83625401 0.72441323 0.32155358
v -1.94462552 -0.30464158 0.35443628
v 1.41974978 -1.31878616 0.49508951
v -0.14981675 1.90692656 0.58411131
v -1.39522761 -1.33494142 0.52083713
v 1.94562493 0.30899689 0.34505731
v -1.74085456 0.92987563 0.32366143
v 0.43298264 -1.88702231 0.50167003
v 1.30255777 1.39668787 0.59380659
v -1.74261484 -0.88916258 0.41555194
v 1.62652005 -1.11509938 0.33314548
v -0.94846610 1.71190675 0.41205260
v -0.36940912 -1.94823394 0.26061739
v 1.48630835 1.30535444 0.29485129
v -1.69237162 1.02815778 0.28065975
v 1.03785187 -1.69354541 0.23402443
v 0.28554232 1.95910224 0.28352074
v -1.24036740 -1.56183881 0.14882290
v 1.86115118 -0.54654766 0.48723908
v -1.16703938 1.57117988 0.41159798
v -0.57418298 -1.88904862 0.31907558
v 1.54186004 1.23009252 0.33096829
v -1.94627428 -0.18177913 0.42305175
v 1.78034308 -0.84940283 0.32998993
v -0.25341550 1.93603806 0.43305569
v -1.26837373 -1.51777705 0.29594072
v 1.86879611 0.68072181 0.21028292
v -1.82661848 0.78573078 0.21469059
v 0.49698752 -1.91148331 0.31501584
v 0.97629964 1.72468925 0.26886054
v -1.81048028 -0.84343269 0.10383861
v 1.60746562 -1.18996871 0.00536165
v -0.46973790 1.94388597 0.02556645
v -1.04936252 -1.68343342 0.25473559
v 1.51806694 1.30193985 0.02062516
v -1.98012881 0.27284331 0.06816455
v 0.96101404 -1.73481559 0.25858632
v -0.09601105 1.99764856 -0.01349444
v -1.60506405 -1.16349971 0.26464662
v 1.94332839 0.38907417 0.26850713
v -1.29523180 1.50507078 0.23903245
v 0.11960043 -1.99530179 -0.06683185
v 1.05198398 1.69134908 0.18074284
v -1.88545209 -0.66451602 0.05906661
v 1.71257598 -1.02253242 0.14666617
v -0.12571274 1.99604006 -0.00451684
v -0.43890691 -1.94849344 -0.10360520
v 1.93575934 0.49915814 -0.06063778
v -1.65917589 1.11121066 -0.11111363
v 0.59600883 -1.90450516 0.13279139
v 1.08138140 1.68166364 -0.05120224
v -1.92760322 -0.53210164 -0.03483767
v 1.99385189 -0.07706446 -0.13643946
v -1.05457360 1.69814834 0.06455023
v -0.66166547 -1.88731837 -0.01510584
v 1.10054691 1.66996219 -0.00477514
v -1.99069424 0.12959267 0.14262606
v 1.36708924 -1.45068641 -0.16302126
v -0.41908686 1.95441569 -0.06801121
v -1.41497520 -1.41007037 0.09770750
v 1.99221857 0.16681635 0.05689891
v -1.78599793 0.88124879 -0.18333571
v 0.94141993 -1.76369107 -0.05587772
v 0.98455298 1.74060231 -0.03096807
v -1.94389369 -0.40516160 -0.23900081
v 1.92015959 -0.48978920 -0.27035842
v -1.06124996 1.69483728 -0.03570855
v -0.44186884 -1.94837075 -0.09275431
v 1.67354692 1.09078883 -0.09705893
v -1.98247435 0.21287163 -0.15646446
v 1.41532354 -1.41251587 -0.04072088
v 0.44587096 1.94735630 -0.09488164
v -1.77130724 -0.90147680 -0.22318211
v 1.91614698 -0.55778712 -0.13135561
v -1.67572330 1.05778919 -0.27024703
v 0.47176961 -1.93219048 -0.20993663
v 1.61152544 1.15779106 -0.25001126
v -1.85181181 -0.68788173 -0.31242877
v 1.17233850 -1.57134254 -0.39560723
v -0.65717193 1.86576472 -0.29503737
v -1.45300532 -1.29526896 -0.45940600
v 1.98967866 0.04457196 -0.19797013
v -1.51947832 1.27993397 -0.23011882
v 1.02187905 -1.65777201 -0.45558223
v 1.19135046 1.56318389 -0.37032446
v -1.74417294 -0.82701570 -0.52336011
v 1.92039061 -0.30838173 -0.46583323
v -1.28155743 1.51948502 -0.22085252
v -0.54556145 -1.90494252 -0.27121339
v 1.35405375 1.45465654 -0.22475052
v -1.80991935 0.62180898 -0.58098668
v 1.24551760 -1.48495854 -0.49354234
v 0.06240936 1.97209456 -0.32702922
v -1.52246022 -1.17789196 -0.54284934
v 1.89546554 0.36524130 -0.52326779
v -1.51504867 1.23349879 -0.42791151
v 0.05790632 -1.95751212 -0.40594723
v 1.16798539 1.56437050 -0.43422929
v -1.88755274 -0.39977541 -0.52661588
v 1.74071002 -0.85715540 -0.48498788
v -0.40818413 1.84589647 -0.65272653
v -0.35826154 -1.84412994 -0.68617304
v 1.95068718 0.24776844 -0.36528118
v -1.85804616 0.20694687 -0.71051916
v 1.20616617 -1.42650812 -0.71430928
v 0.78826299 1.69863907 -0.70232954
v -1.72671111 -0.85480039 -0.53645599
v 1.91661725 -0.20283818 -0.53426116
v -1.46865884 1.19909954 -0.63655441
v -0.17044523 -1.89868331 -0.60493809
v 1.34728661 1.38119918 -0.52641012
v -1.90060041 0.17912291 -0.59634980
v 1.55342151 -1.10845257 -0.59851024
v -0.39955212 1.90522843 -0.45876219
v -1.46556865 -1.21418723 -0.61470148
v 1.75804893 0.83716563 -0.45652785
v -1.85232855 0.51132906 -0.55445607
v 0.56128159 -1.83212415 -0.57296080
v 1.23972419 1.36855062 -0.76821424
v -1.56840150 -0.99996029 -0.73498037
v 1.82551588 -0.57520263 -0.58020145
v -0.55584418 1.79463328 -0.68580509
v -0.41980225 -1.88035622 -0.53668105
v 1.31445080 1.37151652 -0.62542908
v -1.87984298 0.13910112 -0.66846186
v 1.42981215 -1.25247683 -0.62204420
v 0.67804092 1.63895322 -0.92417144
v -1.16575929 -1.46967076 -0.69359437
v 1.85388092 -0.22753719 -0.71508905
v -1.20061509 1.41458800 -0.74663526
v 0.26239520 -1.83632114 -0.74771213
v 0.97080731 1.62958221 -0.63403074
v -1.81407620 0.17508133 -0.82369537
v 1.62255153 -0.65936670 -0.96569254
v -0.27019263 1.82890878 -0.76294731
v -0.90806182 -1.57182809 -0.83951187
v 1.71121642 0.55454186 -0.87419774
v -1.44328070 1.02789195 -0.92756615
v 0.95453987 -1.55886589 -0.81165929
v 0.39402534 1.74245843 -0.89921224
v -1.53354428 -0.76180406 -1.03339078
v 1.58200317 -0.83288893 -0.89641619
v -1.01225356 1.55086785 -0.75508386
v 0.24375364 -1.72416765 -0.98378355
v 1.08185226 1.27094320 -1.10195239
v -1.68877642 -0.20165419 -1.05231640
v 0.90283009 -1.44665421 -1.04503083
v -0.30788085 1.73184274 -0.95180360
v -1.29181182 -1.14777773 -1.00689051
v 1.58684258 0.65004765 -1.02925636
v -1.60886776 0.63582069 -1.00363170
v 0.44530427 -1.67155509 -1.00379664
v 1.14133395 1.37287159 -0.90143242
v -1.66437327 -0.14448996 -1.09953821
v 1.33791268 -1.17881787 -0.90574726
v -0.85709316 1.57696618 -0.88236555
v -0.41479220 -1.63713695 -1.07132164
v 1.58201493 0.71732523 -0.99129878
v -1.61511809 0.67584007 -0.96676458
v 1.11600253 -1.36027592 -0.95088788
v 0.09939788 1.76074779 -0.94333837
v -1.12592686 -1.14729257 -1.18996154
v 1.69895367 0.16736719 -1.04189475
v -1.25774474 1.06561009 -1.13249870
v -0.19917538 -1.58377695 -1.20498121
v 1.04202826 1.16202902 -1.25054615
v -1.47604273 -0.50023955 -1.25341863
v 1.34333349 -1.03545105 -1.05985672
v -0.06958171 1.50307594 -1.31754359
v -0.67698712 -1.58010965 -1.02222401
v 1.51670340 0.16641934 -1.29302567
v -1.43029428 0.68958515 -1.21603067
v 0.56084337 -1.59747636 -1.06467084
v 0.84664009 1.34650929 -1.21248228
v -1.46949317 -0.20317893 -1.34138292
v 1.40505440 -0.86911314 -1.12714882
v -0.94993562 1.32695847 -1.15620221
v -0.13468395 -1.43334035 -1.38830676
v 1.20780203 1.02646834 -1.21966265
v -1.46008881 0.49409649 -1.27436624
v 1.12496329 -0.85951011 -1.41269246
v 0.33113593 1.41592489 -1.37313717
v -0.97172835 -1.03684772 -1.40737018
v 1.49931674 0.35063577 -1.27636354
v -1.28215922 0.67446932 -1.37882518
v 0.47314815 -1.32042818 -1.42569290
v 0.96909815 0.93781818 -1.47693799
v -1.52271249 -0.37398055 -1.24156563
v 1.26888569 -0.48526480 -1.46780352
v -0.10805757 1.29681477 -1.51874784
v -0.86124286 -1.14400943 -1.39624609
v 1.35292541 0.57582739 -1.35573436
v -1.20360898 0.94945397 -1.28446977
v 0.28785303 -1.46455579 -1.33124639
v 0.09704355 1.50024995 -1.31902715
v -1.38484398 -0.39978069 -1.38650011
v 1.41971589 -0.46194306 -1.33079502
v -0.53583835 1.37289281 -1.35205126
v -0.35176932 -1.35150018 -1.43167929
v 0.78600686 1.16958962 -1.41924393
v -1.36363653 -0.14776904 -1.45556165
v 1.13775894 -0.76146457 -1.45796993
v 0.09302365 1.19715833 -1.59942444
v -0.59752649 -1.01319726 -1.61752694
v 1.27734061 0.09206017 -1.53620503
v -1.05977312 0.75296093 -1.51984564
v 0.41418187 -1.17614650 -1.56369204
v 0.78335391 0.83736475 -1.63865094
v -1.08911175 -0.11126874 -1.67375472
v 1.20417928 -0.14235826 -1.59049879
v -0.65141176 0.82507848 -1.70144298
v -0.34203966 -1.19585179 -1.56618881
v 0.74602005 0.73858294 -1.70233643
v -1.26227834 0.00837688 -1.55131661
v 0.73564966 -0.82070735 -1.66890953
v 0.32192125 1.04482579 -1.67472558
v -0.89894306 -0.50746502 -1.71300339
v 1.12453747 0.00644405 -1.65389660
v -0.58606115 0.77254629 -1.74920112
v -0.05013934 -1.04528712 -1.70436524
v 0.88360066 0.78956831 -1.61115852
v -1.11916991 0.01368606 -1.65748949
v 0.96001606 -0.41569787 -1.70457163
v 0.01514874 1.05786873 -1.69725786
v -0.38386306 -1.02185879 -1.67584419
v 0.81711837 0.54548033 -1.74205877
v -0.92039003 0.30734290 -1.74883462
v 0.45200982 -0.75683340 -1.79524102
v 0.51300237 0.78078184 -1.76839144
v -0.87161151 -0.34362339 -1.76697944
v 0.91084898 -0.33508665 -1.74873413
v -0.42648742 0.59198351 -1.86216648
v -0.12788665 -0.77711200 -1.83840745
v 0.65919802 0.59222323 -1.79296671
v -0.68311457 0.04994649 -1.87905823
v 0.55997677 -0.47103430 -1.86133090
v -0.09876450 0.91508752 -1.77562958
v -0.56157745 -0.55130589 -1.83866598
v 0.54918987 0.13984359 -1.91802874
v -0.29052322 0.39801803 -1.93834411
v -0.01805581 -0.74542048 -1.85580772
v 0.25383952 0.37902684 -1.94728122
v -0.42064677 -0.11613524 -1.95181170
v 0.50273774 -0.26915903 -1.91697892
v -0.05787930 0.68860554 -1.87682509
v -0.25217381 -0.42621047 -1.93771851
v 0.39018309 0.21258783 -1.95001630
v -0.22158376 0.13765244 -1.98291514
v 0.03999650 -0.13463823 -1.99506211
v 0.06528145 0.14014086 -1.99401577
v -0.00000000 -0.00000000 -2.00000000
f 335 330 296
f 364 330 335
f 309 330 317
f 296 330 309
f 191 246 225
f 196 246 191
f 216 229 292
f 325 346 283
f 317 330 325
f 283 346 278
f 346 312 278
f 278 312 244
f 351 330 364
f 346 325 351
f 351 325 330
f 23 10 15
f 31 23 57
f 10 23 31
f 298 277 264
f 285 277 298
f 154 209 175
f 243 264 230
f 230 264 277
f 230 222 243
f 230 209 222
f 188 209 154
f 180 222 188
f 222 209 188
f 76 118 105
f 55 50 29
f 24 16 29
f 296 309 288
f 181 262 249
f 249 194 181
f 89 110 97
f 207 262 181
f 181 220 207
f 207 275 262
f 241 275 207
f 191 157 162
f 272 196 238
f 238 285 272
f 277 285 238
f 363 358 350
f 358 345 350
f 366 345 358
f 387 353 366
f 243 222 256
f 216 292 237
f 329 334 363
f 363 350 329
f 363 334 376
f 316 290 337
f 337 345 316
f 295 290 248
f 295 337 290
f 303 337 295
f 282 266 300
f 300 329 282
f 282 329 303
f 303 295 282
f 244 252 257
f 257 278 244
f 197 252 244
f 380 385 393
f 359 346 338
f 346 351 338
f 364 335 356
f 377 385 364
f 364 356 377
f 28 83 36
f 36 23 28
f 57 23 36
f 60 94 81
f 52 94 60
f 107 94 52
f 44 31 57
f 206 214 151
f 151 214 201
f 99 65 78
f 57 36 78
f 78 36 83
f 78 44 57
f 65 44 78
f 20 23 15
f 219 214 206
f 266 219 211
f 156 164 177
f 216 237 190
f 201 214 227
f 227 214 248
f 183 175 167
f 167 175 209
f 167 230 277
f 209 230 167
f 180 188 159
f 165 152 144
f 220 152 165
f 165 207 220
f 160 220 181
f 160 152 220
f 181 194 160
f 202 147 168
f 11 32 19
f 11 16 24
f 19 6 11
f 76 105 84
f 84 55 76
f 84 50 55
f 84 71 50
f 105 71 84
f 8 29 16
f 100 168 113
f 113 168 147
f 113 147 134
f 134 108 113
f 254 288 309
f 254 275 241
f 233 254 241
f 288 254 233
f 304 309 317
f 262 275 304
f 304 254 309
f 275 254 304
f 291 249 262
f 317 325 291
f 291 325 283
f 291 304 317
f 262 304 291
f 283 278 270
f 270 291 283
f 249 291 270
f 215 249 270
f 131 118 76
f 131 152 118
f 76 97 131
f 131 97 110
f 81 89 68
f 89 97 68
f 149 162 136
f 136 162 157
f 102 110 89
f 102 89 81
f 81 136 102
f 102 136 157
f 217 196 191
f 191 162 217
f 217 238 196
f 387 366 379
f 379 392 387
f 384 392 379
f 358 384 379
f 379 366 358
f 332 366 353
f 316 345 332
f 345 366 332
f 269 264 243
f 243 256 269
f 269 256 290
f 269 290 298
f 298 264 269
f 387 392 395
f 381 376 368
f 381 389 384
f 384 376 381
f 400 392 397
f 397 399 400
f 397 389 399
f 397 392 384
f 384 389 397
f 244 312 286
f 312 299 286
f 229 182 208
f 216 190 203
f 203 229 216
f 203 182 229
f 279 292 326
f 279 237 292
f 321 329 300
f 334 329 321
f 300 266 240
f 240 211 224
f 266 211 240
f 355 376 334
f 371 358 363
f 363 376 371
f 371 384 358
f 371 376 384
f 324 350 345
f 345 337 324
f 324 337 303
f 303 329 324
f 324 329 350
f 213 221 145
f 145 179 213
f 252 197 210
f 210 147 202
f 388 380 393
f 372 380 359
f 359 338 372
f 372 338 351
f 372 351 364
f 364 385 372
f 385 380 372
f 319 306 251
f 272 285 251
f 251 285 319
f 251 306 314
f 361 327 348
f 348 306 319
f 314 306 348
f 348 327 314
f 348 353 361
f 322 335 296
f 296 288 322
f 86 65 99
f 133 175 183
f 154 175 133
f 94 107 141
f 149 136 141
f 141 133 183
f 52 44 73
f 73 44 65
f 65 86 73
f 73 107 52
f 73 86 107
f 193 151 201
f 193 222 180
f 180 159 193
f 201 227 193
f 193 227 222
f 99 78 146
f 146 154 99
f 112 159 146
f 146 188 154
f 146 159 188
f 135 80 122
f 70 78 83
f 104 70 83
f 7 20 15
f 25 20 7
f 28 23 41
f 23 20 41
f 62 46 54
f 33 20 25
f 33 41 20
f 46 62 33
f 38 33 25
f 46 33 38
f 12 4 17
f 12 38 25
f 25 7 12
f 12 7 4
f 185 219 206
f 177 211 185
f 185 211 219
f 261 219 266
f 248 214 261
f 214 219 261
f 130 156 177
f 177 185 130
f 130 185 206
f 143 190 164
f 164 156 143
f 143 130 135
f 156 130 143
f 232 190 237
f 235 256 222
f 222 227 235
f 235 227 248
f 248 290 235
f 290 256 235
f 125 159 112
f 151 193 125
f 125 193 159
f 191 225 199
f 118 152 139
f 152 160 139
f 223 249 215
f 194 249 223
f 223 215 202
f 202 168 223
f 118 139 126
f 126 139 160
f 58 37 24
f 24 29 58
f 58 29 50
f 50 71 58
f 45 11 24
f 24 37 45
f 32 11 45
f 129 121 116
f 129 150 121
f 129 108 134
f 2 8 1
f 1 4 2
f 4 7 2
f 15 10 2
f 2 7 15
f 3 8 16
f 16 11 3
f 3 11 6
f 3 6 1
f 1 8 3
f 29 8 26
f 288 233 267
f 267 322 288
f 301 322 267
f 267 225 246
f 207 165 212
f 212 199 225
f 225 267 212
f 212 267 233
f 215 270 236
f 202 215 236
f 236 257 202
f 278 257 236
f 236 270 278
f 123 131 110
f 110 102 123
f 144 152 123
f 152 131 123
f 123 157 144
f 123 102 157
f 63 68 97
f 76 55 63
f 63 97 76
f 81 94 115
f 115 136 81
f 94 141 115
f 115 141 136
f 204 217 162
f 238 217 204
f 183 167 204
f 277 238 204
f 204 167 277
f 319 285 311
f 311 285 298
f 298 290 311
f 311 290 316
f 316 332 311
f 369 377 356
f 369 327 361
f 369 356 327
f 385 377 390
f 393 385 390
f 377 369 390
f 386 381 368
f 373 386 339
f 271 292 229
f 255 221 213
f 375 341 354
f 299 341 307
f 307 286 299
f 195 208 182
f 148 127 161
f 182 203 161
f 334 321 342
f 326 355 342
f 342 355 334
f 300 240 308
f 308 240 287
f 308 321 300
f 287 321 308
f 368 376 360
f 376 355 360
f 347 339 360
f 326 347 360
f 360 355 326
f 360 386 368
f 360 339 386
f 53 45 66
f 32 45 53
f 231 210 202
f 252 210 231
f 202 257 231
f 231 257 252
f 189 197 176
f 189 210 197
f 176 150 189
f 359 380 367
f 380 388 367
f 367 354 359
f 367 388 375
f 375 354 367
f 272 251 259
f 259 196 272
f 246 196 259
f 259 251 314
f 314 293 259
f 340 332 353
f 353 348 340
f 340 348 319
f 319 311 340
f 340 311 332
f 314 327 343
f 343 293 314
f 343 356 335
f 327 356 343
f 301 293 343
f 335 322 343
f 343 322 301
f 120 86 99
f 107 86 120
f 120 141 107
f 88 75 54
f 88 80 135
f 135 75 88
f 135 122 114
f 114 143 135
f 190 143 114
f 101 127 148
f 148 114 101
f 101 114 122
f 101 122 80
f 80 88 101
f 172 104 117
f 206 151 172
f 172 117 206
f 70 104 91
f 112 146 91
f 91 146 78
f 78 70 91
f 117 104 96
f 54 75 96
f 96 62 54
f 96 104 83
f 41 33 49
f 49 33 62
f 28 41 49
f 62 96 49
f 49 83 28
f 49 96 83
f 266 282 253
f 253 261 266
f 248 261 274
f 274 295 248
f 274 282 295
f 274 253 282
f 261 253 274
f 206 117 109
f 109 130 206
f 117 96 109
f 109 96 75
f 109 75 135
f 135 130 109
f 237 279 245
f 245 232 237
f 224 232 245
f 164 190 198
f 190 232 198
f 198 232 224
f 224 211 198
f 177 164 198
f 198 211 177
f 144 157 178
f 178 157 191
f 191 199 178
f 186 165 144
f 144 178 186
f 186 178 199
f 186 212 165
f 199 212 186
f 194 223 173
f 173 223 168
f 168 126 173
f 173 160 194
f 173 126 160
f 92 105 118
f 118 126 92
f 100 71 92
f 92 71 105
f 92 168 100
f 92 126 168
f 66 45 79
f 79 45 37
f 108 129 79
f 79 113 108
f 79 58 71
f 37 58 79
f 79 71 100
f 100 113 79
f 8 2 5
f 5 2 10
f 10 31 5
f 280 293 301
f 301 267 280
f 280 267 246
f 246 259 280
f 280 259 293
f 207 212 228
f 228 212 233
f 241 207 228
f 228 233 241
f 170 162 149
f 170 204 162
f 183 204 170
f 170 141 183
f 149 141 170
f 393 390 398
f 398 390 395
f 400 399 398
f 398 392 400
f 398 395 392
f 387 395 382
f 395 390 382
f 382 390 369
f 389 381 394
f 381 386 394
f 373 339 352
f 229 208 263
f 263 271 229
f 208 195 263
f 326 292 305
f 292 271 305
f 305 271 297
f 305 347 326
f 305 297 347
f 187 221 242
f 242 195 187
f 242 263 195
f 297 310 318
f 347 297 318
f 318 339 347
f 320 312 346
f 320 346 359
f 359 354 320
f 148 161 169
f 169 114 148
f 190 114 169
f 169 203 190
f 169 161 203
f 313 321 287
f 313 342 321
f 326 342 313
f 313 279 326
f 287 279 313
f 9 22 43
f 17 4 9
f 9 4 1
f 1 6 9
f 19 32 40
f 40 27 19
f 87 124 90
f 116 121 87
f 158 171 163
f 210 189 155
f 134 147 155
f 147 210 155
f 155 129 134
f 150 129 155
f 155 189 150
f 133 141 128
f 141 120 128
f 128 120 99
f 99 154 128
f 154 133 128
f 67 101 88
f 46 38 67
f 54 46 67
f 67 88 54
f 93 106 127
f 127 101 93
f 72 106 93
f 93 101 72
f 138 91 104
f 104 172 138
f 138 125 112
f 112 91 138
f 151 125 138
f 138 172 151
f 30 51 38
f 30 12 17
f 38 12 30
f 43 51 30
f 17 9 30
f 30 9 43
f 59 51 72
f 38 51 59
f 59 67 38
f 72 101 59
f 101 67 59
f 258 279 287
f 258 245 279
f 287 240 258
f 258 240 224
f 224 245 258
f 142 87 121
f 124 87 142
f 121 150 142
f 150 171 142
f 142 158 124
f 171 158 142
f 176 197 218
f 218 150 176
f 218 171 150
f 55 29 21
f 29 26 21
f 81 68 42
f 42 63 55
f 68 63 42
f 55 21 42
f 42 21 34
f 34 21 18
f 374 353 387
f 387 382 374
f 361 353 374
f 374 369 361
f 374 382 369
f 399 389 391
f 389 394 391
f 373 352 365
f 365 386 373
f 365 394 386
f 365 352 331
f 349 365 331
f 357 365 349
f 357 349 336
f 336 349 315
f 297 271 284
f 284 310 297
f 284 242 310
f 263 242 284
f 310 242 289
f 255 276 289
f 221 255 289
f 289 242 221
f 289 276 331
f 344 318 310
f 344 289 331
f 310 289 344
f 339 318 344
f 331 352 344
f 344 352 339
f 323 276 302
f 315 349 323
f 331 276 323
f 323 349 331
f 184 205 163
f 239 205 184
f 163 171 184
f 171 218 184
f 213 179 192
f 192 205 213
f 163 205 192
f 192 158 163
f 179 158 192
f 302 276 281
f 281 276 255
f 281 255 213
f 213 247 281
f 239 260 234
f 234 260 247
f 234 247 213
f 302 281 268
f 268 281 247
f 333 354 341
f 333 320 354
f 333 341 299
f 333 299 312
f 312 320 333
f 77 98 56
f 56 69 77
f 43 22 56
f 22 69 56
f 174 195 182
f 182 161 174
f 174 161 127
f 119 98 77
f 22 9 14
f 14 27 22
f 14 9 6
f 14 6 19
f 19 27 14
f 74 87 90
f 32 53 74
f 74 40 32
f 74 53 66
f 77 69 82
f 82 69 90
f 90 69 61
f 61 74 90
f 40 74 61
f 103 119 77
f 145 119 103
f 265 197 244
f 265 218 197
f 244 286 265
f 286 307 265
f 81 42 47
f 47 42 34
f 47 60 81
f 52 60 39
f 39 44 52
f 60 47 39
f 31 44 39
f 34 18 39
f 39 47 34
f 13 21 26
f 13 18 21
f 13 26 8
f 8 5 13
f 13 5 31
f 31 39 13
f 13 39 18
f 399 391 396
f 396 398 399
f 396 388 393
f 393 398 396
f 383 396 391
f 375 388 383
f 388 396 383
f 378 391 394
f 394 365 378
f 378 383 391
f 378 365 357
f 341 336 328
f 328 336 315
f 328 307 341
f 302 268 328
f 328 268 307
f 370 341 375
f 370 336 341
f 357 336 370
f 271 263 250
f 250 284 271
f 263 284 250
f 294 323 302
f 315 323 294
f 302 328 294
f 294 328 315
f 200 205 239
f 239 234 200
f 213 205 200
f 200 234 213
f 64 56 98
f 64 51 43
f 43 56 64
f 98 119 153
f 127 106 153
f 153 174 127
f 166 145 221
f 166 119 145
f 166 221 187
f 95 74 66
f 87 74 95
f 116 87 95
f 95 129 116
f 66 79 95
f 95 79 129
f 48 69 22
f 48 61 69
f 40 61 48
f 124 158 137
f 137 158 179
f 90 124 137
f 179 145 137
f 145 103 137
f 226 265 260
f 218 265 226
f 226 260 239
f 239 184 226
f 226 184 218
f 260 265 273
f 247 260 273
f 273 268 247
f 307 268 273
f 273 265 307
f 362 378 357
f 383 378 362
f 375 383 362
f 362 370 375
f 357 370 362
f 85 64 98
f 85 153 106
f 98 153 85
f 85 106 72
f 72 51 85
f 51 64 85
f 132 153 119
f 119 166 132
f 22 27 35
f 35 48 22
f 27 40 35
f 40 48 35
f 111 82 90
f 90 137 111
f 111 137 103
f 77 82 111
f 111 103 77
f 140 166 187
f 140 132 166
f 187 195 140
f 195 174 140
f 174 153 140
f 153 132 140

