# https://github.com/mikedh/trimesh
v -0.47570729 -0.94435960 1.29586559
v -0.48926059 -0.43312416 1.48509777
v -0.46265970 -1.27093437 1.05610243
v -0.48644177 -1.57668227 0.33022959
v -0.49128001 -1.29430380 0.53879099
v -0.42083838 -1.03996381 0.55920507
v -0.38690437 -1.26109927 1.26979334
v -0.38664638 -1.48391114 1.00129186
v -0.23634908 -1.06821200 1.59099773
v -0.23635045 -1.59530535 1.06232539
v -0.23637189 -1.35818177 1.35197418
v -0.23619262 -1.76954723 0.74073792
v -0.50482043 0.04883481 1.50514104
v -0.44159328 -0.49021991 1.62320620
v -0.38695023 -0.98937156 1.49119913
v -0.47281303 -0.00807226 1.65559244
v -0.46396644 0.10421679 1.27688913
v -0.43076884 -0.00631360 1.74541308
v -0.45950243 -0.76747548 1.00588204
v -0.41281009 -0.70480776 0.92237622
v -0.44655678 -0.34094431 1.15868880
v -0.38225583 -0.08135337 1.13628233
v -0.36141855 0.88870404 1.14348753
v -0.31828291 -0.70951734 1.71989147
v -0.32166329 -0.36822770 1.82230756
v -0.35625771 0.63415207 1.85140803
v -0.23755479 0.63292373 1.93661335
v -0.30064179 -0.01433466 1.88826322
v -0.31201692 -0.37833347 1.00494438
v -0.31021920 -0.66370091 0.83478256
v -0.23277235 -0.09596724 1.02163262
v -0.25348579 0.75524269 1.05676314
v -0.43788191 -1.57243897 0.67576597
v -0.50548774 -1.52083486 0.06400987
v -0.41452705 -1.72894597 0.37189937
v -0.45669936 -1.26362007 0.21536596
v -0.29800133 -1.98696725 -0.24254192
v -0.31378625 -1.83395981 0.38790184
v -0.35501221 -1.68552391 0.71543810
v -0.32913502 -0.95494084 0.50967832
v -0.33213472 -1.10179758 0.17414191
v -0.21147322 -1.02816026 0.15351499
v -0.04915699 -1.25151917 1.52453826
v -0.09842172 -1.45451880 1.32921483
v -0.05867695 -1.82453946 0.75227967
v -0.05023923 -1.64149361 1.09479335
v -0.14507491 -0.79062471 1.78756512
v -0.14414332 -0.40715265 1.91188836
v -0.14404593 -0.62101426 0.76758896
v -0.14336947 -0.35938774 0.92466645
v -0.11831878 0.70882170 1.00503391
v -0.05121858 0.62877163 1.99439312
v -0.02779635 -0.02121857 1.98535369
v -0.09471875 -0.09352467 0.97240041
v -0.18853836 -1.91057822 0.39934628
v -0.08347430 -2.10690356 -0.35093777
v -0.08227132 -1.94366435 0.36875471
v -0.16679636 -0.87878235 0.46473288
v -0.02862367 -0.98468130 0.14260904
v -0.44320997 2.95531947 1.73777506
v -0.50325123 2.95992168 1.49409894
v -0.43923095 3.19881768 1.50001514
v -0.39263924 3.15055476 1.74145422
v -0.39262593 3.15056056 1.25853553
v -0.44402846 2.92528207 1.27183967
v -0.31246672 2.92292073 1.88734474
v -0.33889367 3.30802152 1.64074042
v -0.33889119 3.30802207 1.35925689
v -0.21589514 3.12004512 1.91808804
v -0.16484080 2.92970174 1.97345477
v -0.25131534 3.41365427 1.50000000
v -0.32627403 2.99478187 1.13553490
v -0.18020511 3.00463790 1.03397679
v -0.24701237 3.27008527 1.19239221
v -0.16012054 3.31282911 1.82302609
v -0.17978666 3.40546955 1.68192038
v -0.06458406 3.46722609 1.46459468
v -0.17978583 3.40546969 1.31807923
v -0.07463390 3.24702436 1.09735006
v -0.03874090 3.19206869 1.93664899
v -0.03627092 3.38029666 1.20627519
v -0.00698110 2.89168429 1.00138604
v -0.44259406 -2.29296630 -2.61209127
v -0.50316380 -2.05001928 -2.55658366
v -0.44375419 -1.82426937 -2.64047342
v -0.43926540 -2.10773599 -2.83532868
v -0.35629814 -2.41309650 -2.62843936
v -0.39264201 -1.86153810 -2.83627905
v -0.33889210 -2.26747067 -2.91438115
v -0.33889404 -1.99164043 -2.97051442
v -0.17265148 -2.53074061 -2.56268156
v -0.19024174 -2.15527189 -3.06881947
v -0.31263307 -1.67340637 -2.64286635
v -0.14531826 -1.61157702 -2.80270437
v -0.17978585 -2.32725437 -3.00166092
v -0.17924959 -2.45664636 -2.85422346
v -0.17978666 -1.97072117 -3.07421773
v -0.16012054 -1.81397549 -3.01157737
v -0.03627092 -2.43179279 -2.95469767
v -0.01529452 -2.54271386 -2.50015708
v 0.00008335 -1.02501368 1.69421610
v 0.14558443 -1.08116468 1.62793553
v 0.14558168 -1.37801145 1.38560518
v 0.15039687 -1.80076524 0.75890695
v 0.14566930 -1.62218824 1.08946254
v 0.00109487 -0.67467275 1.86199684
v 0.00797528 -0.33971953 1.95340737
v 0.14516430 -0.74400651 1.80758217
v 0.14067385 -0.38691521 1.91883790
v 0.09413123 0.62544808 1.99010950
v 0.07114365 -0.45359234 0.86312726
v 0.06847884 -0.65690749 0.72267974
v 0.05261951 -0.09521296 0.96826772
v 0.07493725 0.69814240 0.99644632
v 0.23159768 0.63213425 1.93960587
v 0.16448633 -0.02092580 1.95820443
v 0.26105562 0.74559352 1.06390039
v 0.23927153 -0.10352924 1.02320737
v 0.10108294 -2.07444751 -0.22344564
v 0.12868032 -1.92424008 0.41203571
v 0.25794135 -1.87324001 0.39503822
v 0.02151614 -0.85690041 0.44880972
v 0.16655518 -1.01159487 0.14909087
v 0.24674430 -0.91386590 0.47131824
v 0.31791924 -1.03749407 1.54448543
v 0.31825721 -1.54851880 1.03140130
v 0.31796488 -1.31868786 1.31254113
v 0.32114966 -1.71544026 0.71831498
v 0.44046416 -1.21081231 1.20029423
v 0.44155977 -1.49588273 0.79892721
v 0.48896213 -0.98716751 1.19243152
v 0.48904813 -1.36950494 0.72336774
v 0.43339066 -0.95762927 0.74867012
v 0.31749428 -0.71748689 1.71726548
v 0.31332780 -0.37634687 1.82723626
v 0.29060366 -0.01952675 1.88820391
v 0.35211160 0.62746521 1.85511716
v 0.30506871 -0.67987769 0.81591548
v 0.31225887 -0.39892447 0.99631778
v 0.38741973 -0.10084906 1.13798593
v 0.37689743 0.82175845 1.15593289
v 0.43881023 -0.50227243 1.62483370
v 0.44051008 -0.95269711 1.41374250
v 0.50220108 0.05842177 1.56452931
v 0.48432136 -0.48941502 1.24648934
v 0.42785543 -0.00925537 1.74476603
v 0.43975868 3.02918520 1.73244463
v 0.47125829 0.13732756 1.29372392
v 0.49739318 2.93481500 1.44903471
v 0.42688872 -0.41386261 1.10977949
v 0.46477074 -0.76811285 1.02628206
v 0.43308187 1.03719410 1.23521181
v 0.35668051 -1.93914382 -0.24634584
v 0.40150589 -1.74765081 0.36238043
v 0.29967734 -1.07617080 0.16666512
v 0.39535957 -1.16816404 0.19461259
v 0.38003214 -1.00872427 0.51739222
v 0.50530759 -1.49288213 0.23537658
v 0.47726584 -1.29465751 0.33621350
v 0.47269066 -1.62106929 0.33917732
v 0.01524964 2.95648322 1.99304456
v 0.03626812 3.38029516 1.79372697
v 0.06458392 3.46213139 1.60855559
v 0.12654437 3.15657849 1.93337883
v 0.14911039 3.05273967 1.02333289
v 0.11114871 3.29448355 1.13836044
v 0.22386984 2.92093585 1.94401737
v 0.17978297 3.40546932 1.68192563
v 0.12328537 3.43970944 1.35516520
v 0.24681824 3.26972172 1.80798318
v 0.27007076 3.30780778 1.25322149
v 0.29121408 3.05169905 1.09890898
v 0.27283321 3.38768079 1.44443252
v 0.36597304 3.00408004 1.82540886
v 0.33882839 3.30803710 1.64083666
v 0.43901193 3.19908331 1.49988545
v 0.39185637 3.15052055 1.25718637
v 0.49003124 2.89210307 1.57680363
v 0.43433520 2.92793591 1.25782981
v 0.18197365 -2.53069099 -2.57664982
v 0.03865189 -2.53432539 -2.74177797
v 0.06458398 -2.26666225 -3.07181505
v -0.00000004 -2.09329366 -3.11935261
v 0.03626812 -1.85614004 -3.07184538
v 0.17902974 -2.45243421 -2.85029701
v 0.04415269 -1.56055300 -2.64337920
v 0.07457063 -1.72278186 -2.96295199
v 0.21185972 -1.62994319 -2.73792671
v 0.17978392 -2.32725849 -3.00165957
v 0.18501165 -2.04450060 -3.07528295
v 0.24681725 -1.82012006 -2.96633734
v 0.29318783 -2.45392799 -2.51417945
v 0.33883326 -2.26755993 -2.91437825
v 0.33882766 -1.99154994 -2.97055024
v 0.36592839 -1.75002824 -2.70961225
v 0.39185895 -2.33608156 -2.73967839
v 0.45402673 -2.26034945 -2.55358574
v 0.43874219 -1.84547930 -2.71791961
v 0.43901824 -2.10793270 -2.83565623
v 0.50494284 -2.04153963 -2.51508161
f 171 173 177
f 16 61 13
f 18 60 16
f 174 146 147
f 175 147 176
f 177 173 176
f 173 175 176
f 147 178 149
f 61 60 62
f 16 60 61
f 61 17 13
f 17 65 23
f 26 60 18
f 179 172 177
f 73 74 79
f 53 52 27
f 28 53 27
f 147 149 176
f 179 177 149
f 178 144 149
f 176 149 177
f 73 72 74
f 32 72 73
f 32 23 72
f 72 64 74
f 64 68 74
f 74 68 78
f 23 65 72
f 68 71 78
f 71 67 76
f 76 67 75
f 67 63 75
f 70 66 27
f 69 66 70
f 66 26 27
f 75 69 80
f 69 70 80
f 78 71 77
f 71 76 77
f 69 75 63
f 68 67 71
f 51 82 114
f 32 73 51
f 27 52 70
f 68 62 67
f 64 62 68
f 62 63 67
f 61 62 64
f 62 60 63
f 65 17 61
f 63 66 69
f 63 60 66
f 60 26 66
f 65 64 72
f 65 61 64
f 167 110 115
f 114 82 165
f 165 79 166
f 166 81 169
f 81 77 169
f 79 81 166
f 173 163 168
f 18 28 26
f 51 73 82
f 172 165 166
f 166 169 171
f 165 172 117
f 169 163 173
f 168 162 170
f 164 170 162
f 80 161 164
f 70 52 161
f 136 137 115
f 136 146 137
f 114 165 117
f 161 52 110
f 81 78 77
f 82 73 165
f 146 144 147
f 162 80 164
f 73 79 165
f 169 77 163
f 74 78 81
f 164 161 167
f 161 110 167
f 163 162 168
f 75 80 162
f 171 177 172
f 141 172 179
f 147 144 178
f 172 141 117
f 53 110 52
f 175 170 147
f 76 75 162
f 79 74 81
f 80 70 161
f 28 27 26
f 77 76 163
f 163 76 162
f 166 171 172
f 171 169 173
f 174 137 146
f 170 174 147
f 174 167 137
f 173 168 175
f 170 164 174
f 168 170 175
f 167 115 137
f 174 164 167
f 116 136 115
f 141 179 152
f 152 179 149
f 116 115 110
f 53 116 110
f 89 90 92
f 97 90 98
f 92 90 97
f 90 88 98
f 96 89 95
f 95 89 92
f 87 89 96
f 37 87 91
f 85 41 93
f 87 83 89
f 156 198 195
f 91 87 96
f 94 59 186
f 56 55 91
f 59 94 42
f 37 91 55
f 42 94 93
f 93 41 42
f 88 93 94
f 88 85 93
f 120 119 121
f 119 56 100
f 99 95 182
f 182 92 183
f 183 97 184
f 98 94 187
f 153 154 121
f 99 96 95
f 94 98 88
f 56 91 100
f 91 96 181
f 181 96 99
f 95 92 182
f 92 97 183
f 97 98 184
f 156 159 198
f 158 200 159
f 198 159 200
f 158 160 200
f 160 154 197
f 153 121 192
f 153 192 197
f 190 191 194
f 189 190 193
f 185 189 193
f 192 180 185
f 189 182 190
f 191 184 187
f 187 188 191
f 192 185 196
f 160 197 200
f 197 199 200
f 197 196 199
f 200 199 198
f 199 194 198
f 198 191 195
f 195 155 156
f 195 188 155
f 191 188 195
f 154 153 197
f 194 191 198
f 193 190 194
f 196 185 193
f 199 193 194
f 196 193 199
f 197 192 196
f 83 4 84
f 84 34 5
f 34 84 4
f 41 85 36
f 5 36 85
f 37 35 87
f 83 86 89
f 86 88 90
f 89 86 90
f 5 85 84
f 86 83 84
f 86 84 85
f 86 85 88
f 35 4 83
f 35 83 87
f 190 184 191
f 184 98 187
f 187 94 188
f 94 186 188
f 182 183 190
f 185 99 189
f 180 181 185
f 35 37 38
f 186 123 188
f 119 120 57
f 56 119 57
f 55 56 57
f 37 55 38
f 192 121 180
f 155 188 123
f 121 119 180
f 123 186 59
f 100 181 180
f 183 184 190
f 99 182 189
f 181 99 185
f 100 91 181
f 119 100 180
f 140 141 152
f 160 130 154
f 124 157 156
f 155 124 156
f 128 154 130
f 154 128 121
f 149 148 152
f 140 152 148
f 124 138 157
f 157 159 156
f 132 130 160
f 157 133 159
f 159 133 158
f 158 132 160
f 36 6 40
f 38 39 35
f 39 38 12
f 40 41 36
f 40 42 41
f 43 9 11
f 43 11 44
f 11 10 44
f 46 44 10
f 46 10 12
f 5 34 4
f 35 33 4
f 46 12 45
f 5 6 36
f 33 35 39
f 54 111 50
f 51 31 32
f 51 54 31
f 50 31 54
f 47 43 101
f 48 47 106
f 47 101 106
f 48 106 107
f 48 107 53
f 50 112 49
f 112 50 111
f 51 113 54
f 111 54 113
f 114 113 51
f 55 12 38
f 12 55 45
f 57 45 55
f 44 46 43
f 24 9 47
f 25 24 48
f 24 47 48
f 9 43 47
f 23 32 31
f 28 25 48
f 28 48 53
f 30 29 49
f 31 50 29
f 49 29 50
f 10 39 12
f 1 14 2
f 15 1 3
f 11 8 10
f 1 15 14
f 15 24 14
f 16 14 18
f 16 2 14
f 2 16 13
f 3 1 4
f 33 3 4
f 8 3 33
f 1 5 4
f 5 1 2
f 5 2 6
f 7 15 3
f 8 7 3
f 7 9 15
f 9 7 11
f 8 11 7
f 8 33 39
f 10 8 39
f 30 21 29
f 17 23 22
f 14 24 25
f 15 9 24
f 18 14 25
f 18 25 28
f 40 20 30
f 23 31 22
f 29 22 31
f 2 13 19
f 6 2 19
f 19 13 20
f 20 13 21
f 21 13 17
f 120 45 57
f 21 17 22
f 21 22 29
f 6 19 20
f 40 6 20
f 20 21 30
f 132 158 133
f 133 151 132
f 135 134 142
f 134 125 142
f 131 130 132
f 136 135 146
f 140 139 118
f 150 139 140
f 118 117 140
f 123 122 124
f 124 155 123
f 125 127 143
f 127 126 129
f 126 128 130
f 141 140 117
f 130 129 126
f 143 127 129
f 131 129 130
f 151 139 150
f 133 138 139
f 133 157 138
f 143 129 131
f 131 132 145
f 145 132 151
f 148 150 140
f 145 151 150
f 145 150 148
f 151 133 139
f 142 125 143
f 142 143 144
f 143 131 144
f 144 131 145
f 144 145 148
f 146 135 142
f 146 142 144
f 148 149 144
f 126 104 128
f 103 46 105
f 105 45 104
f 102 103 125
f 103 127 125
f 105 127 103
f 105 126 127
f 126 105 104
f 105 46 45
f 106 101 108
f 107 106 109
f 101 102 108
f 109 106 108
f 53 107 109
f 42 58 59
f 40 30 58
f 30 49 58
f 42 40 58
f 58 49 122
f 59 58 122
f 49 112 122
f 101 43 102
f 103 102 43
f 43 46 103
f 45 120 104
f 121 104 120
f 104 121 128
f 123 59 122
f 122 112 124
f 112 138 124
f 108 102 134
f 109 108 135
f 108 134 135
f 134 102 125
f 53 109 116
f 116 109 136
f 136 109 135
f 138 112 111
f 111 118 139
f 138 111 139
f 113 114 118
f 113 118 111
f 118 114 117

