# https://github.com/mikedh/trimesh
v 0.07854673 0.18000194 0.99199662
v -0.15733860 -0.03843774 0.99657137
v 0.32811738 -0.08197950 0.98493543
v -0.19158474 0.26252707 0.97989413
v 0.00296447 -0.26555663 0.98420294
v 0.30521967 0.24405172 0.97480181
v -0.42745744 0.07804801 0.97550638
v 0.46115058 -0.36299666 0.94248189
v 0.08754725 0.40500070 0.96186466
v -0.40221346 -0.28432368 0.96105526
v 0.50140729 0.02510249 0.96791922
v -0.73761435 0.28141613 0.91037546
v 0.04286541 -0.42444983 0.95889028
v 0.68035843 0.42671279 0.89629904
v -0.56226871 -0.14291168 0.95492735
v 0.89500091 -0.18509999 0.88572896
v -0.12555383 0.58095520 0.91981253
v -0.37596366 -0.42820324 0.93977145
v 0.79404732 0.20829742 0.90724238
v -0.68272070 0.31624916 0.91598180
v 0.59180338 -0.61499306 0.86275488
v 0.30363712 0.71985884 0.86408417
v -0.90943483 -0.32347802 0.86413325
v 1.03697995 -0.27904250 0.83460266
v -0.43131855 0.58694952 0.89463715
v -0.27084339 -0.74015101 0.85917626
v 0.77433248 0.51044663 0.85691291
v -1.05871325 -0.24993049 0.83187693
v 0.64433350 -0.48065272 0.89080295
v 0.02781381 0.88854643 0.80555021
v -0.40314971 -0.68529905 0.86639541
v 1.02929007 0.27439366 0.83766188
v -1.16272755 0.22802598 0.79931652
v 0.37431250 -0.68567424 0.86949259
v 0.44700192 0.87758034 0.77958941
v -1.00243613 -0.50841040 0.79617834
v 1.23486436 -0.31907372 0.75731729
v -0.57077848 0.83269620 0.78126998
v -0.06202397 -0.89922540 0.79978602
v 1.13205646 0.34255331 0.79212354
v -1.18232446 -0.07599925 0.80495972
v 0.42991041 -0.82633348 0.80642147
v -0.05545751 0.88817574 0.80537469
v -0.99133828 -0.37754878 0.83123981
v 1.29717425 0.26487364 0.74037382
v -1.07347351 0.52711593 0.76708815
v 0.42765022 -0.89907235 0.77137576
v 0.64619462 0.71135114 0.81896896
v -1.14956490 -0.00320158 0.81830348
v 0.86564696 -0.61138961 0.80407196
v -0.30702472 1.00992200 0.72327464
v -0.66777643 -0.80654930 0.77420790
v 1.15554634 0.32948914 0.78608390
v -1.12872035 0.33704412 0.79436092
v 0.90735288 -0.82142677 0.70305930
v 0.36118048 1.09083157 0.66222104
v -1.24726584 -0.23431860 0.76595017
v 1.33184829 -0.33460158 0.71188891
v -0.57978790 0.99396469 0.69055455
v 0.16631310 -1.05751850 0.70430291
v 1.24051773 0.63802485 0.65905721
v -1.33608164 0.10291641 0.74095479
v 0.99537389 -0.65187687 0.75062903
v 0.25785335 1.05823339 0.69689546
v -0.91250301 -0.92600036 0.64088519
v 1.31820038 0.42592827 0.69638933
v -1.29755046 0.40284806 0.71201358
v 0.67053965 -0.99425956 0.66950554
v 0.94537513 0.89020097 0.65143151
v -1.51380761 -0.32709530 0.61607218
v 1.29878794 -0.74259598 0.57723403
v -0.85832582 0.92835963 0.65785564
v -0.44126260 -1.13785517 0.61310130
v 1.23099991 0.74640769 0.61118650
v -1.42583730 0.04479685 0.70061053
v 0.73398668 -0.94841489 0.68230653
v -0.10458129 1.18445758 0.61134025
v -1.07187627 -0.74707330 0.68170202
v 1.67423023 0.15451875 0.53723990
v -0.97006550 0.87123297 0.65375000
v -0.37769094 -1.18640140 0.58203125
v 0.96917231 1.01685118 0.55283522
v -1.48289823 -0.16899969 0.66148279
v 1.08524142 -0.83896780 0.62668413
v -0.15288684 1.19985229 0.59524277
v -0.64964983 -1.14310563 0.56012271
v 1.46356279 0.64267888 0.53002299
v -1.52602641 0.43676097 0.57708627
v 0.63138744 -1.21256730 0.49685225
v 0.58119398 1.17860215 0.54605336
v -1.71463863 -0.24500263 0.48818566
v 1.54380759 -0.26073251 0.61151497
v -0.66722106 1.08943152 0.60100767
v -0.77134765 -1.03943227 0.60915456
v 1.13244971 0.97688857 0.50522378
v -1.73637435 0.18741991 0.48024928
v 0.65858018 -1.11774778 0.57991110
v 0.24302708 1.22485055 0.56431617
v -0.85065911 -1.09960197 0.53075993
v 1.63813625 -0.14617923 0.56535861
v -1.50027471 0.77849580 0.40979978
v -0.07559355 -1.25528862 0.54611197
v 1.15149506 1.01458885 0.45935594
v -1.77972926 0.07679222 0.45334317
v 1.51867182 -0.77894674 0.39209532
v -0.17244909 1.32507665 0.46064874
v -0.85916503 -1.18937381 0.43213804
v 1.49786813 0.56094953 0.54703468
v -1.73896057 0.36524504 0.42978297
v 0.87631944 -1.15418027 0.46471211
v 0.02210915 1.33439169 0.45661745
v -1.52343994 -0.72464431 0.43174153
v 1.78366113 -0.15167637 0.44092344
v -0.73036345 1.16271218 0.51555605
v -0.42875376 -1.29279022 0.45960814
v 1.56493762 0.67567841 0.42992477
v -1.74853979 -0.17791232 0.47072735
v 1.02779492 -1.12309837 0.41869969
v -0.04616388 1.37661345 0.39650510
v -0.96568040 -1.22813504 0.31064903
v 1.71050636 0.57121711 0.35146076
v -1.56649970 0.75134779 0.36826667
v 0.58943239 -1.30376375 0.39708404
v 0.44964930 1.28308187 0.46665340
v -1.80685302 -0.43764226 0.31415881
v 1.74191743 -0.53074219 0.34093485
v -0.95623020 1.23580617 0.30437294
v -0.11351246 -1.39078417 0.37026810
v 1.46241987 0.85915416 0.37049588
v -1.83036419 0.37846435 0.31429543
v 1.03541503 -1.18868170 0.32248232
v -0.19881264 1.43572386 0.27199949
v -1.70775884 -0.67915639 0.25668740
v 1.85556093 -0.15892414 0.35776826
v -0.93067898 1.26273302 0.27348648
v 0.60627298 -1.31540435 0.37294921
v 1.52188863 0.81645294 0.35312763
v -1.83648756 -0.08282704 0.39214708
v 1.72321302 -0.61599554 0.29831117
v -0.32559742 1.42849659 0.25799638
v -1.38297497 -1.02396298 0.23631542
v 1.68160610 0.62670646 0.34422346
v -1.65276585 0.69663756 0.31843468
v 1.13315319 -1.19715306 0.20499781
v 0.62579205 1.39252529 0.20065393
v -1.88729934 -0.36879379 0.22153310
v 1.89236596 -0.05816885 0.32130039
v -0.71548861 1.33749410 0.27741049
v -0.34601113 -1.40899863 0.29618184
v 1.51371077 0.92464185 0.21722470
v -1.85333166 -0.24561162 0.33834790
v 1.55083844 -0.89864546 0.19951904
v 0.37915455 1.38583800 0.33239138
v -1.60283013 -0.84746078 0.19631209
v 1.90399707 -0.26744283 0.24881641
v -1.47452070 0.95415348 0.22764229
v 0.57725551 -1.36492508 0.29780013
v 1.20238698 1.12314322 0.27914447
v -1.69883157 -0.70678459 0.23764062
v 1.89793222 -0.41872845 0.14675598
v -0.95639901 1.27343760 0.22493304
v -1.12538338 -1.18048896 0.25302301
v 1.62130171 0.84218472 0.16616803
v -1.89356993 0.36778590 0.20851810
v 0.56103803 -1.42267882 0.14746813
v 0.64164017 1.40494796 0.14069476
v -1.34735215 -1.10354046 0.07011000
v 1.95335591 -0.15352974 0.18874322
v -1.52208651 0.91354838 0.22336715
v 0.46267019 -1.42973831 0.19486465
v 1.64849164 0.81569123 0.15781871
v -1.96849162 -0.25340788 0.05215306
v 1.21921612 -1.18599374 0.05684046
v -0.17396211 1.49189484 0.05667427
v -1.28098723 -1.15004486 0.04409414
v 1.92015104 0.36727420 0.13529129
v -1.70460240 0.73186491 0.18848489
v 0.87467104 -1.33814193 0.11359943
v 1.04308591 1.27942849 0.02157032
v -1.74224777 -0.69386827 0.16481502
v 1.98703534 -0.16340717 0.03248275
v -0.97120113 1.29421968 0.14051908
v -0.17287510 -1.48643155 0.10265476
v 1.88487738 0.43074470 0.17130865
v -1.98757471 -0.02088003 0.11042160
v 0.90722174 -1.33627486 -0.02497253
v 0.39353956 1.46939435 0.04090075
v -1.62813078 -0.85593042 0.10812048
v 1.99099646 0.10241199 0.06574075
v -1.34842519 1.10370342 0.06350100
v 0.34650807 -1.47696854 0.02135165
v 0.91072870 1.32203647 0.12590478
v -1.92364797 -0.40456066 -0.04639722
v 1.69052271 -0.79943080 0.03864486
v -0.44674392 1.45713104 0.08029198
v -1.36795531 -1.09308297 0.03374678
v 1.91837052 0.42344568 0.01649150
v -1.64897163 0.84847325 -0.01626453
v 0.53764758 -1.44465194 -0.01302552
v 0.70139724 1.40296192 0.04700558
v -1.43409683 -1.04477851 0.02651116
v 1.99679592 -0.08487046 -0.00042494
v -1.58262431 0.91297361 0.05806353
v -0.81279291 -1.36460981 -0.08494279
v 1.13759430 1.22971394 0.06620069
v -1.95626769 0.26887042 -0.10547374
v 1.53430690 -0.96215727 0.00571346
v 0.12367044 1.48499408 -0.12682359
v -0.85538883 -1.35325202 -0.05630602
v 1.84294097 0.57229287 -0.07299378
v -1.46487728 1.01988916 -0.03513013
v 0.93975881 -1.30782097 -0.13797636
v 1.27234965 1.14605358 -0.10738251
v -1.97090581 -0.10833510 -0.15383872
v 1.66482675 -0.82992568 -0.03106491
v -0.32672326 1.46737370 -0.12783433
v -0.45774931 -1.45144779 -0.10632483
v 1.45166742 1.02939655 -0.04697488
v -1.78974012 0.66303028 -0.06185252
v 0.72164187 -1.39891210 -0.00710246
v -0.02891313 1.48596956 -0.13568628
v -1.52320738 -0.94055805 -0.16365295
v 1.98010120 -0.04182843 -0.13792101
v -1.27514747 1.14773293 -0.08965001
v 0.11935206 -1.49295893 -0.07618945
v 1.33819599 1.09892696 -0.12481498
v -1.93063889 -0.26354035 -0.19310654
v 1.69418762 -0.74037901 -0.19698968
v -0.32138432 1.46082408 -0.16040724
v -0.92111507 -1.30330607 -0.18152255
v 1.86810975 0.48562746 -0.15075265
v -1.84226854 0.57731451 -0.05815379
v 0.71296839 -1.38239742 -0.15354359
v 1.01786044 1.23916687 -0.24193023
v -1.73401542 -0.66971310 -0.22126307
v 1.92587052 -0.34367316 -0.14234396
v -1.04145331 1.26775027 -0.12056848
v -0.32936319 -1.47078718 -0.10700989
v 1.53358563 0.92204736 -0.18486441
v -1.95859922 -0.22401689 -0.13663261
v 1.11783145 -1.18502716 -0.25196152
v 0.29024403 1.42744224 -0.27081994
v -0.90942717 -1.27833683 -0.25874479
v 1.94404769 0.17229381 -0.20488104
v -1.51057102 0.88270607 -0.28852386
v 0.61089563 -1.37065219 -0.26782352
v 0.91730017 1.26786289 -0.27423745
v -1.89913120 -0.09249926 -0.30744504
v 1.74788524 -0.59553292 -0.28035311
v -0.23506351 1.46840715 -0.16693256
v -1.08374808 -1.23723423 -0.16136866
v 1.85001396 0.49251604 -0.19118653
v -1.79433654 0.53098145 -0.26416254
v 0.74871186 -1.36353997 -0.18310705
v 0.92103585 1.21373697 -0.36494740
v -1.42135819 -1.01983129 -0.18079872
v 1.95705067 -0.07724659 -0.19958995
v -1.44250174 0.98671054 -0.21699561
v -0.33654051 -1.44613763 -0.20545610
v 1.02978161 1.23281944 -0.24372389
v -1.91481465 0.13377423 -0.27462272
v 1.36628351 -0.97924106 -0.32731294
v -0.30825273 1.42914077 -0.26171066
v -0.85524118 -1.28766234 -0.28322908
v 1.92255263 0.05303035 -0.27330930
v -1.75567507 0.59169091 -0.27166541
v 0.53939786 -1.32722597 -0.37994843
v 0.62469556 1.36300099 -0.27706056
v -1.84090563 -0.25073473 -0.35330628
v 1.54477620 -0.82025317 -0.32309074
v -1.28822094 1.07052018 -0.27528602
v 0.00562207 -1.38207719 -0.38864144
v 1.72224917 0.54855761 -0.35316321
v -1.88403435 0.14914004 -0.32049645
v 0.83804453 -1.22465240 -0.39730886
v 0.53027954 1.31655824 -0.39916659
v -1.59884312 -0.76146284 -0.32128629
v 1.78192366 0.35458664 -0.38769353
v -1.52711600 0.64928247 -0.47918237
v 0.37752264 -1.33252622 -0.41857137
v 0.88373243 1.18653576 -0.42312590
v -1.83968395 -0.31146907 -0.33282707
v 1.42346653 -0.88203470 -0.38427145
v -0.87468210 1.19726099 -0.41430796
v -1.26218223 -1.02423238 -0.36807429
v 1.77375910 0.41388731 -0.37055381
v -1.84661592 0.23674923 -0.35013028
v 0.49713620 -1.32551855 -0.39664250
v 0.91518080 1.11191017 -0.49104450
v -1.71211268 -0.36110278 -0.45739929
v 1.73536780 -0.02613738 -0.49681085
v -0.71000744 1.24669443 -0.42801391
v -0.71409738 -1.25009652 -0.42185844
v 0.98792721 1.00923319 -0.55073619
v -1.72563288 -0.28757096 -0.46775372
v 1.38094896 -0.73775171 -0.53041855
v 0.20773985 1.34940297 -0.42417840
v -1.29284494 -0.79878903 -0.54640098
v 1.66647438 0.35464514 -0.49981656
v -1.58806413 0.46670626 -0.52221311
v 0.30579099 -1.27422029 -0.50498155
v 1.16843476 1.00809648 -0.45499407
v -1.77332947 -0.10101056 -0.45748324
v 1.69891253 -0.24035364 -0.50274104
v -0.82893628 1.06753491 -0.56719802
v -0.25757616 -1.21100430 -0.57586620
v 1.64762423 0.33949107 -0.51972062
v -1.65011744 0.47332397 -0.46872886
v 0.62138099 -1.17969595 -0.53380318
v 0.67719769 1.20082896 -0.49443532
v -1.48383311 -0.55473273 -0.55927779
v 1.56082629 -0.35553514 -0.57859763
v -0.77008422 1.06642114 -0.58846948
v -0.47694908 -1.20117280 -0.54943452
v 0.98856787 1.01704281 -0.54402269
v -1.62001233 -0.21424021 -0.56876227
v 1.22163143 -0.74620731 -0.61597584
v -0.36814404 1.16799046 -0.59983799
v -1.04288321 -0.86064557 -0.63158044
v 1.69587775 0.08594944 -0.52698806
v -1.34564862 0.52863848 -0.65046415
v 0.83520655 -1.05393245 -0.57613396
v 0.87050216 0.91665784 -0.66114060
v -1.38370090 -0.48924753 -0.64417337
v 1.59870464 -0.16575022 -0.59061458
v -0.65688422 1.00831057 -0.66352353
v -0.46937862 -1.03396121 -0.68540217
v 1.13868272 0.62661002 -0.70805628
v -1.58202647 0.08318483 -0.60928042
v 0.72755591 -0.98080478 -0.66341526
v -0.10568850 1.17460945 -0.61968074
v -0.86035713 -0.90401372 -0.67210733
v 1.58893936 -0.15773159 -0.59813082
v -0.77395423 0.85219025 -0.72627861
v 0.23039114 -1.02917934 -0.71831047
v 1.01732170 0.91549030 -0.60726045
v -1.52420696 0.10574582 -0.64360580
v 1.02480482 -0.84589765 -0.64763009
v -0.56310184 0.90941537 -0.74374551
v -0.40283625 -0.93280482 -0.75677513
v 1.32002117 0.24407437 -0.73342310
v -1.25258703 0.26717375 -0.75896718
v 0.51056246 -0.99695037 -0.70220631
v 0.26572457 1.08070304 -0.68064122
v -0.98664769 -0.55513025 -0.78718951
v 1.43344093 -0.29253599 -0.66953523
v -1.02434252 0.75878627 -0.69411006
v 0.19217452 -0.96105604 -0.76175166
v 1.15417943 0.65086575 -0.69187365
v -1.30756896 0.09843482 -0.75382985
v 1.19659356 -0.49031435 -0.73156879
v 0.16530605 0.88238771 -0.80443797
v -0.65190500 -0.80360590 -0.77893552
v 1.31872200 -0.02743807 -0.75160393
v -1.13952684 0.32084765 -0.79348415
v 0.37679088 -0.82895135 -0.81185132
v 0.74530989 0.66752677 -0.81430179
v -1.28983073 -0.24560583 -0.74650807
v 1.12263279 -0.51322663 -0.75356256
v -0.69151722 0.79195520 -0.77569228
v -0.42085358 -0.85256447 -0.79540488
v 0.88817401 0.62562223 -0.79298787
v -1.23048281 -0.01517753 -0.78827383
v 0.57895243 -0.78999445 -0.79926819
v 0.37367228 0.73990648 -0.84957401
v -0.86270624 -0.42389552 -0.85678085
v 0.96341507 0.13280928 -0.87184781
v -0.80646132 0.33944907 -0.88667560
v 0.08523053 -0.74610934 -0.86647042
v 0.43287166 0.73171154 -0.84569450
v -1.13974753 -0.08163157 -0.81992819
v 0.92000339 -0.45824382 -0.83370901
v -0.12336314 0.75884124 -0.86038740
v -0.32395758 -0.60356987 -0.90102901
v 1.01202827 0.25730034 -0.84529636
v -1.06368434 0.15311615 -0.84066884
v 0.50457679 -0.72047486 -0.84002771
v 0.23743470 0.79835678 -0.83822972
v -0.62740559 -0.36793727 -0.91729092
v 0.88291938 -0.07598590 -0.89584998
v -0.36366666 0.46660542 -0.93283006
v -0.33974855 -0.69977082 -0.86804811
v 0.52029918 0.36105700 -0.93508473
v -0.90365972 -0.02407545 -0.89195973
v 0.34323304 -0.53914970 -0.91725438
v -0.16203403 0.66041326 -0.89420005
v -0.36218118 -0.40512709 -0.94565345
v 0.82303535 0.03678403 -0.91107181
v -0.72662329 0.30002148 -0.90994446
v -0.03428282 -0.38042020 -0.96715375
v 0.48049928 0.36240906 -0.94016309
v -0.46845364 -0.01484387 -0.97213161
v 0.49366711 -0.17669078 -0.96187203
v -0.07535175 0.38911281 -0.96503251
v -0.26427335 -0.39684846 -0.95527217
v 0.24577308 0.08206914 -0.99091140
v -0.40694418 0.02171718 -0.97897369
v 0.14122973 -0.13448800 -0.99346609
v 0.08815569 0.19893735 -0.99018573
v -0.23428013 -0.11183817 -0.99031267
f 344 323 370
f 331 318 297
f 297 344 331
f 373 339 331
f 331 339 318
f 384 389 392
f 148 127 114
f 80 72 114
f 114 127 80
f 78 112 65
f 112 78 70
f 158 124 90
f 297 318 263
f 263 242 297
f 344 370 352
f 373 331 352
f 352 331 344
f 391 370 383
f 316 329 337
f 337 358 316
f 363 358 337
f 359 351 317
f 372 351 359
f 359 364 372
f 385 390 398
f 369 390 385
f 398 390 400
f 374 390 369
f 209 183 149
f 217 183 209
f 272 246 225
f 143 177 130
f 222 188 235
f 174 140 132
f 195 140 174
f 148 140 195
f 20 7 4
f 133 112 125
f 125 112 91
f 112 70 91
f 333 291 325
f 249 312 304
f 291 265 304
f 304 325 291
f 312 325 304
f 160 139 194
f 194 139 152
f 152 139 105
f 118 152 105
f 32 19 16
f 32 24 45
f 16 24 32
f 16 19 11
f 11 8 16
f 19 6 11
f 16 8 29
f 29 24 16
f 189 181 202
f 202 223 189
f 153 132 119
f 82 69 95
f 90 69 82
f 310 344 297
f 310 323 344
f 305 334 347
f 360 339 373
f 360 334 339
f 347 334 360
f 394 381 386
f 386 360 373
f 381 360 386
f 397 381 394
f 397 400 392
f 397 392 389
f 389 381 397
f 232 177 219
f 148 195 182
f 182 195 237
f 237 224 182
f 221 208 242
f 242 263 221
f 174 208 221
f 373 352 378
f 378 352 370
f 378 386 373
f 394 391 399
f 398 400 399
f 399 397 394
f 400 397 399
f 329 316 303
f 303 287 329
f 358 363 371
f 376 389 384
f 384 371 376
f 376 371 363
f 342 355 376
f 337 342 350
f 350 363 337
f 342 376 350
f 350 376 363
f 301 309 288
f 306 335 301
f 301 272 306
f 372 364 377
f 377 385 372
f 364 356 377
f 369 385 377
f 377 356 369
f 320 291 333
f 320 265 291
f 349 273 299
f 349 323 336
f 346 312 351
f 333 325 346
f 346 325 312
f 372 385 393
f 393 380 372
f 393 385 398
f 383 367 388
f 367 380 388
f 380 393 388
f 293 285 319
f 319 332 293
f 319 285 298
f 382 374 369
f 353 374 382
f 392 400 387
f 225 183 238
f 238 183 217
f 293 272 259
f 259 238 217
f 259 272 225
f 225 238 259
f 248 214 261
f 232 219 266
f 266 219 245
f 337 329 300
f 49 15 12
f 12 7 20
f 15 7 12
f 46 12 20
f 54 12 46
f 143 130 109
f 164 177 232
f 164 130 177
f 146 133 125
f 277 222 235
f 298 285 277
f 285 256 277
f 277 256 222
f 277 311 298
f 188 222 201
f 201 141 188
f 222 256 201
f 302 349 336
f 273 349 302
f 237 195 216
f 216 195 174
f 174 221 216
f 101 88 80
f 80 127 101
f 127 156 101
f 169 177 143
f 169 101 156
f 93 114 72
f 38 72 80
f 80 46 38
f 90 124 98
f 95 69 74
f 74 69 61
f 74 129 95
f 95 129 103
f 103 129 158
f 103 82 95
f 103 158 90
f 90 82 103
f 66 108 61
f 116 108 121
f 235 188 180
f 180 193 235
f 180 146 193
f 133 146 180
f 188 141 154
f 154 180 188
f 154 141 112
f 185 146 151
f 125 91 151
f 151 146 125
f 88 75 67
f 54 46 67
f 80 88 67
f 67 46 80
f 83 91 70
f 70 57 83
f 83 57 75
f 120 209 149
f 278 320 299
f 265 320 278
f 249 304 236
f 236 223 202
f 202 181 236
f 181 160 236
f 236 160 194
f 317 351 296
f 351 312 296
f 296 312 249
f 249 236 228
f 194 152 207
f 199 233 220
f 225 246 199
f 246 233 199
f 149 183 128
f 102 115 128
f 128 115 149
f 144 152 131
f 152 118 131
f 178 144 131
f 136 131 110
f 110 131 118
f 110 118 84
f 61 69 48
f 48 69 35
f 35 22 48
f 9 4 1
f 1 6 9
f 1 4 2
f 2 4 7
f 2 7 15
f 3 5 8
f 8 11 3
f 1 2 3
f 3 2 5
f 3 6 1
f 3 11 6
f 89 110 97
f 50 63 24
f 24 29 50
f 126 160 155
f 139 160 126
f 105 139 126
f 84 118 71
f 71 118 105
f 71 63 84
f 105 126 71
f 45 24 37
f 24 63 37
f 147 189 176
f 176 189 197
f 192 158 205
f 174 132 187
f 132 153 187
f 187 208 174
f 242 208 187
f 187 268 242
f 276 310 297
f 297 242 276
f 242 268 276
f 292 305 284
f 292 263 318
f 284 237 292
f 237 263 292
f 318 339 326
f 339 334 326
f 368 381 389
f 368 360 381
f 389 376 368
f 368 376 355
f 368 355 347
f 347 360 368
f 198 219 177
f 245 219 198
f 271 237 284
f 271 224 237
f 284 305 271
f 148 182 161
f 161 156 127
f 365 378 370
f 370 391 365
f 365 391 394
f 394 386 365
f 386 378 365
f 274 303 248
f 287 303 274
f 248 261 274
f 274 261 287
f 316 311 290
f 290 277 235
f 311 277 290
f 338 359 317
f 364 359 338
f 283 322 338
f 317 296 338
f 338 296 283
f 343 309 301
f 301 335 343
f 343 356 364
f 309 322 275
f 246 272 280
f 280 288 246
f 280 272 301
f 301 288 280
f 369 356 348
f 348 343 335
f 356 343 348
f 327 332 353
f 299 320 307
f 307 320 341
f 307 349 299
f 341 349 307
f 357 370 323
f 383 370 357
f 375 341 367
f 375 367 383
f 354 380 367
f 367 341 354
f 354 346 351
f 333 346 354
f 354 351 372
f 372 380 354
f 354 320 333
f 341 320 354
f 396 399 391
f 396 388 393
f 398 399 396
f 396 393 398
f 396 391 383
f 383 388 396
f 324 316 358
f 324 311 316
f 298 311 324
f 324 319 298
f 390 374 395
f 374 387 395
f 395 400 390
f 395 387 400
f 384 392 379
f 392 387 379
f 379 387 374
f 264 285 293
f 264 243 285
f 293 259 264
f 264 259 217
f 251 256 285
f 285 243 251
f 251 209 175
f 206 214 185
f 206 261 214
f 185 164 206
f 206 164 232
f 287 261 206
f 329 287 308
f 308 300 329
f 321 342 337
f 337 300 321
f 347 355 321
f 321 355 342
f 104 83 75
f 172 146 185
f 193 146 172
f 172 240 193
f 185 214 172
f 214 240 172
f 227 214 248
f 227 240 214
f 235 193 227
f 193 240 227
f 141 201 167
f 218 213 205
f 260 234 213
f 234 260 247
f 229 263 237
f 237 216 229
f 122 169 143
f 101 169 122
f 143 109 122
f 122 109 88
f 88 101 122
f 203 169 156
f 211 198 203
f 177 169 203
f 203 198 177
f 85 93 51
f 114 93 85
f 51 93 59
f 59 38 51
f 59 93 72
f 72 38 59
f 90 98 56
f 35 69 56
f 56 69 90
f 111 98 124
f 111 153 119
f 124 153 111
f 61 108 87
f 87 74 61
f 108 116 87
f 129 74 87
f 87 116 129
f 40 66 61
f 129 116 137
f 133 180 159
f 180 154 159
f 112 133 159
f 159 154 112
f 75 57 41
f 44 23 28
f 28 57 44
f 28 41 57
f 49 41 28
f 28 15 49
f 28 23 15
f 44 57 36
f 36 70 78
f 36 57 70
f 36 23 44
f 36 31 23
f 62 67 75
f 62 41 49
f 75 41 62
f 81 115 102
f 86 73 94
f 115 81 86
f 86 81 73
f 162 167 175
f 141 167 162
f 175 209 162
f 209 120 162
f 273 252 286
f 299 273 286
f 286 278 299
f 265 278 244
f 223 265 244
f 244 286 252
f 278 286 244
f 244 189 223
f 244 197 189
f 257 304 265
f 257 236 304
f 257 265 223
f 223 236 257
f 270 296 249
f 283 296 270
f 249 228 270
f 194 207 215
f 215 207 228
f 215 236 194
f 215 228 236
f 191 183 225
f 225 199 191
f 102 128 123
f 123 89 102
f 123 110 89
f 136 110 123
f 32 40 27
f 61 48 27
f 27 40 61
f 51 38 43
f 20 4 25
f 25 43 38
f 25 46 20
f 25 38 46
f 10 2 15
f 5 2 10
f 15 23 10
f 63 50 55
f 84 63 55
f 84 55 76
f 68 97 76
f 76 110 84
f 76 97 110
f 92 100 45
f 92 71 126
f 92 113 100
f 126 113 92
f 184 147 176
f 176 197 184
f 184 197 210
f 181 189 168
f 189 147 168
f 168 147 155
f 155 160 168
f 168 160 181
f 231 252 210
f 210 197 231
f 231 244 252
f 197 244 231
f 192 166 145
f 145 153 124
f 145 187 153
f 166 187 145
f 124 158 145
f 158 192 145
f 200 166 192
f 200 187 166
f 268 187 200
f 200 247 268
f 234 247 200
f 334 305 313
f 313 326 334
f 318 326 313
f 313 292 318
f 305 292 313
f 211 224 258
f 224 271 258
f 258 271 245
f 258 198 211
f 245 198 258
f 135 127 148
f 148 161 135
f 135 161 127
f 156 161 190
f 190 161 182
f 211 203 190
f 190 203 156
f 190 224 211
f 190 182 224
f 295 303 316
f 316 290 295
f 330 322 309
f 309 343 330
f 330 338 322
f 364 338 330
f 330 343 364
f 262 322 283
f 262 275 322
f 283 270 262
f 228 207 262
f 262 270 228
f 254 233 246
f 246 275 254
f 267 288 309
f 309 275 267
f 246 288 267
f 267 275 246
f 293 332 314
f 332 327 314
f 314 327 306
f 314 272 293
f 314 306 272
f 369 348 340
f 340 327 353
f 340 348 335
f 335 306 340
f 306 327 340
f 323 349 362
f 362 357 323
f 383 357 362
f 362 375 383
f 328 349 341
f 341 375 328
f 328 362 349
f 375 362 328
f 366 371 384
f 384 379 366
f 358 371 366
f 366 374 353
f 366 379 374
f 217 209 204
f 204 264 217
f 232 266 253
f 253 206 232
f 287 206 253
f 253 308 287
f 266 308 253
f 279 321 300
f 300 308 279
f 347 321 279
f 279 266 245
f 279 308 266
f 279 305 347
f 245 271 279
f 279 271 305
f 185 151 138
f 138 164 185
f 130 164 138
f 138 104 130
f 96 75 88
f 96 104 75
f 88 109 96
f 96 109 130
f 130 104 96
f 175 167 196
f 196 167 201
f 196 201 256
f 196 251 175
f 256 251 196
f 205 158 150
f 150 218 205
f 163 218 150
f 158 129 150
f 129 137 150
f 150 137 163
f 210 218 171
f 171 218 163
f 171 184 210
f 163 137 171
f 239 218 210
f 210 252 239
f 239 252 273
f 273 302 239
f 323 310 294
f 336 323 294
f 294 302 336
f 294 315 302
f 255 260 302
f 255 247 260
f 255 276 268
f 268 247 255
f 250 216 221
f 250 229 216
f 250 221 263
f 263 229 250
f 114 85 106
f 106 111 119
f 85 111 106
f 119 132 106
f 106 132 140
f 106 140 148
f 148 114 106
f 64 56 98
f 35 56 64
f 45 66 53
f 66 40 53
f 53 32 45
f 53 40 32
f 142 116 121
f 142 137 116
f 142 171 137
f 121 184 142
f 184 171 142
f 52 36 78
f 31 36 52
f 52 78 65
f 65 94 52
f 94 73 52
f 54 67 33
f 67 62 33
f 33 62 49
f 49 12 33
f 33 12 54
f 115 86 107
f 149 115 107
f 107 120 149
f 107 162 120
f 141 162 107
f 170 128 183
f 183 191 170
f 19 32 14
f 32 27 14
f 14 6 19
f 22 9 14
f 14 9 6
f 14 48 22
f 14 27 48
f 30 22 35
f 35 64 30
f 30 64 43
f 4 9 17
f 17 25 4
f 43 25 17
f 17 9 22
f 22 30 17
f 17 30 43
f 8 5 13
f 13 34 8
f 23 31 18
f 18 10 23
f 5 10 18
f 18 13 5
f 134 126 155
f 134 113 126
f 155 147 134
f 147 113 134
f 100 113 79
f 45 100 79
f 121 108 79
f 79 66 45
f 108 66 79
f 79 113 147
f 79 184 121
f 147 184 79
f 45 37 58
f 58 92 45
f 71 92 58
f 63 71 58
f 58 37 63
f 234 200 179
f 205 213 179
f 213 234 179
f 179 192 205
f 179 200 192
f 282 290 235
f 235 227 282
f 275 262 241
f 241 254 275
f 241 262 207
f 361 382 369
f 369 340 361
f 353 382 361
f 361 340 353
f 345 324 358
f 358 366 345
f 319 324 345
f 345 366 353
f 353 332 345
f 332 319 345
f 243 264 230
f 264 204 230
f 230 251 243
f 209 251 230
f 230 204 209
f 104 138 117
f 91 83 117
f 83 104 117
f 117 151 91
f 117 138 151
f 213 218 226
f 218 239 226
f 226 260 213
f 302 260 226
f 226 239 302
f 302 315 289
f 289 294 310
f 315 294 289
f 77 64 98
f 98 111 77
f 77 111 85
f 77 85 51
f 51 43 77
f 43 64 77
f 21 29 8
f 8 34 21
f 21 50 29
f 39 52 73
f 99 86 94
f 99 107 86
f 99 94 65
f 65 112 99
f 112 141 99
f 141 107 99
f 136 123 157
f 157 123 128
f 128 170 157
f 178 131 157
f 157 131 136
f 269 295 290
f 290 282 269
f 303 295 269
f 248 303 269
f 269 227 248
f 269 282 227
f 173 241 207
f 173 152 144
f 173 207 152
f 173 144 178
f 281 255 302
f 302 289 281
f 281 289 310
f 310 276 281
f 276 255 281
f 68 76 47
f 34 13 26
f 26 39 34
f 26 18 31
f 13 18 26
f 31 52 26
f 52 39 26
f 73 81 60
f 60 39 73
f 60 81 102
f 60 47 39
f 102 89 60
f 89 97 60
f 60 97 68
f 68 47 60
f 178 157 165
f 165 157 170
f 165 220 178
f 165 199 220
f 165 191 199
f 165 170 191
f 254 241 212
f 241 173 212
f 233 254 212
f 34 39 42
f 39 47 42
f 42 21 34
f 42 55 50
f 50 21 42
f 42 76 55
f 42 47 76
f 186 173 178
f 186 212 173
f 178 220 186
f 220 233 186
f 233 212 186

