# https://github.com/mikedh/trimesh
v 0.00000000 0.00000000 2.00000000
v -0.32816635 -0.27101943 1.95418917
v 0.31958108 -0.19399828 1.96474747
v -0.15010417 0.44153835 1.94486828
v -0.04332638 -0.34882630 1.96886847
v 0.46135102 0.16907371 1.93870300
v -0.47902195 0.07408344 1.94037358
v 0.40714016 -0.32471733 1.93100894
v -0.17859392 0.72866328 1.85395632
v -0.56527207 -0.42254308 1.87134306
v 0.55024528 0.03097114 1.92256883
v -0.53882492 0.22273054 1.91312802
v 0.03942143 -0.52794202 1.92865839
v 0.48881333 0.46329738 1.88319331
v -0.63369019 -0.33544590 1.86705993
v 0.57644154 -0.19015620 1.90566413
v -0.37331182 0.66783144 1.84787431
v -0.29634934 -0.81947963 1.80017505
v 0.76204943 0.65462944 1.72937589
v -0.77880900 0.27494439 1.82149996
v 0.54261399 -0.67339931 1.80335893
v 0.12514880 0.85702020 1.80273519
v -0.81371834 -0.44690658 1.77147875
v 0.82138902 -0.07993360 1.82179327
v -0.56472887 0.84629767 1.72187733
v -0.10942414 -0.93055296 1.76694583
v 0.50371869 0.88053897 1.72363529
v -0.95619589 -0.28096376 1.73399792
v 0.81904829 -0.41766346 1.77615234
v -0.35954472 0.91881147 1.73968764
v -0.43937833 -0.77871902 1.78900625
v 1.10752391 -0.06927798 1.66390846
v -0.89944923 0.78027810 1.60690920
v 0.30443590 -0.89389347 1.76302957
v 0.71922116 0.82459629 1.67414512
v -1.15333735 -0.36766849 1.59205303
v 0.86292505 -0.63801605 1.68768951
v -0.41626017 1.06537017 1.64064434
v -0.32999454 -1.25977519 1.51791636
v 1.04310465 0.63950910 1.58207484
v -1.29078163 0.26047342 1.50533597
v 0.57233754 -1.17851934 1.51113266
v -0.04960301 1.12090967 1.65562708
v -1.09422034 -0.67430158 1.53231825
v 1.28717751 -0.34384036 1.49162592
v -0.86989497 1.00295347 1.49578310
v 0.18002857 -1.15980390 1.61939638
v 1.07614750 0.83038706 1.46709368
v -1.35340370 -0.08306161 1.47016978
v 1.05790996 -0.71226530 1.54061827
v -0.12025170 1.26196405 1.54692801
v -0.27420316 -1.34579489 1.45383931
v 1.07760041 0.66303335 1.54892354
v -1.31864567 0.39890972 1.44984297
v 0.60291659 -1.23445243 1.45348505
v 0.64471130 1.16293801 1.49396202
v -1.07550919 -1.08685213 1.28919837
v 1.36833125 -0.45468346 1.38597711
v -0.86893004 1.15816394 1.37971623
v -0.04196061 -1.53562609 1.28066070
v 1.15243539 0.83952667 1.40252902
v -1.46555494 0.49429182 1.26800012
v 1.11269505 -0.80766801 1.45244005
v -0.06558019 1.33987063 1.48339002
v -0.78291991 -1.24764303 1.35293137
v 1.32764467 0.42837396 1.43312783
v -1.19262304 0.66756034 1.46014159
v 0.08978354 -1.38146722 1.44342899
v 1.03431625 1.25353511 1.16569276
v -1.40918601 0.00460667 1.41921583
v 1.51426260 -0.25247918 1.28189821
v -0.84099719 1.16342644 1.39253820
v -0.44927319 -1.40211797 1.35359476
v 1.46344442 0.74473992 1.14179371
v -1.61975965 0.27514941 1.14046985
v 1.08620327 -1.15547458 1.21862256
v 0.45100262 1.57991363 1.14038133
v -1.23466038 -1.00237764 1.21278720
v 1.64632256 -0.32477084 1.08818470
v -0.85218705 1.20590008 1.34891892
v -0.45059393 -1.47719254 1.27077429
v 1.35174916 0.97254359 1.10767016
v -1.58722695 -0.41463897 1.14402148
v 1.14598008 -1.25831876 1.05041114
v -0.65355729 1.39248828 1.27821722
v -1.23030014 -1.23445989 0.98105573
v 1.57536117 0.75379396 0.97469577
v -1.54797719 0.65292573 1.08510581
v 0.45300974 -1.48724801 1.25812381
v 0.71938142 1.52445793 1.07634492
v -1.57984441 -0.67497523 1.02396293
v 1.63728659 -0.59267612 0.98388396
v -0.52878205 1.69829996 0.91442155
v -0.24415670 -1.72738782 0.97801781
v 1.40222868 1.02707308 0.98938142
v -1.64147347 0.16231323 1.13102576
v 1.42206612 -1.03273375 0.95456218
v 0.39092753 1.67825033 1.01521008
v -1.17772570 -1.17992307 1.10487271
v 1.67321491 -0.24545103 1.06775730
v -1.14462989 1.38655333 0.87595221
v 0.59725982 -1.63528276 0.98444451
v 1.03129239 1.32440841 1.08737224
v -1.76354935 -0.11804306 0.93592710
v 1.54033235 -0.64097936 1.10296043
v -0.37451467 1.75891759 0.87518437
v -0.84629071 -1.49304024 1.02694834
v 1.52786583 0.94205293 0.88213508
v -1.47505586 0.88320608 1.02184012
v 0.62741148 -1.60929791 1.00822372
v 0.86668613 1.49454107 1.00757240
v -1.65701051 -0.75859249 0.82392573
v 1.81146599 0.10884111 0.84068103
v -0.82788942 1.64540817 0.77925033
v -0.66749237 -1.61804886 0.96766307
v 1.04216759 1.52697154 0.76304956
v -1.78375826 -0.39609247 0.81321414
v 0.92277841 -1.59556514 0.77630658
v -0.15225400 1.83581351 0.77885010
v -1.06832228 -1.53334505 0.71241874
v 1.80024437 0.13024590 0.86148490
v -1.25754061 1.33820206 0.79234263
v 0.43713866 -1.81960783 0.70564661
v 1.24995799 1.38302653 0.72446025
v -1.75808017 -0.18808523 0.93476097
v 1.75141960 -0.64693835 0.71693804
v -0.93820455 1.54992718 0.84705252
v -0.13707802 -1.84529948 0.75899897
v 1.38555500 1.18882609 0.81665774
v -1.90919534 0.28268120 0.52446590
v 0.62436041 -1.70971962 0.82887449
v 0.60851203 1.76361344 0.72068075
v -1.46970370 -1.26378010 0.49277873
v 1.91679867 -0.30979116 0.47949169
v -0.93624363 1.66653672 0.58830539
v 0.21174348 -1.81580221 0.81118865
v 1.14007598 1.53848805 0.57730518
v -1.83115884 -0.47072620 0.65213047
v 1.55398601 -0.97608892 0.79522191
v 0.05900921 1.84201810 0.77684441
v -0.56792897 -1.83577036 0.55444014
v 1.61830362 0.93268505 0.71497690
v -1.88560123 0.46344485 0.47929832
v 1.09598749 -1.58514795 0.53489942
v 0.52703575 1.82993105 0.61121655
v -1.51507071 -1.22222672 0.45904528
v 1.93551315 -0.08883827 0.49587962
v -1.17397152 1.56204486 0.42638800
v -0.72082799 -1.74313540 0.66474505
v 1.25984225 1.49177881 0.43288969
v -1.91426410 0.14617479 0.56055855
v 1.46159722 -1.24231612 0.56602494
v -0.52933645 1.86503597 0.49136924
v -1.58449839 -1.12395889 0.47548003
v 1.81727794 0.67405841 0.49309853
v -1.32340615 1.40082078 0.53506757
v 0.61539062 -1.88024419 0.29321695
v 0.55269755 1.86311786 0.47256457
v -1.93061468 -0.07537593 0.51676438
v 1.90571637 -0.41753349 0.44035316
v -0.48590380 1.88721545 0.44979477
v -1.15011444 -1.55710525 0.50265297
v 1.45112910 1.27707230 0.51313807
v -1.68565283 1.02904306 0.31566587
v 0.48221068 -1.89987238 0.39743907
v 0.77151777 1.83383984 0.20443037
v -1.21800548 -1.55142358 0.33097965
v 1.84999316 -0.72703486 0.22123658
v -1.29094389 1.47616051 0.39295547
v -0.00630574 -1.96799090 0.35633137
v 1.07859038 1.65449597 0.31509659
v -1.96996183 0.07813017 0.33637194
v 1.43602135 -1.38991028 0.07740857
v -0.03377354 1.98811646 0.21506344
v -1.48249506 -1.34102501 0.06213155
v 1.81037367 0.84345082 0.10553627
v -1.50144374 1.27778421 0.33605684
v 0.81680139 -1.82488358 0.05133628
v 0.39174452 1.95638157 0.13822951
v -1.78270663 -0.88539477 0.19502093
v 1.88913623 -0.65473462 0.04986867
v -0.36948891 1.95944837 0.15504846
v -0.73605298 -1.84483817 0.23408998
v 1.74299593 0.96870413 0.15354969
v -1.93085806 0.51680118 0.06858350
v 0.92849207 -1.75413741 0.24678826
v 0.19746366 1.98882415 0.07474363
v -1.30617162 -1.51202853 0.08766645
v 1.98167123 0.09854664 0.25153069
v -1.78474377 0.85131221 0.29992867
v 0.74559138 -1.83651826 0.26700968
v 1.46850488 1.35754735 -0.02363468
v -1.91969612 -0.54710194 -0.12428310
v 1.74147733 -0.98286401 -0.03514309
v -0.64584204 1.88302242 0.19265155
v -1.27147778 -1.53913655 0.12001222
v 1.96717045 0.30226371 0.19717269
v -1.96252989 0.37913928 -0.06877372
v 1.18703452 -1.60460867 0.12720084
v 1.03855966 1.70853332 0.04803870
v -1.88947517 -0.63227711 -0.17352012
v 1.98835668 0.11033027 -0.18510796
v -1.00664651 1.72368145 0.12484018
v -0.40455682 -1.95565643 -0.10835920
v 1.25466932 1.55730534 0.02459627
v -1.99783842 -0.08459460 0.03854115
v 1.65991356 -1.11290916 -0.07823159
v -0.67866347 1.88108729 -0.03043874
v -0.79004411 -1.81614554 -0.27829062
v 1.97610965 -0.25029732 -0.17983854
v -1.66335950 1.11042645 -0.01372138
v 0.19339254 -1.99023362 0.03961620
v 0.79379449 1.83490414 -0.05492839
v -1.99401834 -0.14202014 0.06100106
v 1.95438854 -0.42076484 -0.05764002
v -0.30992822 1.94836099 -0.32838078
v -0.86974386 -1.77603763 -0.29872388
v 1.89998540 0.62417986 0.02133031
v -1.91335802 0.55962219 -0.16088535
v 1.34900116 -1.47209072 -0.11465081
v 0.82176362 1.77872662 -0.40104385
v -1.48137092 -1.32211345 -0.23990881
v 1.89357925 -0.50158719 -0.40344503
v -0.94248811 1.74125327 -0.28240615
v -0.04384303 -1.99861024 -0.06029018
v 0.89866741 1.78546911 -0.06705928
v -1.96641019 -0.26536391 -0.25062512
v 1.75641376 -0.85014737 -0.43847479
v -0.78295263 1.82826746 -0.21076830
v -0.55927536 -1.87628013 -0.40839189
v 1.85673384 0.70313931 -0.24111111
v -1.82357819 0.81239176 -0.12075683
v 0.34808416 -1.91260712 -0.46986319
v 0.72776532 1.84316355 -0.27038078
v -1.68648058 -0.96915038 -0.46532869
v 1.90682568 -0.50046051 -0.33697938
v -1.12975931 1.59467162 -0.42504864
v -0.63124693 -1.85103133 -0.41858133
v 1.76527562 0.84775486 -0.40634183
v -1.80674461 0.69804586 -0.49840333
v 1.42184163 -1.31334262 -0.50348540
v 0.14231476 1.93793165 -0.47346325
v -1.06631159 -1.61427648 -0.50704147
v 1.89788964 0.56449602 -0.28170758
v -1.29155896 1.45683569 -0.45771742
v -0.17592234 -1.96442619 -0.33178469
v 1.37031803 1.36160886 -0.51792838
v -1.90985337 -0.28372690 -0.52149701
v 1.77270832 -0.66653041 -0.64283935
v -0.77566662 1.72488614 -0.65046838
v -0.90237460 -1.69767375 -0.55102082
v 1.58465800 1.12412991 -0.47454291
v -1.75139217 0.66058438 -0.70445279
v 1.03723566 -1.60709574 -0.58428202
v 0.68580483 1.84327423 -0.36333436
v -1.27076583 -1.48041959 -0.43990001
v 1.86654319 -0.23485880 -0.67886512
v -0.89652223 1.73873534 -0.41598955
v -0.63043221 -1.74664762 -0.74281715
v 1.46207898 1.27140118 -0.49584683
v -1.90486895 0.36695084 -0.48664297
v 1.71387120 -0.86647884 -0.55844420
v 0.07177224 1.94646910 -0.45398986
v -0.96484609 -1.66156678 -0.55521874
v 1.73659851 0.63557141 -0.76175756
v -1.60942853 0.86182601 -0.81669806
v 0.55423086 -1.75949431 -0.77266289
v 1.32592987 1.41448588 -0.49105973
v -1.77072124 -0.52077441 -0.77028585
v 1.53662918 -1.03581020 -0.75224198
v -0.43824950 1.81527905 -0.71603026
v -0.02826152 -1.82836216 -0.81011918
v 1.78483921 0.64147437 -0.63471224
v -1.72531021 0.80844158 -0.60805172
v 1.06232139 -1.54349650 -0.69935099
v 0.54329975 1.75649422 -0.78711717
v -1.37246844 -1.25701635 -0.73228429
v 1.77028325 0.32394813 -0.87244186
v -1.40200303 1.28908696 -0.61044434
v -0.04569932 -1.78076391 -0.90928074
v 1.13056276 1.48697629 -0.71465331
v -1.63590872 -0.66371086 -0.93983539
v 1.38192180 -1.08492042 -0.95563582
v -0.02857188 1.80998959 -0.85036542
v -0.69327510 -1.65254756 -0.88795055
v 1.68985009 0.52344588 -0.93295825
v -1.59552361 0.74036925 -0.95192319
v 0.78182845 -1.58936565 -0.92879550
v 0.57378132 1.77930194 -0.71053473
v -1.39307419 -1.22832647 -0.74199622
v 1.60640138 -0.54430628 -1.05981380
v -1.14391549 1.38034956 -0.88661855
v -0.74876033 -1.56794043 -0.99041445
v 1.19129668 1.27746360 -0.97411446
v -1.74557506 -0.31900632 -0.92260645
v 1.37081895 -0.92425356 -1.12543804
v 0.29017348 1.78520459 -0.85372357
v -0.82669860 -1.58476813 -0.89726217
v 1.81694970 0.02318055 -0.83555756
v -1.28530603 1.19323167 -0.96134623
v 0.47900420 -1.72172175 -0.89790267
v 1.18014215 1.37183770 -0.85166064
v -1.56551688 -0.42405369 -1.17018604
v 1.56319766 -0.72188452 -1.01749487
v -0.65956609 1.45291271 -1.20582637
v -1.04012451 -1.36864634 -1.02222707
v 1.47687876 0.85823071 -1.04032167
v -1.49844868 0.73896023 -1.09935860
v 1.10692471 -1.10752918 -1.24422538
v 0.11823635 1.69936598 -1.04793867
v -1.27314388 -1.07050631 -1.11045977
v 1.70278595 -0.13137443 -1.04079814
v -0.87175070 1.39138428 -1.14197221
v 0.29041003 -1.60595586 -1.15610025
v 0.86843796 1.27030159 -1.27755601
v -1.46416572 -0.53295985 -1.25386304
v 1.50942156 -0.84639785 -1.00262518
v -0.68801053 1.46369821 -1.17653264
v -0.89032701 -1.23964294 -1.29251816
v 1.61755354 0.00478968 -1.17622174
v -1.28849923 1.09746045 -1.06552818
v 0.58620342 -1.40911085 -1.29258353
v 0.74146537 1.51767084 -1.07093619
v -1.16873373 -0.88850617 -1.35816724
v 1.63743685 -0.12734073 -1.14130842
v -0.67593482 1.45031669 -1.19987233
v -0.01593676 -1.50645860 -1.31541951
v 1.28057081 0.58698183 -1.41971501
v -1.62281550 0.25120489 -1.14165055
v 0.91850126 -1.31449424 -1.19518213
v 0.04234528 1.46700132 -1.35871778
v -1.28959044 -0.83996233 -1.27727044
v 1.34462732 -0.27632121 -1.45451846
v -0.97980143 1.19987030 -1.26502980
v 0.02329604 -1.43207152 -1.39593282
v 1.07761703 0.88992076 -1.43065810
v -1.44058932 -0.56418831 -1.26743598
v 1.37630222 -0.58801906 -1.32665964
v -0.26239466 1.53628890 -1.25338161
v -0.24712328 -1.53969246 -1.25230876
v 1.23399485 0.65937472 -1.42915419
v -1.44008265 0.31131845 -1.35249503
v 0.98333797 -1.11391507 -1.33874555
v 0.70684225 1.08529767 -1.52397605
v -1.13011254 -0.69237132 -1.49782095
v 1.39051134 -0.51354751 -1.34266421
v -0.65658109 1.21451507 -1.44701569
v 0.14245102 -1.31693517 -1.49846237
v 0.69831215 1.07265186 -1.53680777
v -1.33340173 0.22614605 -1.47339668
v 0.63602998 -1.00337410 -1.60894570
v -0.11104403 1.43528306 -1.38839179
v -0.93050031 -1.00899649 -1.45468047
v 1.09670623 0.44634479 -1.61183491
v -1.17740368 0.44704327 -1.55366435
v 0.04674444 -1.36255765 -1.46330161
v 0.67799895 1.19000842 -1.45746266
v -1.03342087 -0.70197099 -1.56181882
v 1.04429370 -0.61282284 -1.59182249
v -0.58278553 0.89922205 -1.68871570
v -0.17284404 -1.32635207 -1.48691463
v 1.02269383 0.28368361 -1.69517579
v -1.00469791 0.19530342 -1.71826619
v 0.77036178 -0.88527761 -1.61951421
v 0.44139158 1.07759112 -1.62602917
v -0.78983567 -0.90813934 -1.59732356
v 1.15478664 -0.42772536 -1.57591841
v -0.77448957 0.94724301 -1.58205455
v -0.15394940 -0.94607967 -1.75534408
v 0.60743076 0.77550842 -1.74057880
v -0.97697172 -0.30974246 -1.71743584
v 0.67059881 -0.86606787 -1.67338689
v -0.49939311 0.97868733 -1.67116057
v -0.27300728 -1.00927167 -1.70494508
v 0.83650607 0.24052819 -1.80066759
v -0.95664850 0.16263463 -1.74882064
v 0.08722466 -0.97002250 -1.74683949
v 0.51260952 0.94908480 -1.68418215
v -0.64681263 -0.39652864 -1.85051303
v 0.80533746 -0.39424237 -1.78773727
v -0.39738220 0.55826796 -1.87894233
v 0.02905895 -0.66720372 -1.88520417
v 0.77430131 0.54245772 -1.76244066
v -0.70367647 0.11102629 -1.86882653
v 0.66441197 -0.65120825 -1.77044756
v 0.13910140 0.72136271 -1.86018457
v -0.65837103 -0.38294594 -1.84929716
v 0.62479116 0.00231786 -1.89990280
v -0.58739718 0.29126860 -1.88947801
v 0.17058409 -0.61960082 -1.89393661
v 0.19492088 0.45891973 -1.93685274
v -0.56417468 -0.10420539 -1.91594576
v 0.50218066 -0.39849731 -1.89446945
v -0.11092431 0.34252266 -1.96732662
v -0.10337207 -0.35408481 -1.96569025
v 0.30882011 0.14268000 -1.97085579
v -0.50836656 0.22504428 -1.92117633
v 0.15290290 -0.28352356 -1.97388832
v 0.12216537 0.28932781 -1.97518734
v -0.05742284 -0.03246121 -1.99891193
f 225 170 204
f 204 170 141
f 44 91 78
f 78 86 99
f 91 112 78
f 78 112 86
f 71 66 32
f 121 66 71
f 159 214 138
f 138 214 193
f 141 115 149
f 206 214 172
f 172 214 159
f 190 143 109
f 321 355 308
f 321 308 266
f 295 282 269
f 219 240 261
f 261 240 253
f 336 307 341
f 94 115 141
f 319 306 311
f 327 314 280
f 14 24 19
f 11 24 14
f 32 66 40
f 40 24 32
f 19 24 40
f 87 121 155
f 155 142 87
f 107 65 99
f 99 86 107
f 107 149 115
f 44 65 31
f 59 101 109
f 109 67 59
f 59 67 46
f 151 172 159
f 54 67 62
f 109 143 88
f 88 67 109
f 88 62 67
f 57 65 44
f 44 78 57
f 99 65 57
f 57 78 99
f 202 197 189
f 155 197 218
f 218 197 202
f 155 121 113
f 113 197 155
f 113 189 197
f 147 189 113
f 34 26 47
f 21 13 34
f 13 26 34
f 84 144 152
f 105 92 79
f 79 71 105
f 168 152 194
f 324 319 311
f 361 319 366
f 377 361 369
f 206 172 198
f 219 261 198
f 174 216 182
f 182 161 174
f 148 135 203
f 101 135 148
f 153 135 114
f 350 355 363
f 363 371 350
f 342 355 350
f 342 308 355
f 253 266 287
f 287 266 308
f 232 240 219
f 232 190 211
f 274 232 211
f 240 232 274
f 274 266 253
f 253 240 274
f 303 282 295
f 295 269 248
f 248 261 295
f 330 343 309
f 372 377 390
f 349 336 370
f 307 336 294
f 260 307 294
f 294 302 260
f 294 336 315
f 252 307 260
f 252 265 307
f 208 182 216
f 158 179 174
f 140 158 174
f 145 158 140
f 260 302 247
f 281 247 302
f 184 142 155
f 263 242 284
f 284 271 263
f 263 271 216
f 289 242 255
f 118 144 84
f 165 157 131
f 199 144 186
f 144 118 186
f 115 94 81
f 81 107 115
f 65 107 81
f 306 319 293
f 157 165 212
f 212 170 225
f 212 165 170
f 233 212 225
f 225 204 246
f 246 233 225
f 21 37 29
f 32 24 29
f 16 24 11
f 11 3 16
f 16 29 24
f 11 14 6
f 1 3 6
f 6 3 11
f 6 4 1
f 14 4 6
f 53 40 66
f 19 40 35
f 74 66 121
f 121 87 74
f 74 87 82
f 108 87 142
f 10 31 2
f 36 28 49
f 44 31 23
f 23 31 10
f 23 36 44
f 28 36 23
f 49 28 41
f 41 70 49
f 41 67 54
f 18 26 13
f 13 2 18
f 18 2 31
f 67 41 20
f 20 41 28
f 101 59 80
f 46 38 72
f 72 59 46
f 72 80 59
f 72 38 85
f 85 80 72
f 83 70 96
f 49 70 83
f 83 36 49
f 83 91 44
f 44 36 83
f 143 172 130
f 172 151 130
f 54 62 75
f 96 70 75
f 62 88 75
f 75 41 54
f 70 41 75
f 75 151 96
f 75 130 151
f 75 88 143
f 143 130 75
f 202 189 210
f 210 189 215
f 244 218 202
f 202 278 244
f 21 34 42
f 42 37 21
f 42 34 47
f 50 37 42
f 47 68 42
f 42 68 55
f 55 63 42
f 42 63 50
f 76 63 55
f 50 63 58
f 105 71 58
f 58 63 105
f 84 152 97
f 97 76 84
f 105 63 97
f 63 76 97
f 100 79 92
f 100 113 121
f 121 71 100
f 71 79 100
f 181 168 194
f 126 100 92
f 160 126 168
f 160 181 215
f 168 181 160
f 332 324 311
f 311 282 332
f 332 282 337
f 366 319 353
f 319 324 353
f 337 371 345
f 345 332 337
f 324 332 345
f 348 361 377
f 390 377 382
f 377 369 382
f 382 395 390
f 382 379 395
f 369 379 382
f 143 190 185
f 185 172 143
f 185 198 172
f 219 198 185
f 185 232 219
f 190 232 185
f 177 245 211
f 93 106 153
f 153 114 93
f 85 106 93
f 127 80 85
f 101 80 127
f 85 93 127
f 127 93 114
f 127 135 101
f 127 114 135
f 384 371 376
f 371 363 376
f 308 342 329
f 329 287 308
f 253 287 329
f 329 261 253
f 295 261 329
f 329 303 295
f 329 342 350
f 350 303 329
f 337 282 316
f 282 303 316
f 316 303 350
f 350 371 316
f 316 371 337
f 193 214 227
f 227 214 206
f 261 248 227
f 206 198 227
f 227 198 261
f 288 330 275
f 370 336 383
f 341 307 328
f 309 343 359
f 377 372 351
f 351 348 377
f 315 336 344
f 336 349 344
f 307 265 286
f 265 278 286
f 286 328 307
f 278 320 286
f 320 328 286
f 297 310 284
f 284 242 297
f 297 242 289
f 331 365 352
f 389 363 355
f 389 376 363
f 384 376 389
f 229 208 216
f 216 271 229
f 229 271 250
f 203 208 229
f 161 182 195
f 182 208 195
f 153 161 195
f 195 208 203
f 203 135 195
f 195 135 153
f 321 266 300
f 179 158 166
f 119 161 153
f 153 106 119
f 174 161 119
f 119 140 174
f 145 140 98
f 221 281 289
f 289 255 221
f 260 247 268
f 247 281 268
f 281 221 268
f 155 218 176
f 176 184 155
f 187 216 174
f 187 263 216
f 174 179 187
f 242 263 187
f 179 255 187
f 187 255 242
f 179 166 213
f 213 166 226
f 170 136 128
f 128 136 94
f 141 170 128
f 128 94 141
f 170 165 123
f 123 136 170
f 123 165 131
f 55 68 89
f 60 81 94
f 94 136 60
f 136 89 60
f 60 89 68
f 311 306 277
f 141 149 183
f 183 204 141
f 306 293 298
f 298 293 285
f 319 361 340
f 340 293 319
f 340 361 327
f 285 293 340
f 327 280 340
f 340 280 285
f 233 246 272
f 157 212 178
f 212 233 178
f 199 186 178
f 230 272 246
f 230 246 204
f 22 43 9
f 9 4 22
f 22 4 14
f 64 106 85
f 77 98 64
f 64 56 77
f 64 43 56
f 64 119 106
f 140 119 64
f 64 98 140
f 8 16 3
f 8 13 21
f 3 13 8
f 21 29 8
f 29 16 8
f 40 53 48
f 48 35 40
f 56 35 48
f 48 69 56
f 95 69 82
f 82 87 95
f 87 108 95
f 1 2 5
f 5 2 13
f 5 3 1
f 5 13 3
f 26 18 39
f 47 26 39
f 39 68 47
f 39 31 65
f 39 18 31
f 46 67 33
f 67 20 33
f 104 83 96
f 104 151 159
f 96 151 104
f 236 210 215
f 223 210 236
f 215 181 236
f 299 278 202
f 312 320 299
f 299 320 278
f 273 278 265
f 273 244 278
f 50 58 45
f 32 29 45
f 45 71 32
f 45 58 71
f 45 37 50
f 45 29 37
f 270 249 262
f 262 241 270
f 152 168 139
f 168 126 139
f 139 97 152
f 139 126 92
f 139 92 105
f 105 97 139
f 134 189 147
f 215 189 134
f 134 160 215
f 147 113 134
f 113 100 134
f 100 126 134
f 126 160 134
f 366 379 374
f 374 379 369
f 374 361 366
f 374 369 361
f 392 371 384
f 400 395 392
f 395 379 392
f 358 345 371
f 358 379 366
f 366 353 358
f 358 353 324
f 324 345 358
f 361 348 356
f 211 190 164
f 164 177 211
f 164 190 109
f 203 245 169
f 245 177 169
f 169 148 203
f 169 156 148
f 177 156 169
f 275 241 254
f 241 220 254
f 254 178 233
f 254 220 199
f 199 178 254
f 254 288 275
f 207 220 241
f 194 152 207
f 330 288 322
f 314 348 322
f 348 351 322
f 343 330 322
f 322 351 343
f 233 272 301
f 314 322 301
f 301 322 288
f 301 280 314
f 301 272 280
f 325 320 312
f 333 320 325
f 312 291 325
f 396 383 375
f 341 328 354
f 354 320 333
f 354 328 320
f 354 336 341
f 354 383 336
f 367 359 380
f 385 372 390
f 390 393 385
f 393 380 385
f 385 380 359
f 364 359 343
f 343 351 364
f 364 351 372
f 372 385 364
f 364 385 359
f 378 349 370
f 378 365 349
f 357 344 349
f 349 365 357
f 315 344 357
f 357 365 331
f 276 297 289
f 250 271 318
f 386 352 365
f 365 378 386
f 386 378 370
f 237 245 203
f 279 300 266
f 266 274 279
f 279 274 211
f 211 245 279
f 142 184 163
f 145 98 132
f 132 158 145
f 218 244 231
f 231 176 218
f 234 221 255
f 234 255 179
f 179 213 234
f 226 221 234
f 234 213 226
f 102 89 136
f 102 123 131
f 136 123 102
f 243 277 306
f 306 298 243
f 243 298 264
f 290 282 311
f 311 277 290
f 157 178 191
f 191 178 186
f 191 186 118
f 131 157 191
f 191 118 131
f 259 298 285
f 272 230 259
f 285 280 259
f 280 272 259
f 204 183 209
f 209 230 204
f 27 22 14
f 27 14 19
f 19 35 27
f 27 35 56
f 56 43 27
f 43 22 27
f 38 43 51
f 43 64 51
f 85 38 51
f 51 64 85
f 82 69 61
f 69 48 61
f 61 74 82
f 66 74 61
f 61 53 66
f 61 48 53
f 65 81 73
f 73 39 65
f 20 12 17
f 17 4 9
f 17 12 4
f 1 4 7
f 4 12 7
f 7 2 1
f 7 12 20
f 91 83 117
f 159 138 117
f 117 112 91
f 117 138 112
f 223 249 257
f 257 210 223
f 312 299 257
f 202 210 257
f 257 299 202
f 257 291 312
f 249 291 257
f 304 291 249
f 223 236 228
f 228 249 223
f 228 262 249
f 228 181 194
f 228 236 181
f 194 207 228
f 241 262 228
f 228 207 241
f 371 392 387
f 387 392 379
f 387 358 371
f 379 358 387
f 384 389 397
f 397 392 384
f 400 392 397
f 327 361 335
f 361 356 335
f 335 356 348
f 335 314 327
f 335 348 314
f 122 156 177
f 122 164 109
f 177 164 122
f 109 101 122
f 101 148 122
f 148 156 122
f 173 207 152
f 220 207 173
f 199 220 173
f 173 144 199
f 173 152 144
f 288 254 267
f 267 301 288
f 267 254 233
f 233 301 267
f 400 396 398
f 398 395 400
f 390 395 398
f 398 393 390
f 375 383 362
f 383 354 362
f 362 354 333
f 362 333 367
f 367 380 362
f 362 380 375
f 375 380 388
f 388 380 393
f 388 396 375
f 393 398 388
f 388 398 396
f 310 297 323
f 297 276 323
f 315 357 323
f 331 310 323
f 323 357 331
f 323 281 302
f 289 281 323
f 323 276 289
f 323 294 315
f 302 294 323
f 292 237 250
f 245 237 292
f 292 279 245
f 300 279 292
f 339 271 284
f 339 318 271
f 284 310 339
f 339 310 331
f 331 352 339
f 368 389 355
f 360 389 368
f 352 386 373
f 360 368 373
f 381 389 360
f 360 373 381
f 381 373 386
f 381 397 389
f 391 386 370
f 370 383 391
f 383 396 391
f 258 229 250
f 250 237 258
f 150 124 163
f 137 124 150
f 111 132 90
f 90 132 98
f 90 98 77
f 77 56 90
f 56 69 90
f 116 132 111
f 137 132 116
f 116 124 137
f 171 132 137
f 137 150 171
f 171 166 158
f 158 132 171
f 244 273 239
f 239 231 244
f 265 252 239
f 239 273 265
f 252 184 239
f 184 176 239
f 176 231 239
f 89 102 110
f 110 76 55
f 55 89 110
f 84 76 110
f 110 118 84
f 131 118 110
f 110 102 131
f 235 269 282
f 282 290 235
f 264 298 251
f 298 259 251
f 39 73 52
f 52 60 68
f 68 39 52
f 81 60 52
f 52 73 81
f 30 17 9
f 9 43 30
f 30 43 38
f 25 33 20
f 20 17 25
f 17 30 25
f 25 30 38
f 25 38 46
f 46 33 25
f 10 2 15
f 2 7 15
f 15 23 10
f 28 23 15
f 15 20 28
f 15 7 20
f 83 104 125
f 125 117 83
f 125 104 159
f 159 117 125
f 317 249 270
f 317 304 249
f 250 318 313
f 313 292 250
f 318 326 313
f 318 339 305
f 305 326 318
f 399 396 400
f 399 391 396
f 203 229 224
f 229 258 224
f 224 237 203
f 224 258 237
f 163 124 129
f 129 95 108
f 129 108 142
f 142 163 129
f 226 166 200
f 166 171 200
f 162 183 149
f 217 209 183
f 217 243 264
f 264 251 217
f 222 290 277
f 222 235 290
f 238 259 230
f 238 251 259
f 230 209 238
f 209 217 238
f 238 217 251
f 283 317 270
f 283 330 309
f 275 330 283
f 283 241 275
f 270 241 283
f 338 359 367
f 309 359 338
f 291 304 338
f 300 292 334
f 292 313 334
f 321 300 334
f 334 355 321
f 334 368 355
f 347 373 368
f 368 334 347
f 352 373 347
f 326 305 347
f 347 339 352
f 347 305 339
f 347 313 326
f 347 334 313
f 400 397 394
f 394 399 400
f 397 381 394
f 391 399 394
f 394 381 386
f 386 391 394
f 103 129 124
f 124 116 103
f 69 95 103
f 95 129 103
f 103 116 111
f 111 90 103
f 103 90 69
f 226 200 205
f 205 221 226
f 205 268 221
f 205 171 150
f 205 200 171
f 120 107 86
f 149 107 120
f 120 162 149
f 196 217 183
f 188 217 196
f 235 222 180
f 180 138 193
f 112 138 180
f 188 222 256
f 243 217 256
f 256 217 188
f 277 243 256
f 256 222 277
f 296 283 309
f 317 283 296
f 309 338 296
f 304 317 296
f 296 338 304
f 291 338 346
f 333 325 346
f 346 325 291
f 367 333 346
f 346 338 367
f 192 150 163
f 192 205 150
f 192 163 184
f 192 184 252
f 192 252 260
f 260 268 192
f 268 205 192
f 133 120 86
f 162 120 133
f 175 222 188
f 175 133 146
f 175 180 222
f 201 180 193
f 235 180 201
f 269 235 201
f 201 248 269
f 193 227 201
f 201 227 248
f 112 180 154
f 146 133 154
f 154 175 146
f 180 175 154
f 86 112 154
f 154 133 86
f 162 133 167
f 183 162 167
f 167 196 183
f 188 196 167
f 167 175 188
f 133 175 167

