# https://github.com/mikedh/trimesh
v 0.05294522 0.32987763 1.97189694
v -0.28125597 -0.17315507 1.97253958
v 0.25918146 -0.01056846 1.98310698
v -0.17444897 0.19726681 1.98258754
v -0.15532798 -0.35151202 1.96273088
v 0.35784562 0.45677810 1.91397500
v -0.35056114 -0.00081888 1.96903688
v 0.41626139 -0.46483017 1.90017351
v -0.03145927 0.55417052 1.92143315
v -0.64226991 -0.39087918 1.85329513
v 0.57652402 0.16754302 1.90776031
v -0.50196284 0.31331969 1.91046174
v 0.12854531 -0.62727359 1.89473057
v 0.60030950 0.51615906 1.83662961
v -0.69229589 -0.18659650 1.86705869
v 0.74681758 -0.36385957 1.81930473
v -0.49696438 0.75235624 1.78521329
v -0.26226295 -0.94951916 1.74058367
v 0.81809032 0.18490173 1.81563751
v -0.84310366 0.08960085 1.81139391
v 0.60786954 -0.62797390 1.79892840
v 0.28273367 0.93635438 1.74450627
v -0.53319385 -0.63601218 1.81966833
v 0.85546364 0.04720155 1.80719506
v -0.46719312 0.63950029 1.83651027
v 0.12099104 -0.98669631 1.73545140
v 0.73333102 0.81834412 1.67108902
v -1.10115331 -0.09843634 1.66666484
v 0.80497813 -0.57091223 1.73956013
v 0.12375174 1.07276202 1.68340938
v -0.64444087 -0.79125651 1.72006079
v 1.04023486 0.31105478 1.67962983
v -1.00538137 0.43821387 1.67247628
v 0.03243204 -1.18948435 1.60750587
v 0.39677689 1.12052951 1.60840968
v -0.86718624 -0.63842811 1.68534791
v 0.98423859 -0.31376117 1.71255024
v -0.25913922 1.11189016 1.64211666
v -0.12035529 -1.12303282 1.65054897
v 1.08697502 0.59941706 1.56817872
v -1.04700504 0.55170519 1.61226606
v 0.41590067 -1.17829621 1.56161604
v 0.33251127 1.15086100 1.60154776
v -0.85197975 -1.03216390 1.48619251
v 1.19484836 -0.05753512 1.60281849
v -0.78547369 0.80660256 1.65300436
v 0.34961537 -1.14527022 1.60191298
v 0.86530704 0.98171974 1.51243845
v -1.24067433 0.14790657 1.56168206
v 1.10289225 -0.47672062 1.59886402
v -0.37160779 1.32790262 1.44864843
v -0.82498097 -1.07516608 1.47085835
v 1.11703301 0.71998937 1.49460783
v -1.12177374 0.92331868 1.37444764
v 0.32060981 -1.46170750 1.32688377
v 0.50068467 1.28669496 1.44697303
v -1.29523455 -0.54071222 1.42477989
v 1.14584493 -0.52032751 1.55444481
v -1.09650899 0.92741204 1.39196801
v 0.18175431 -1.44259251 1.37327791
v 1.24316712 0.65590500 1.42278745
v -1.41701784 -0.04148150 1.41079400
v 1.14504423 -0.93478990 1.34723478
v 0.15919327 1.31393162 1.49941362
v -0.82275837 -1.13783423 1.42421976
v 1.34229984 0.48484926 1.40112538
v -1.08240685 0.85415439 1.44872899
v 0.22311937 -1.36812269 1.44168584
v 0.72879225 1.26320695 1.36863803
v -1.61322204 -0.27369204 1.15004666
v 1.48755543 -0.53938225 1.22321120
v -0.84467415 1.17302671 1.38222064
v -0.52002640 -1.36427469 1.36686763
v 1.57710151 0.52895471 1.11038631
v -1.22658832 0.76703932 1.38098942
v 0.96217165 -1.30826426 1.16733471
v -0.11548557 1.55024267 1.25833650
v -1.36314117 -0.94265663 1.11948409
v 1.48142388 -0.23411887 1.32309170
v -0.94099838 1.41134271 1.05954414
v -0.14841930 -1.52727501 1.28273253
v 0.97258234 1.32239390 1.14252264
v -1.64418562 0.24429581 1.11219296
v 1.32294176 -0.74789702 1.30018274
v -0.71444994 1.55994801 1.02767869
v -1.28671267 -1.10548448 1.05937462
v 1.65526939 0.19406555 1.10563186
v -1.36871393 1.00977293 1.05213155
v 0.20403725 -1.58270968 1.20556993
v 0.41738139 1.55574630 1.18551517
v -1.47009759 -0.82645471 1.07507473
v 1.48360445 -0.53926211 1.22805301
v -1.01433131 1.29886596 1.13317219
v -0.81682736 -1.58475570 0.90627945
v 1.52017018 0.81718458 1.01058992
v -1.76690907 0.24968103 0.90315654
v 1.06672206 -1.41780712 0.92299892
v 0.56419946 1.56779602 1.10620730
v -0.80635354 -1.46645977 1.09512087
v 1.74339930 0.37339587 0.90616466
v -1.40403665 1.01727807 0.99690843
v 0.55159107 -1.72941879 0.83955818
v 1.27926408 1.29066624 0.83526287
v -1.65283063 -0.53895884 0.98877412
v 1.44319396 -1.07575757 0.87174357
v -0.29388131 1.76279627 0.89787699
v -0.91723262 -1.45243165 1.02426882
v 1.70633622 0.73135321 0.74400213
v -1.72295030 0.32617792 0.96179531
v 1.13788089 -1.26709705 1.04866207
v 0.30810506 1.66793794 1.05974257
v -1.28006064 -1.28807080 0.83804438
v 1.74024127 -0.52135591 0.83650962
v -1.29304195 1.16437691 0.98603698
v -0.35732812 -1.72554966 0.94593604
v 1.22552260 1.31925400 0.87043852
v -1.87437140 0.02719667 0.69713139
v 0.96311668 -1.62089616 0.66715958
v -0.30361901 1.74513687 0.92860798
v -1.11162368 -1.47076694 0.77533052
v 1.66299220 0.80968441 0.76083381
v -1.49854545 0.97398352 0.89761775
v -0.01757862 -1.76319748 0.94383560
v 0.65077797 1.65211630 0.92032591
v -1.85960702 -0.45362463 0.57972963
v 1.40351653 -1.14091303 0.85349798
v -1.07122778 1.49595292 0.78396166
v -0.50977593 -1.79328380 0.72405919
v 1.71664021 0.75779609 0.69201985
v -1.72732778 0.84940692 0.54299779
v 0.68211786 -1.72912326 0.73813818
v 0.15647718 1.85100292 0.74114984
v -1.61125032 -1.07608278 0.49590144
v 1.77681535 -0.63730048 0.66088979
v -1.51817970 0.99852136 0.83551511
v 0.30095094 -1.85941435 0.67231451
v 1.45983611 1.15341586 0.73383266
v -1.82020283 -0.52306458 0.64285698
v 1.64511487 -0.82873274 0.77897311
v -0.45632493 1.82648660 0.67506611
v -0.86546567 -1.67451811 0.66854938
v 1.62516225 1.06975250 0.46311690
v -1.76204895 0.61200939 0.72154556
v 0.80848983 -1.72421974 0.61107322
v 1.04619661 1.65672640 0.40091181
v -1.69780964 -0.81599063 0.67201319
v 1.87937606 0.04544637 0.68255420
v -0.82773228 1.78023522 0.38160431
v -0.17458529 -1.94000272 0.45377242
v 1.24300073 1.42468875 0.65208218
v -1.96915793 -0.06008243 0.34468414
v 1.48410498 -1.30292515 0.31594059
v -0.28177799 1.89293287 0.58086686
v -1.04809337 -1.66287153 0.36926762
v 1.91579460 0.25066895 0.51661992
v -1.76095609 0.91000513 0.26631618
v -0.09388504 -1.97085955 0.32695296
v 0.85304204 1.78922691 0.26643266
v -1.83091636 -0.71330788 0.37274272
v 1.86878717 -0.59273892 0.39534173
v -1.06568431 1.60590628 0.53421155
v -0.56831981 -1.88251781 0.36488256
v 1.53221413 1.18022858 0.50929399
v -1.67268060 1.03111063 0.37276063
v 1.36983770 -1.43712562 0.24127706
v 0.81151618 1.77803611 0.42429834
v -1.65314786 -1.05077854 0.40369124
v 1.93979104 0.20217646 0.44309752
v -1.06102116 1.68559222 0.18169472
v -0.18739193 -1.96369404 0.32983325
v 1.67609188 1.03298661 0.35164566
v -1.91722258 -0.55432744 0.13030224
v 1.72185891 -0.91819963 0.43830509
v 0.32804799 1.95433093 0.27013911
v -0.91523755 -1.77733403 0.05851471
v 1.95845478 0.39458035 0.09360129
v -1.43562582 1.33763011 0.38694209
v 1.07461729 -1.68128145 0.13597925
v 0.59957413 1.89205636 0.24623891
v -1.95649995 -0.37265927 0.18229921
v 1.60043102 -1.15121660 0.33663170
v -1.07131490 1.67115318 0.24399063
v -0.21967032 -1.97979404 0.17933354
v 1.80149330 0.84264262 0.21112862
v -1.93085365 0.43317867 0.29010414
v 0.81363275 -1.82698995 0.01046218
v -0.22187595 1.98592518 0.08289910
v -1.07649841 -1.67305968 0.20499385
v 1.99951067 0.01485680 0.04166950
v -1.70416201 1.00968234 0.27635744
v 0.37582627 -1.94726210 0.25869850
v 1.30597520 1.51299122 0.07270725
v -1.92766066 -0.46243365 0.26510284
v 1.86637667 -0.69328362 0.18972596
v -0.68436904 1.87915570 0.02031918
v -0.62537824 -1.88932128 0.19841159
v 1.83471321 0.78960619 -0.10173252
v -1.97914531 0.25848758 0.12715344
v 1.15705376 -1.62934895 -0.08030312
v 0.66453195 1.88598262 0.03829927
v -1.50564487 -1.31315974 0.09297868
v 1.84678861 -0.76753435 -0.01621210
v -0.69688727 1.86233795 -0.21458218
v 0.14088319 -1.99201949 0.10959148
v 1.59907360 1.19671044 -0.10415251
v -1.98158821 -0.26080341 0.07273058
v 1.01694108 -1.71869024 -0.10924606
v -0.08593314 1.99814788 -0.00453410
v -1.12964164 -1.64538543 -0.12890521
v 1.91390018 0.57420076 0.08532058
v -1.76067602 0.94761126 -0.04530837
v -0.01039678 -1.99713370 -0.10653123
v 0.66654674 1.88542276 0.02994101
v -1.76806552 -0.93384821 -0.04326467
v 1.50588660 -1.27532920 -0.32533208
v -0.29088828 1.97867394 0.01527950
v -0.87743763 -1.77279399 -0.29547363
v 1.92550318 0.43011480 -0.32777852
v -1.94769460 0.26914005 -0.36612753
v 1.17853965 -1.59246684 -0.27403224
v -0.02658850 1.99979747 -0.01015460
v -1.47228509 -1.31598904 -0.31709535
v 1.92577530 -0.46384960 -0.27610331
v -1.62470637 1.08689419 -0.42307236
v 0.46824495 -1.89941772 -0.41588337
v 1.47215082 1.35182096 -0.07315760
v -1.94236772 -0.46705936 -0.09520085
v 1.55317564 -1.17180473 -0.46316209
v -0.55965757 1.91801297 -0.08949667
v -0.89571207 -1.72877534 -0.45720423
v 1.78987314 0.76598608 -0.45784218
v -1.88284010 0.57768413 -0.34812958
v 1.00836310 -1.71067766 -0.23829769
v 1.12475888 1.64512379 -0.16877550
v -1.94779100 -0.41007388 -0.19480663
v 1.88556901 -0.48139109 -0.46140235
v -1.09121884 1.63909184 -0.35017053
v -0.59371234 -1.89017331 -0.27340544
v 1.63035877 1.13623177 -0.22562725
v -1.95181287 0.36719668 -0.23578196
v 1.21639622 -1.55873278 -0.30121811
v 0.13557097 1.94359418 -0.45173243
v -1.63748569 -1.09505799 -0.34567126
v 1.92088972 0.16188844 -0.53289287
v -1.14026419 1.51702645 -0.63121180
v 0.09360566 -1.96852442 -0.34080724
v 0.84435368 1.70958720 -0.60363770
v -1.89949582 -0.19358297 -0.59534968
v 1.90172833 -0.50644346 -0.35629253
v -0.86298612 1.77185886 -0.34025157
v -0.78225083 -1.78811092 -0.43674133
v 1.74764336 0.70692589 -0.66783116
v -1.91897943 0.12951623 -0.54840086
v 1.33838377 -1.43566256 -0.38418990
v 0.84849377 1.68511962 -0.66364914
v -1.79387333 -0.67014861 -0.57699161
v 1.81355843 -0.73457491 -0.41401149
v -1.08051499 1.51371089 -0.73564033
v -0.51360548 -1.86659137 -0.50204189
v 1.48760202 1.24896771 -0.47657097
v -1.85792152 -0.57745874 -0.46332389
v 1.60776605 -1.07467556 -0.51005957
v 0.02776939 1.93645535 -0.49936916
v -1.27493427 -1.44460016 -0.53635155
v 1.89231436 0.46148291 -0.45407037
v -1.71981389 0.62343310 -0.80843759
v 0.19568610 -1.85404892 -0.72402318
v 1.33750523 1.39544070 -0.51363899
v -1.51740325 -1.09100017 -0.71218397
v 1.55560444 -1.05543067 -0.68275979
v -0.74581603 1.72148700 -0.69299420
v -0.37296529 -1.87284403 -0.59443428
v 1.63188495 1.02316726 -0.53859098
v -1.86471201 0.31313940 -0.65176133
v 0.77710006 -1.75233725 -0.57046443
v 0.73133768 1.70352998 -0.75042043
v -1.15567654 -1.39903515 -0.84089974
v 1.77360343 0.14858968 -0.91227845
v -1.30611378 1.28540655 -0.80112220
v 0.38993835 -1.82353461 -0.72295893
v 1.46951084 1.07477171 -0.82789109
v -1.74435539 0.09792482 -0.97346546
v 1.44589308 -1.04036048 -0.90941920
v -0.80814560 1.59138846 -0.90243197
v -0.41577142 -1.72505982 -0.92266069
v 1.70277216 0.68589833 -0.79379496
v -1.64349534 0.87942136 -0.72494215
v 0.99133322 -1.55896982 -0.76607542
v 0.12384602 1.79560921 -0.87203769
v -1.23519423 -1.16286558 -1.05926336
v 1.83105019 -0.18590613 -0.78274779
v -1.22929305 1.27790556 -0.92509242
v -0.31159972 -1.74631690 -0.92373314
v 1.23016664 1.37162026 -0.77804106
v -1.71175045 0.00512171 -1.03435205
v 0.89323098 -1.40952594 -1.10244049
v 0.19591863 1.67239982 -1.07921023
v -1.38096606 -1.03170472 -1.01415883
v 1.76272704 0.36237329 -0.87262763
v -1.35273165 1.12665480 -0.94908695
v 0.48767022 -1.62957241 -1.05198456
v 0.90622164 1.38986056 -1.11671391
v -1.46763008 -0.87297439 -1.04114248
v 1.56640322 -0.59386212 -1.09256978
v -0.33716413 1.63335100 -1.10385001
v -0.47577770 -1.58018849 -1.12988492
v 1.36506751 0.84949430 -1.18951676
v -1.77835211 0.12224648 -0.90692864
v 0.56740592 -1.52964157 -1.15682635
v 0.06211726 1.65994676 -1.11387530
v -1.49401584 -0.88130627 -0.99559828
v 1.54047010 -0.10701370 -1.27102319
v -0.81253599 1.46187685 -1.09667741
v -0.40699747 -1.69968250 -0.97233351
v 1.44329721 0.96454863 -0.99324674
v -1.51510205 -0.07881305 -1.30317085
v 1.36080177 -0.64110352 -1.31803066
v -0.45891591 1.59267390 -1.11927924
v -0.64450648 -1.57960678 -1.04376904
v 1.58597097 -0.01076617 -1.21843349
v -1.53939155 0.70704086 -1.06318713
v 0.20385422 -1.67840508 -1.06836317
v 0.36886443 1.58236123 -1.16622124
v -1.52057772 -0.48520791 -1.20516251
v 1.38544046 -0.60907030 -1.30751218
v -0.35204786 1.44321169 -1.33910505
v -0.73268589 -1.39561909 -1.23102345
v 1.16120204 1.11212907 -1.18944472
v -1.38745222 0.32031507 -1.40441254
v 1.06028961 -1.19991192 -1.19833106
v 0.33031146 1.40460920 -1.38490698
v -1.19547827 -0.77791914 -1.40202479
v 1.40611355 -0.19833741 -1.40837032
v -1.34130602 0.62739260 -1.34434991
v 0.23970046 -1.57720095 -1.20622587
v 0.87932299 1.28772490 -1.25241992
v -1.29289298 -0.30875958 -1.49435446
v 1.38179280 -0.41629357 -1.38468347
v -0.38227988 1.35046078 -1.42482201
v -0.58821476 -1.26108119 -1.43655060
v 1.32713982 0.75471023 -1.29194132
v -1.29678482 0.19432451 -1.51016129
v 0.51691972 -1.23420310 -1.48645105
v 0.46523159 1.34382114 -1.40630875
v -1.10159506 -0.65895960 -1.53370811
v 1.47658633 -0.28935534 -1.31756074
v -0.46180294 1.21542807 -1.51969492
v -0.24095436 -1.32916803 -1.47487401
v 0.87326453 1.02646161 -1.47776372
v -1.45793533 0.17049216 -1.35843918
v 1.16043990 -0.63873559 -1.49846458
v -0.01189356 1.29184749 -1.52675754
v -0.53624381 -1.06208263 -1.60761409
v 1.17221796 0.08692251 -1.61813149
v -0.79400546 0.86920175 -1.61680043
v 0.05501267 -1.14137342 -1.64141412
v 0.56892115 1.20494835 -1.49145171
v -1.11123027 -0.26982998 -1.64084096
v 1.12374926 -0.31945376 -1.62331047
v -0.44861621 1.20355324 -1.53303722
v -0.31016997 -1.29591715 -1.49144002
v 1.11049168 0.56951304 -1.56283816
v -1.27011715 0.00942284 -1.54489923
v 0.90470004 -0.92957994 -1.52230056
v 0.35878887 1.06590544 -1.65381865
v -0.92682317 -0.61419708 -1.66245624
v 1.06700298 -0.31182363 -1.66260959
v -0.60382114 1.00820575 -1.61830813
v 0.13757715 -1.08124411 -1.67689705
v 0.84258657 0.81078394 -1.62255271
v -1.07274335 -0.20619285 -1.67532272
v 0.75834785 -0.67398215 -1.72355928
v -0.34618079 0.98881982 -1.70364146
v -0.64400067 -0.88169942 -1.67566980
v 0.80005211 0.27729983 -1.81191099
v -0.68208687 0.61518847 -1.77659805
v 0.57846265 -0.79371470 -1.74223935
v 0.51459549 0.86491136 -1.72832862
v -0.85892167 -0.18588181 -1.79658051
v 0.96876401 -0.07240640 -1.74821440
v -0.40900046 0.57308150 -1.87197655
v -0.13274622 -0.95784363 -1.75068958
v 0.51911857 0.41388065 -1.88658917
v -0.75577822 0.28071533 -1.83030002
v 0.36089948 -0.56222316 -1.88511450
v 0.16727512 0.53976918 -1.91850678
v -0.46501818 -0.41014770 -1.90145654
v 0.77414715 0.27991061 -1.82273043
v -0.49225777 0.63869331 -1.83023308
v 0.14524735 -0.44447216 -1.94456877
v 0.25491893 0.43858688 -1.93459502
v -0.70376837 -0.07846571 -1.87044198
v 0.49199555 -0.11077237 -1.93537331
v -0.08771855 0.60011264 -1.90582535
v -0.34089393 -0.40590469 -1.92847938
v 0.50517796 0.20806132 -1.92392976
v -0.40844358 0.24160906 -1.94288417
v 0.07069793 -0.21206347 -1.98746846
v 0.00515431 0.16984361 -1.99276857
v -0.07624402 -0.04845169 -1.99795878
f 211 224 232
f 195 250 169
f 232 224 287
f 300 321 287
f 223 244 189
f 176 168 189
f 126 105 110
f 342 384 363
f 349 336 328
f 349 357 336
f 378 357 349
f 206 198 219
f 219 235 206
f 185 211 232
f 224 211 177
f 177 182 169
f 114 127 177
f 320 362 341
f 341 349 328
f 362 349 341
f 247 213 234
f 106 140 119
f 106 153 140
f 132 153 106
f 140 153 148
f 148 153 195
f 148 195 169
f 169 182 148
f 119 140 85
f 140 148 85
f 62 83 70
f 111 106 119
f 132 106 111
f 261 235 248
f 363 337 316
f 316 337 324
f 295 324 248
f 295 316 324
f 266 287 321
f 321 282 266
f 232 287 266
f 398 395 400
f 400 399 398
f 393 399 396
f 393 398 399
f 217 238 175
f 251 238 217
f 327 277 290
f 319 277 327
f 335 348 356
f 330 283 288
f 172 193 180
f 162 141 154
f 184 205 171
f 197 205 184
f 183 238 212
f 152 126 97
f 97 118 152
f 126 110 97
f 97 110 76
f 76 102 97
f 107 94 99
f 94 115 99
f 73 81 39
f 73 115 81
f 73 99 115
f 25 9 17
f 8 16 3
f 3 5 8
f 10 5 2
f 4 7 2
f 2 3 4
f 2 5 3
f 76 110 63
f 63 105 84
f 63 110 105
f 76 63 42
f 42 63 29
f 224 245 279
f 300 287 279
f 279 287 224
f 237 245 224
f 237 177 169
f 224 177 237
f 169 250 237
f 250 271 237
f 237 271 245
f 363 384 371
f 384 379 371
f 392 379 384
f 400 395 392
f 350 282 321
f 350 295 282
f 316 295 350
f 350 342 363
f 363 316 350
f 305 289 310
f 305 271 263
f 263 289 305
f 338 333 346
f 359 333 338
f 378 349 370
f 370 349 362
f 362 375 370
f 370 383 378
f 373 394 381
f 381 389 373
f 232 219 240
f 240 219 198
f 240 185 232
f 198 185 240
f 248 235 253
f 235 219 253
f 143 185 117
f 104 70 117
f 114 177 135
f 307 315 286
f 286 341 307
f 328 315 307
f 307 341 328
f 132 179 174
f 174 153 132
f 174 213 221
f 302 323 276
f 328 336 302
f 302 294 328
f 242 289 263
f 276 289 242
f 242 247 276
f 213 247 242
f 242 263 221
f 221 213 242
f 276 323 297
f 297 289 276
f 297 323 310
f 310 289 297
f 276 247 255
f 255 302 276
f 294 302 255
f 234 192 226
f 171 205 226
f 145 192 234
f 150 192 145
f 239 205 197
f 239 226 205
f 281 315 328
f 328 294 281
f 286 315 281
f 281 273 286
f 250 195 203
f 195 229 203
f 203 271 250
f 263 271 203
f 203 229 263
f 221 263 208
f 195 153 187
f 221 208 187
f 187 174 221
f 153 174 187
f 161 148 182
f 182 177 161
f 161 177 127
f 127 85 161
f 161 85 148
f 132 111 124
f 150 145 124
f 82 116 124
f 124 116 150
f 310 323 331
f 310 331 352
f 373 360 352
f 290 277 269
f 324 337 332
f 332 303 324
f 332 374 340
f 332 327 290
f 340 327 332
f 324 303 311
f 299 341 286
f 320 341 299
f 299 278 320
f 244 278 299
f 299 265 244
f 291 278 244
f 320 278 291
f 231 239 197
f 273 239 231
f 218 231 197
f 265 231 218
f 244 265 218
f 189 244 218
f 218 176 189
f 395 398 390
f 390 393 385
f 398 393 390
f 385 393 372
f 317 283 330
f 304 283 317
f 396 399 391
f 391 383 396
f 367 372 380
f 380 372 393
f 380 359 367
f 388 393 396
f 396 383 388
f 388 380 393
f 375 380 388
f 383 370 388
f 388 370 375
f 175 238 196
f 196 154 175
f 162 154 196
f 196 183 162
f 238 183 196
f 212 238 272
f 251 217 230
f 319 251 230
f 230 277 319
f 382 369 356
f 395 390 382
f 385 369 382
f 382 390 385
f 387 374 366
f 366 379 387
f 395 382 387
f 387 382 374
f 387 392 395
f 379 392 387
f 306 327 340
f 319 327 306
f 306 314 319
f 348 335 306
f 306 335 322
f 322 335 301
f 301 335 309
f 330 288 296
f 296 301 309
f 288 301 296
f 172 214 159
f 159 193 172
f 167 159 214
f 133 146 167
f 146 159 167
f 235 261 227
f 261 214 227
f 227 214 172
f 206 235 227
f 227 180 206
f 172 180 227
f 209 217 175
f 209 230 217
f 120 154 141
f 120 94 107
f 141 94 120
f 197 184 210
f 210 218 197
f 176 218 210
f 150 137 163
f 137 142 163
f 163 192 150
f 163 226 192
f 163 142 171
f 171 226 163
f 103 137 150
f 150 116 103
f 84 105 139
f 204 183 212
f 191 204 225
f 81 115 123
f 136 102 123
f 128 94 141
f 128 115 94
f 128 141 162
f 131 102 136
f 131 191 144
f 136 191 131
f 144 118 131
f 118 97 131
f 131 97 102
f 18 73 39
f 23 5 10
f 23 18 5
f 31 18 23
f 57 78 44
f 62 70 57
f 57 70 104
f 44 78 86
f 12 7 4
f 4 9 12
f 9 25 12
f 21 29 16
f 16 8 21
f 21 42 29
f 82 48 53
f 69 48 82
f 40 53 27
f 27 53 48
f 3 16 11
f 137 103 95
f 95 103 116
f 95 116 82
f 189 168 147
f 29 63 58
f 58 50 29
f 58 63 84
f 58 45 50
f 26 18 39
f 300 279 292
f 292 355 300
f 358 379 366
f 358 371 379
f 358 337 363
f 363 371 358
f 312 346 333
f 320 291 312
f 304 346 312
f 312 291 304
f 394 399 397
f 397 381 394
f 397 399 400
f 384 381 397
f 400 392 397
f 397 392 384
f 334 321 300
f 300 355 334
f 376 381 384
f 389 381 376
f 376 334 355
f 384 342 376
f 342 334 376
f 373 389 368
f 368 360 373
f 389 376 368
f 368 376 355
f 347 360 368
f 308 266 282
f 248 253 308
f 308 295 248
f 282 295 308
f 274 253 219
f 274 219 232
f 232 266 274
f 266 308 274
f 274 308 253
f 83 75 109
f 96 70 83
f 96 117 70
f 83 109 96
f 143 117 96
f 96 109 143
f 151 185 198
f 151 117 185
f 151 198 206
f 206 180 151
f 151 180 193
f 164 135 177
f 213 174 200
f 200 174 179
f 234 226 268
f 268 247 234
f 294 255 268
f 268 255 247
f 216 229 195
f 195 187 216
f 216 187 208
f 263 229 216
f 216 208 263
f 114 88 54
f 54 75 67
f 54 88 75
f 85 72 51
f 80 85 127
f 80 72 85
f 114 135 101
f 101 88 114
f 166 179 132
f 132 124 166
f 166 124 145
f 98 111 90
f 98 124 111
f 82 124 98
f 98 69 82
f 344 331 323
f 344 302 336
f 323 302 344
f 336 357 344
f 339 360 347
f 339 352 360
f 365 394 373
f 373 352 365
f 365 357 378
f 365 352 331
f 365 344 357
f 331 344 365
f 243 269 222
f 345 332 337
f 345 358 366
f 337 358 345
f 366 374 345
f 374 332 345
f 256 311 269
f 269 243 256
f 324 311 256
f 256 214 261
f 256 243 214
f 248 324 256
f 256 261 248
f 290 269 298
f 269 311 298
f 298 311 303
f 298 332 290
f 303 332 298
f 244 223 236
f 236 291 244
f 236 257 304
f 304 291 236
f 252 231 265
f 252 299 286
f 265 299 252
f 286 273 252
f 273 231 252
f 377 369 385
f 385 372 377
f 377 372 364
f 304 317 325
f 325 317 338
f 325 346 304
f 338 346 325
f 364 372 351
f 330 364 351
f 351 317 330
f 351 359 338
f 338 317 351
f 367 359 351
f 351 372 367
f 378 383 386
f 383 391 386
f 386 365 378
f 394 365 386
f 386 399 394
f 386 391 399
f 333 359 354
f 359 380 354
f 354 362 320
f 354 375 362
f 354 380 375
f 320 312 354
f 354 312 333
f 259 238 251
f 259 272 238
f 277 230 264
f 222 269 264
f 264 269 277
f 264 209 222
f 230 209 264
f 340 374 353
f 374 382 353
f 267 272 293
f 322 267 293
f 293 306 322
f 314 306 293
f 361 306 340
f 348 306 361
f 340 353 361
f 361 353 382
f 356 348 361
f 361 382 356
f 254 288 283
f 257 202 262
f 202 215 262
f 138 146 104
f 138 159 146
f 104 117 138
f 175 154 188
f 188 209 175
f 181 126 152
f 181 105 126
f 152 215 181
f 181 215 202
f 275 301 288
f 267 225 246
f 212 272 246
f 246 272 267
f 246 204 212
f 246 225 204
f 162 183 170
f 149 123 115
f 115 128 149
f 136 123 149
f 149 128 162
f 162 170 149
f 73 18 52
f 52 31 44
f 52 18 31
f 44 31 36
f 36 57 44
f 36 23 10
f 31 23 36
f 112 146 133
f 112 86 146
f 112 120 107
f 107 86 112
f 146 86 91
f 91 86 78
f 104 146 91
f 91 57 104
f 78 57 91
f 49 83 62
f 49 75 83
f 7 12 20
f 56 98 90
f 69 98 56
f 48 69 56
f 40 27 14
f 14 11 19
f 24 11 16
f 19 11 24
f 4 3 1
f 1 9 4
f 100 108 74
f 74 108 95
f 82 53 61
f 61 95 82
f 61 74 95
f 61 53 40
f 155 147 168
f 100 147 155
f 155 108 100
f 168 176 155
f 176 210 155
f 155 210 184
f 171 142 129
f 129 184 171
f 129 155 184
f 108 155 129
f 137 95 121
f 95 108 121
f 108 129 121
f 121 142 137
f 121 129 142
f 40 14 32
f 32 14 19
f 19 24 32
f 32 24 45
f 45 58 79
f 89 123 102
f 81 123 89
f 34 26 39
f 39 81 34
f 42 21 47
f 21 26 47
f 26 34 47
f 47 68 42
f 47 34 68
f 5 18 13
f 18 26 13
f 13 8 5
f 13 21 8
f 13 26 21
f 245 271 258
f 258 279 245
f 258 292 279
f 342 350 329
f 329 334 342
f 329 350 321
f 321 334 329
f 190 177 211
f 190 164 177
f 143 135 130
f 135 164 130
f 130 185 143
f 226 239 260
f 260 268 226
f 260 239 273
f 273 281 260
f 260 281 294
f 294 268 260
f 114 54 93
f 72 80 93
f 93 127 114
f 93 80 127
f 67 72 59
f 59 54 67
f 72 93 59
f 59 93 54
f 119 85 77
f 85 51 77
f 77 111 119
f 90 111 77
f 38 51 72
f 38 9 30
f 17 9 38
f 122 135 143
f 122 101 135
f 143 109 122
f 88 101 122
f 75 88 122
f 122 109 75
f 158 166 145
f 213 200 158
f 158 200 179
f 179 166 158
f 234 213 158
f 158 145 234
f 249 236 223
f 257 236 249
f 223 202 249
f 249 202 257
f 369 377 343
f 343 377 364
f 309 335 343
f 343 296 309
f 356 369 343
f 343 335 356
f 343 364 330
f 330 296 343
f 319 314 285
f 285 251 319
f 285 259 251
f 272 259 285
f 285 293 272
f 314 293 285
f 215 254 228
f 228 262 215
f 193 159 125
f 159 138 125
f 125 151 193
f 117 151 125
f 125 138 117
f 222 209 201
f 209 188 201
f 201 167 214
f 133 167 201
f 201 243 222
f 214 243 201
f 201 188 154
f 201 112 133
f 154 120 201
f 120 112 201
f 173 139 105
f 105 181 173
f 173 181 202
f 301 275 280
f 280 267 322
f 322 301 280
f 280 225 267
f 280 275 225
f 157 191 136
f 136 149 157
f 157 204 191
f 157 149 170
f 183 204 157
f 157 170 183
f 99 73 65
f 73 52 65
f 107 99 65
f 65 86 107
f 44 86 65
f 65 52 44
f 7 20 15
f 10 2 15
f 15 2 7
f 15 36 10
f 49 20 33
f 33 12 25
f 33 20 12
f 28 20 49
f 62 57 28
f 28 49 62
f 28 15 20
f 57 36 28
f 36 15 28
f 22 14 27
f 30 9 22
f 35 27 48
f 48 56 35
f 35 22 27
f 37 24 16
f 45 24 37
f 50 45 37
f 16 29 37
f 29 50 37
f 11 14 6
f 3 11 6
f 6 1 3
f 9 1 6
f 6 22 9
f 14 22 6
f 74 61 66
f 66 32 45
f 66 61 40
f 40 32 66
f 113 79 71
f 84 139 71
f 71 139 113
f 55 102 76
f 55 89 102
f 76 42 55
f 42 68 55
f 81 89 60
f 60 34 81
f 68 34 60
f 60 55 68
f 89 55 60
f 292 258 313
f 313 339 347
f 347 368 313
f 355 292 313
f 313 368 355
f 211 185 156
f 156 190 211
f 185 130 156
f 164 190 156
f 156 130 164
f 64 56 90
f 90 77 64
f 64 38 30
f 64 77 51
f 51 38 64
f 270 254 283
f 270 228 254
f 262 228 270
f 257 262 270
f 270 283 304
f 304 257 270
f 189 147 160
f 160 147 113
f 288 254 241
f 241 220 288
f 233 275 288
f 288 220 233
f 67 75 41
f 75 49 41
f 49 33 41
f 46 25 17
f 46 33 25
f 46 41 33
f 67 41 46
f 46 72 67
f 17 38 46
f 46 38 72
f 74 66 87
f 100 74 87
f 45 79 87
f 87 66 45
f 87 147 100
f 113 147 87
f 87 79 113
f 92 79 58
f 92 71 79
f 92 58 84
f 84 71 92
f 271 305 318
f 284 258 271
f 284 313 258
f 271 318 284
f 284 318 313
f 43 35 56
f 56 64 43
f 43 64 30
f 30 22 43
f 22 35 43
f 194 173 202
f 194 160 173
f 194 202 223
f 194 223 189
f 189 160 194
f 139 173 134
f 173 160 134
f 113 139 134
f 134 160 113
f 165 215 152
f 152 118 165
f 225 275 186
f 275 233 186
f 191 225 186
f 144 191 186
f 339 313 326
f 313 318 326
f 326 318 305
f 326 305 310
f 310 352 326
f 352 339 326
f 199 233 220
f 220 241 199
f 199 241 254
f 199 254 215
f 215 165 199
f 178 118 144
f 144 186 178
f 178 165 118
f 178 199 165
f 233 199 207
f 199 178 207
f 207 186 233
f 207 178 186

