# https://github.com/mikedh/trimesh
v 0.00100198 0.00749720 1.99998570
v -0.30358890 -0.19024700 1.96764831
v 0.10623411 -0.06713363 1.99604794
v -0.22279697 0.27428235 1.96853517
v -0.14852409 -0.53354433 1.92178850
v 0.60950393 0.23420929 1.89041027
v -0.61516440 0.03043833 1.90279959
v 0.30217720 -0.42296712 1.93126584
v -0.06339064 0.59054752 1.90977361
v -0.22217013 -0.42085654 1.94255507
v 0.53032721 0.12208731 1.92453832
v -0.47708564 0.35246621 1.91001488
v -0.00300160 -0.62790043 1.89887652
v 0.37040869 0.40162230 1.92392747
v -0.65489448 -0.33913247 1.85905954
v 0.64168009 -0.42312412 1.84640533
v -0.21307689 0.87941807 1.78359808
v -0.43204100 -0.66214596 1.83709099
v 0.97865009 0.24319906 1.72716479
v -0.80548081 0.15467973 1.82408192
v 0.34455605 -0.80739100 1.79705339
v 0.12291969 0.83060796 1.81520830
v -0.64306437 -0.49087735 1.82907289
v 1.00931213 -0.09547468 1.72399931
v -0.50133500 0.80258584 1.76196458
v -0.00742027 -0.88282692 1.79459231
v 0.77298221 0.67167195 1.71795090
v -0.84527280 0.13790491 1.80734505
v 0.81905408 -0.57614045 1.73124597
v 0.03149461 1.16899682 1.62248406
v -0.59562399 -1.02062794 1.61355219
v 1.19561065 -0.07127290 1.60169765
v -1.20685475 0.32108406 1.56218010
v 0.30422610 -0.90773877 1.75597745
v 0.70992720 0.83470471 1.67310233
v -1.00735192 -0.59098359 1.62357029
v 1.17306540 -0.26272437 1.59840341
v -0.40477844 1.19735187 1.55000094
v -0.37029742 -1.02326637 1.67803628
v 0.92018852 0.49545904 1.70521946
v -1.21356843 0.54142207 1.49469522
v 0.76484393 -1.09694093 1.48719009
v -0.24871467 1.33908463 1.46457959
v -0.85378601 -1.03991560 1.47973815
v 1.11437629 0.24467004 1.64265092
v -0.65639703 1.06632153 1.55951958
v 0.38365136 -1.12022546 1.61180227
v 1.11991025 0.80325711 1.44933746
v -1.30884607 -0.27983913 1.48613998
v 1.03103793 -0.54786587 1.62382381
v -0.33781116 1.38832298 1.39944379
v -0.65307576 -1.12622683 1.51825728
v 1.11536596 0.72414626 1.49384436
v -0.98838757 0.72465375 1.58049579
v 0.76356019 -1.20346921 1.40308150
v 0.73652075 1.09195368 1.50504962
v -1.11452767 -0.59531723 1.55029851
v 1.41191019 -0.29491240 1.38547331
v -0.83458531 1.11647707 1.43420581
v -0.37398713 -1.26416296 1.50400321
v 1.22338272 0.56988839 1.47599524
v -1.40681258 0.37744356 1.37055271
v 1.36145741 -0.78447209 1.23735090
v -0.18508336 1.52191781 1.28433264
v -0.72156122 -1.34994981 1.28723926
v 1.35266042 0.19198495 1.46063396
v -1.30789745 0.92728132 1.19563942
v 0.57725651 -1.35796971 1.35007155
v 1.09955521 1.13203987 1.22860249
v -1.46092219 -0.03036114 1.36557114
v 1.43065400 -0.75848334 1.17385355
v -0.75568612 1.30300381 1.31572016
v -0.90780561 -1.17478619 1.34006208
v 1.45096586 0.29060895 1.34545327
v -1.51212281 0.24347422 1.28615898
v 0.47094970 -1.60707891 1.09339095
v -0.06854976 1.59122843 1.20966649
v -1.43654637 -0.55615242 1.27555047
v 1.45490126 -0.58113806 1.24319784
v -1.18756069 1.03775234 1.22994703
v 0.14551376 -1.67037692 1.09025992
v 1.24947426 0.80738249 1.33676759
v -1.67475776 -0.12011220 1.08662759
v 1.34669053 -0.78209875 1.25488890
v 0.20553665 1.71206112 1.01321341
v -1.20413147 -1.21443411 1.03692680
v 1.66848540 0.51120050 0.97715430
v -1.56214120 0.60648978 1.09173487
v 0.55748691 -1.52324046 1.17002002
v 0.89436312 1.36226811 1.15945686
v -1.60867591 -0.73574491 0.93318874
v 1.73822761 -0.04741659 0.98808726
v -0.99606952 1.40206130 1.02081812
v -0.13678930 -1.72408408 1.00440170
v 1.36777582 0.90988979 1.14074094
v -1.65922913 0.09216668 1.11286297
v 1.26086477 -1.13652578 1.05760540
v -0.30385734 1.62647068 1.12350517
v -1.09198104 -1.39375750 0.93006313
v 1.65762635 -0.22230851 1.09674692
v -1.16811387 1.39094931 0.83712005
v -0.24367788 -1.78700164 0.86443406
v 1.19388016 1.20476600 1.05980615
v -1.65326721 -0.75873614 0.83128033
v 1.55641231 -0.86921151 0.90667088
v -0.46890604 1.73975495 0.86797456
v -0.93058873 -1.50515470 0.93194096
v 1.58579460 0.75843566 0.95395536
v -1.56098502 0.63573396 1.07664669
v 0.73974025 -1.69275953 0.76638732
v 0.62420649 1.74130334 0.76041367
v -1.32820926 -1.13343048 0.97529253
v 1.74619583 -0.20806951 0.95263173
v -1.12477159 1.34990076 0.95533073
v -0.53845116 -1.65592189 0.98386638
v 1.20003768 1.38424658 0.80235340
v -1.78527776 0.55258356 0.71234452
v 1.57307069 -0.90159287 0.84414388
v 0.20009990 1.74065154 0.96441290
v -1.27305977 -1.22447755 0.93806906
v 1.77127688 0.16666815 0.91367387
v -1.17021225 1.35019530 0.89865228
v 0.41310287 -1.80302557 0.76055560
v 1.15562885 1.49946492 0.64507898
v -1.68693487 -0.74192012 0.77704909
v 1.48973738 -1.20109099 0.58143183
v -0.27698401 1.81342838 0.79671661
v -0.32046506 -1.81217698 0.78314541
v 1.71261566 0.69968345 0.75986227
v -1.82105094 -0.01840471 0.82670111
v 0.85023636 -1.63201737 0.78333736
v 0.19270629 1.91413199 0.54677512
v -1.24551212 -1.44798972 0.59331724
v 1.84945139 -0.46003524 0.60654526
v -1.06431502 1.53223640 0.72075318
v 0.63529006 -1.83550041 0.47680688
v 0.95909791 1.61122510 0.69576208
v -1.91040735 0.18195881 0.56323597
v 1.62438993 -0.85955759 0.78899817
v -0.58566131 1.81605679 0.59911482
v -1.32630140 -1.31638744 0.71277536
v 1.91712689 0.04172272 0.56822858
v -1.91015202 0.36606299 0.46617288
v 1.06309276 -1.54216253 0.70111947
v 0.13518790 1.91967848 0.54457211
v -1.80505070 -0.59719588 0.62060378
v 1.87805801 -0.31852200 0.60946031
v -1.28673860 1.42863746 0.55072568
v -0.65812882 -1.85501574 0.35465909
v 1.82856186 0.74413189 0.32035802
v -1.96075769 -0.18671622 0.34722663
v 1.61613561 -1.07556459 0.48090176
v -0.12776120 1.95856779 0.38430363
v -0.91884752 -1.69694473 0.52545012
v 1.93580326 0.36499929 0.34560272
v -1.69514027 1.01811117 0.29991518
v 0.89691311 -1.76797825 0.26419652
v 1.17518116 1.55096838 0.46200252
v -1.97932393 -0.12286728 0.25919187
v 1.80241354 -0.74691548 0.43979847
v -1.09738185 1.65632581 0.22877476
v -0.30512436 -1.91869950 0.47485930
v 1.90657045 0.48986616 0.35358204
v -1.94480188 0.09377749 0.45711204
v 1.28180006 -1.52210453 0.20046546
v -0.03060326 1.99097490 0.18730288
v -1.23134319 -1.54025924 0.33375953
v 1.97434348 -0.13421686 0.28974758
v -0.99607691 1.68358667 0.41637329
v 0.25369548 -1.94117704 0.40923135
v 1.33498031 1.46736330 0.25430792
v -1.98295071 -0.12358060 0.22942169
v 1.11890857 -1.65228399 0.13416858
v -0.07855432 1.99580032 0.10300626
v -1.38659192 -1.42425928 0.22101669
v 1.96411867 -0.03838323 0.37518607
v -1.87921757 0.55261519 0.40392793
v 0.44853130 -1.91703985 0.35182081
v 0.54001394 1.89968928 0.31554015
v -1.92028088 -0.40877327 0.38134726
v 1.92766343 -0.52803084 0.07278144
v -1.35563668 1.46844794 0.07687532
v -0.94474653 -1.76270138 0.01837994
v 1.78153631 0.90865892 0.02161842
v -1.98587618 -0.16070999 0.17455119
v 1.60926780 -1.15808997 0.26283983
v 0.36568349 1.94782538 0.26879711
v -1.74797301 -0.97159934 -0.02418826
v 1.92747665 -0.53369233 0.00249939
v -1.18567117 1.61044589 -0.02545415
v 0.04820196 -1.99831486 -0.06644013
v 0.85898897 1.80468840 0.07237225
v -1.78468722 -0.89420257 0.12366612
v 1.91411857 -0.54649453 0.19363323
v -0.72854922 1.86255862 -0.00956191
v -0.62950427 -1.89572232 -0.09980612
v 1.91626322 0.54092067 0.18798967
v -1.97161553 0.27771230 0.18870108
v 0.67451789 -1.87979173 0.10681145
v 0.03091625 1.99192186 -0.17689406
v -1.56690758 -1.24148370 0.05931990
v 1.97229292 -0.33095209 -0.02305130
v -1.50301795 1.30914249 0.16456909
v -0.34060340 -1.96872939 -0.08996612
v 1.17448078 1.61694959 0.07790322
v -1.92498680 0.52969849 0.11766611
v 1.22569658 -1.58038925 -0.00614183
v 0.38565886 1.94969560 -0.22350458
v -1.39847581 -1.41795002 -0.18352975
v 1.99987408 0.02216755 0.00350101
v -1.53036551 1.27504441 -0.17956380
v 0.75385043 -1.83411295 -0.26026755
v 1.20448958 1.59625226 -0.03440298
v -1.87764274 -0.66100922 -0.19371254
v 1.88868725 -0.65756492 -0.02165250
v -1.11179336 1.66240006 -0.01848178
v -0.96873762 -1.73722812 -0.20877234
v 1.65731676 1.08111536 -0.29067289
v -1.98914255 0.12393185 -0.16719098
v 0.54961687 -1.91263799 -0.19934192
v -0.26063063 1.94743061 -0.37361170
v -1.58618114 -1.19290262 -0.24700751
v 1.97833425 -0.21129338 -0.20383494
v -1.39942374 1.42525497 -0.10129885
v 0.14921178 -1.95145032 -0.41179790
v 1.17866275 1.59089228 -0.28251703
v -1.91629116 -0.54032193 -0.18942122
v 1.72892895 -0.95870386 -0.30280619
v -0.51122076 1.91836534 -0.24192511
v -1.03419543 -1.70534264 -0.14915190
v 1.86761625 0.52351866 -0.48778862
v -1.49105989 1.29825155 -0.30213126
v 0.98791286 -1.67118225 -0.48080979
v 0.40658699 1.91573804 -0.40575211
v -1.90983117 -0.39032629 -0.44742631
v 1.92288562 -0.24013767 -0.49481794
v -1.36010355 1.42460601 -0.34729822
v -0.27955713 -1.89927272 -0.56090190
v 1.22063086 1.54429122 -0.35387136
v -1.95849845 0.31144479 -0.25939537
v 1.00174769 -1.63481419 -0.56910818
v -0.45245956 1.92004176 -0.32972712
v -1.58769045 -1.05869539 -0.59866779
v 1.96105171 -0.28747732 -0.26764338
v -1.77978171 0.78087581 -0.47181568
v -0.27648405 -1.93244292 -0.43499534
v 1.25176033 1.51461799 -0.37286515
v -1.93757497 -0.26796727 -0.41712919
v 1.53239355 -1.18517280 -0.49712719
v -0.45061701 1.89824715 -0.44000234
v -0.60938469 -1.83139738 -0.52405527
v 1.76626021 0.70568951 -0.61832611
v -1.80001215 0.62587589 -0.60682421
v 0.47141853 -1.85963226 -0.56527199
v 0.32043152 1.90266016 -0.52650540
v -1.76104858 -0.73242949 -0.60187619
v 1.91547198 0.09442058 -0.56749612
v -1.47586810 1.22750694 -0.56128431
v -0.40869388 -1.91383873 -0.41254169
v 1.05915094 1.62622947 -0.48329806
v -1.84348763 0.43610049 -0.64138111
v 1.49498481 -1.23396635 -0.49228800
v 0.10605715 1.88017756 -0.67356086
v -1.06383379 -1.55277793 -0.67612007
v 1.92713114 0.02952390 -0.53412911
v -1.28795698 1.36449014 -0.69233914
v -0.00063521 -1.84806777 -0.76462089
v 0.40788979 1.89253034 -0.50195104
v -1.77429807 -0.31550070 -0.86736710
v 1.70482138 -0.64490503 -0.82321417
v -0.93905543 1.66540904 -0.58701586
v -0.50553201 -1.77732831 -0.76520681
v 1.29966203 1.38537685 -0.62578717
v -1.90620191 0.21327822 -0.56648624
v 1.20102968 -1.30829350 -0.91972595
v 0.11227689 1.85557235 -0.73772972
v -1.61337101 -0.95252882 -0.69980198
v 1.84457856 0.22580920 -0.73928353
v -1.63601791 0.89742586 -0.71977235
v 0.54289854 -1.75646782 -0.78745285
v 0.70557167 1.60273123 -0.96613727
v -1.88760669 0.03976657 -0.65981786
v 1.72234705 -0.64369211 -0.78688061
v -0.92244752 1.64244843 -0.67190305
v -0.49082688 -1.65737745 -1.00607602
v 1.83910379 0.26321444 -0.74055074
v -1.77214269 0.48641972 -0.78924403
v 0.76625755 -1.52459739 -1.04328911
v 0.23887428 1.84038479 -0.74560238
v -1.66381617 -0.36130544 -1.04936844
v 1.77416774 0.00161563 -0.92321515
v -0.94004569 1.45889744 -0.99394787
v 0.20455555 -1.80765535 -0.83098685
v 1.53824757 0.71612297 -1.05875507
v -1.74117010 0.05053773 -0.98273732
v 1.18083027 -1.36914131 -0.85503915
v -0.04243545 1.75361703 -0.96074270
v -0.95929445 -1.53780238 -0.84552824
v 1.73454773 0.36479214 -0.92642909
v -1.08216378 1.38973061 -0.94740191
v 0.61647329 -1.57803258 -1.06290822
v 1.14605976 1.15446828 -1.16350763
v -1.34769657 -0.88201648 -1.18564788
v 1.53239128 -0.88297350 -0.93388155
v -0.71730038 1.44777398 -1.17874113
v -0.78196300 -1.57617170 -0.95090306
v 1.64507733 0.38630882 -1.06980657
v -1.56192126 0.72742102 -1.01551004
v 0.85065816 -1.40074855 -1.14642235
v 0.37981172 1.69004149 -0.99975137
v -1.32972122 -0.98432346 -1.12380995
v 1.55821641 -0.65474428 -1.06923877
v -1.25079846 0.92565625 -1.25644885
v 0.26779439 -1.73122901 -0.96495195
v 1.11828164 1.23776223 -1.10335435
v -1.53854439 -0.36159681 -1.22561368
v 1.16215745 -1.11900748 -1.18203737
v -0.71066205 1.49870717 -1.11751342
v -1.05723375 -1.29617917 -1.09643803
v 1.53739397 0.06798890 -1.27741821
v -1.57208350 0.48297570 -1.13810717
v 0.51149717 -1.49715731 -1.22347482
v 0.24013130 1.60756256 -1.16536671
v -1.44041021 -0.55620964 -1.27116060
v 1.33312304 -0.74311391 -1.29250326
v -0.59469709 1.50720927 -1.17245708
v -0.22458417 -1.54649264 -1.24816764
v 1.26068392 0.69878565 -1.38649727
v -1.43734940 -0.17064727 -1.38018339
v 0.97814429 -1.16207487 -1.30108253
v -0.33579528 1.39930145 -1.38895536
v -1.13412619 -1.06061054 -1.26050112
v 1.43658879 0.32977875 -1.35183528
v -1.42324509 0.71778765 -1.20795460
v 0.55410346 -1.43094014 -1.28272353
v 0.91300667 0.98167874 -1.48415824
v -1.49445052 -0.45445758 -1.24903400
v 1.27984794 -0.63325223 -1.40035027
v -0.36060119 1.30435314 -1.47262679
v -0.58960441 -1.27104574 -1.42716831
v 1.27949414 0.80567839 -1.30911309
v -1.45450693 0.31732283 -1.33555824
v 0.48923211 -1.36406664 -1.37839549
v 0.05912534 1.42019019 -1.40696980
v -1.24433588 -0.78875854 -1.35258574
v 1.41724163 0.13032548 -1.40514819
v -1.07674547 0.91239099 -1.41709628
v -0.51370436 -1.37412544 -1.35937012
v 0.76422805 0.93758269 -1.59276306
v -1.26305410 -0.23390114 -1.53296595
v 1.07376761 -0.87998124 -1.43967223
v 0.15563450 1.43194498 -1.38755594
v -0.81095434 -0.95191539 -1.56083636
v 1.24657402 0.04198176 -1.56342276
v -1.12807127 0.34633680 -1.61477739
v 0.02050691 -1.26442044 -1.54945811
v 0.48782140 1.14784260 -1.56348573
v -1.15305459 -0.57461013 -1.52980009
v 1.33466193 -0.29498981 -1.46002005
v -0.58710743 1.01689249 -1.61902271
v -0.60402051 -1.17836933 -1.49886788
v 0.80495016 0.82518623 -1.63435704
v -1.01025722 0.17424614 -1.71727069
v 0.69636316 -1.06815463 -1.54081927
v -0.14523803 1.08798057 -1.67188642
v -1.07319159 -0.67014714 -1.54892305
v 1.18917771 0.09283392 -1.60537791
v -0.99020678 0.58024287 -1.63792819
v 0.16017419 -1.12218516 -1.64773927
v 0.60542148 0.99537806 -1.62563445
v -1.13976086 -0.19770269 -1.63152041
v 0.70957258 -0.70816258 -1.73061044
v -0.40585853 0.77354401 -1.79914105
v -0.37993327 -0.82651832 -1.78115641
v 0.86397851 0.29803008 -1.77896577
v -1.09284040 0.24924281 -1.65637492
v 0.13870364 -0.87500957 -1.79307544
v 0.17192861 0.83032757 -1.81135217
v -0.78561824 -0.13939820 -1.83394987
v 0.85145698 -0.31799971 -1.78154349
v -0.32435240 0.60151998 -1.87961944
v -0.39030705 -0.84062194 -1.77229094
v 0.67832496 0.47639572 -1.82014350
v -0.87530271 0.36879890 -1.76006606
v 0.45637398 -0.46370627 -1.89121635
v 0.10882196 0.66612434 -1.88266729
v -0.53401966 -0.37137513 -1.89127034
v 0.71086901 0.16360945 -1.86222909
v -0.38889483 0.29496071 -1.93952545
v -0.07737868 -0.68219002 -1.87846462
v 0.43508138 0.49563885 -1.88813303
v -0.57945637 -0.10429878 -1.91137440
v 0.47985097 -0.19672201 -1.93159092
v -0.02450037 0.48871960 -1.93921450
v -0.25590513 -0.38265567 -1.94630090
v 0.21159675 0.13111560 -1.98444842
v -0.28358317 0.12048398 -1.97612353
v 0.22978115 -0.35008812 -1.95566841
v 0.04448340 0.25064932 -1.98373288
v -0.00000000 -0.00000000 -2.00000000
f 327 314 267
f 195 153 174
f 392 395 387
f 163 197 150
f 119 85 111
f 228 244 215
f 231 197 210
f 191 170 162
f 1 4 2
f 2 15 10
f 57 36 49
f 49 78 57
f 57 44 36
f 57 78 86
f 227 180 185
f 91 78 83
f 28 33 49
f 49 36 28
f 36 15 28
f 49 33 70
f 96 83 70
f 70 78 49
f 70 83 78
f 41 67 88
f 9 12 4
f 9 17 25
f 25 12 9
f 97 84 42
f 97 105 71
f 175 209 230
f 251 306 272
f 264 209 243
f 230 209 264
f 398 395 400
f 322 314 327
f 335 322 343
f 353 361 332
f 356 322 327
f 356 343 322
f 390 398 377
f 395 398 390
f 319 264 243
f 240 274 219
f 216 195 271
f 271 190 216
f 161 195 216
f 216 190 161
f 300 284 292
f 292 284 318
f 368 334 347
f 347 334 313
f 347 313 300
f 300 292 347
f 321 334 342
f 342 295 321
f 69 82 95
f 273 247 218
f 250 284 271
f 318 284 250
f 160 215 194
f 265 236 291
f 218 231 252
f 252 273 218
f 294 273 252
f 154 128 115
f 154 183 149
f 149 183 196
f 149 128 154
f 162 128 149
f 97 144 126
f 94 123 81
f 123 76 81
f 15 2 7
f 20 28 7
f 7 28 15
f 7 12 20
f 4 12 7
f 7 2 4
f 1 2 3
f 3 2 10
f 73 57 86
f 44 57 73
f 86 99 73
f 52 44 73
f 198 240 219
f 206 240 198
f 151 185 180
f 130 151 180
f 164 151 130
f 138 164 130
f 130 83 96
f 88 67 109
f 67 156 109
f 203 224 211
f 211 156 203
f 143 164 138
f 143 198 164
f 96 70 75
f 88 96 75
f 54 41 33
f 54 28 20
f 33 28 54
f 20 12 54
f 54 12 25
f 80 67 54
f 67 41 54
f 155 142 176
f 155 176 210
f 155 163 121
f 121 142 155
f 210 197 155
f 155 197 163
f 160 194 134
f 61 74 82
f 45 61 40
f 56 85 30
f 1 3 14
f 14 3 11
f 14 4 1
f 14 9 4
f 97 42 55
f 55 42 47
f 63 84 97
f 97 71 63
f 153 195 140
f 140 135 106
f 227 235 214
f 243 209 222
f 293 267 314
f 314 280 293
f 212 207 173
f 204 246 191
f 191 162 204
f 204 149 196
f 162 149 204
f 259 196 251
f 259 204 196
f 246 204 259
f 285 272 306
f 327 267 285
f 267 272 285
f 230 264 217
f 217 264 251
f 251 196 217
f 217 183 230
f 196 183 217
f 372 338 351
f 380 338 372
f 354 380 367
f 367 380 388
f 387 353 366
f 343 356 369
f 361 353 382
f 382 356 361
f 382 353 387
f 377 369 382
f 382 369 356
f 306 319 348
f 348 285 306
f 327 285 348
f 348 356 327
f 361 356 348
f 298 319 306
f 264 319 298
f 298 306 251
f 251 264 298
f 321 295 287
f 295 269 282
f 282 287 295
f 274 287 282
f 219 274 282
f 279 287 253
f 266 284 300
f 271 284 266
f 300 313 266
f 313 279 266
f 266 279 258
f 237 266 258
f 271 266 237
f 237 190 271
f 237 224 190
f 253 240 245
f 245 240 206
f 245 279 253
f 245 156 211
f 206 156 245
f 258 279 245
f 311 319 243
f 243 277 311
f 332 319 311
f 256 235 269
f 256 214 235
f 256 277 243
f 188 214 256
f 243 222 256
f 256 222 188
f 368 347 360
f 379 384 392
f 379 392 387
f 387 366 379
f 379 366 371
f 290 256 269
f 277 256 290
f 290 269 295
f 295 316 290
f 355 334 368
f 355 342 334
f 368 384 355
f 329 316 295
f 295 342 329
f 121 163 129
f 163 150 129
f 150 171 129
f 218 171 184
f 184 171 150
f 184 150 197
f 184 231 218
f 197 231 184
f 218 247 213
f 213 171 218
f 247 273 260
f 268 234 260
f 260 234 192
f 323 357 352
f 174 153 166
f 166 200 174
f 166 187 200
f 119 111 132
f 111 179 132
f 132 179 187
f 271 195 229
f 229 250 271
f 229 195 174
f 223 265 210
f 223 236 265
f 244 236 223
f 228 262 249
f 317 304 275
f 275 309 317
f 304 249 275
f 275 249 262
f 265 291 257
f 210 265 257
f 257 231 210
f 307 291 320
f 320 333 307
f 307 333 294
f 328 333 367
f 294 333 328
f 370 383 391
f 383 388 391
f 400 395 397
f 395 392 397
f 352 357 344
f 297 323 344
f 344 323 352
f 60 115 94
f 94 81 60
f 60 81 47
f 47 26 60
f 94 115 102
f 102 115 128
f 170 123 102
f 102 123 94
f 102 162 170
f 102 128 162
f 123 136 110
f 110 76 123
f 178 123 170
f 178 136 123
f 199 136 178
f 178 170 191
f 173 144 157
f 157 136 199
f 157 212 173
f 199 212 157
f 186 262 228
f 207 262 186
f 228 215 186
f 186 215 160
f 165 144 173
f 165 126 144
f 165 186 126
f 173 207 165
f 207 186 165
f 118 105 97
f 97 126 118
f 10 15 23
f 23 18 10
f 23 15 36
f 10 18 5
f 5 18 26
f 115 60 65
f 52 73 65
f 65 60 52
f 159 151 164
f 185 151 159
f 164 198 159
f 190 224 182
f 224 203 182
f 161 190 182
f 117 109 156
f 88 109 117
f 117 143 138
f 117 96 88
f 138 130 117
f 117 130 96
f 62 70 33
f 62 75 70
f 33 41 62
f 62 41 88
f 88 75 62
f 210 176 168
f 92 142 121
f 121 74 92
f 100 92 74
f 53 61 82
f 53 40 61
f 66 61 45
f 74 61 66
f 66 100 74
f 50 42 84
f 45 40 19
f 9 14 22
f 22 14 35
f 30 17 22
f 17 9 22
f 22 56 30
f 35 56 22
f 6 14 11
f 6 19 40
f 35 14 27
f 27 53 35
f 40 53 27
f 27 6 40
f 14 6 27
f 68 55 47
f 47 81 68
f 77 85 119
f 30 85 77
f 106 98 127
f 127 77 119
f 98 77 127
f 153 140 127
f 127 140 106
f 38 17 30
f 25 17 38
f 161 182 148
f 148 182 203
f 148 203 156
f 169 195 161
f 169 140 195
f 135 140 169
f 161 148 169
f 169 148 135
f 154 133 167
f 167 133 175
f 167 183 154
f 167 175 230
f 230 183 167
f 141 133 99
f 175 133 141
f 193 214 188
f 193 180 227
f 227 214 193
f 193 141 125
f 188 222 201
f 201 193 188
f 209 175 201
f 201 222 209
f 175 141 201
f 141 193 201
f 267 293 225
f 191 246 225
f 246 259 238
f 238 272 267
f 251 272 238
f 238 259 251
f 267 225 238
f 238 225 246
f 385 380 372
f 385 372 377
f 377 398 385
f 346 333 320
f 367 333 346
f 346 354 367
f 338 380 359
f 380 354 359
f 359 346 320
f 354 346 359
f 367 388 375
f 375 388 383
f 375 328 367
f 301 280 314
f 314 322 301
f 301 322 335
f 372 351 364
f 335 343 364
f 343 369 364
f 377 372 364
f 364 369 377
f 374 390 377
f 377 382 374
f 395 390 374
f 387 395 374
f 374 382 387
f 361 348 340
f 340 348 319
f 332 361 340
f 340 319 332
f 253 287 261
f 261 287 274
f 261 240 253
f 274 240 261
f 269 235 248
f 248 282 269
f 219 282 248
f 248 235 227
f 248 185 219
f 227 185 248
f 313 334 308
f 308 279 313
f 308 334 321
f 321 287 308
f 287 279 308
f 232 237 258
f 232 245 211
f 258 245 232
f 211 224 232
f 224 237 232
f 345 353 332
f 345 366 353
f 384 379 363
f 363 379 371
f 87 74 121
f 121 129 87
f 82 74 87
f 116 129 171
f 171 213 205
f 205 158 171
f 205 213 192
f 192 158 205
f 200 187 208
f 208 234 200
f 192 234 208
f 208 179 192
f 187 179 208
f 255 234 268
f 200 234 255
f 255 263 200
f 281 273 315
f 281 260 273
f 315 357 281
f 357 323 281
f 268 260 281
f 226 213 247
f 192 213 226
f 226 260 192
f 174 200 221
f 221 229 174
f 200 263 221
f 297 250 221
f 221 263 297
f 244 223 202
f 202 168 194
f 202 223 210
f 210 168 202
f 283 291 236
f 283 270 291
f 283 244 228
f 283 236 244
f 228 249 283
f 283 249 304
f 304 270 283
f 325 304 317
f 317 351 325
f 325 351 338
f 294 252 299
f 299 307 294
f 291 307 299
f 362 383 370
f 362 375 383
f 328 375 362
f 386 391 394
f 396 391 388
f 396 398 400
f 365 344 357
f 297 344 331
f 26 18 39
f 39 60 26
f 131 110 136
f 136 157 131
f 131 157 144
f 131 144 97
f 97 55 131
f 152 186 160
f 126 186 152
f 152 118 126
f 105 118 139
f 160 134 139
f 139 152 160
f 118 152 139
f 13 5 26
f 107 73 99
f 107 65 73
f 115 65 107
f 154 115 107
f 107 133 154
f 99 133 107
f 185 159 172
f 172 159 198
f 219 185 172
f 172 198 219
f 177 156 206
f 177 117 156
f 143 117 177
f 206 198 177
f 198 143 177
f 147 134 194
f 194 168 147
f 147 168 176
f 176 142 147
f 79 71 105
f 84 63 79
f 79 63 71
f 79 50 84
f 48 82 69
f 48 53 82
f 69 56 48
f 48 56 35
f 35 53 48
f 32 66 45
f 42 50 29
f 89 81 76
f 89 68 81
f 76 110 89
f 110 131 89
f 55 68 89
f 89 131 55
f 119 132 145
f 145 127 119
f 153 127 145
f 145 166 153
f 187 166 145
f 145 132 187
f 46 54 25
f 25 38 46
f 122 156 67
f 122 148 156
f 122 67 80
f 80 114 122
f 120 99 86
f 120 141 99
f 180 193 146
f 146 193 125
f 146 130 180
f 83 130 146
f 91 83 146
f 146 125 91
f 254 293 280
f 254 225 293
f 393 388 380
f 380 385 393
f 393 385 398
f 398 396 393
f 393 396 388
f 291 270 312
f 320 291 312
f 312 359 320
f 312 270 304
f 304 325 312
f 338 359 312
f 312 325 338
f 330 351 317
f 330 364 351
f 317 309 330
f 330 309 335
f 335 364 330
f 337 290 316
f 337 324 290
f 316 329 337
f 337 329 350
f 350 324 337
f 303 324 345
f 332 311 303
f 303 345 332
f 303 311 277
f 277 290 303
f 290 324 303
f 366 345 358
f 345 324 358
f 358 324 350
f 371 366 358
f 358 350 371
f 376 355 384
f 384 363 376
f 376 363 371
f 371 350 376
f 350 329 376
f 342 355 376
f 376 329 342
f 108 87 129
f 129 116 108
f 108 95 82
f 82 87 108
f 90 56 69
f 90 111 85
f 85 56 90
f 137 179 111
f 111 90 137
f 137 90 116
f 137 158 192
f 192 179 137
f 171 158 124
f 124 116 171
f 158 137 124
f 124 137 116
f 268 281 310
f 310 281 323
f 310 323 297
f 247 260 239
f 239 226 247
f 260 226 239
f 250 229 242
f 242 221 250
f 229 221 242
f 189 215 244
f 244 202 189
f 335 309 288
f 288 301 335
f 280 301 288
f 288 241 280
f 286 252 231
f 286 299 252
f 231 257 286
f 336 357 315
f 328 362 336
f 392 384 389
f 389 397 392
f 399 394 391
f 391 396 399
f 399 396 400
f 400 397 399
f 397 389 399
f 399 389 394
f 360 365 373
f 373 365 386
f 373 384 368
f 368 360 373
f 386 365 378
f 378 365 357
f 378 357 370
f 370 391 378
f 378 391 386
f 305 360 347
f 305 292 318
f 305 347 292
f 31 39 18
f 31 44 52
f 52 60 31
f 60 39 31
f 18 23 31
f 36 44 31
f 31 23 36
f 113 139 134
f 134 147 113
f 105 139 113
f 92 100 113
f 113 79 105
f 100 79 113
f 142 92 113
f 113 147 142
f 58 79 100
f 58 32 37
f 37 50 58
f 50 79 58
f 100 66 58
f 66 32 58
f 47 42 21
f 42 29 21
f 21 13 26
f 24 50 37
f 24 29 50
f 24 6 11
f 19 6 24
f 37 32 24
f 45 19 24
f 24 32 45
f 64 77 98
f 98 51 64
f 30 77 64
f 80 54 59
f 54 46 59
f 135 148 101
f 148 122 101
f 101 122 114
f 112 120 86
f 86 78 112
f 112 78 91
f 141 120 112
f 220 254 212
f 225 254 220
f 220 212 199
f 191 225 220
f 220 178 191
f 199 178 220
f 212 254 233
f 207 212 233
f 280 241 233
f 233 254 280
f 233 262 207
f 233 241 262
f 103 90 69
f 116 90 103
f 69 95 103
f 95 108 103
f 103 108 116
f 289 255 268
f 268 310 289
f 263 255 289
f 289 310 297
f 181 202 194
f 181 189 202
f 181 194 215
f 215 189 181
f 241 288 296
f 296 275 262
f 262 241 296
f 309 275 296
f 296 288 309
f 278 257 291
f 278 286 257
f 291 299 278
f 299 286 278
f 349 362 370
f 349 336 362
f 370 357 349
f 357 336 349
f 302 336 315
f 315 273 302
f 302 273 294
f 381 389 384
f 384 373 381
f 394 389 381
f 386 394 381
f 381 373 386
f 326 305 318
f 297 331 326
f 326 250 297
f 318 250 326
f 360 305 339
f 339 365 360
f 339 326 331
f 305 326 339
f 344 365 339
f 339 331 344
f 34 26 47
f 47 21 34
f 34 21 26
f 11 3 8
f 13 21 8
f 5 13 8
f 8 3 10
f 10 5 8
f 30 64 43
f 43 64 51
f 43 38 30
f 43 51 38
f 93 114 80
f 106 135 93
f 135 101 93
f 93 101 114
f 125 141 104
f 141 112 104
f 91 125 104
f 104 112 91
f 297 263 276
f 276 289 297
f 263 289 276
f 328 336 341
f 336 302 341
f 294 328 341
f 341 302 294
f 16 21 29
f 16 8 21
f 11 8 16
f 16 24 11
f 29 24 16
f 80 59 72
f 72 93 80
f 38 51 72
f 72 51 98
f 72 46 38
f 72 59 46
f 72 98 106
f 106 93 72

