# https://github.com/mikedh/trimesh
v 0.00000000 0.00000000 2.00000000
v -0.22332472 -0.07296943 1.98615244
v 0.33049294 -0.11146992 1.96935240
v -0.09740042 0.22587314 1.98481598
v -0.11024127 -0.34893899 1.96623713
v 0.30896764 0.20803825 1.96500867
v -0.63119521 -0.06423960 1.89669868
v 0.30711870 -0.62036949 1.87638477
v -0.04318469 0.52821384 1.92850336
v -0.44682726 -0.32269192 1.92255437
v 0.64048737 -0.04246119 1.89419455
v -0.77718316 0.34518744 1.81020219
v -0.09762942 -0.67371591 1.88057847
v 0.48649307 0.69253845 1.81210237
v -0.80137861 -0.08069225 1.83065045
v 0.60113690 -0.20109974 1.89689044
v -0.18815681 0.64366531 1.88422185
v -0.26360258 -0.81314717 1.80812205
v 0.99292339 0.15866821 1.72885151
v -0.83880947 0.02401501 1.81543988
v 0.61245270 -0.66214029 1.78506916
v 0.23364044 1.00488628 1.71336386
v -0.94977499 -0.35322635 1.72428496
v 0.69798014 -0.32115233 1.84653321
v -0.57636669 0.66658974 1.79539955
v -0.14531537 -0.99700173 1.72767792
v 0.66961400 0.83943571 1.68729511
v -0.84681979 0.07375651 1.81037461
v 0.85219474 -0.60208408 1.70624116
v -0.37344835 0.94817114 1.72090320
v -0.44982495 -1.04037321 1.64781100
v 1.11166718 0.10073238 1.65953278
v -0.87540101 0.56222893 1.70809008
v 0.05547165 -1.12349727 1.65368582
v 0.32160700 1.13944470 1.61190407
v -1.05521995 -0.41953246 1.64636064
v 1.07366332 -0.55664407 1.59292011
v -0.55315460 1.13111889 1.55389512
v -0.64691144 -1.02189364 1.59287130
v 1.03695111 0.72776303 1.54760892
v -1.06575760 0.50959202 1.61383912
v 0.47059766 -1.13684278 1.57674549
v 0.22698098 1.15500683 1.61692265
v -0.89488775 -0.63908160 1.67055399
v 1.26667536 -0.03264088 1.54740689
v -0.71119210 1.10868966 1.50499602
v 0.16792352 -1.31948941 1.49356934
v 0.42785082 1.08231434 1.62651141
v -1.14425519 -0.28175738 1.61594952
v 0.95455581 -0.70403553 1.61032829
v -0.68167116 1.12777066 1.50447923
v -0.51718854 -1.09635570 1.59076089
v 1.42464794 0.17309481 1.39298831
v -1.26599361 0.78450350 1.33484622
v 0.61044513 -1.23658968 1.44851741
v 0.03520716 1.40837354 1.41959305
v -1.40139592 -0.56339534 1.31098252
v 1.24738544 -0.33731181 1.52651574
v -0.51555847 1.31661261 1.41447188
v 0.00254527 -1.40135186 1.42695708
v 0.94087051 0.91907608 1.50667244
v -1.54319195 0.21913470 1.25321131
v 1.03800463 -0.81750485 1.50141007
v 0.18306026 1.39829984 1.41818422
v -0.82955040 -1.36552559 1.20299044
v 1.41585691 -0.17676627 1.40146456
v -1.30277255 0.89345596 1.22658882
v 0.04335545 -1.39318328 1.43428054
v 0.38510557 1.49925169 1.26646676
v -1.55270361 -0.04059271 1.25994593
v 1.17138576 -0.90034365 1.34804923
v -0.16628440 1.57191377 1.22533122
v -0.82215731 -1.27534278 1.30290374
v 1.34730051 0.87428113 1.19181116
v -1.64046338 0.09627774 1.14000461
v 0.97415818 -1.33029129 1.13196331
v -0.16726709 1.66661708 1.09289031
v -1.47495582 -0.73172425 1.13537878
v 1.66947989 0.12918012 1.09368614
v -1.17226009 1.24264563 1.04001832
v 0.01359507 -1.62703355 1.16300343
v 1.18009819 1.18769142 1.09396405
v -1.68214264 -0.34895210 1.02402566
v 1.57459467 -0.67547833 1.03168825
v -0.19089948 1.51274869 1.29427539
v -0.73830418 -1.32604932 1.30249765
v 1.62442174 0.65094350 0.96825956
v -1.54921476 0.57418039 1.12705390
v 0.85801997 -1.41935278 1.11769380
v 0.84814504 1.36828710 1.18677732
v -1.72354226 -0.28980652 0.97232416
v 1.52086053 -0.38145238 1.24156246
v -0.76262748 1.45850861 1.13628868
v -0.02007283 -1.74081150 0.98446553
v 1.66137290 0.58881319 0.94506037
v -1.66209422 0.20680397 1.09301185
v 0.89595643 -1.48006440 1.00333017
v 0.48078675 1.59641424 1.10467446
v -1.32643781 -0.94878376 1.15774441
v 1.78478391 -0.19430881 0.88135717
v -0.94772823 1.46288458 0.98070378
v 0.35364908 -1.76697843 0.86759412
v 0.81225499 1.55774631 0.95585996
v -1.58355760 -0.70978887 0.99425605
v 1.42447947 -1.15972664 0.79113360
v -0.87311528 1.50033861 0.99330447
v -0.73344986 -1.70027534 0.75572155
v 1.45928344 1.09084326 0.82495625
v -1.53845118 0.75284081 1.03266580
v 0.30452771 -1.69141178 1.02293160
v 0.17468058 1.79259116 0.86954220
v -1.40405445 -1.13276284 0.86341151
v 1.75296947 -0.34747740 0.89797410
v -0.84990971 1.58337350 0.87782791
v -0.02882170 -1.80383098 0.86334414
v 1.11152847 1.37505955 0.93472761
v -1.73740703 0.13753786 0.98107092
v 1.32920621 -1.34198920 0.65747686
v -0.11315824 1.76251330 0.93847860
v -1.14550203 -1.31724820 0.97605444
v 1.78714511 0.28141204 0.85259581
v -1.54955551 0.94933630 0.83524745
v 0.54395288 -1.67411565 0.94944829
v 0.70431191 1.77338749 0.59920076
v -1.71351468 -0.44662911 0.92972570
v 1.76796851 -0.62279266 0.69743577
v -0.38751160 1.77230583 0.84188289
v -0.22919540 -1.79960954 0.84194713
v 1.74525834 0.46534930 0.85879181
v -1.84483949 0.25168948 0.73021892
v 1.05582434 -1.50171652 0.79377734
v 0.49963130 1.82946895 0.63514717
v -1.25734639 -1.42190510 0.63029034
v 1.85841040 -0.00140283 0.73912706
v -1.28700744 1.34695847 0.72754020
v -0.28855573 -1.85758107 0.68273579
v 1.34551321 1.26358785 0.77002595
v -1.90903030 0.17032046 0.57148427
v 1.46934801 -1.16222148 0.70018402
v -0.41429108 1.86654810 0.58682289
v -0.45966839 -1.87780293 0.51240718
v 1.65858681 0.98816703 0.52212613
v -1.89306937 0.47609705 0.43545375
v 0.56857633 -1.85366722 0.49054947
v 1.08395250 1.55057744 0.64865752
v -1.74053449 -0.66532549 0.72655468
v 1.92827132 -0.20239539 0.49071968
v -1.32026404 1.38758372 0.57577277
v -0.74738577 -1.73526599 0.65594700
v 1.77078593 0.84825578 0.38049876
v -1.91548182 0.10492599 0.56561464
v 1.41506010 -1.37160432 0.34103739
v -0.11501775 1.97654880 0.28288825
v -1.10026941 -1.55313434 0.61415058
v 1.91705016 -0.38351426 0.42170545
v -1.52614259 1.23163620 0.39237871
v -0.06798149 -1.91246521 0.58125325
v 0.61983045 1.84554396 0.45801495
v -1.75596382 -0.84083579 0.45780589
v 1.62975462 -1.12087324 0.29587674
v -0.47174161 1.92253851 0.28514121
v -1.20429248 -1.55532037 0.36146668
v 1.56694574 1.11981332 0.53916524
v -1.81946862 0.67869428 0.47844331
v 1.38699269 -1.39924257 0.34405163
v 0.24010885 1.96751864 0.26686728
v -1.77340199 -0.84852224 0.36749884
v 1.93911337 -0.39395944 0.29092145
v -1.01244712 1.68048640 0.38847946
v 0.39136508 -1.91876313 0.40642517
v 1.38058541 1.36392088 0.48342918
v -1.86383512 -0.56080656 0.46001592
v 1.14426596 -1.63723882 0.10052087
v -0.31671118 1.94444760 0.34469923
v -1.33454624 -1.47663559 0.19629996
v 1.93241641 0.49460647 0.14536589
v -1.49021659 1.30716979 0.26563440
v 1.00151896 -1.69910263 0.33167759
v 1.18467784 1.60033038 0.18836424
v -1.64229896 -1.09526069 0.32133805
v 1.81608503 -0.83753366 0.01930071
v -1.24114039 1.55306646 0.21807133
v 0.02727013 -1.99501663 0.13843763
v 1.42726711 1.35910908 0.34019273
v -1.90543900 0.60770142 -0.00109374
v 0.75962395 -1.84655245 0.11495870
v 0.08881052 1.97354708 0.31180863
v -1.07371596 -1.67429543 0.20944893
v 1.97428524 -0.14656525 0.28410634
v -1.42334902 1.37828755 0.27276544
v -0.10619093 -1.99514714 0.09006325
v 1.32524430 1.49776473 -0.02069630
v -1.92079582 -0.54886333 -0.09639741
v 1.34572097 -1.47577789 0.10542632
v -0.49369985 1.93768277 -0.04057041
v -1.01621823 -1.71910577 -0.10943436
v 1.73780159 0.98272912 0.11953714
v -1.80140039 0.86450655 0.08709214
v 0.44190080 -1.95030486 0.03216577
v 0.66842259 1.88493808 -0.01482137
v -1.52703478 -1.28944642 0.07411283
v 1.96202475 -0.38771583 0.01163297
v -1.54499466 1.26865890 -0.05912779
v -0.15155781 -1.98791894 -0.15877193
v 1.14700428 1.63681840 -0.07215758
v -1.95030395 0.36976147 -0.24411256
v 1.28034247 -1.52462467 -0.19037537
v -0.40188519 1.95910151 -0.02023773
v -1.15736333 -1.63108742 -0.00799641
v 1.99652381 0.07891876 0.08754714
v -1.60881786 1.18346056 -0.10548086
v 0.24035501 -1.98484377 -0.05123171
v 1.23165005 1.54625692 -0.30352545
v -1.98346588 -0.24359317 -0.08078036
v 1.97432599 -0.31719922 0.03770342
v -0.21551488 1.98824849 -0.02052468
v -0.80909941 -1.81036494 -0.26064716
v 1.93184379 0.49940134 -0.13630070
v -1.98395830 0.10048488 -0.23197470
v 0.55228962 -1.92049418 -0.08172078
v 0.46244208 1.91268394 -0.35747371
v -1.43559056 -1.38870279 -0.10288002
v 1.98131933 0.26685625 -0.05622678
v -1.42135895 1.39756399 -0.16295288
v -0.19828794 -1.97539534 -0.24185769
v 1.30687013 1.49823881 -0.21764859
v -1.95364228 0.22935891 -0.36149182
v 1.44215202 -1.35807960 -0.27534952
v -0.38427590 1.96030611 -0.09763199
v -1.11403851 -1.60259361 -0.43659123
v 1.94990051 0.42767176 -0.12241268
v -1.70538373 1.02903350 -0.18098726
v 1.02079668 -1.69325572 -0.30142859
v 0.46054717 1.88883960 -0.46923479
v -1.80523587 -0.78282407 -0.35820376
v 1.94031053 -0.31726946 -0.36679029
v -0.50377407 1.86654205 -0.51208637
v -0.14956235 -1.94503499 -0.44098753
v 1.69498004 0.99678296 -0.36533053
v -1.91619803 -0.25268498 -0.51413560
v 1.09776210 -1.64056464 -0.32166136
v -0.07582744 1.90379268 -0.60813125
v -1.22062171 -1.54615461 -0.34567118
v 1.91062427 -0.26838086 -0.52676997
v -1.63212587 1.06459293 -0.45034103
v 0.65783235 -1.81222955 -0.53205324
v 1.00862312 1.60227944 -0.64449981
v -1.86492447 -0.56467121 -0.45078059
v 1.46392570 -1.30662183 -0.38686036
v -0.29707092 1.92542503 -0.45220273
v -0.51805250 -1.82648881 -0.62893579
v 1.60032531 1.14201840 -0.36708701
v -1.90780814 0.22135963 -0.55791400
v 0.73614358 -1.78708929 -0.51420280
v 0.19529763 1.92903158 -0.49060777
v -1.79746651 -0.69886491 -0.52981316
v 1.87655625 0.07799638 -0.68735232
v -1.44746837 1.28434440 -0.50526703
v -0.41581664 -1.91457228 -0.40188244
v 0.98681211 1.65311142 -0.54168669
v -1.87011422 -0.17429842 -0.68723567
v 1.69675669 -0.94267034 -0.48206778
v -0.71351620 1.68475941 -0.80776256
v -0.98229220 -1.64729933 -0.56701584
v 1.74531797 0.71597641 -0.66426122
v -1.33857613 1.28291551 -0.74989449
v 0.87472804 -1.72779734 -0.49956703
v 1.07580019 1.53833724 -0.69005254
v -1.78985585 -0.56912825 -0.68739296
v 1.78598046 -0.34603524 -0.83098340
v -0.48738145 1.84431846 -0.60079010
v -0.49492341 -1.80649780 -0.70115370
v 1.57370738 0.83665539 -0.90744302
v -1.82783773 0.13266812 -0.80087977
v 1.21267913 -1.36009452 -0.82434958
v 0.37548072 1.80656515 -0.77158058
v -1.49356812 -0.98956147 -0.88883202
v 1.77865727 -0.54025495 -0.73790441
v -1.14336281 1.49789267 -0.67010376
v -0.33587048 -1.78701288 -0.83293217
v 0.72860318 1.70784924 -0.74322834
v -1.69941321 -0.54861728 -0.90056305
v 1.28059708 -1.21803468 -0.93619583
v -0.22486445 1.86967490 -0.67361098
v -0.36142937 -1.68207742 -1.01979624
v 1.55972580 0.71691489 -1.02629842
v -1.45246475 0.95640409 -0.98774356
v 1.01699261 -1.55158508 -0.74720130
v 0.32440129 1.77623046 -0.86009834
v -1.55638447 -0.93540331 -0.83826489
v 1.76809809 -0.48003173 -0.80212137
v -1.18129672 1.19537348 -1.08426026
v -0.75100116 -1.55899521 -1.00276178
v 1.52892899 1.03782827 -0.76504157
v -1.70223716 0.04482920 -1.04898951
v 1.29596180 -1.16903583 -0.97664643
v 0.34123254 1.66143113 -1.05981458
v -1.26004734 -1.29606334 -0.85586243
v 1.64464966 0.51519912 -1.01474004
v -1.33676698 1.10916691 -0.99136412
v -0.10615374 -1.75295149 -0.95702271
v 0.45678599 1.75567257 -0.84199785
v -1.66602160 -0.20096146 -1.08811145
v 1.70815270 -0.38556644 -0.96620539
v -0.92917858 1.50958391 -0.92616606
v -1.08472600 -1.36984292 -0.97308781
v 1.33281160 1.02646922 -1.08165344
v -1.58628299 0.79004766 -0.92710893
v 1.03516019 -1.25915085 -1.15887122
v 0.48720725 1.56397824 -1.14743242
v -1.33469045 -0.90870785 -1.18019127
v 1.66207766 -0.53774354 -0.97382223
v -1.03786701 1.38971140 -0.99575814
v -0.19377923 -1.56237752 -1.23346102
v 1.26407935 1.11784636 -1.07355620
v -1.60706878 -0.52417352 -1.06891162
v 1.11127619 -1.11960133 -1.22945439
v 0.10706432 1.71519634 -1.02305364
v -0.80579567 -1.30033462 -1.28834127
v 1.47692888 0.43575000 -1.27624568
v -1.11286186 1.14726096 -1.20221910
v 0.79894264 -1.25713806 -1.33465147
v 0.32023415 1.60327034 -1.15194371
v -1.24758850 -0.79557483 -1.34557929
v 1.47979405 -0.49922245 -1.24939446
v -0.87085029 1.16444786 -1.37320099
v -0.55379243 -1.51980096 -1.17623084
v 0.94387899 1.16374331 -1.32468637
v -1.54276576 0.12358117 -1.26672866
v 1.03498957 -1.03757436 -1.36096879
v 0.50255845 1.36991432 -1.36776086
v -1.26558619 -0.88544446 -1.27054307
v 1.37015401 -0.19583644 -1.44371953
v -0.75174318 1.16812389 -1.43887761
v -0.18705118 -1.50793281 -1.30044243
v 0.73470648 1.23331308 -1.39253195
v -1.56861629 -0.10807465 -1.23602703
v 1.13766325 -0.73291533 -1.47260227
v -0.69918031 1.37895407 -1.26871296
v -0.29403564 -1.49182703 -1.29922867
v 1.22658178 0.39306399 -1.53003197
v -1.41527472 0.36962518 -1.36395553
v 0.81014556 -1.13001936 -1.43760927
v 0.32426965 1.31054030 -1.47557897
v -1.05688538 -0.90812763 -1.43467680
v 1.39190455 -0.43323727 -1.36927250
v -0.58517472 1.24360481 -1.45293414
v -0.07118029 -1.23590003 -1.57082287
v 1.13416765 0.94493905 -1.34935315
v -1.38645828 -0.28847061 -1.41227410
v 0.78326592 -0.92842716 -1.58887303
v 0.17175301 1.29881341 -1.51115341
v -0.67530232 -1.24774239 -1.40964737
v 1.09086677 0.53275816 -1.58939562
v -0.81834090 0.89713013 -1.58917453
v 0.26337842 -1.11492873 -1.63937968
v 0.60002177 1.21376553 -1.47198747
v -1.06911657 -0.72322355 -1.52772296
v 1.04096013 -0.19221818 -1.69689545
v -0.54945203 1.06763382 -1.59945631
v -0.39271156 -0.97965854 -1.69883689
v 0.81156283 0.81951198 -1.63394183
v -1.01953153 0.44369708 -1.66243447
v 0.40812789 -1.15949022 -1.57766094
v 0.27456700 1.12111193 -1.63331595
v -0.62399679 -0.92733909 -1.65851446
v 1.09476513 -0.36153997 -1.63425156
v -0.97294152 0.62471896 -1.63190411
v -0.13576971 -0.95498797 -1.75201728
v 0.40609278 0.84772248 -1.76534848
v -1.06524015 0.06982255 -1.69126823
v 0.77060848 -0.88310455 -1.62058290
v -0.43898721 1.04811091 -1.64582920
v -0.63420604 -0.64937392 -1.78216055
v 0.96230890 0.48302181 -1.68542324
v -0.74021669 0.45252548 -1.80202662
v 0.32222845 -0.86363273 -1.77491051
v 0.56198837 0.72880866 -1.77567086
v -0.83982780 -0.63296559 -1.70118895
v 0.78827719 -0.22027187 -1.82485599
v -0.19568969 0.66757152 -1.87511435
v -0.05042292 -0.73188463 -1.86059196
v 0.62273114 0.50001136 -1.83362880
v -0.73025719 0.08052213 -1.86017220
v 0.36470876 -0.49435941 -1.90331193
v -0.05294915 0.88189051 -1.79428691
v -0.40333171 -0.54417221 -1.88180768
v 0.55347384 -0.06388301 -1.92082942
v -0.55102919 0.26117697 -1.90477123
v -0.05400264 -0.59032469 -1.91013101
v 0.32202425 0.28155795 -1.95372094
v -0.71727954 -0.11584848 -1.86335429
v 0.50964388 -0.41939224 -1.88795478
v -0.03010314 0.40195310 -1.95896082
v -0.20087020 -0.35229105 -1.95845403
v 0.55386867 0.21637827 -1.90955752
v -0.55178970 0.03233292 -1.92210372
v 0.07318648 -0.14913403 -1.99308875
v -0.02365189 0.34961127 -1.96906388
v -0.10237307 -0.07479915 -1.99597716
f 183 157 191
f 183 170 157
f 160 228 181
f 4 2 1
f 1 6 4
f 74 40 53
f 82 61 74
f 74 61 40
f 219 227 253
f 182 279 224
f 310 268 328
f 239 265 294
f 34 42 8
f 34 13 26
f 8 13 34
f 120 107 65
f 180 133 112
f 112 120 99
f 133 120 112
f 191 157 141
f 154 120 133
f 107 120 154
f 81 86 128
f 65 107 128
f 128 86 65
f 157 115 128
f 86 52 39
f 172 214 193
f 49 41 62
f 240 214 219
f 219 253 240
f 240 253 261
f 164 143 130
f 131 144 178
f 178 118 131
f 144 131 123
f 262 236 181
f 181 228 262
f 228 249 262
f 262 249 283
f 207 249 228
f 178 144 186
f 186 144 170
f 251 238 259
f 301 238 280
f 280 285 301
f 204 183 191
f 306 298 311
f 343 322 364
f 377 372 364
f 377 369 382
f 20 49 15
f 2 10 5
f 5 10 13
f 1 2 5
f 5 13 8
f 12 4 25
f 30 38 25
f 9 4 6
f 1 5 3
f 3 5 8
f 3 6 1
f 3 11 6
f 90 61 82
f 40 61 27
f 87 74 53
f 25 38 46
f 261 295 303
f 261 253 274
f 274 295 261
f 274 253 308
f 308 295 274
f 169 135 114
f 127 114 93
f 321 300 292
f 287 300 321
f 321 342 287
f 287 342 308
f 258 224 279
f 320 349 286
f 260 200 205
f 195 279 182
f 182 169 195
f 195 169 161
f 268 310 281
f 336 310 328
f 286 349 307
f 273 294 265
f 286 307 273
f 273 307 294
f 376 381 389
f 321 292 313
f 329 295 308
f 308 342 329
f 350 329 371
f 371 329 342
f 42 34 47
f 47 55 42
f 188 141 149
f 149 141 107
f 149 154 188
f 107 154 149
f 136 141 157
f 157 128 136
f 107 141 136
f 136 128 107
f 86 39 73
f 65 86 73
f 73 44 99
f 73 39 44
f 99 120 73
f 73 120 65
f 18 10 44
f 44 39 18
f 13 10 18
f 26 13 18
f 167 172 193
f 214 172 151
f 172 91 151
f 219 214 151
f 151 143 219
f 130 151 117
f 117 151 91
f 125 91 172
f 28 49 20
f 41 49 28
f 28 12 41
f 70 49 62
f 193 214 248
f 214 240 248
f 62 41 54
f 54 88 62
f 67 88 54
f 54 46 67
f 122 164 109
f 67 122 109
f 109 88 67
f 130 88 109
f 109 164 130
f 143 164 185
f 219 143 185
f 188 154 162
f 162 154 133
f 76 55 89
f 55 123 89
f 157 170 102
f 102 115 157
f 170 144 102
f 144 123 102
f 126 139 160
f 126 160 181
f 181 168 126
f 215 189 168
f 215 236 210
f 210 189 215
f 309 288 322
f 178 186 173
f 173 186 233
f 241 173 233
f 207 173 241
f 249 207 241
f 228 160 194
f 194 207 228
f 194 173 207
f 170 183 199
f 199 186 170
f 251 259 217
f 217 141 188
f 191 141 217
f 217 204 191
f 285 280 272
f 272 238 251
f 272 280 238
f 225 259 238
f 238 204 225
f 225 217 259
f 204 217 225
f 285 272 293
f 332 311 324
f 306 311 332
f 364 372 351
f 351 343 364
f 361 353 366
f 366 374 361
f 356 377 364
f 369 377 356
f 385 377 382
f 23 15 49
f 44 10 23
f 10 15 23
f 7 10 2
f 7 15 10
f 20 15 7
f 7 28 20
f 12 28 7
f 2 4 7
f 4 12 7
f 33 12 25
f 41 12 33
f 25 46 33
f 33 54 41
f 46 54 33
f 25 4 17
f 4 9 17
f 17 30 25
f 42 55 63
f 63 50 42
f 69 90 98
f 98 111 69
f 116 90 82
f 22 17 9
f 43 30 22
f 30 17 22
f 61 90 48
f 48 27 61
f 90 69 48
f 6 11 14
f 14 9 6
f 14 22 9
f 27 48 14
f 14 48 22
f 53 79 95
f 95 87 53
f 95 79 129
f 67 46 80
f 80 46 93
f 80 122 67
f 80 135 122
f 93 46 51
f 51 46 38
f 59 85 93
f 93 51 59
f 59 51 38
f 132 111 98
f 145 124 103
f 103 116 145
f 90 116 103
f 98 90 103
f 103 132 98
f 124 132 103
f 148 169 182
f 135 169 148
f 114 127 140
f 140 169 114
f 161 169 140
f 119 140 127
f 153 140 119
f 266 258 279
f 279 313 266
f 300 287 266
f 266 292 300
f 266 313 292
f 210 236 223
f 223 176 210
f 223 231 176
f 218 265 239
f 176 231 218
f 299 320 286
f 286 273 299
f 299 273 265
f 328 349 362
f 362 336 328
f 372 367 338
f 338 351 372
f 333 320 304
f 341 320 333
f 236 262 278
f 278 244 236
f 268 260 213
f 205 226 213
f 213 260 205
f 216 255 250
f 166 255 216
f 153 119 187
f 187 119 111
f 187 216 153
f 166 216 187
f 111 132 187
f 187 132 166
f 247 260 268
f 268 281 247
f 247 281 260
f 221 166 200
f 221 255 166
f 200 260 221
f 310 336 331
f 344 331 357
f 357 331 336
f 336 362 357
f 289 255 276
f 302 281 310
f 310 297 302
f 297 289 302
f 276 281 302
f 302 289 276
f 323 297 310
f 323 331 344
f 310 331 323
f 344 352 323
f 197 218 239
f 176 218 197
f 179 124 145
f 205 200 179
f 74 87 108
f 82 74 108
f 268 294 315
f 294 307 315
f 328 268 315
f 315 349 328
f 315 307 349
f 358 324 350
f 368 355 376
f 368 342 321
f 321 355 368
f 373 352 386
f 386 381 373
f 373 381 376
f 376 355 373
f 373 355 360
f 321 313 326
f 326 355 321
f 337 303 295
f 295 329 337
f 350 303 337
f 337 329 350
f 376 389 384
f 392 371 384
f 60 86 81
f 60 52 86
f 60 34 26
f 110 123 55
f 55 47 110
f 110 102 123
f 31 39 52
f 31 18 39
f 26 18 31
f 31 60 26
f 52 60 31
f 130 143 138
f 138 151 130
f 143 151 138
f 62 88 96
f 96 88 130
f 130 117 96
f 146 125 172
f 83 70 91
f 91 125 83
f 49 70 57
f 57 83 78
f 70 83 57
f 99 44 57
f 57 78 99
f 222 201 235
f 193 248 235
f 235 201 180
f 235 167 193
f 180 167 235
f 243 209 222
f 222 298 243
f 298 230 243
f 222 209 175
f 175 201 222
f 175 209 188
f 188 162 175
f 180 201 175
f 175 133 180
f 175 162 133
f 97 123 131
f 97 89 123
f 97 131 76
f 76 89 97
f 155 126 168
f 168 189 155
f 189 147 155
f 113 126 155
f 155 147 113
f 134 147 189
f 210 176 134
f 134 189 210
f 202 168 181
f 202 215 168
f 181 236 202
f 236 215 202
f 275 309 283
f 288 309 275
f 283 249 275
f 249 241 275
f 275 241 288
f 152 194 160
f 152 139 118
f 160 139 152
f 183 204 212
f 212 199 183
f 212 204 238
f 233 186 220
f 186 199 220
f 199 212 220
f 251 217 264
f 264 217 230
f 264 272 251
f 264 293 272
f 306 293 264
f 264 298 306
f 264 230 298
f 230 217 196
f 196 243 230
f 209 243 196
f 188 209 196
f 196 217 188
f 319 293 306
f 306 332 319
f 285 293 327
f 327 319 353
f 293 319 327
f 353 361 348
f 348 361 369
f 369 356 348
f 364 335 348
f 348 356 364
f 398 388 393
f 393 385 398
f 372 377 393
f 377 385 393
f 44 23 36
f 36 23 49
f 36 57 44
f 49 57 36
f 21 24 8
f 8 42 21
f 42 50 21
f 16 3 8
f 8 24 16
f 11 3 16
f 16 24 11
f 71 55 76
f 71 63 55
f 56 30 43
f 85 59 56
f 38 30 56
f 56 59 38
f 43 22 35
f 22 48 35
f 35 48 69
f 114 135 101
f 135 80 101
f 101 80 93
f 200 166 158
f 166 132 158
f 158 132 124
f 158 179 200
f 124 179 158
f 190 148 182
f 182 224 190
f 224 203 190
f 174 140 153
f 161 140 174
f 153 216 174
f 85 56 72
f 72 56 69
f 93 85 72
f 304 320 257
f 320 299 257
f 257 299 265
f 265 218 257
f 257 218 231
f 231 223 257
f 236 244 257
f 257 223 236
f 359 396 375
f 359 375 341
f 341 333 359
f 359 333 367
f 341 375 354
f 354 320 341
f 349 320 354
f 354 362 349
f 354 375 362
f 394 381 386
f 394 389 381
f 394 399 389
f 400 399 398
f 389 399 400
f 398 395 400
f 325 333 304
f 338 325 317
f 229 216 250
f 260 281 234
f 234 221 260
f 234 281 276
f 276 255 234
f 255 221 234
f 344 357 365
f 365 352 344
f 386 352 365
f 297 323 318
f 318 289 297
f 318 323 352
f 176 197 150
f 129 176 150
f 150 95 129
f 252 197 239
f 239 294 252
f 252 213 226
f 252 294 268
f 268 213 252
f 163 197 184
f 145 116 137
f 137 116 82
f 82 108 137
f 137 108 163
f 379 374 366
f 392 374 379
f 379 371 392
f 350 371 379
f 379 358 350
f 366 353 345
f 345 379 366
f 358 379 345
f 353 319 345
f 345 319 332
f 345 332 324
f 324 358 345
f 387 374 392
f 392 395 387
f 387 361 374
f 382 369 387
f 369 361 387
f 363 368 376
f 376 384 363
f 363 384 371
f 363 371 342
f 342 368 363
f 68 60 81
f 81 110 68
f 68 110 47
f 68 47 34
f 34 60 68
f 115 102 94
f 102 110 94
f 94 110 81
f 81 128 94
f 94 128 115
f 75 96 117
f 75 117 91
f 91 70 75
f 75 70 62
f 62 96 75
f 172 167 159
f 159 146 172
f 112 146 159
f 180 112 159
f 159 167 180
f 104 146 112
f 99 78 104
f 104 112 99
f 125 146 104
f 78 83 104
f 104 83 125
f 290 298 222
f 222 235 290
f 224 258 211
f 211 203 224
f 185 232 206
f 206 253 227
f 308 253 206
f 206 227 219
f 219 185 206
f 100 134 79
f 113 147 100
f 147 134 100
f 129 79 121
f 79 134 121
f 121 176 129
f 121 134 176
f 173 194 165
f 194 152 165
f 178 173 165
f 165 118 178
f 165 152 118
f 267 241 233
f 288 241 267
f 246 212 238
f 246 220 212
f 246 238 301
f 301 322 246
f 322 288 246
f 301 285 314
f 314 322 301
f 364 322 314
f 314 335 364
f 340 327 353
f 353 348 340
f 340 348 335
f 335 314 340
f 285 327 340
f 340 314 285
f 29 21 50
f 24 21 29
f 24 58 32
f 53 40 32
f 66 79 53
f 105 71 76
f 118 139 105
f 76 131 105
f 105 131 118
f 64 56 43
f 69 56 64
f 43 35 64
f 64 35 69
f 93 114 106
f 106 101 93
f 114 101 106
f 148 190 156
f 122 135 156
f 135 148 156
f 156 164 122
f 77 127 93
f 93 72 77
f 77 119 127
f 111 119 77
f 77 69 111
f 77 72 69
f 304 257 270
f 270 257 244
f 270 291 304
f 244 278 270
f 278 291 270
f 375 396 383
f 378 362 383
f 362 375 383
f 380 393 388
f 388 396 380
f 396 359 380
f 380 359 367
f 380 367 372
f 372 393 380
f 399 394 391
f 398 399 391
f 391 383 396
f 391 388 398
f 391 396 388
f 378 383 391
f 397 395 392
f 397 400 395
f 389 400 397
f 392 384 397
f 397 384 389
f 346 338 367
f 346 325 338
f 367 333 346
f 333 325 346
f 296 317 325
f 283 309 296
f 309 317 296
f 296 262 283
f 338 317 330
f 343 351 330
f 351 338 330
f 322 343 330
f 330 309 322
f 330 317 309
f 312 291 278
f 312 296 325
f 312 325 304
f 304 291 312
f 312 278 262
f 262 296 312
f 208 229 195
f 216 229 208
f 208 195 161
f 161 174 208
f 208 174 216
f 370 365 357
f 370 362 378
f 370 357 362
f 386 365 370
f 370 394 386
f 378 391 370
f 370 391 394
f 347 318 352
f 347 373 360
f 352 373 347
f 142 197 163
f 142 150 197
f 142 108 87
f 163 108 142
f 87 95 142
f 95 150 142
f 192 184 197
f 192 252 226
f 197 252 192
f 179 184 192
f 192 226 205
f 205 179 192
f 145 137 171
f 171 179 145
f 171 184 179
f 163 184 171
f 171 137 163
f 382 387 390
f 390 387 395
f 390 385 382
f 398 385 390
f 390 395 398
f 256 235 248
f 256 290 235
f 277 311 298
f 298 290 277
f 277 290 311
f 245 211 258
f 232 211 245
f 245 287 308
f 308 206 245
f 245 206 232
f 245 266 287
f 258 266 245
f 220 246 254
f 233 220 254
f 254 267 233
f 288 267 254
f 254 246 288
f 37 58 24
f 24 29 37
f 37 29 50
f 50 63 37
f 63 71 37
f 37 71 58
f 11 24 19
f 24 32 19
f 19 14 11
f 19 32 40
f 40 27 19
f 27 14 19
f 58 71 92
f 92 66 58
f 113 100 92
f 92 100 79
f 79 66 92
f 45 32 58
f 58 66 45
f 53 32 45
f 45 66 53
f 198 211 232
f 164 156 198
f 198 185 164
f 198 232 185
f 177 190 203
f 177 156 190
f 203 211 177
f 211 198 177
f 177 198 156
f 318 263 284
f 305 313 279
f 279 263 305
f 339 263 318
f 318 347 339
f 339 305 263
f 339 326 313
f 313 305 339
f 334 347 360
f 360 355 334
f 355 326 334
f 326 339 334
f 334 339 347
f 261 303 282
f 71 105 84
f 84 92 71
f 139 126 84
f 84 105 139
f 84 126 113
f 113 92 84
f 250 284 271
f 271 284 263
f 289 318 242
f 318 284 242
f 255 289 242
f 250 255 242
f 242 284 250
f 311 290 316
f 290 282 316
f 324 311 316
f 350 324 316
f 316 303 350
f 316 282 303
f 269 256 248
f 261 282 269
f 290 256 269
f 269 282 290
f 269 240 261
f 269 248 240
f 237 263 279
f 237 271 263
f 279 195 237
f 195 229 237
f 237 229 250
f 250 271 237

