# https://github.com/mikedh/trimesh
v 0.05920319 0.30776128 1.97529187
v -0.14267896 -0.13485820 1.99034067
v 0.25971539 -0.14370028 1.97785190
v -0.12653414 0.40057749 1.95538405
v 0.03326519 -0.40437644 1.95841087
v 0.21318916 0.25910758 1.97165252
v -0.60387486 0.00198449 1.90665446
v 0.32481574 -0.57576209 1.88758914
v 0.10890223 0.52865285 1.92578983
v -0.53079367 -0.42372457 1.88114741
v 0.74590690 -0.12599926 1.85141759
v -0.47430087 0.32106136 1.91623545
v 0.10912885 -0.74061455 1.85461074
v 0.45728992 0.73810871 1.80168850
v -0.88489969 -0.11482568 1.78990715
v 0.67161349 -0.45260596 1.82868345
v -0.32817739 0.72723029 1.83396720
v -0.48482632 -0.63621696 1.83307704
v 0.72454226 0.35523167 1.82998606
v -0.74794589 0.26471943 1.83589231
v 0.68043429 -0.70730931 1.74261950
v 0.15021795 0.92844287 1.76505762
v -0.63600598 -0.65809383 1.77831631
v 0.79444981 -0.04976044 1.83476794
v -0.56997099 0.90068670 1.69230509
v -0.20119663 -0.89771622 1.77584501
v 0.55594439 0.92922274 1.68150853
v -0.84585142 -0.24683208 1.79544126
v 0.70149289 -0.69884467 1.73767772
v -0.28049127 1.06312692 1.67065430
v -0.50453405 -0.94234239 1.69039528
v 0.95719934 -0.07842701 1.75431429
v -1.07914800 0.27573852 1.66114655
v 0.19216088 -1.16750609 1.61245270
v 0.20416338 1.22580099 1.56707665
v -1.11117971 -0.22721026 1.64731756
v 1.10125653 -0.29638885 1.64298134
v -0.50535858 0.89399605 1.71621204
v -0.21200473 -1.21540395 1.57411793
v 0.97437847 0.64947909 1.62134620
v -1.01744682 0.42554221 1.66844712
v 0.47969686 -1.23755082 1.49611460
v 0.14120341 1.35926987 1.46029005
v -0.83290584 -0.73880931 1.66145378
v 1.38466302 0.00436504 1.44315254
v -1.14648500 0.76327068 1.45016896
v -0.08717308 -1.16681275 1.62201999
v 1.05544357 0.76152252 1.51859222
v -1.14264891 -0.20068493 1.62913444
v 1.08630520 -0.73311370 1.51078963
v -0.28261969 1.20354737 1.57213226
v -0.70876541 -0.95273707 1.60933019
v 1.15484442 0.36358182 1.59189906
v -0.97397233 0.76896114 1.56846316
v 0.67675700 -1.09443676 1.53108071
v 0.74205683 1.27992914 1.34578344
v -1.22571378 -0.42923122 1.52098202
v 1.19165717 -0.53064243 1.51603819
v -0.85698622 1.11834270 1.41946618
v -0.59045928 -1.42031153 1.27830865
v 1.21749159 0.94598925 1.27389897
v -1.50780960 0.41069143 1.24813571
v 0.70982763 -1.31053456 1.33365809
v -0.46017007 1.36803881 1.38445416
v -0.69202312 -1.23488691 1.41285467
v 1.45720787 -0.06782077 1.36819061
v -1.00885115 1.08961525 1.33976041
v 0.10688014 -1.52898887 1.28482282
v 0.97748665 1.24131218 1.22623975
v -1.44610936 -0.42449395 1.31475192
v 1.25504799 -0.79408634 1.33950791
v -0.26680701 1.56222419 1.21994656
v -0.13684063 -1.52900643 1.28195709
v 1.25441204 0.99112460 1.20171646
v -1.35801157 0.82621747 1.21374185
v 0.55363749 -1.34620741 1.37157251
v -0.01208896 1.51458700 1.30609344
v -1.16855518 -1.07225214 1.21850488
v 1.51038692 -0.44754207 1.23224894
v -0.97587714 1.31599484 1.14709258
v -0.41735772 -1.59238635 1.13583373
v 0.97002968 1.31775975 1.15002247
v -1.64326022 0.03826904 1.13939955
v 1.08414637 -1.32424415 1.03489327
v -0.47382773 1.45953623 1.28266959
v -0.84663132 -1.26835502 1.29402123
v 1.55123332 0.76659161 1.00300174
v -1.37930162 0.82484043 1.19044752
v 0.23930800 -1.69445950 1.03515152
v 0.79562624 1.50255875 1.05323126
v -1.58580863 -0.58771522 1.06761502
v 1.53058898 -0.53899009 1.16909668
v -0.98669540 1.42130982 1.00315033
v -0.23641098 -1.64737286 1.10917650
v 1.26558721 1.08986216 1.10022247
v -1.76837717 0.08356038 0.93051590
v 1.08328690 -1.38716009 0.94988230
v 0.04725195 1.66367495 1.10903242
v -1.24759184 -1.25275920 0.93493796
v 1.72888914 0.20529388 0.98427474
v -0.91879225 1.40019395 1.09328757
v 0.41419849 -1.62896583 1.08393262
v 1.24171981 1.20074640 1.00813689
v -1.58331523 -0.72365617 0.98459872
v 1.60119375 -0.68252505 0.98505743
v -0.33700163 1.64799767 1.08191200
v -0.58652452 -1.65835052 0.95176811
v 1.81613216 0.33956582 0.76574083
v -1.68434733 0.41644216 0.99476127
v 0.96410976 -1.50960562 0.88970964
v 0.98334304 1.57021272 0.75330505
v -1.16638800 -1.23916375 1.05071987
v 1.62195195 -0.51748369 1.04951536
v -0.79668983 1.53459092 1.00514477
v -0.52330969 -1.78078312 0.74495533
v 1.48924233 1.12198348 0.72340193
v -1.74586608 0.33572771 0.91609964
v 1.29070655 -1.33059168 0.75073457
v -0.24150674 1.74481450 0.94725754
v -0.76317091 -1.72263066 0.67090519
v 1.77925107 0.05010191 0.91200627
v -1.70785084 0.78308262 0.68558525
v 0.53968932 -1.79409135 0.69997976
v 0.65339567 1.74306289 0.73130421
v -1.75779583 -0.25118132 0.92035958
v 1.80321454 -0.42623557 0.75282174
v -0.56892002 1.70811318 0.87102203
v -0.11281679 -1.83781573 0.78083655
v 1.37159083 1.16745416 0.86936146
v -1.65671559 0.94922544 0.59520126
v 1.44929730 -1.16571495 0.73528632
v 0.64977565 1.71274318 0.80268451
v -1.43823585 -1.18910519 0.71937924
v 1.87628994 0.45677213 0.52047602
v -1.60266272 1.08313586 0.50822133
v 0.42782865 -1.87172121 0.56001997
v 1.37311367 1.24257781 0.75535371
v -1.85765153 0.28648779 0.68341463
v 1.35426176 -1.27090810 0.74213725
v 0.07736406 1.89366875 0.63877499
v -1.30530685 -1.34587223 0.69627723
v 1.79059743 0.76476892 0.45704415
v -1.74696634 0.72518122 0.64978519
v 0.81518584 -1.77379481 0.43488392
v 0.21411100 1.87824795 0.65294802
v -1.82744682 -0.50427053 0.63729849
v 1.78761532 -0.75084352 0.49057666
v -0.95573697 1.63576743 0.64096160
v -0.00220150 -1.91741813 0.56877311
v 1.76452726 0.86414275 0.37376576
v -1.83282111 0.46727214 0.64994117
v 1.41839182 -1.36280069 0.36185483
v 0.55017748 1.86939203 0.45019795
v -1.28513632 -1.38455239 0.65684040
v 1.94058038 0.09292960 0.47488090
v -1.69423628 1.02940812 0.26435272
v -0.20437958 -1.89811889 0.59613225
v 0.62171454 1.82102881 0.54527526
v -1.94384817 -0.40907508 0.23261959
v 1.51243911 -1.21420683 0.48808781
v -0.64461795 1.85286076 0.38906900
v -0.89638879 -1.69613531 0.56534251
v 1.87688122 0.64211591 0.25495892
v -1.82758803 0.69706776 0.41715530
v 1.25054859 -1.49411897 0.45137204
v 0.66209554 1.85093782 0.36831873
v -1.46978897 -1.34195359 0.19718252
v 1.94570608 -0.41102314 0.21280942
v -1.45591647 1.30496380 0.42116114
v 0.41092921 -1.94810530 0.18979711
v 1.63431053 1.05235726 0.47071572
v -1.91617270 -0.53148020 0.21403504
v 1.83764928 -0.78375475 0.09366763
v -0.06363899 1.96105754 0.38756085
v -1.21890153 -1.55964225 0.28599843
v 1.79548505 0.86595652 0.16233531
v -1.87035639 0.70245621 0.09122643
v 0.45869100 -1.90055564 0.42129661
v 1.00266224 1.72982131 0.04885343
v -1.85190182 -0.71616569 0.23992990
v 1.72974257 -0.98981545 0.16809526
v -0.63774249 1.87738636 0.26211630
v -0.93420291 -1.74757669 0.27063011
v 1.41021194 1.41630580 0.07334973
v -1.95770833 0.40447213 0.06148492
v 1.29000012 -1.51862123 0.17230567
v -0.15263730 1.98193105 0.22057012
v -1.12980036 -1.62835106 0.26837282
v 1.99101178 -0.17552634 -0.07115203
v -1.41977224 1.40847280 -0.02124027
v 0.12169797 -1.99362120 0.10326727
v 1.15219844 1.63103653 -0.11026594
v -1.79838049 -0.87429893 -0.03780194
v 1.41308965 -1.40815650 0.14238292
v -0.32182243 1.97348960 -0.04206078
v -1.38811747 -1.43261872 -0.14399129
v 1.95355710 0.40810901 -0.13062046
v -1.70603523 1.04374743 -0.00592389
v 1.14416858 -1.62823606 0.19931283
v 0.30764695 1.97611785 -0.01765160
v -1.51024291 -1.30083986 0.16426205
v 1.76930876 -0.91989095 0.15279776
v -0.84403959 1.81277693 -0.03790743
v 0.20356814 -1.98640983 0.11285394
v 1.11758722 1.65681886 0.07713669
v -1.91826304 0.53334631 -0.18923161
v 1.40592422 -1.40998782 -0.18791338
v -0.24648672 1.98396561 0.05589942
v -1.15026861 -1.63470299 0.06803141
v 1.97762809 0.28948172 -0.07202407
v -1.85430543 0.74895494 0.02485727
v -0.13446468 -1.99466561 0.05681866
v 0.80122353 1.80419063 -0.32083801
v -1.96332150 -0.36308706 -0.11634632
v 1.96045571 -0.37959945 -0.11188240
v -0.72923067 1.85930230 -0.10591313
v -0.32303758 -1.96948733 -0.12948504
v 1.75165419 0.95215725 -0.15844294
v -1.97121371 0.28928736 -0.17501238
v 1.46373224 -1.35136031 -0.17695548
v 0.65601113 1.88934040 -0.00650073
v -1.37365118 -1.45336776 -0.02836535
v 1.92788330 -0.49771195 -0.18854389
v -1.29019261 1.50880738 -0.24270002
v 0.01700481 -1.97947304 -0.28530218
v 1.44684196 1.33944511 -0.33546258
v -1.91958511 -0.55660316 -0.07338896
v 1.83975235 -0.75745038 -0.20391223
v -0.83928821 1.80557109 -0.18843660
v -1.42651175 -1.38318975 -0.22770669
v 1.66557806 1.06105669 -0.31624110
v -1.81077899 0.79548041 -0.29713696
v 0.21471486 -1.93689210 -0.44982943
v 0.32153156 1.94711611 -0.32458639
v -1.94428479 -0.30285284 -0.35782231
v 1.98920829 -0.00525782 -0.20741924
v -1.34750179 1.45941342 -0.23313380
v 0.02425965 -1.93739800 -0.49588352
v 1.57972424 1.10311319 -0.53629527
v -1.90239032 0.34455785 -0.51204584
v 1.02776300 -1.69250455 -0.28130335
v -0.29628577 1.90983430 -0.51453640
v -1.41825990 -1.33460726 -0.45537052
v 1.90357607 0.42525103 -0.44222135
v -1.51651084 1.18981572 -0.53341674
v 0.24166030 -1.90239301 -0.56789185
v 0.87453704 1.76818215 -0.32972237
v -1.85455329 -0.36615550 -0.65311733
v 1.58713069 -1.17515152 -0.31628324
v -0.77142794 1.74050544 -0.61281297
v -1.06980659 -1.57617672 -0.60924609
v 1.81621525 0.69385684 -0.46896147
v -1.79396556 0.79106508 -0.39484632
v 1.15261973 -1.51299567 -0.61831372
v 0.28660130 1.89644911 -0.56686900
v -1.58345079 -1.01720274 -0.67674381
v 1.91101113 -0.34043574 -0.48180904
v -1.48212836 1.18127164 -0.63866488
v -0.66388386 -1.81946058 -0.49882002
v 1.63262474 1.06484949 -0.44791966
v -1.85162313 -0.50800881 -0.55983822
v 1.30332901 -1.43238107 -0.49961782
v -0.69569615 1.79863479 -0.53001864
v -1.10139645 -1.59452286 -0.49439126
v 1.83437115 0.31563780 -0.73174809
v -1.66117575 0.86817809 -0.69768326
v 0.12504561 -1.92116993 -0.54172843
v 0.99701832 1.55317129 -0.77046311
v -1.86301811 -0.43699905 -0.58154566
v 1.87208779 -0.44572613 -0.54462422
v -0.60163152 1.76624721 -0.72000716
v -0.48681835 -1.82777320 -0.64980999
v 1.73509882 0.68685089 -0.71949143
v -1.74199872 0.53749226 -0.82252206
v 1.05063126 -1.59368717 -0.59693815
v -0.31966243 1.87004509 -0.63304605
v -1.50782032 -1.07036391 -0.76210168
v 1.73769181 0.43424777 -0.88986294
v -1.23862346 1.25013767 -0.95024614
v -0.08592744 -1.89280540 -0.64023760
v 0.80633302 1.61163392 -0.86744636
v -1.85408425 -0.09752685 -0.74354562
v 1.32208481 -1.21239348 -0.88441721
v -0.61343613 1.69128185 -0.87364858
v -0.74269447 -1.61575518 -0.91528145
v 1.76814993 0.54496479 -0.75938080
v -1.39732308 1.02834498 -0.99498483
v 0.51491298 -1.66966324 -0.97318513
v 0.33625583 1.72237520 -0.95935171
v -1.54668124 -1.01177421 -0.76425787
v 1.64247928 -0.77087668 -0.84143388
v -0.92579326 1.42354834 -1.05660635
v -0.39003821 -1.67935768 -1.01371986
v 1.30669381 1.31211449 -0.75558378
v -1.79570683 0.01564489 -0.88045000
v 1.38812594 -1.10379402 -0.92452428
v -0.33839001 1.74423792 -0.91821908
v -0.85535325 -1.57345304 -0.89029004
v 1.81479590 0.03341934 -0.83988035
v -1.44052169 1.00725922 -0.95411012
v 0.04547349 -1.69895412 -1.05427087
v 1.19600740 1.26577375 -0.98355635
v -1.57434985 -0.36935636 -1.17685957
v 1.36679442 -1.08343042 -0.97880108
v -0.68975272 1.61741885 -0.95299394
v -0.56114841 -1.60878139 -1.04734660
v 1.57446974 0.63168583 -1.05925353
v -1.63204360 -0.01433041 -1.15595343
v 0.88310175 -1.30651795 -1.23009843
v 0.52655340 1.51502687 -1.19475315
v -1.54654076 -0.66810873 -1.07788793
v 1.54979018 -0.54040402 -1.14285340
v -1.05567299 1.17113254 -1.23044834
v 0.20518857 -1.59202725 -1.19304102
v 1.29862235 0.90016958 -1.22608104
v -1.69497095 -0.32586376 -1.01038917
v 1.19173440 -1.11601647 -1.15510881
v 0.07888640 1.55893946 -1.25039381
v -0.82717164 -1.39812029 -1.16663907
v 1.54093542 0.33771573 -1.22941698
v -1.57827652 0.44931455 -1.14331084
v 0.93801211 -1.30054785 -1.19528598
v 0.56069477 1.59129586 -1.07396409
v -1.36985964 -0.90338090 -1.14341047
v 1.46419641 -0.44079709 -1.28911861
v -0.48155752 1.39453903 -1.35031968
v 0.05113739 -1.56950083 -1.23856857
v 1.18287926 0.89937241 -1.33862837
v -1.45151935 0.55958173 -1.25696455
v 0.85679738 -1.36340791 -1.18617752
v 0.35880121 1.58727018 -1.16268442
v -1.23852855 -0.64750991 -1.43065647
v 1.35381663 0.35653345 -1.42830824
v -0.99899849 1.19507919 -1.25450697
v 0.35554341 -1.54956604 -1.21343890
v 0.92247274 0.96568930 -1.48878750
v -1.35385783 -0.59944958 -1.34451820
v 1.11752649 -0.81757794 -1.44315656
v -0.05785171 1.39897121 -1.42812210
v -0.71020541 -1.38103269 -1.26030035
v 1.21879632 0.77644795 -1.38262942
v -1.36679237 0.21026204 -1.44487663
v 0.72610431 -1.13471671 -1.47823900
v 0.03994380 1.25216816 -1.55899948
v -1.06635411 -1.05337963 -1.32411490
v 1.36539524 -0.40760187 -1.40340891
v -0.92473743 0.97798993 -1.47932295
v -0.25044345 -1.41515959 -1.39089950
v 1.09954189 0.67435505 -1.52848058
v -1.39788706 -0.16047754 -1.42132288
v 0.88091588 -0.79309510 -1.61089645
v -0.15049134 1.35889808 -1.45970831
v -0.87732096 -1.11520475 -1.40947731
v 1.23705690 -0.08484833 -1.56923261
v -1.00454777 0.89451340 -1.48011133
v 0.35713729 -1.33716401 -1.44376084
v 0.63970907 0.96953643 -1.62811898
v -1.12795510 -0.75913330 -1.46677671
v 0.97631821 -0.69030855 -1.60320830
v -0.63070656 1.01427538 -1.60419908
v -0.31920388 -0.98865030 -1.70899955
v 1.17409657 0.27224133 -1.59605197
v -1.07954435 0.58940545 -1.57708123
v 0.34006795 -1.10841457 -1.62965362
v 0.25742636 0.95214396 -1.73987171
v -1.08537116 -0.46068504 -1.61546858
v 1.05133598 0.24279593 -1.68396639
v -1.06629153 0.64013853 -1.56628383
v -0.05480360 -0.92596636 -1.77188681
v 0.90833798 0.73477121 -1.62327859
v -1.19462892 -0.02922830 -1.60374794
v 0.75003774 -0.50192615 -1.78480070
v -0.38907307 0.86163540 -1.76244335
v -0.80179368 -0.78777706 -1.65424732
v 0.84049386 0.04226645 -1.81432732
v -0.88911521 0.30012097 -1.76618276
v 0.58287683 -0.86154434 -1.70821426
v 0.43621459 1.00229709 -1.67484846
v -0.69457439 -0.38725679 -1.83510180
v 0.90815076 -0.28882099 -1.75836420
v -0.41476091 0.83139565 -1.77108855
v -0.38410500 -0.73064365 -1.82170887
v 0.46801839 0.57986191 -1.85599541
v -0.67299191 0.23173692 -1.86905856
v 0.50823546 -0.71909794 -1.79571570
v 0.15088174 0.89006104 -1.78466413
v -0.38137713 -0.43177519 -1.91523410
v 0.76524147 -0.04923444 -1.84715497
v -0.70790033 0.45618469 -1.81404869
v -0.02705639 -0.67727523 -1.88163924
v 0.14540048 0.40722829 -1.95269655
v -0.50068736 -0.06548529 -1.93520641
v 0.42026023 -0.26873601 -1.93679175
v -0.38053295 0.53476521 -1.88923816
v -0.17091070 -0.32267903 -1.96638444
v 0.55250762 0.20746123 -1.91094091
v -0.33995147 0.13982416 -1.96593037
v 0.29987255 -0.35273731 -1.94567542
v 0.02578219 0.18892657 -1.99088976
v -0.20570868 -0.23832140 -1.97506629
f 168 215 189
f 214 227 159
f 146 138 159
f 159 138 185
f 159 185 219
f 219 214 159
f 173 168 147
f 99 162 120
f 154 162 99
f 125 70 83
f 125 138 146
f 68 89 102
f 68 47 73
f 4 12 2
f 80 67 59
f 54 59 67
f 41 25 54
f 25 59 54
f 126 105 147
f 147 168 126
f 147 105 131
f 131 160 147
f 61 53 87
f 87 53 100
f 155 168 189
f 155 126 168
f 48 53 61
f 66 100 45
f 100 53 45
f 148 161 203
f 269 248 261
f 295 240 274
f 235 248 269
f 269 261 235
f 235 214 219
f 235 227 214
f 235 261 227
f 219 240 235
f 180 146 172
f 146 159 172
f 172 227 180
f 172 159 227
f 180 227 193
f 193 201 180
f 227 261 193
f 256 193 261
f 280 272 293
f 280 217 272
f 183 120 162
f 115 120 183
f 183 217 212
f 209 196 264
f 293 272 306
f 272 285 306
f 322 343 338
f 338 343 351
f 390 369 382
f 382 369 361
f 347 313 334
f 334 313 292
f 276 255 297
f 308 295 321
f 321 295 274
f 321 342 308
f 329 342 321
f 274 300 321
f 321 300 329
f 90 82 111
f 318 331 344
f 344 331 310
f 147 160 181
f 288 335 330
f 288 330 275
f 207 262 220
f 241 262 207
f 299 325 320
f 320 278 299
f 333 320 354
f 354 320 325
f 228 291 270
f 257 270 299
f 299 236 257
f 189 215 257
f 257 236 189
f 268 192 226
f 192 184 226
f 226 184 231
f 273 239 260
f 260 252 273
f 231 252 260
f 260 226 231
f 239 226 260
f 364 369 385
f 385 369 390
f 371 342 376
f 302 315 328
f 302 281 268
f 310 281 302
f 299 278 265
f 265 236 299
f 333 349 341
f 328 315 341
f 341 349 328
f 203 161 182
f 161 187 182
f 133 146 180
f 180 201 133
f 133 201 167
f 167 154 133
f 52 65 31
f 149 89 128
f 26 47 13
f 13 5 26
f 102 63 76
f 76 63 42
f 76 68 102
f 42 68 76
f 34 68 42
f 47 68 34
f 13 47 34
f 34 21 13
f 276 263 242
f 195 234 242
f 242 255 276
f 242 234 255
f 17 25 12
f 12 4 17
f 22 30 17
f 185 164 177
f 156 177 164
f 80 59 101
f 36 15 49
f 49 62 83
f 83 70 49
f 96 125 83
f 138 125 96
f 109 88 122
f 109 62 88
f 122 143 109
f 83 62 109
f 46 54 67
f 46 62 41
f 41 54 46
f 220 181 194
f 194 207 220
f 160 131 139
f 139 131 84
f 102 89 123
f 61 87 74
f 197 163 210
f 163 134 210
f 210 134 155
f 189 236 210
f 210 155 189
f 126 155 121
f 121 100 66
f 66 79 121
f 40 48 27
f 53 48 40
f 69 48 61
f 61 74 69
f 248 235 282
f 240 295 282
f 282 235 240
f 167 201 222
f 201 196 222
f 222 196 209
f 293 306 348
f 348 369 364
f 361 369 348
f 301 280 293
f 241 170 233
f 162 154 175
f 175 154 167
f 175 222 209
f 167 222 175
f 243 256 277
f 193 256 243
f 319 306 285
f 285 298 319
f 319 298 277
f 272 217 259
f 259 285 272
f 259 298 285
f 209 264 259
f 259 183 209
f 217 183 259
f 337 324 311
f 311 261 248
f 304 291 296
f 296 283 304
f 359 338 351
f 376 342 363
f 363 342 329
f 279 292 313
f 326 297 318
f 334 292 326
f 305 326 292
f 297 326 305
f 25 30 51
f 323 281 310
f 310 331 323
f 352 344 373
f 318 344 339
f 339 344 352
f 339 326 318
f 352 326 339
f 231 184 218
f 218 252 231
f 197 252 218
f 205 184 192
f 192 179 205
f 111 184 205
f 202 173 147
f 147 181 202
f 202 228 173
f 181 228 202
f 309 343 322
f 322 330 309
f 309 330 343
f 254 262 241
f 241 275 254
f 254 283 262
f 322 283 254
f 254 330 322
f 254 275 330
f 278 320 307
f 307 341 315
f 307 239 273
f 307 315 239
f 307 320 333
f 333 341 307
f 223 228 270
f 223 257 215
f 270 257 223
f 173 228 223
f 215 168 223
f 168 173 223
f 291 228 249
f 220 262 249
f 249 181 220
f 249 228 181
f 296 291 249
f 249 283 296
f 262 283 249
f 390 382 387
f 387 395 390
f 387 392 400
f 400 395 387
f 351 343 377
f 377 343 364
f 364 385 377
f 398 385 390
f 393 385 398
f 390 395 398
f 398 395 400
f 400 399 398
f 398 399 393
f 308 342 350
f 342 371 350
f 294 226 239
f 239 315 294
f 315 302 294
f 268 226 294
f 294 302 268
f 244 252 197
f 236 265 244
f 197 210 244
f 244 210 236
f 286 265 278
f 286 307 273
f 278 307 286
f 286 244 265
f 273 252 286
f 252 244 286
f 328 349 336
f 336 357 310
f 336 302 328
f 310 302 336
f 195 182 208
f 208 182 187
f 208 187 200
f 200 234 208
f 208 234 195
f 213 281 255
f 255 234 213
f 141 154 99
f 99 133 141
f 141 133 154
f 146 133 104
f 99 78 104
f 104 133 99
f 73 47 39
f 31 65 39
f 39 26 31
f 47 26 39
f 107 120 115
f 86 52 78
f 65 52 86
f 20 25 41
f 12 25 20
f 2 12 7
f 12 20 7
f 7 20 15
f 78 52 44
f 94 128 89
f 94 68 73
f 89 68 94
f 115 128 94
f 94 107 115
f 157 128 115
f 149 128 157
f 212 149 157
f 157 183 212
f 115 183 157
f 29 21 55
f 42 63 55
f 55 34 42
f 21 34 55
f 55 50 29
f 16 21 29
f 105 126 113
f 126 121 113
f 113 121 79
f 71 63 84
f 71 55 63
f 50 55 71
f 84 131 71
f 71 131 105
f 66 45 37
f 11 16 37
f 29 50 37
f 37 16 29
f 274 240 253
f 203 229 224
f 263 229 216
f 195 242 216
f 216 242 263
f 216 229 203
f 203 182 216
f 216 182 195
f 38 30 25
f 25 17 38
f 38 17 30
f 185 177 206
f 219 185 206
f 206 240 219
f 206 253 240
f 232 253 206
f 198 232 211
f 211 156 198
f 177 156 211
f 232 206 211
f 211 206 177
f 130 156 164
f 130 143 122
f 164 143 130
f 122 88 130
f 190 224 237
f 198 156 190
f 190 148 203
f 203 224 190
f 114 148 93
f 93 101 114
f 80 101 93
f 93 88 80
f 33 49 15
f 33 20 41
f 15 20 33
f 41 62 33
f 62 49 33
f 151 109 143
f 151 143 164
f 185 138 151
f 151 164 185
f 88 62 75
f 62 46 75
f 75 46 67
f 75 67 80
f 80 88 75
f 241 199 144
f 144 170 241
f 199 165 144
f 108 87 100
f 100 121 108
f 155 134 108
f 108 121 155
f 82 90 56
f 56 69 82
f 27 48 56
f 48 69 56
f 356 348 364
f 364 343 356
f 356 330 335
f 343 330 356
f 314 335 288
f 288 301 314
f 314 356 335
f 246 275 241
f 241 233 246
f 288 275 246
f 246 301 288
f 280 301 246
f 204 233 170
f 217 280 238
f 188 183 162
f 162 175 188
f 209 183 188
f 188 175 209
f 230 264 196
f 230 243 264
f 193 243 230
f 201 193 230
f 230 196 201
f 340 348 306
f 306 319 340
f 340 319 353
f 353 361 340
f 361 348 340
f 353 319 345
f 345 358 353
f 324 358 345
f 277 324 345
f 345 319 277
f 251 259 264
f 298 259 251
f 277 298 251
f 251 243 277
f 264 243 251
f 332 324 337
f 332 358 324
f 290 256 261
f 261 311 290
f 277 256 290
f 290 324 277
f 290 311 324
f 291 304 312
f 312 325 299
f 312 338 325
f 299 270 312
f 270 291 312
f 322 338 317
f 317 283 322
f 317 304 283
f 338 312 317
f 317 312 304
f 372 359 351
f 351 377 372
f 372 377 385
f 380 359 372
f 372 385 393
f 346 354 325
f 325 338 346
f 338 359 346
f 380 354 346
f 346 359 380
f 313 347 355
f 287 279 313
f 300 279 287
f 313 355 287
f 329 300 287
f 287 355 329
f 271 263 276
f 276 297 271
f 389 384 376
f 376 363 389
f 379 384 392
f 392 387 379
f 379 371 376
f 376 384 379
f 379 387 382
f 114 106 127
f 127 148 114
f 161 148 127
f 85 106 114
f 114 101 85
f 85 101 59
f 200 187 174
f 174 187 161
f 289 323 331
f 289 331 318
f 255 281 289
f 281 323 289
f 318 297 289
f 289 297 255
f 360 347 334
f 334 326 360
f 360 373 381
f 360 326 352
f 352 373 360
f 381 389 360
f 360 355 347
f 137 184 111
f 184 137 171
f 171 137 116
f 333 354 362
f 354 367 362
f 362 349 333
f 362 367 349
f 370 367 383
f 349 367 370
f 383 357 370
f 370 336 349
f 357 336 370
f 375 354 380
f 375 367 354
f 337 311 303
f 303 350 337
f 308 350 303
f 378 365 344
f 378 344 310
f 310 357 378
f 378 357 383
f 383 365 378
f 386 373 344
f 344 365 386
f 383 391 386
f 386 365 383
f 247 179 192
f 247 213 179
f 247 192 268
f 268 281 247
f 281 213 247
f 179 213 221
f 221 234 200
f 221 213 234
f 91 78 70
f 91 104 78
f 70 125 91
f 91 125 146
f 146 104 91
f 112 78 99
f 112 86 78
f 107 86 112
f 99 120 112
f 120 107 112
f 28 15 36
f 36 44 28
f 28 7 15
f 57 44 36
f 57 49 70
f 36 49 57
f 70 78 57
f 78 44 57
f 81 94 73
f 107 94 81
f 3 16 11
f 11 6 3
f 2 5 3
f 3 6 2
f 13 21 8
f 21 16 8
f 8 5 13
f 8 3 5
f 16 3 8
f 1 4 2
f 2 6 1
f 53 40 19
f 105 113 92
f 92 113 79
f 92 71 105
f 79 71 92
f 32 45 53
f 32 37 45
f 11 37 32
f 53 19 32
f 58 79 66
f 66 37 58
f 58 37 50
f 58 71 79
f 50 71 58
f 266 300 274
f 274 253 266
f 169 190 156
f 148 190 169
f 169 93 148
f 117 151 138
f 109 151 117
f 138 96 117
f 117 96 83
f 83 109 117
f 186 165 199
f 207 194 186
f 186 199 241
f 241 207 186
f 160 139 152
f 139 165 152
f 152 181 160
f 152 194 181
f 152 186 194
f 165 186 152
f 118 165 139
f 84 97 118
f 118 139 84
f 170 144 178
f 178 144 123
f 149 204 178
f 178 204 170
f 110 144 165
f 110 118 97
f 165 118 110
f 123 144 110
f 102 123 110
f 110 63 102
f 110 97 84
f 84 63 110
f 327 314 301
f 293 348 327
f 327 301 293
f 348 356 327
f 356 314 327
f 233 204 225
f 225 238 233
f 212 217 225
f 217 238 225
f 191 149 212
f 191 204 149
f 212 225 191
f 191 225 204
f 267 246 233
f 233 238 267
f 280 246 267
f 267 238 280
f 368 363 329
f 329 355 368
f 368 389 363
f 355 360 368
f 368 360 389
f 263 271 250
f 250 305 292
f 250 229 263
f 250 224 229
f 292 279 250
f 279 224 250
f 297 305 284
f 284 271 297
f 305 250 284
f 284 250 271
f 384 389 394
f 394 389 381
f 394 391 399
f 381 373 394
f 373 386 394
f 394 386 391
f 358 332 366
f 371 379 366
f 366 350 371
f 337 350 366
f 366 332 337
f 374 379 382
f 353 358 374
f 358 366 374
f 374 366 379
f 374 361 353
f 374 382 361
f 64 85 59
f 64 59 25
f 25 51 64
f 158 124 111
f 145 124 158
f 119 127 106
f 161 127 119
f 119 174 161
f 106 98 119
f 132 124 145
f 145 98 132
f 132 98 90
f 132 90 111
f 111 124 132
f 77 64 51
f 111 82 103
f 103 137 111
f 82 69 103
f 176 218 184
f 184 171 176
f 176 163 197
f 197 218 176
f 388 375 380
f 380 372 388
f 388 372 393
f 383 367 396
f 367 375 396
f 375 388 396
f 396 391 383
f 396 388 393
f 393 399 396
f 399 391 396
f 316 311 248
f 316 303 311
f 248 282 316
f 316 282 295
f 316 295 308
f 308 303 316
f 2 7 10
f 7 28 10
f 10 5 2
f 60 86 107
f 107 81 60
f 65 86 60
f 60 39 65
f 73 39 60
f 60 81 73
f 9 1 6
f 4 1 9
f 22 17 9
f 9 17 4
f 24 6 11
f 24 19 6
f 11 32 24
f 24 32 19
f 245 266 253
f 245 190 237
f 198 190 245
f 245 232 198
f 245 253 232
f 237 224 245
f 156 130 135
f 135 169 156
f 93 169 135
f 135 130 88
f 88 93 135
f 149 178 136
f 136 178 123
f 136 89 149
f 136 123 89
f 392 384 397
f 384 394 397
f 397 394 399
f 400 392 397
f 397 399 400
f 145 158 153
f 200 174 153
f 153 174 145
f 140 98 145
f 140 119 98
f 145 174 140
f 174 119 140
f 72 98 106
f 72 77 98
f 106 85 72
f 85 64 72
f 64 77 72
f 35 30 22
f 35 51 30
f 22 27 35
f 27 56 35
f 95 69 74
f 95 103 69
f 95 74 87
f 116 137 129
f 137 103 129
f 103 95 129
f 87 116 129
f 129 95 87
f 142 134 163
f 87 108 142
f 142 108 134
f 142 116 87
f 142 171 116
f 31 26 18
f 18 26 5
f 5 10 18
f 23 28 44
f 23 10 28
f 23 18 10
f 31 18 23
f 23 52 31
f 23 44 52
f 6 19 14
f 14 9 6
f 14 40 27
f 14 19 40
f 14 27 22
f 22 9 14
f 300 266 258
f 266 245 258
f 258 279 300
f 258 224 279
f 258 245 224
f 166 221 200
f 200 153 166
f 179 221 166
f 166 153 158
f 166 158 111
f 111 205 166
f 166 205 179
f 43 77 51
f 51 35 43
f 43 35 56
f 98 77 43
f 43 56 90
f 90 98 43
f 150 176 171
f 171 142 150
f 163 176 150
f 150 142 163

