# Generated by spherepar.benchmark
# Vertices: 400
# Faces:    796

v 0.22542604 0.14723211 1.18425598
v -0.05532451 -0.11361630 1.16262364
v 0.42223364 -0.16290921 1.17684646
v -0.07642628 0.18150747 1.17439805
v 0.08251982 -0.34622280 1.14090517
v 0.42430266 0.17008964 1.18951090
v -0.32805998 -0.01636766 1.14140392
v 0.52596718 -0.45827547 1.12590342
v 0.21223708 0.33110251 1.18063623
v -0.32485596 -0.37040212 1.08742070
v 0.59717433 -0.06619473 1.17831095
v -0.63868823 0.16425614 1.08803803
v 0.10747306 -0.50788949 1.10586508
v 0.79264332 0.32539286 1.14392645
v -0.47731567 -0.23775992 1.08686456
v 0.96708527 -0.30106285 1.10694813
v -0.00893827 0.48741459 1.14904257
v -0.30953306 -0.50980129 1.05332717
v 0.89360637 0.10029546 1.14576223
v -0.58216010 0.20012341 1.10010485
v 0.63511754 -0.71788031 1.04175846
v 0.42376040 0.62624914 1.11920892
v -0.83276914 -0.41084563 0.94871664
v 1.10186632 -0.40169784 1.05916702
v -0.32201482 0.47663680 1.11651329
v -0.22713684 -0.81152989 0.95091779
v 0.88722972 0.40417535 1.11412790
v -0.97719377 -0.34336118 0.91715649
v 0.69729518 -0.58580188 1.08062727
v 0.14545232 0.78967052 1.06688020
v -0.35374753 -0.75603231 0.95032498
v 1.12870556 0.15593218 1.09080630
v -1.06700405 0.09961156 0.95178270
v 0.41409629 -0.77935360 1.02661448
v 0.56862326 0.77913819 1.05139825
v -0.93227114 -0.58122852 0.84534077
v 1.29684670 -0.44987116 0.99040186
v -0.46219435 0.71017155 1.02619733
v -0.03242164 -0.97199556 0.90037194
v 1.23462204 0.22097018 1.05275407
v -1.09545761 -0.18324431 0.90849734
v 0.45863706 -0.91995327 0.96228029
v 0.06105056 0.78705518 1.06494930
v -0.91568935 -0.46208251 0.90163321
v 1.39488055 0.13622322 1.00293784
v -0.97191915 0.38835408 0.96515462
v 0.45140799 -0.99194341 0.92334901
v 0.76514858 0.60881324 1.08503283
v -1.06082694 -0.11497161 0.93541246
v 0.90842944 -0.72710287 1.00339623
v -0.19433295 0.89840934 0.98934433
v -0.62083147 -0.85917049 0.81771460
v 1.25739235 0.20693124 1.04681337
v -1.03062629 0.20340304 0.96451962
v 0.93702653 -0.93744223 0.89781496
v 0.48534596 0.99373100 0.94724262
v -1.16450087 -0.32527957 0.83750513
v 1.39319004 -0.46894095 0.94898094
v -0.47044063 0.87245643 0.95106036
v 0.18198810 -1.13475898 0.82161908
v 1.35618500 0.51750388 0.93838856
v -1.24237551 -0.02011442 0.86491895
v 1.03582231 -0.77246432 0.95759199
v 0.37958927 0.96118243 0.97705998
v -0.86165415 -0.95475324 0.63374486
v 1.42449140 0.29910247 0.96727548
v -1.19756299 0.25793390 0.88702330
v 0.68910764 -1.09739360 0.84067349
v 1.06871426 0.78136901 0.93703838
v -1.42623841 -0.39509835 0.64447659
v 1.33669570 -0.87326685 0.79916040
v -0.75209025 0.79137565 0.90932981
v -0.41722231 -1.17467230 0.65317043
v 1.35056802 0.62813821 0.89603540
v -1.33222574 -0.07332626 0.80922538
v 0.75522894 -1.05509841 0.86023316
v 0.01307843 1.08237978 0.89547019
v -1.00913309 -0.78881895 0.68258121
v 1.76612606 0.01392189 0.80737938
v -0.86489224 0.72683145 0.89844018
v -0.35784865 -1.22388941 0.62793761
v 1.09604797 0.90969410 0.84644795
v -1.39354806 -0.26098469 0.72398476
v 1.11546931 -0.96179894 0.83338445
v -0.03588108 1.09664226 0.88006310
v -0.61899193 -1.16274913 0.56860202
v 1.57986392 0.51683871 0.81562643
v -1.42381629 0.27984221 0.75312265
v 0.63896239 -1.30871883 0.66127434
v 0.70963211 1.07997507 0.84178385
v -1.61839513 -0.30670102 0.51410807
v 1.61096889 -0.40131097 0.86058938
v -0.55761762 0.96744170 0.86937986
v -0.73167474 -1.06153985 0.60943724
v 1.25931505 0.86663475 0.80000066
v -1.63515387 0.07584095 0.59286578
v 0.67095177 -1.21748106 0.74761625
v 0.36817915 1.12903809 0.85706773
v -0.80720275 -1.10560940 0.50691992
v 1.71277468 -0.28872298 0.82227560
v -1.39445745 0.56091728 0.66480084
v -0.06766555 -1.30898473 0.63097646
v 1.27976540 0.90559776 0.75656290
v -1.67857340 -0.01785589 0.54056127
v 1.55884096 -0.91426524 0.62375737
v -0.05203737 1.22657246 0.75638405
v -0.81798037 -1.17799398 0.39734356
v 1.61057687 0.43228936 0.82967795
v -1.63417100 0.24033711 0.57667767
v 0.88923890 -1.26243279 0.65134640
v 0.14643430 1.23980517 0.75487106
v -1.43345444 -0.72204121 0.37400259
v 1.86002803 -0.29675317 0.70243403
v -0.62032697 1.04167582 0.79069097
v -0.41195186 -1.31823960 0.49311272
v 1.68324040 0.54907285 0.71966358
v -1.65061981 -0.24584102 0.50810342
v 1.04450562 -1.23743088 0.61715974
v 0.07868977 1.28360402 0.69767334
v -0.91565874 -1.19484155 0.25666379
v 1.82509077 0.43978380 0.63993830
v -1.45786001 0.56579693 0.60625848
v 0.59309331 -1.39467559 0.55854743
v 0.57948367 1.18876266 0.76712630
v -1.70240395 -0.45119999 0.28968575
v 1.79819006 -0.67356117 0.58842271
v -0.84150963 1.11728611 0.58905918
v -0.11039761 -1.43432165 0.45054086
v 1.58803860 0.74038549 0.66654616
v -1.72077193 0.28115272 0.45507684
v 1.05011066 -1.30111144 0.52140100
v -0.07261398 1.34738228 0.57715694
v -1.60045606 -0.65734724 0.18610077
v 1.93282675 -0.30446474 0.62140491
v -0.81486938 1.14882818 0.56094789
v 0.60974283 -1.40666503 0.53645065
v 1.64627369 0.69543050 0.64851744
v -1.73391798 -0.15171577 0.44248052
v 1.77539846 -0.75688602 0.54290216
v -0.20167624 1.33798326 0.56233510
v -1.28760735 -0.95379608 0.12225610
v 1.79861719 0.49726684 0.63451491
v -1.54130366 0.54109763 0.53559056
v 1.15066722 -1.31100069 0.41109384
v 0.76307653 1.30592574 0.51202336
v -1.77777216 -0.37544994 0.20604472
v 1.97567725 -0.20305154 0.58969059
v -0.59814017 1.23288995 0.57197346
v -0.33377079 -1.43159129 0.34044592
v 1.64329778 0.80980280 0.51790047
v -1.74935347 -0.28534382 0.35225122
v 1.58791277 -1.03041571 0.43083057
v 0.51023401 1.29684944 0.63974070
v -1.49242366 -0.79090717 0.09192148
v 1.97708997 -0.41231251 0.51047609
v -1.35854555 0.80259294 0.48790308
v 0.57889526 -1.45298515 0.45985929
v 1.33554632 1.01938042 0.58378842
v -1.59032654 -0.67778035 0.16076919
v 1.96447960 -0.56104903 0.40371950
v -0.83909530 1.16378957 0.51371424
v -1.05671970 -1.12534002 0.16933175
v 1.74882948 0.72381078 0.46523851
v -1.77927219 0.29249063 0.34196257
v 0.56119062 -1.50683639 0.31329097
v 0.78034729 1.32068233 0.45350668
v -1.23739507 -0.99318497 -0.07324218
v 2.03354203 -0.29775681 0.45582512
v -1.40560989 0.76325116 0.47754869
v 0.46159111 -1.50880781 0.34828423
v 1.77513827 0.69618624 0.45626309
v -1.85139999 -0.24440431 0.05569519
v 1.24077409 -1.29928656 0.26988301
v -0.04156291 1.41689943 0.36862732
v -1.18060873 -1.04997893 -0.08048179
v 2.02774134 0.23141835 0.42071301
v -1.58599657 0.61110536 0.40283231
v 0.88289360 -1.43764252 0.30535233
v 1.18393908 1.19011400 0.33337943
v -1.62895507 -0.65489501 0.08656569
v 2.06934351 -0.30379482 0.30090039
v -0.85029971 1.19506538 0.43108436
v -0.16564911 -1.51595153 0.17923230
v 1.99510898 0.29602343 0.45828511
v -1.87226588 -0.04091808 0.16027853
v 0.91798609 -1.43360157 0.17327948
v 0.53171307 1.39415804 0.35649315
v -1.50980350 -0.78148134 -0.00643424
v 2.08635581 -0.03723026 0.34328765
v -1.22573923 0.99579354 0.33587672
v 0.34720994 -1.54440094 0.16921756
v 1.04981150 1.23211118 0.43763738
v -1.80192385 -0.36671330 -0.07129735
v 1.73729595 -0.93125467 0.27906553
v -0.31977209 1.37640898 0.38848533
v -1.25217943 -0.97388210 -0.11735083
v 2.03040640 0.29249676 0.30465766
v -1.52113941 0.76415940 0.21334839
v 0.53807777 -1.52417947 0.15779407
v 0.84244566 1.32154655 0.36116603
v -1.29408890 -0.89140746 -0.17287269
v 2.08368817 -0.22410537 0.27108262
v -1.45829078 0.80570345 0.30269570
v -0.75778517 -1.32429626 -0.10466252
v 1.27695913 1.13556561 0.37642519
v -1.82911334 0.26124120 0.00184209
v 1.57176580 -1.08662435 0.23720173
v 0.26316312 1.42191469 0.18939015
v -0.79951015 -1.30945253 -0.08355228
v 1.96285998 0.45000409 0.22018341
v -1.33708556 0.93144572 0.22365481
v 0.95369503 -1.40320686 0.06633707
v 1.41311923 1.05357702 0.20186553
v -1.84468613 -0.07755384 -0.12154983
v 1.71113468 -0.95828585 0.20847609
v -0.19076424 1.40622025 0.18290070
v -0.42384664 -1.44714281 -0.06792641
v 1.58846814 0.92659640 0.25888435
v -1.66058161 0.60636238 0.12947063
v 0.72622829 -1.48803090 0.17914047
v 0.10978515 1.42451272 0.17952730
v -1.39369033 -0.82869241 -0.28339237
v 2.07167842 -0.17522192 0.13564277
v -1.14574372 1.07065364 0.18522300
v 0.12325987 -1.54179991 0.05204668
v 1.47812195 1.00438586 0.18327623
v -1.80335134 -0.21535263 -0.18950067
v 1.74827061 -0.86427283 0.04783432
v -0.18428817 1.40268201 0.15001271
v -0.84777249 -1.24723267 -0.21676822
v 1.98561646 0.36394908 0.14001464
v -1.71405926 0.52923536 0.11517039
v 0.71867513 -1.46747229 0.04169915
v 1.16302013 1.16172971 0.06925070
v -1.60368618 -0.58282633 -0.29057940
v 2.00138092 -0.47734723 0.11984873
v -0.90978788 1.20044676 0.16677568
v -0.30455384 -1.47936143 -0.04617391
v 1.66902598 0.82003400 0.11848363
v -1.83354848 -0.18721601 -0.12666233
v 1.14337419 -1.28383332 -0.03559256
v 0.43461207 1.37204872 0.04421665
v -0.82945641 -1.22151048 -0.28771529
v 2.04778127 0.04549432 0.07611761
v -1.37221553 0.85053507 -0.05733581
v 0.60887545 -1.45039358 -0.06574470
v 1.06345328 1.19521315 0.03750561
v -1.76639525 -0.04170358 -0.26859141
v 1.81197931 -0.71803460 -0.02880412
v -0.09706049 1.41065392 0.14504931
v -0.99279867 -1.16026585 -0.23103990
v 1.96854643 0.37326379 0.09982796
v -1.65785064 0.52468540 -0.10115947
v 0.75653074 -1.44917080 0.01558633
v 1.06801178 1.14545987 -0.05512333
v -1.29613392 -0.90671332 -0.30026761
v 2.04797807 -0.20770281 0.07274891
v -1.30704384 0.93600624 0.03299345
v -0.30510428 -1.45100970 -0.14045533
v 1.17487295 1.15504128 0.06732114
v -1.78174103 0.16366965 -0.19296077
v 1.40786001 -1.08500766 -0.09619362
v -0.16753884 1.38060244 0.04645752
v -0.77817161 -1.23655996 -0.30070071
v 2.02173612 -0.07177243 0.00357041
v -1.61846921 0.58081480 -0.09614649
v 0.53848680 -1.40078682 -0.17226467
v 0.77151374 1.29960238 0.03672704
v -1.70708659 -0.18305048 -0.34225200
v 1.59632988 -0.93348658 -0.08254099
v -1.15010725 1.02830643 -0.01298949
v 0.02351723 -1.41451887 -0.24828919
v 1.84644839 0.44141499 -0.06087799
v -1.74875641 0.18491818 -0.23479585
v 0.86076682 -1.30576802 -0.18543173
v 0.67919457 1.26259699 -0.08844806
v -1.46451258 -0.65677929 -0.39931645
v 1.89833479 0.24378550 -0.10165019
v -1.38225637 0.66144213 -0.28996312
v 0.37035068 -1.39891559 -0.21340311
v 1.03148983 1.12234248 -0.11480240
v -1.70681166 -0.24189581 -0.33347325
v 1.47231633 -0.98798154 -0.14756951
v -0.73131353 1.16954214 -0.13262603
v -1.14181895 -0.92962164 -0.43634100
v 1.89249447 0.30343768 -0.08258743
v -1.70903991 0.27058767 -0.24637526
v 0.49393255 -1.39741887 -0.18809899
v 1.06300341 1.04971076 -0.18579503
v -1.57423260 -0.27635120 -0.45896075
v 1.83598138 -0.13467140 -0.22462660
v -0.56590129 1.21904857 -0.13953766
v -0.63739823 -1.21021418 -0.40308548
v 1.13461741 0.94709474 -0.24922591
v -1.58713080 -0.20623596 -0.45643193
v 1.44266897 -0.83536464 -0.28835630
v 0.35677651 1.30638884 -0.11517497
v -1.15789348 -0.70360656 -0.57999107
v 1.78596682 0.25378083 -0.21490123
v -1.44150269 0.50116478 -0.36694244
v 0.27919081 -1.34349088 -0.27617497
v 1.31277576 0.93376857 -0.15133791
v -1.63423294 -0.03274398 -0.41349874
v 1.78849273 -0.34902730 -0.23857279
v -0.67894484 1.06287988 -0.30060736
v -0.19880274 -1.20935505 -0.46745332
v 1.76701578 0.24014229 -0.23561655
v -1.50570619 0.50157025 -0.31410300
v 0.64120675 -1.24857616 -0.31805572
v 0.82702645 1.14775465 -0.18796311
v -1.34212768 -0.45621755 -0.57727076
v 1.64639971 -0.45614165 -0.32023796
v -0.61936171 1.06294442 -0.32148409
v -0.40444302 -1.17950235 -0.47999167
v 1.13528952 0.95454137 -0.24214552
v -1.47656343 -0.13009978 -0.53654871
v 1.28552832 -0.83293408 -0.37733452
v -0.21628757 1.15505465 -0.31599821
v -0.91440422 -0.78149872 -0.63237062
v 1.80305908 -0.01827821 -0.25141619
v -1.19325231 0.56872790 -0.47596975
v 0.87533542 -1.12660212 -0.35652424
v 1.01892985 0.86455754 -0.36635609
v -1.23853893 -0.39378268 -0.63919881
v 1.69492843 -0.26563571 -0.32522471
v -0.50332789 1.01174463 -0.40153101
v -0.37647757 -1.00634404 -0.60256414
v 1.27779452 0.56220534 -0.42155246
v -1.43439208 0.15350049 -0.52188175
v 0.77595490 -1.04456854 -0.44371609
v 0.04778110 1.15658157 -0.32973704
v -0.74050519 -0.84040636 -0.64518566
v 1.68584677 -0.25675826 -0.33263671
v -0.61811041 0.86996564 -0.48605802
v 0.27998888 -1.06442896 -0.52649026
v 1.16327961 0.85418787 -0.30977196
v -1.37459537 0.17671313 -0.54926867
v 1.08328862 -0.92261929 -0.41711056
v -0.40702437 0.91985924 -0.49049805
v -0.30300334 -0.90778712 -0.65677533
v 1.44325386 0.16867726 -0.45884401
v -1.09650023 0.33006264 -0.62190225
v 0.55851343 -1.04928943 -0.48961600
v 0.42024838 1.05481596 -0.38946391
v -0.84360149 -0.47954651 -0.73964215
v 1.52580397 -0.38277442 -0.41138669
v -0.86940499 0.78452144 -0.47426427
v 0.25523708 -0.98903077 -0.57603909
v 1.29356374 0.58513368 -0.40398500
v -1.15296391 0.17121251 -0.64651997
v 1.28111006 -0.56868517 -0.48492866
v 0.32177454 0.86982049 -0.53040591
v -0.53197120 -0.75528875 -0.70799335
v 1.42914798 -0.10560166 -0.48709289
v -0.98209471 0.37926802 -0.64162378
v 0.45207328 -0.86367224 -0.61018545
v 0.89295390 0.62867752 -0.53609385
v -1.13838516 -0.15914788 -0.69203126
v 1.20705859 -0.58738019 -0.50967692
v -0.53409807 0.81326692 -0.54002631
v -0.31226105 -0.82349402 -0.69407337
v 1.03229370 0.57796629 -0.51285615
v -1.07543457 0.06198576 -0.69295627
v 0.65205149 -0.83658764 -0.58403566
v 0.52782624 0.72195351 -0.57819956
v -0.71665693 -0.35689312 -0.77702188
v 1.09030984 0.08074348 -0.61178778
v -0.64670328 0.38920071 -0.71294573
v 0.18189569 -0.75502828 -0.69297213
v 0.58606972 0.71078433 -0.57279439
v -0.98458720 -0.00475405 -0.72679934
v 1.01341496 -0.51751947 -0.59559797
v 0.03461839 0.76430620 -0.60699634
v -0.19636167 -0.57434063 -0.77323010
v 1.14268296 0.20269098 -0.57843432
v -0.90610966 0.21819577 -0.70832320
v 0.58763403 -0.75970565 -0.62816617
v 0.39334691 0.78559627 -0.56797271
v -0.48210387 -0.31537309 -0.80446510
v 1.00184218 -0.12504064 -0.64695973
v -0.20378235 0.49406979 -0.71811705
v -0.21914241 -0.67203923 -0.74801236
v 0.66557103 0.33926358 -0.68185587
v -0.74695012 0.04109353 -0.76976597
v 0.44841899 -0.56092719 -0.71358096
v -0.00388376 0.67103736 -0.65138053
v -0.22353311 -0.37054511 -0.80704985
v 0.94934392 -0.00665876 -0.66027459
v -0.56647835 0.34875416 -0.73596584
v 0.09648228 -0.36958727 -0.79226045
v 0.62664809 0.34324201 -0.68864966
v -0.31443865 0.02655244 -0.81022022
v 0.61820097 -0.20068245 -0.73609636
v 0.08021640 0.40253596 -0.74103829
v -0.12745885 -0.36897719 -0.80567926
v 0.38777496 0.07741028 -0.76800346
v -0.25290358 0.05924646 -0.80869913
v 0.27830716 -0.13323503 -0.78972821
v 0.23762250 0.20461484 -0.77030875
v -0.08652722 -0.08431503 -0.81680213

f 344 323 370
f 331 318 297
f 297 344 331
f 373 339 331
f 331 339 318
f 384 389 392
f 148 127 114
f 80 72 114
f 114 127 80
f 78 112 65
f 112 78 70
f 158 124 90
f 297 318 263
f 263 242 297
f 344 370 352
f 373 331 352
f 352 331 344
f 391 370 383
f 316 329 337
f 337 358 316
f 363 358 337
f 359 351 317
f 372 351 359
f 359 364 372
f 385 390 398
f 369 390 385
f 398 390 400
f 374 390 369
f 209 183 149
f 217 183 209
f 272 246 225
f 143 177 130
f 222 188 235
f 174 140 132
f 195 140 174
f 148 140 195
f 20 7 4
f 133 112 125
f 125 112 91
f 112 70 91
f 333 291 325
f 249 312 304
f 291 265 304
f 304 325 291
f 312 325 304
f 160 139 194
f 194 139 152
f 152 139 105
f 118 152 105
f 32 19 16
f 32 24 45
f 16 24 32
f 16 19 11
f 11 8 16
f 19 6 11
f 16 8 29
f 29 24 16
f 189 181 202
f 202 223 189
f 153 132 119
f 82 69 95
f 90 69 82
f 310 344 297
f 310 323 344
f 305 334 347
f 360 339 373
f 360 334 339
f 347 334 360
f 394 381 386
f 386 360 373
f 381 360 386
f 397 381 394
f 397 400 392
f 397 392 389
f 389 381 397
f 232 177 219
f 148 195 182
f 182 195 237
f 237 224 182
f 221 208 242
f 242 263 221
f 174 208 221
f 373 352 378
f 378 352 370
f 378 386 373
f 394 391 399
f 398 400 399
f 399 397 394
f 400 397 399
f 329 316 303
f 303 287 329
f 358 363 371
f 376 389 384
f 384 371 376
f 376 371 363
f 342 355 376
f 337 342 350
f 350 363 337
f 342 376 350
f 350 376 363
f 301 309 288
f 306 335 301
f 301 272 306
f 372 364 377
f 377 385 372
f 364 356 377
f 369 385 377
f 377 356 369
f 320 291 333
f 320 265 291
f 349 273 299
f 349 323 336
f 346 312 351
f 333 325 346
f 346 325 312
f 372 385 393
f 393 380 372
f 393 385 398
f 383 367 388
f 367 380 388
f 380 393 388
f 293 285 319
f 319 332 293
f 319 285 298
f 382 374 369
f 353 374 382
f 392 400 387
f 225 183 238
f 238 183 217
f 293 272 259
f 259 238 217
f 259 272 225
f 225 238 259
f 248 214 261
f 232 219 266
f 266 219 245
f 337 329 300
f 49 15 12
f 12 7 20
f 15 7 12
f 46 12 20
f 54 12 46
f 143 130 109
f 164 177 232
f 164 130 177
f 146 133 125
f 277 222 235
f 298 285 277
f 285 256 277
f 277 256 222
f 277 311 298
f 188 222 201
f 201 141 188
f 222 256 201
f 302 349 336
f 273 349 302
f 237 195 216
f 216 195 174
f 174 221 216
f 101 88 80
f 80 127 101
f 127 156 101
f 169 177 143
f 169 101 156
f 93 114 72
f 38 72 80
f 80 46 38
f 90 124 98
f 95 69 74
f 74 69 61
f 74 129 95
f 95 129 103
f 103 129 158
f 103 82 95
f 103 158 90
f 90 82 103
f 66 108 61
f 116 108 121
f 235 188 180
f 180 193 235
f 180 146 193
f 133 146 180
f 188 141 154
f 154 180 188
f 154 141 112
f 185 146 151
f 125 91 151
f 151 146 125
f 88 75 67
f 54 46 67
f 80 88 67
f 67 46 80
f 83 91 70
f 70 57 83
f 83 57 75
f 120 209 149
f 278 320 299
f 265 320 278
f 249 304 236
f 236 223 202
f 202 181 236
f 181 160 236
f 236 160 194
f 317 351 296
f 351 312 296
f 296 312 249
f 249 236 228
f 194 152 207
f 199 233 220
f 225 246 199
f 246 233 199
f 149 183 128
f 102 115 128
f 128 115 149
f 144 152 131
f 152 118 131
f 178 144 131
f 136 131 110
f 110 131 118
f 110 118 84
f 61 69 48
f 48 69 35
f 35 22 48
f 9 4 1
f 1 6 9
f 1 4 2
f 2 4 7
f 2 7 15
f 3 5 8
f 8 11 3
f 1 2 3
f 3 2 5
f 3 6 1
f 3 11 6
f 89 110 97
f 50 63 24
f 24 29 50
f 126 160 155
f 139 160 126
f 105 139 126
f 84 118 71
f 71 118 105
f 71 63 84
f 105 126 71
f 45 24 37
f 24 63 37
f 147 189 176
f 176 189 197
f 192 158 205
f 174 132 187
f 132 153 187
f 187 208 174
f 242 208 187
f 187 268 242
f 276 310 297
f 297 242 276
f 242 268 276
f 292 305 284
f 292 263 318
f 284 237 292
f 237 263 292
f 318 339 326
f 339 334 326
f 368 381 389
f 368 360 381
f 389 376 368
f 368 376 355
f 368 355 347
f 347 360 368
f 198 219 177
f 245 219 198
f 271 237 284
f 271 224 237
f 284 305 271
f 148 182 161
f 161 156 127
f 365 378 370
f 370 391 365
f 365 391 394
f 394 386 365
f 386 378 365
f 274 303 248
f 287 303 274
f 248 261 274
f 274 261 287
f 316 311 290
f 290 277 235
f 311 277 290
f 338 359 317
f 364 359 338
f 283 322 338
f 317 296 338
f 338 296 283
f 343 309 301
f 301 335 343
f 343 356 364
f 309 322 275
f 246 272 280
f 280 288 246
f 280 272 301
f 301 288 280
f 369 356 348
f 348 343 335
f 356 343 348
f 327 332 353
f 299 320 307
f 307 320 341
f 307 349 299
f 341 349 307
f 357 370 323
f 383 370 357
f 375 341 367
f 375 367 383
f 354 380 367
f 367 341 354
f 354 346 351
f 333 346 354
f 354 351 372
f 372 380 354
f 354 320 333
f 341 320 354
f 396 399 391
f 396 388 393
f 398 399 396
f 396 393 398
f 396 391 383
f 383 388 396
f 324 316 358
f 324 311 316
f 298 311 324
f 324 319 298
f 390 374 395
f 374 387 395
f 395 400 390
f 395 387 400
f 384 392 379
f 392 387 379
f 379 387 374
f 264 285 293
f 264 243 285
f 293 259 264
f 264 259 217
f 251 256 285
f 285 243 251
f 251 209 175
f 206 214 185
f 206 261 214
f 185 164 206
f 206 164 232
f 287 261 206
f 329 287 308
f 308 300 329
f 321 342 337
f 337 300 321
f 347 355 321
f 321 355 342
f 104 83 75
f 172 146 185
f 193 146 172
f 172 240 193
f 185 214 172
f 214 240 172
f 227 214 248
f 227 240 214
f 235 193 227
f 193 240 227
f 141 201 167
f 218 213 205
f 260 234 213
f 234 260 247
f 229 263 237
f 237 216 229
f 122 169 143
f 101 169 122
f 143 109 122
f 122 109 88
f 88 101 122
f 203 169 156
f 211 198 203
f 177 169 203
f 203 198 177
f 85 93 51
f 114 93 85
f 51 93 59
f 59 38 51
f 59 93 72
f 72 38 59
f 90 98 56
f 35 69 56
f 56 69 90
f 111 98 124
f 111 153 119
f 124 153 111
f 61 108 87
f 87 74 61
f 108 116 87
f 129 74 87
f 87 116 129
f 40 66 61
f 129 116 137
f 133 180 159
f 180 154 159
f 112 133 159
f 159 154 112
f 75 57 41
f 44 23 28
f 28 57 44
f 28 41 57
f 49 41 28
f 28 15 49
f 28 23 15
f 44 57 36
f 36 70 78
f 36 57 70
f 36 23 44
f 36 31 23
f 62 67 75
f 62 41 49
f 75 41 62
f 81 115 102
f 86 73 94
f 115 81 86
f 86 81 73
f 162 167 175
f 141 167 162
f 175 209 162
f 209 120 162
f 273 252 286
f 299 273 286
f 286 278 299
f 265 278 244
f 223 265 244
f 244 286 252
f 278 286 244
f 244 189 223
f 244 197 189
f 257 304 265
f 257 236 304
f 257 265 223
f 223 236 257
f 270 296 249
f 283 296 270
f 249 228 270
f 194 207 215
f 215 207 228
f 215 236 194
f 215 228 236
f 191 183 225
f 225 199 191
f 102 128 123
f 123 89 102
f 123 110 89
f 136 110 123
f 32 40 27
f 61 48 27
f 27 40 61
f 51 38 43
f 20 4 25
f 25 43 38
f 25 46 20
f 25 38 46
f 10 2 15
f 5 2 10
f 15 23 10
f 63 50 55
f 84 63 55
f 84 55 76
f 68 97 76
f 76 110 84
f 76 97 110
f 92 100 45
f 92 71 126
f 92 113 100
f 126 113 92
f 184 147 176
f 176 197 184
f 184 197 210
f 181 189 168
f 189 147 168
f 168 147 155
f 155 160 168
f 168 160 181
f 231 252 210
f 210 197 231
f 231 244 252
f 197 244 231
f 192 166 145
f 145 153 124
f 145 187 153
f 166 187 145
f 124 158 145
f 158 192 145
f 200 166 192
f 200 187 166
f 268 187 200
f 200 247 268
f 234 247 200
f 334 305 313
f 313 326 334
f 318 326 313
f 313 292 318
f 305 292 313
f 211 224 258
f 224 271 258
f 258 271 245
f 258 198 211
f 245 198 258
f 135 127 148
f 148 161 135
f 135 161 127
f 156 161 190
f 190 161 182
f 211 203 190
f 190 203 156
f 190 224 211
f 190 182 224
f 295 303 316
f 316 290 295
f 330 322 309
f 309 343 330
f 330 338 322
f 364 338 330
f 330 343 364
f 262 322 283
f 262 275 322
f 283 270 262
f 228 207 262
f 262 270 228
f 254 233 246
f 246 275 254
f 267 288 309
f 309 275 267
f 246 288 267
f 267 275 246
f 293 332 314
f 332 327 314
f 314 327 306
f 314 272 293
f 314 306 272
f 369 348 340
f 340 327 353
f 340 348 335
f 335 306 340
f 306 327 340
f 323 349 362
f 362 357 323
f 383 357 362
f 362 375 383
f 328 349 341
f 341 375 328
f 328 362 349
f 375 362 328
f 366 371 384
f 384 379 366
f 358 371 366
f 366 374 353
f 366 379 374
f 217 209 204
f 204 264 217
f 232 266 253
f 253 206 232
f 287 206 253
f 253 308 287
f 266 308 253
f 279 321 300
f 300 308 279
f 347 321 279
f 279 266 245
f 279 308 266
f 279 305 347
f 245 271 279
f 279 271 305
f 185 151 138
f 138 164 185
f 130 164 138
f 138 104 130
f 96 75 88
f 96 104 75
f 88 109 96
f 96 109 130
f 130 104 96
f 175 167 196
f 196 167 201
f 196 201 256
f 196 251 175
f 256 251 196
f 205 158 150
f 150 218 205
f 163 218 150
f 158 129 150
f 129 137 150
f 150 137 163
f 210 218 171
f 171 218 163
f 171 184 210
f 163 137 171
f 239 218 210
f 210 252 239
f 239 252 273
f 273 302 239
f 323 310 294
f 336 323 294
f 294 302 336
f 294 315 302
f 255 260 302
f 255 247 260
f 255 276 268
f 268 247 255
f 250 216 221
f 250 229 216
f 250 221 263
f 263 229 250
f 114 85 106
f 106 111 119
f 85 111 106
f 119 132 106
f 106 132 140
f 106 140 148
f 148 114 106
f 64 56 98
f 35 56 64
f 45 66 53
f 66 40 53
f 53 32 45
f 53 40 32
f 142 116 121
f 142 137 116
f 142 171 137
f 121 184 142
f 184 171 142
f 52 36 78
f 31 36 52
f 52 78 65
f 65 94 52
f 94 73 52
f 54 67 33
f 67 62 33
f 33 62 49
f 49 12 33
f 33 12 54
f 115 86 107
f 149 115 107
f 107 120 149
f 107 162 120
f 141 162 107
f 170 128 183
f 183 191 170
f 19 32 14
f 32 27 14
f 14 6 19
f 22 9 14
f 14 9 6
f 14 48 22
f 14 27 48
f 30 22 35
f 35 64 30
f 30 64 43
f 4 9 17
f 17 25 4
f 43 25 17
f 17 9 22
f 22 30 17
f 17 30 43
f 8 5 13
f 13 34 8
f 23 31 18
f 18 10 23
f 5 10 18
f 18 13 5
f 134 126 155
f 134 113 126
f 155 147 134
f 147 113 134
f 100 113 79
f 45 100 79
f 121 108 79
f 79 66 45
f 108 66 79
f 79 113 147
f 79 184 121
f 147 184 79
f 45 37 58
f 58 92 45
f 71 92 58
f 63 71 58
f 58 37 63
f 234 200 179
f 205 213 179
f 213 234 179
f 179 192 205
f 179 200 192
f 282 290 235
f 235 227 282
f 275 262 241
f 241 254 275
f 241 262 207
f 361 382 369
f 369 340 361
f 353 382 361
f 361 340 353
f 345 324 358
f 358 366 345
f 319 324 345
f 345 366 353
f 353 332 345
f 332 319 345
f 243 264 230
f 264 204 230
f 230 251 243
f 209 251 230
f 230 204 209
f 104 138 117
f 91 83 117
f 83 104 117
f 117 151 91
f 117 138 151
f 213 218 226
f 218 239 226
f 226 260 213
f 302 260 226
f 226 239 302
f 302 315 289
f 289 294 310
f 315 294 289
f 77 64 98
f 98 111 77
f 77 111 85
f 77 85 51
f 51 43 77
f 43 64 77
f 21 29 8
f 8 34 21
f 21 50 29
f 39 52 73
f 99 86 94
f 99 107 86
f 99 94 65
f 65 112 99
f 112 141 99
f 141 107 99
f 136 123 157
f 157 123 128
f 128 170 157
f 178 131 157
f 157 131 136
f 269 295 290
f 290 282 269
f 303 295 269
f 248 303 269
f 269 227 248
f 269 282 227
f 173 241 207
f 173 152 144
f 173 207 152
f 173 144 178
f 281 255 302
f 302 289 281
f 281 289 310
f 310 276 281
f 276 255 281
f 68 76 47
f 34 13 26
f 26 39 34
f 26 18 31
f 13 18 26
f 31 52 26
f 52 39 26
f 73 81 60
f 60 39 73
f 60 81 102
f 60 47 39
f 102 89 60
f 89 97 60
f 60 97 68
f 68 47 60
f 178 157 165
f 165 157 170
f 165 220 178
f 165 199 220
f 165 191 199
f 165 170 191
f 254 241 212
f 241 173 212
f 233 254 212
f 34 39 42
f 39 47 42
f 42 21 34
f 42 55 50
f 50 21 42
f 42 76 55
f 42 47 76
f 186 173 178
f 186 212 173
f 178 220 186
f 220 233 186
f 233 212 186
